<?xml version="1.0" encoding="utf-8" standalone="no"?>
<!DOCTYPE svg PUBLIC "-//W3C//DTD SVG 1.1//EN"
  "http://www.w3.org/Graphics/SVG/1.1/DTD/svg11.dtd">
<svg xmlns:xlink="http://www.w3.org/1999/xlink" width="486.671561pt" height="495.838125pt" viewBox="0 0 486.671561 495.838125" xmlns="http://www.w3.org/2000/svg" version="1.1">
 <metadata>
  <rdf:RDF xmlns:dc="http://purl.org/dc/elements/1.1/" xmlns:cc="http://creativecommons.org/ns#" xmlns:rdf="http://www.w3.org/1999/02/22-rdf-syntax-ns#">
   <cc:Work>
    <dc:type rdf:resource="http://purl.org/dc/dcmitype/StillImage"/>
    <dc:date>2026-06-26T14:39:25.985329</dc:date>
    <dc:format>image/svg+xml</dc:format>
    <dc:creator>
     <cc:Agent>
      <dc:title>Matplotlib v3.10.9, https://matplotlib.org/</dc:title>
     </cc:Agent>
    </dc:creator>
   </cc:Work>
  </rdf:RDF>
 </metadata>
 <defs>
  <style type="text/css">*{stroke-linejoin: round; stroke-linecap: butt}</style>
 </defs>
 <g id="figure_1">
  <g id="patch_1">
   <path d="M 0 495.838125 
L 486.671561 495.838125 
L 486.671561 0 
L 0 0 
z
" style="fill: #ffffff"/>
  </g>
  <g id="patch_2">
   <path d="M 13.151561 488.638125 
L 479.471561 488.638125 
L 479.471561 22.318125 
L 13.151561 22.318125 
z
" style="fill: #ffffff"/>
  </g>
  <g id="pane3d_1">
   <g id="patch_3">
    <path d="M 460.166924 344.501646 
L 252.613183 241.287349 
L 252.613183 55.429959 
L 469.644264 149.498614 
" style="fill: #f2f2f2; opacity: 0.5; stroke: #f2f2f2; stroke-linejoin: miter"/>
   </g>
  </g>
  <g id="pane3d_2">
   <g id="patch_4">
    <path d="M 45.059441 344.501646 
L 252.613183 241.287349 
L 252.613183 55.429959 
L 35.582101 149.498614 
" style="fill: #e6e6e6; opacity: 0.5; stroke: #e6e6e6; stroke-linejoin: miter"/>
   </g>
  </g>
  <g id="pane3d_3">
   <g id="patch_5">
    <path d="M 252.613183 463.566622 
L 460.166924 344.501646 
L 252.613183 241.287349 
L 45.059441 344.501646 
" style="fill: #ececec; opacity: 0.5; stroke: #ececec; stroke-linejoin: miter"/>
   </g>
  </g>
  <g id="grid3d_1">
   <g id="Line3DCollection_1">
    <path d="M 266.766169 455.44764 
L 59.145343 337.496875 
L 50.352916 143.096441 
" style="fill: none; stroke: #b0b0b0; stroke-width: 0.8"/>
    <path d="M 306.867237 432.44332 
L 99.109454 317.623142 
L 92.227098 124.946745 
" style="fill: none; stroke: #b0b0b0; stroke-width: 0.8"/>
    <path d="M 345.873075 410.067289 
L 138.057588 298.254644 
L 132.98965 107.278868 
" style="fill: none; stroke: #b0b0b0; stroke-width: 0.8"/>
    <path d="M 383.827946 388.294153 
L 176.028001 279.372356 
L 172.684256 90.073875 
" style="fill: none; stroke: #b0b0b0; stroke-width: 0.8"/>
    <path d="M 420.773762 367.09987 
L 213.057052 260.958198 
L 211.352344 73.31381 
" style="fill: none; stroke: #b0b0b0; stroke-width: 0.8"/>
    <path d="M 456.750235 346.461659 
L 249.179319 242.994973 
L 249.033223 56.981635 
" style="fill: none; stroke: #b0b0b0; stroke-width: 0.8"/>
   </g>
  </g>
  <g id="grid3d_2">
   <g id="Line3DCollection_2">
    <path d="M 454.87345 143.096441 
L 446.081023 337.496875 
L 238.460196 455.44764 
" style="fill: none; stroke: #b0b0b0; stroke-width: 0.8"/>
    <path d="M 412.999267 124.946745 
L 406.116911 317.623142 
L 198.359128 432.44332 
" style="fill: none; stroke: #b0b0b0; stroke-width: 0.8"/>
    <path d="M 372.236715 107.278868 
L 367.168777 298.254644 
L 159.353291 410.067289 
" style="fill: none; stroke: #b0b0b0; stroke-width: 0.8"/>
    <path d="M 332.542109 90.073875 
L 329.198365 279.372356 
L 121.398419 388.294153 
" style="fill: none; stroke: #b0b0b0; stroke-width: 0.8"/>
    <path d="M 293.874022 73.31381 
L 292.169314 260.958198 
L 84.452603 367.09987 
" style="fill: none; stroke: #b0b0b0; stroke-width: 0.8"/>
    <path d="M 256.193143 56.981635 
L 256.047046 242.994973 
L 48.47613 346.461659 
" style="fill: none; stroke: #b0b0b0; stroke-width: 0.8"/>
   </g>
  </g>
  <g id="grid3d_3">
   <g id="Line3DCollection_3">
    <path d="M 44.87892 340.787301 
L 252.613183 237.736652 
L 460.347445 340.787301 
" style="fill: none; stroke: #b0b0b0; stroke-width: 0.8"/>
    <path d="M 43.104621 304.279834 
L 252.613183 202.859514 
L 462.121744 304.279834 
" style="fill: none; stroke: #b0b0b0; stroke-width: 0.8"/>
    <path d="M 41.299752 267.14336 
L 252.613183 167.422132 
L 463.926613 267.14336 
" style="fill: none; stroke: #b0b0b0; stroke-width: 0.8"/>
    <path d="M 39.463515 229.36148 
L 252.613183 131.410899 
L 465.76285 229.36148 
" style="fill: none; stroke: #b0b0b0; stroke-width: 0.8"/>
    <path d="M 37.595087 190.917224 
L 252.613183 94.811762 
L 467.631279 190.917224 
" style="fill: none; stroke: #b0b0b0; stroke-width: 0.8"/>
    <path d="M 35.693611 151.793017 
L 252.613183 57.610205 
L 469.532754 151.793017 
" style="fill: none; stroke: #b0b0b0; stroke-width: 0.8"/>
   </g>
  </g>
  <g id="axis3d_1">
   <g id="line2d_1">
    <path d="M 460.166924 344.501646 
L 252.613183 463.566622 
" style="fill: none; stroke: #000000; stroke-width: 0.8; stroke-linecap: square"/>
   </g>
   <g id="xtick_1">
    <g id="line2d_2">
     <path d="M 264.979377 454.432552 
L 270.346315 457.481545 
" style="fill: none; stroke: #000000; stroke-width: 0.8; stroke-linecap: square"/>
    </g>
    <g id="text_1">
     <!-- 0.0 -->
     <g transform="translate(269.379986 478.295185) scale(0.1 -0.1)">
      <defs>
       <path id="DejaVuSans-30" d="M 2034 4250 
Q 1547 4250 1301 3770 
Q 1056 3291 1056 2328 
Q 1056 1369 1301 889 
Q 1547 409 2034 409 
Q 2525 409 2770 889 
Q 3016 1369 3016 2328 
Q 3016 3291 2770 3770 
Q 2525 4250 2034 4250 
z
M 2034 4750 
Q 2819 4750 3233 4129 
Q 3647 3509 3647 2328 
Q 3647 1150 3233 529 
Q 2819 -91 2034 -91 
Q 1250 -91 836 529 
Q 422 1150 422 2328 
Q 422 3509 836 4129 
Q 1250 4750 2034 4750 
z
" transform="scale(0.015625)"/>
       <path id="DejaVuSans-2e" d="M 684 794 
L 1344 794 
L 1344 0 
L 684 0 
L 684 794 
z
" transform="scale(0.015625)"/>
      </defs>
      <use xlink:href="#DejaVuSans-30"/>
      <use xlink:href="#DejaVuSans-2e" transform="translate(63.623047 0)"/>
      <use xlink:href="#DejaVuSans-30" transform="translate(95.410156 0)"/>
     </g>
    </g>
   </g>
   <g id="xtick_2">
    <g id="line2d_3">
     <path d="M 305.081009 431.456137 
L 310.446163 434.421262 
" style="fill: none; stroke: #000000; stroke-width: 0.8; stroke-linecap: square"/>
    </g>
    <g id="text_2">
     <!-- 0.2 -->
     <g transform="translate(309.390113 455.047589) scale(0.1 -0.1)">
      <defs>
       <path id="DejaVuSans-32" d="M 1228 531 
L 3431 531 
L 3431 0 
L 469 0 
L 469 531 
Q 828 903 1448 1529 
Q 2069 2156 2228 2338 
Q 2531 2678 2651 2914 
Q 2772 3150 2772 3378 
Q 2772 3750 2511 3984 
Q 2250 4219 1831 4219 
Q 1534 4219 1204 4116 
Q 875 4013 500 3803 
L 500 4441 
Q 881 4594 1212 4672 
Q 1544 4750 1819 4750 
Q 2544 4750 2975 4387 
Q 3406 4025 3406 3419 
Q 3406 3131 3298 2873 
Q 3191 2616 2906 2266 
Q 2828 2175 2409 1742 
Q 1991 1309 1228 531 
z
" transform="scale(0.015625)"/>
      </defs>
      <use xlink:href="#DejaVuSans-30"/>
      <use xlink:href="#DejaVuSans-2e" transform="translate(63.623047 0)"/>
      <use xlink:href="#DejaVuSans-32" transform="translate(95.410156 0)"/>
     </g>
    </g>
   </g>
   <g id="xtick_3">
    <g id="line2d_4">
     <path d="M 344.088045 409.106875 
L 349.44951 411.991547 
" style="fill: none; stroke: #000000; stroke-width: 0.8; stroke-linecap: square"/>
    </g>
    <g id="text_3">
     <!-- 0.4 -->
     <g transform="translate(348.306 432.435794) scale(0.1 -0.1)">
      <defs>
       <path id="DejaVuSans-34" d="M 2419 4116 
L 825 1625 
L 2419 1625 
L 2419 4116 
z
M 2253 4666 
L 3047 4666 
L 3047 1625 
L 3713 1625 
L 3713 1100 
L 3047 1100 
L 3047 0 
L 2419 0 
L 2419 1100 
L 313 1100 
L 313 1709 
L 2253 4666 
z
" transform="scale(0.015625)"/>
      </defs>
      <use xlink:href="#DejaVuSans-30"/>
      <use xlink:href="#DejaVuSans-2e" transform="translate(63.623047 0)"/>
      <use xlink:href="#DejaVuSans-34" transform="translate(95.410156 0)"/>
     </g>
    </g>
   </g>
   <g id="xtick_4">
    <g id="line2d_5">
     <path d="M 382.044699 387.359434 
L 387.400723 390.166883 
" style="fill: none; stroke: #000000; stroke-width: 0.8; stroke-linecap: square"/>
    </g>
    <g id="text_4">
     <!-- 0.6 -->
     <g transform="translate(386.171932 410.434067) scale(0.1 -0.1)">
      <defs>
       <path id="DejaVuSans-36" d="M 2113 2584 
Q 1688 2584 1439 2293 
Q 1191 2003 1191 1497 
Q 1191 994 1439 701 
Q 1688 409 2113 409 
Q 2538 409 2786 701 
Q 3034 994 3034 1497 
Q 3034 2003 2786 2293 
Q 2538 2584 2113 2584 
z
M 3366 4563 
L 3366 3988 
Q 3128 4100 2886 4159 
Q 2644 4219 2406 4219 
Q 1781 4219 1451 3797 
Q 1122 3375 1075 2522 
Q 1259 2794 1537 2939 
Q 1816 3084 2150 3084 
Q 2853 3084 3261 2657 
Q 3669 2231 3669 1497 
Q 3669 778 3244 343 
Q 2819 -91 2113 -91 
Q 1303 -91 875 529 
Q 447 1150 447 2328 
Q 447 3434 972 4092 
Q 1497 4750 2381 4750 
Q 2619 4750 2861 4703 
Q 3103 4656 3366 4563 
z
" transform="scale(0.015625)"/>
      </defs>
      <use xlink:href="#DejaVuSans-30"/>
      <use xlink:href="#DejaVuSans-2e" transform="translate(63.623047 0)"/>
      <use xlink:href="#DejaVuSans-36" transform="translate(95.410156 0)"/>
     </g>
    </g>
   </g>
   <g id="xtick_5">
    <g id="line2d_6">
     <path d="M 418.992835 366.189829 
L 424.341809 368.923115 
" style="fill: none; stroke: #000000; stroke-width: 0.8; stroke-linecap: square"/>
    </g>
    <g id="text_5">
     <!-- 0.8 -->
     <g transform="translate(423.029834 389.018049) scale(0.1 -0.1)">
      <defs>
       <path id="DejaVuSans-38" d="M 2034 2216 
Q 1584 2216 1326 1975 
Q 1069 1734 1069 1313 
Q 1069 891 1326 650 
Q 1584 409 2034 409 
Q 2484 409 2743 651 
Q 3003 894 3003 1313 
Q 3003 1734 2745 1975 
Q 2488 2216 2034 2216 
z
M 1403 2484 
Q 997 2584 770 2862 
Q 544 3141 544 3541 
Q 544 4100 942 4425 
Q 1341 4750 2034 4750 
Q 2731 4750 3128 4425 
Q 3525 4100 3525 3541 
Q 3525 3141 3298 2862 
Q 3072 2584 2669 2484 
Q 3125 2378 3379 2068 
Q 3634 1759 3634 1313 
Q 3634 634 3220 271 
Q 2806 -91 2034 -91 
Q 1263 -91 848 271 
Q 434 634 434 1313 
Q 434 1759 690 2068 
Q 947 2378 1403 2484 
z
M 1172 3481 
Q 1172 3119 1398 2916 
Q 1625 2713 2034 2713 
Q 2441 2713 2670 2916 
Q 2900 3119 2900 3481 
Q 2900 3844 2670 4047 
Q 2441 4250 2034 4250 
Q 1625 4250 1398 4047 
Q 1172 3844 1172 3481 
z
" transform="scale(0.015625)"/>
      </defs>
      <use xlink:href="#DejaVuSans-30"/>
      <use xlink:href="#DejaVuSans-2e" transform="translate(63.623047 0)"/>
      <use xlink:href="#DejaVuSans-38" transform="translate(95.410156 0)"/>
     </g>
    </g>
   </g>
   <g id="xtick_6">
    <g id="line2d_7">
     <path d="M 454.972119 345.575332 
L 460.312568 348.237355 
" style="fill: none; stroke: #000000; stroke-width: 0.8; stroke-linecap: square"/>
    </g>
    <g id="text_6">
     <!-- 1.0 -->
     <g transform="translate(458.919431 368.164658) scale(0.1 -0.1)">
      <defs>
       <path id="DejaVuSans-31" d="M 794 531 
L 1825 531 
L 1825 4091 
L 703 3866 
L 703 4441 
L 1819 4666 
L 2450 4666 
L 2450 531 
L 3481 531 
L 3481 0 
L 794 0 
L 794 531 
z
" transform="scale(0.015625)"/>
      </defs>
      <use xlink:href="#DejaVuSans-31"/>
      <use xlink:href="#DejaVuSans-2e" transform="translate(63.623047 0)"/>
      <use xlink:href="#DejaVuSans-30" transform="translate(95.410156 0)"/>
     </g>
    </g>
   </g>
   <g id="text_7">
    <!-- relative antenna cross section of PSII -->
    <g transform="translate(303.988314 482.176931) rotate(-29.841106) scale(0.1 -0.1)">
     <defs>
      <path id="DejaVuSans-72" d="M 2631 2963 
Q 2534 3019 2420 3045 
Q 2306 3072 2169 3072 
Q 1681 3072 1420 2755 
Q 1159 2438 1159 1844 
L 1159 0 
L 581 0 
L 581 3500 
L 1159 3500 
L 1159 2956 
Q 1341 3275 1631 3429 
Q 1922 3584 2338 3584 
Q 2397 3584 2469 3576 
Q 2541 3569 2628 3553 
L 2631 2963 
z
" transform="scale(0.015625)"/>
      <path id="DejaVuSans-65" d="M 3597 1894 
L 3597 1613 
L 953 1613 
Q 991 1019 1311 708 
Q 1631 397 2203 397 
Q 2534 397 2845 478 
Q 3156 559 3463 722 
L 3463 178 
Q 3153 47 2828 -22 
Q 2503 -91 2169 -91 
Q 1331 -91 842 396 
Q 353 884 353 1716 
Q 353 2575 817 3079 
Q 1281 3584 2069 3584 
Q 2775 3584 3186 3129 
Q 3597 2675 3597 1894 
z
M 3022 2063 
Q 3016 2534 2758 2815 
Q 2500 3097 2075 3097 
Q 1594 3097 1305 2825 
Q 1016 2553 972 2059 
L 3022 2063 
z
" transform="scale(0.015625)"/>
      <path id="DejaVuSans-6c" d="M 603 4863 
L 1178 4863 
L 1178 0 
L 603 0 
L 603 4863 
z
" transform="scale(0.015625)"/>
      <path id="DejaVuSans-61" d="M 2194 1759 
Q 1497 1759 1228 1600 
Q 959 1441 959 1056 
Q 959 750 1161 570 
Q 1363 391 1709 391 
Q 2188 391 2477 730 
Q 2766 1069 2766 1631 
L 2766 1759 
L 2194 1759 
z
M 3341 1997 
L 3341 0 
L 2766 0 
L 2766 531 
Q 2569 213 2275 61 
Q 1981 -91 1556 -91 
Q 1019 -91 701 211 
Q 384 513 384 1019 
Q 384 1609 779 1909 
Q 1175 2209 1959 2209 
L 2766 2209 
L 2766 2266 
Q 2766 2663 2505 2880 
Q 2244 3097 1772 3097 
Q 1472 3097 1187 3025 
Q 903 2953 641 2809 
L 641 3341 
Q 956 3463 1253 3523 
Q 1550 3584 1831 3584 
Q 2591 3584 2966 3190 
Q 3341 2797 3341 1997 
z
" transform="scale(0.015625)"/>
      <path id="DejaVuSans-74" d="M 1172 4494 
L 1172 3500 
L 2356 3500 
L 2356 3053 
L 1172 3053 
L 1172 1153 
Q 1172 725 1289 603 
Q 1406 481 1766 481 
L 2356 481 
L 2356 0 
L 1766 0 
Q 1100 0 847 248 
Q 594 497 594 1153 
L 594 3053 
L 172 3053 
L 172 3500 
L 594 3500 
L 594 4494 
L 1172 4494 
z
" transform="scale(0.015625)"/>
      <path id="DejaVuSans-69" d="M 603 3500 
L 1178 3500 
L 1178 0 
L 603 0 
L 603 3500 
z
M 603 4863 
L 1178 4863 
L 1178 4134 
L 603 4134 
L 603 4863 
z
" transform="scale(0.015625)"/>
      <path id="DejaVuSans-76" d="M 191 3500 
L 800 3500 
L 1894 563 
L 2988 3500 
L 3597 3500 
L 2284 0 
L 1503 0 
L 191 3500 
z
" transform="scale(0.015625)"/>
      <path id="DejaVuSans-20" transform="scale(0.015625)"/>
      <path id="DejaVuSans-6e" d="M 3513 2113 
L 3513 0 
L 2938 0 
L 2938 2094 
Q 2938 2591 2744 2837 
Q 2550 3084 2163 3084 
Q 1697 3084 1428 2787 
Q 1159 2491 1159 1978 
L 1159 0 
L 581 0 
L 581 3500 
L 1159 3500 
L 1159 2956 
Q 1366 3272 1645 3428 
Q 1925 3584 2291 3584 
Q 2894 3584 3203 3211 
Q 3513 2838 3513 2113 
z
" transform="scale(0.015625)"/>
      <path id="DejaVuSans-63" d="M 3122 3366 
L 3122 2828 
Q 2878 2963 2633 3030 
Q 2388 3097 2138 3097 
Q 1578 3097 1268 2742 
Q 959 2388 959 1747 
Q 959 1106 1268 751 
Q 1578 397 2138 397 
Q 2388 397 2633 464 
Q 2878 531 3122 666 
L 3122 134 
Q 2881 22 2623 -34 
Q 2366 -91 2075 -91 
Q 1284 -91 818 406 
Q 353 903 353 1747 
Q 353 2603 823 3093 
Q 1294 3584 2113 3584 
Q 2378 3584 2631 3529 
Q 2884 3475 3122 3366 
z
" transform="scale(0.015625)"/>
      <path id="DejaVuSans-6f" d="M 1959 3097 
Q 1497 3097 1228 2736 
Q 959 2375 959 1747 
Q 959 1119 1226 758 
Q 1494 397 1959 397 
Q 2419 397 2687 759 
Q 2956 1122 2956 1747 
Q 2956 2369 2687 2733 
Q 2419 3097 1959 3097 
z
M 1959 3584 
Q 2709 3584 3137 3096 
Q 3566 2609 3566 1747 
Q 3566 888 3137 398 
Q 2709 -91 1959 -91 
Q 1206 -91 779 398 
Q 353 888 353 1747 
Q 353 2609 779 3096 
Q 1206 3584 1959 3584 
z
" transform="scale(0.015625)"/>
      <path id="DejaVuSans-73" d="M 2834 3397 
L 2834 2853 
Q 2591 2978 2328 3040 
Q 2066 3103 1784 3103 
Q 1356 3103 1142 2972 
Q 928 2841 928 2578 
Q 928 2378 1081 2264 
Q 1234 2150 1697 2047 
L 1894 2003 
Q 2506 1872 2764 1633 
Q 3022 1394 3022 966 
Q 3022 478 2636 193 
Q 2250 -91 1575 -91 
Q 1294 -91 989 -36 
Q 684 19 347 128 
L 347 722 
Q 666 556 975 473 
Q 1284 391 1588 391 
Q 1994 391 2212 530 
Q 2431 669 2431 922 
Q 2431 1156 2273 1281 
Q 2116 1406 1581 1522 
L 1381 1569 
Q 847 1681 609 1914 
Q 372 2147 372 2553 
Q 372 3047 722 3315 
Q 1072 3584 1716 3584 
Q 2034 3584 2315 3537 
Q 2597 3491 2834 3397 
z
" transform="scale(0.015625)"/>
      <path id="DejaVuSans-66" d="M 2375 4863 
L 2375 4384 
L 1825 4384 
Q 1516 4384 1395 4259 
Q 1275 4134 1275 3809 
L 1275 3500 
L 2222 3500 
L 2222 3053 
L 1275 3053 
L 1275 0 
L 697 0 
L 697 3053 
L 147 3053 
L 147 3500 
L 697 3500 
L 697 3744 
Q 697 4328 969 4595 
Q 1241 4863 1831 4863 
L 2375 4863 
z
" transform="scale(0.015625)"/>
      <path id="DejaVuSans-50" d="M 1259 4147 
L 1259 2394 
L 2053 2394 
Q 2494 2394 2734 2622 
Q 2975 2850 2975 3272 
Q 2975 3691 2734 3919 
Q 2494 4147 2053 4147 
L 1259 4147 
z
M 628 4666 
L 2053 4666 
Q 2838 4666 3239 4311 
Q 3641 3956 3641 3272 
Q 3641 2581 3239 2228 
Q 2838 1875 2053 1875 
L 1259 1875 
L 1259 0 
L 628 0 
L 628 4666 
z
" transform="scale(0.015625)"/>
      <path id="DejaVuSans-53" d="M 3425 4513 
L 3425 3897 
Q 3066 4069 2747 4153 
Q 2428 4238 2131 4238 
Q 1616 4238 1336 4038 
Q 1056 3838 1056 3469 
Q 1056 3159 1242 3001 
Q 1428 2844 1947 2747 
L 2328 2669 
Q 3034 2534 3370 2195 
Q 3706 1856 3706 1288 
Q 3706 609 3251 259 
Q 2797 -91 1919 -91 
Q 1588 -91 1214 -16 
Q 841 59 441 206 
L 441 856 
Q 825 641 1194 531 
Q 1563 422 1919 422 
Q 2459 422 2753 634 
Q 3047 847 3047 1241 
Q 3047 1584 2836 1778 
Q 2625 1972 2144 2069 
L 1759 2144 
Q 1053 2284 737 2584 
Q 422 2884 422 3419 
Q 422 4038 858 4394 
Q 1294 4750 2059 4750 
Q 2388 4750 2728 4690 
Q 3069 4631 3425 4513 
z
" transform="scale(0.015625)"/>
      <path id="DejaVuSans-49" d="M 628 4666 
L 1259 4666 
L 1259 0 
L 628 0 
L 628 4666 
z
" transform="scale(0.015625)"/>
     </defs>
     <use xlink:href="#DejaVuSans-72"/>
     <use xlink:href="#DejaVuSans-65" transform="translate(38.863281 0)"/>
     <use xlink:href="#DejaVuSans-6c" transform="translate(100.386719 0)"/>
     <use xlink:href="#DejaVuSans-61" transform="translate(128.169922 0)"/>
     <use xlink:href="#DejaVuSans-74" transform="translate(189.449219 0)"/>
     <use xlink:href="#DejaVuSans-69" transform="translate(228.658203 0)"/>
     <use xlink:href="#DejaVuSans-76" transform="translate(256.441406 0)"/>
     <use xlink:href="#DejaVuSans-65" transform="translate(315.621094 0)"/>
     <use xlink:href="#DejaVuSans-20" transform="translate(377.144531 0)"/>
     <use xlink:href="#DejaVuSans-61" transform="translate(408.931641 0)"/>
     <use xlink:href="#DejaVuSans-6e" transform="translate(470.210938 0)"/>
     <use xlink:href="#DejaVuSans-74" transform="translate(533.589844 0)"/>
     <use xlink:href="#DejaVuSans-65" transform="translate(572.798828 0)"/>
     <use xlink:href="#DejaVuSans-6e" transform="translate(634.322266 0)"/>
     <use xlink:href="#DejaVuSans-6e" transform="translate(697.701172 0)"/>
     <use xlink:href="#DejaVuSans-61" transform="translate(761.080078 0)"/>
     <use xlink:href="#DejaVuSans-20" transform="translate(822.359375 0)"/>
     <use xlink:href="#DejaVuSans-63" transform="translate(854.146484 0)"/>
     <use xlink:href="#DejaVuSans-72" transform="translate(909.126953 0)"/>
     <use xlink:href="#DejaVuSans-6f" transform="translate(947.990234 0)"/>
     <use xlink:href="#DejaVuSans-73" transform="translate(1009.171875 0)"/>
     <use xlink:href="#DejaVuSans-73" transform="translate(1061.271484 0)"/>
     <use xlink:href="#DejaVuSans-20" transform="translate(1113.371094 0)"/>
     <use xlink:href="#DejaVuSans-73" transform="translate(1145.158203 0)"/>
     <use xlink:href="#DejaVuSans-65" transform="translate(1197.257812 0)"/>
     <use xlink:href="#DejaVuSans-63" transform="translate(1258.78125 0)"/>
     <use xlink:href="#DejaVuSans-74" transform="translate(1313.761719 0)"/>
     <use xlink:href="#DejaVuSans-69" transform="translate(1352.970703 0)"/>
     <use xlink:href="#DejaVuSans-6f" transform="translate(1380.753906 0)"/>
     <use xlink:href="#DejaVuSans-6e" transform="translate(1441.935547 0)"/>
     <use xlink:href="#DejaVuSans-20" transform="translate(1505.314453 0)"/>
     <use xlink:href="#DejaVuSans-6f" transform="translate(1537.101562 0)"/>
     <use xlink:href="#DejaVuSans-66" transform="translate(1598.283203 0)"/>
     <use xlink:href="#DejaVuSans-20" transform="translate(1633.488281 0)"/>
     <use xlink:href="#DejaVuSans-50" transform="translate(1665.275391 0)"/>
     <use xlink:href="#DejaVuSans-53" transform="translate(1725.578125 0)"/>
     <use xlink:href="#DejaVuSans-49" transform="translate(1789.054688 0)"/>
     <use xlink:href="#DejaVuSans-49" transform="translate(1818.546875 0)"/>
    </g>
   </g>
  </g>
  <g id="axis3d_2">
   <g id="line2d_8">
    <path d="M 45.059441 344.501646 
L 252.613183 463.566622 
" style="fill: none; stroke: #000000; stroke-width: 0.8; stroke-linecap: square"/>
   </g>
   <g id="xtick_7">
    <g id="line2d_9">
     <path d="M 240.246988 454.432552 
L 234.880051 457.481545 
" style="fill: none; stroke: #000000; stroke-width: 0.8; stroke-linecap: square"/>
    </g>
    <g id="text_8">
     <!-- 0 -->
     <g transform="translate(224.713567 478.295185) scale(0.1 -0.1)">
      <use xlink:href="#DejaVuSans-30"/>
     </g>
    </g>
   </g>
   <g id="xtick_8">
    <g id="line2d_10">
     <path d="M 200.145357 431.456137 
L 194.780203 434.421262 
" style="fill: none; stroke: #000000; stroke-width: 0.8; stroke-linecap: square"/>
    </g>
    <g id="text_9">
     <!-- 100 -->
     <g transform="translate(178.34094 455.047589) scale(0.1 -0.1)">
      <use xlink:href="#DejaVuSans-31"/>
      <use xlink:href="#DejaVuSans-30" transform="translate(63.623047 0)"/>
      <use xlink:href="#DejaVuSans-30" transform="translate(127.246094 0)"/>
     </g>
    </g>
   </g>
   <g id="xtick_9">
    <g id="line2d_11">
     <path d="M 161.13832 409.106875 
L 155.776856 411.991547 
" style="fill: none; stroke: #000000; stroke-width: 0.8; stroke-linecap: square"/>
    </g>
    <g id="text_10">
     <!-- 200 -->
     <g transform="translate(139.425053 432.435794) scale(0.1 -0.1)">
      <use xlink:href="#DejaVuSans-32"/>
      <use xlink:href="#DejaVuSans-30" transform="translate(63.623047 0)"/>
      <use xlink:href="#DejaVuSans-30" transform="translate(127.246094 0)"/>
     </g>
    </g>
   </g>
   <g id="xtick_10">
    <g id="line2d_12">
     <path d="M 123.181666 387.359434 
L 117.825642 390.166883 
" style="fill: none; stroke: #000000; stroke-width: 0.8; stroke-linecap: square"/>
    </g>
    <g id="text_11">
     <!-- 300 -->
     <g transform="translate(101.559121 410.434067) scale(0.1 -0.1)">
      <defs>
       <path id="DejaVuSans-33" d="M 2597 2516 
Q 3050 2419 3304 2112 
Q 3559 1806 3559 1356 
Q 3559 666 3084 287 
Q 2609 -91 1734 -91 
Q 1441 -91 1130 -33 
Q 819 25 488 141 
L 488 750 
Q 750 597 1062 519 
Q 1375 441 1716 441 
Q 2309 441 2620 675 
Q 2931 909 2931 1356 
Q 2931 1769 2642 2001 
Q 2353 2234 1838 2234 
L 1294 2234 
L 1294 2753 
L 1863 2753 
Q 2328 2753 2575 2939 
Q 2822 3125 2822 3475 
Q 2822 3834 2567 4026 
Q 2313 4219 1838 4219 
Q 1578 4219 1281 4162 
Q 984 4106 628 3988 
L 628 4550 
Q 988 4650 1302 4700 
Q 1616 4750 1894 4750 
Q 2613 4750 3031 4423 
Q 3450 4097 3450 3541 
Q 3450 3153 3228 2886 
Q 3006 2619 2597 2516 
z
" transform="scale(0.015625)"/>
      </defs>
      <use xlink:href="#DejaVuSans-33"/>
      <use xlink:href="#DejaVuSans-30" transform="translate(63.623047 0)"/>
      <use xlink:href="#DejaVuSans-30" transform="translate(127.246094 0)"/>
     </g>
    </g>
   </g>
   <g id="xtick_11">
    <g id="line2d_13">
     <path d="M 86.233531 366.189829 
L 80.884556 368.923115 
" style="fill: none; stroke: #000000; stroke-width: 0.8; stroke-linecap: square"/>
    </g>
    <g id="text_12">
     <!-- 400 -->
     <g transform="translate(64.701219 389.018049) scale(0.1 -0.1)">
      <use xlink:href="#DejaVuSans-34"/>
      <use xlink:href="#DejaVuSans-30" transform="translate(63.623047 0)"/>
      <use xlink:href="#DejaVuSans-30" transform="translate(127.246094 0)"/>
     </g>
    </g>
   </g>
   <g id="xtick_12">
    <g id="line2d_14">
     <path d="M 50.254246 345.575332 
L 44.913798 348.237355 
" style="fill: none; stroke: #000000; stroke-width: 0.8; stroke-linecap: square"/>
    </g>
    <g id="text_13">
     <!-- 500 -->
     <g transform="translate(28.811622 368.164658) scale(0.1 -0.1)">
      <defs>
       <path id="DejaVuSans-35" d="M 691 4666 
L 3169 4666 
L 3169 4134 
L 1269 4134 
L 1269 2991 
Q 1406 3038 1543 3061 
Q 1681 3084 1819 3084 
Q 2600 3084 3056 2656 
Q 3513 2228 3513 1497 
Q 3513 744 3044 326 
Q 2575 -91 1722 -91 
Q 1428 -91 1123 -41 
Q 819 9 494 109 
L 494 744 
Q 775 591 1075 516 
Q 1375 441 1709 441 
Q 2250 441 2565 725 
Q 2881 1009 2881 1497 
Q 2881 1984 2565 2268 
Q 2250 2553 1709 2553 
Q 1456 2553 1204 2497 
Q 953 2441 691 2322 
L 691 4666 
z
" transform="scale(0.015625)"/>
      </defs>
      <use xlink:href="#DejaVuSans-35"/>
      <use xlink:href="#DejaVuSans-30" transform="translate(63.623047 0)"/>
      <use xlink:href="#DejaVuSans-30" transform="translate(127.246094 0)"/>
     </g>
    </g>
   </g>
   <g id="text_14">
    <!-- light intensity -->
    <g transform="translate(91.295356 419.107366) rotate(-330.158894) scale(0.1 -0.1)">
     <defs>
      <path id="DejaVuSans-67" d="M 2906 1791 
Q 2906 2416 2648 2759 
Q 2391 3103 1925 3103 
Q 1463 3103 1205 2759 
Q 947 2416 947 1791 
Q 947 1169 1205 825 
Q 1463 481 1925 481 
Q 2391 481 2648 825 
Q 2906 1169 2906 1791 
z
M 3481 434 
Q 3481 -459 3084 -895 
Q 2688 -1331 1869 -1331 
Q 1566 -1331 1297 -1286 
Q 1028 -1241 775 -1147 
L 775 -588 
Q 1028 -725 1275 -790 
Q 1522 -856 1778 -856 
Q 2344 -856 2625 -561 
Q 2906 -266 2906 331 
L 2906 616 
Q 2728 306 2450 153 
Q 2172 0 1784 0 
Q 1141 0 747 490 
Q 353 981 353 1791 
Q 353 2603 747 3093 
Q 1141 3584 1784 3584 
Q 2172 3584 2450 3431 
Q 2728 3278 2906 2969 
L 2906 3500 
L 3481 3500 
L 3481 434 
z
" transform="scale(0.015625)"/>
      <path id="DejaVuSans-68" d="M 3513 2113 
L 3513 0 
L 2938 0 
L 2938 2094 
Q 2938 2591 2744 2837 
Q 2550 3084 2163 3084 
Q 1697 3084 1428 2787 
Q 1159 2491 1159 1978 
L 1159 0 
L 581 0 
L 581 4863 
L 1159 4863 
L 1159 2956 
Q 1366 3272 1645 3428 
Q 1925 3584 2291 3584 
Q 2894 3584 3203 3211 
Q 3513 2838 3513 2113 
z
" transform="scale(0.015625)"/>
      <path id="DejaVuSans-79" d="M 2059 -325 
Q 1816 -950 1584 -1140 
Q 1353 -1331 966 -1331 
L 506 -1331 
L 506 -850 
L 844 -850 
Q 1081 -850 1212 -737 
Q 1344 -625 1503 -206 
L 1606 56 
L 191 3500 
L 800 3500 
L 1894 763 
L 2988 3500 
L 3597 3500 
L 2059 -325 
z
" transform="scale(0.015625)"/>
     </defs>
     <use xlink:href="#DejaVuSans-6c"/>
     <use xlink:href="#DejaVuSans-69" transform="translate(27.783203 0)"/>
     <use xlink:href="#DejaVuSans-67" transform="translate(55.566406 0)"/>
     <use xlink:href="#DejaVuSans-68" transform="translate(119.042969 0)"/>
     <use xlink:href="#DejaVuSans-74" transform="translate(182.421875 0)"/>
     <use xlink:href="#DejaVuSans-20" transform="translate(221.630859 0)"/>
     <use xlink:href="#DejaVuSans-69" transform="translate(253.417969 0)"/>
     <use xlink:href="#DejaVuSans-6e" transform="translate(281.201172 0)"/>
     <use xlink:href="#DejaVuSans-74" transform="translate(344.580078 0)"/>
     <use xlink:href="#DejaVuSans-65" transform="translate(383.789062 0)"/>
     <use xlink:href="#DejaVuSans-6e" transform="translate(445.3125 0)"/>
     <use xlink:href="#DejaVuSans-73" transform="translate(508.691406 0)"/>
     <use xlink:href="#DejaVuSans-69" transform="translate(560.791016 0)"/>
     <use xlink:href="#DejaVuSans-74" transform="translate(588.574219 0)"/>
     <use xlink:href="#DejaVuSans-79" transform="translate(627.783203 0)"/>
    </g>
   </g>
  </g>
  <g id="axis3d_3">
   <g id="line2d_15">
    <path d="M 45.059441 344.501646 
L 35.582101 149.498614 
" style="fill: none; stroke: #000000; stroke-width: 0.8; stroke-linecap: square"/>
   </g>
   <g id="xtick_13">
    <g id="line2d_16">
     <path d="M 46.658389 339.904561 
L 41.313879 342.55581 
" style="fill: none; stroke: #000000; stroke-width: 0.8; stroke-linecap: square"/>
    </g>
    <g id="text_15">
     <!-- 0.0 -->
     <g transform="translate(17.255148 348.385739) scale(0.1 -0.1)">
      <use xlink:href="#DejaVuSans-30"/>
      <use xlink:href="#DejaVuSans-2e" transform="translate(63.623047 0)"/>
      <use xlink:href="#DejaVuSans-30" transform="translate(95.410156 0)"/>
     </g>
    </g>
   </g>
   <g id="xtick_14">
    <g id="line2d_17">
     <path d="M 44.900301 303.410569 
L 39.50705 306.021371 
" style="fill: none; stroke: #000000; stroke-width: 0.8; stroke-linecap: square"/>
    </g>
    <g id="text_16">
     <!-- 0.2 -->
     <g transform="translate(15.312824 311.878272) scale(0.1 -0.1)">
      <use xlink:href="#DejaVuSans-30"/>
      <use xlink:href="#DejaVuSans-2e" transform="translate(63.623047 0)"/>
      <use xlink:href="#DejaVuSans-32" transform="translate(95.410156 0)"/>
     </g>
    </g>
   </g>
   <g id="xtick_15">
    <g id="line2d_18">
     <path d="M 43.11194 266.288167 
L 37.669053 268.856728 
" style="fill: none; stroke: #000000; stroke-width: 0.8; stroke-linecap: square"/>
    </g>
    <g id="text_17">
     <!-- 0.4 -->
     <g transform="translate(13.337036 274.741797) scale(0.1 -0.1)">
      <use xlink:href="#DejaVuSans-30"/>
      <use xlink:href="#DejaVuSans-2e" transform="translate(63.623047 0)"/>
      <use xlink:href="#DejaVuSans-34" transform="translate(95.410156 0)"/>
     </g>
    </g>
   </g>
   <g id="xtick_16">
    <g id="line2d_19">
     <path d="M 41.292517 228.520983 
L 35.799076 231.045433 
" style="fill: none; stroke: #000000; stroke-width: 0.8; stroke-linecap: square"/>
    </g>
    <g id="text_18">
     <!-- 0.6 -->
     <g transform="translate(11.32691 236.959918) scale(0.1 -0.1)">
      <use xlink:href="#DejaVuSans-30"/>
      <use xlink:href="#DejaVuSans-2e" transform="translate(63.623047 0)"/>
      <use xlink:href="#DejaVuSans-36" transform="translate(95.410156 0)"/>
     </g>
    </g>
   </g>
   <g id="xtick_17">
    <g id="line2d_20">
     <path d="M 39.441215 190.09207 
L 33.896276 192.570461 
" style="fill: none; stroke: #000000; stroke-width: 0.8; stroke-linecap: square"/>
    </g>
    <g id="text_19">
     <!-- 0.8 -->
     <g transform="translate(9.281543 198.515661) scale(0.1 -0.1)">
      <use xlink:href="#DejaVuSans-30"/>
      <use xlink:href="#DejaVuSans-2e" transform="translate(63.623047 0)"/>
      <use xlink:href="#DejaVuSans-38" transform="translate(95.410156 0)"/>
     </g>
    </g>
   </g>
   <g id="xtick_18">
    <g id="line2d_21">
     <path d="M 37.557189 150.983883 
L 31.959782 153.414183 
" style="fill: none; stroke: #000000; stroke-width: 0.8; stroke-linecap: square"/>
    </g>
    <g id="text_20">
     <!-- 1.0 -->
     <g transform="translate(7.2 159.391455) scale(0.1 -0.1)">
      <use xlink:href="#DejaVuSans-31"/>
      <use xlink:href="#DejaVuSans-2e" transform="translate(63.623047 0)"/>
      <use xlink:href="#DejaVuSans-30" transform="translate(95.410156 0)"/>
     </g>
    </g>
   </g>
   <g id="text_21">
    <!-- fraction of reduced PQ -->
    <g transform="translate(-8.735454 193.27035) rotate(-272.782442) scale(0.1 -0.1)">
     <defs>
      <path id="DejaVuSans-64" d="M 2906 2969 
L 2906 4863 
L 3481 4863 
L 3481 0 
L 2906 0 
L 2906 525 
Q 2725 213 2448 61 
Q 2172 -91 1784 -91 
Q 1150 -91 751 415 
Q 353 922 353 1747 
Q 353 2572 751 3078 
Q 1150 3584 1784 3584 
Q 2172 3584 2448 3432 
Q 2725 3281 2906 2969 
z
M 947 1747 
Q 947 1113 1208 752 
Q 1469 391 1925 391 
Q 2381 391 2643 752 
Q 2906 1113 2906 1747 
Q 2906 2381 2643 2742 
Q 2381 3103 1925 3103 
Q 1469 3103 1208 2742 
Q 947 2381 947 1747 
z
" transform="scale(0.015625)"/>
      <path id="DejaVuSans-75" d="M 544 1381 
L 544 3500 
L 1119 3500 
L 1119 1403 
Q 1119 906 1312 657 
Q 1506 409 1894 409 
Q 2359 409 2629 706 
Q 2900 1003 2900 1516 
L 2900 3500 
L 3475 3500 
L 3475 0 
L 2900 0 
L 2900 538 
Q 2691 219 2414 64 
Q 2138 -91 1772 -91 
Q 1169 -91 856 284 
Q 544 659 544 1381 
z
M 1991 3584 
L 1991 3584 
z
" transform="scale(0.015625)"/>
      <path id="DejaVuSans-51" d="M 2522 4238 
Q 1834 4238 1429 3725 
Q 1025 3213 1025 2328 
Q 1025 1447 1429 934 
Q 1834 422 2522 422 
Q 3209 422 3611 934 
Q 4013 1447 4013 2328 
Q 4013 3213 3611 3725 
Q 3209 4238 2522 4238 
z
M 3406 84 
L 4238 -825 
L 3475 -825 
L 2784 -78 
Q 2681 -84 2626 -87 
Q 2572 -91 2522 -91 
Q 1538 -91 948 567 
Q 359 1225 359 2328 
Q 359 3434 948 4092 
Q 1538 4750 2522 4750 
Q 3503 4750 4090 4092 
Q 4678 3434 4678 2328 
Q 4678 1516 4351 937 
Q 4025 359 3406 84 
z
" transform="scale(0.015625)"/>
     </defs>
     <use xlink:href="#DejaVuSans-66"/>
     <use xlink:href="#DejaVuSans-72" transform="translate(35.205078 0)"/>
     <use xlink:href="#DejaVuSans-61" transform="translate(76.318359 0)"/>
     <use xlink:href="#DejaVuSans-63" transform="translate(137.597656 0)"/>
     <use xlink:href="#DejaVuSans-74" transform="translate(192.578125 0)"/>
     <use xlink:href="#DejaVuSans-69" transform="translate(231.787109 0)"/>
     <use xlink:href="#DejaVuSans-6f" transform="translate(259.570312 0)"/>
     <use xlink:href="#DejaVuSans-6e" transform="translate(320.751953 0)"/>
     <use xlink:href="#DejaVuSans-20" transform="translate(384.130859 0)"/>
     <use xlink:href="#DejaVuSans-6f" transform="translate(415.917969 0)"/>
     <use xlink:href="#DejaVuSans-66" transform="translate(477.099609 0)"/>
     <use xlink:href="#DejaVuSans-20" transform="translate(512.304688 0)"/>
     <use xlink:href="#DejaVuSans-72" transform="translate(544.091797 0)"/>
     <use xlink:href="#DejaVuSans-65" transform="translate(582.955078 0)"/>
     <use xlink:href="#DejaVuSans-64" transform="translate(644.478516 0)"/>
     <use xlink:href="#DejaVuSans-75" transform="translate(707.955078 0)"/>
     <use xlink:href="#DejaVuSans-63" transform="translate(771.333984 0)"/>
     <use xlink:href="#DejaVuSans-65" transform="translate(826.314453 0)"/>
     <use xlink:href="#DejaVuSans-64" transform="translate(887.837891 0)"/>
     <use xlink:href="#DejaVuSans-20" transform="translate(951.314453 0)"/>
     <use xlink:href="#DejaVuSans-50" transform="translate(983.101562 0)"/>
     <use xlink:href="#DejaVuSans-51" transform="translate(1043.404297 0)"/>
    </g>
   </g>
  </g>
  <g id="axes_1">
   <g id="Poly3DCollection_1">
    <path d="M 178.116723 276.110806 
L 169.048275 270.15304 
L 178.411528 256.180515 
L 187.50719 262.728374 
z
" clip-path="url(#pf0187d452f)" style="fill: #386df9"/>
    <path d="M 168.59844 284.104003 
L 159.54016 278.326493 
L 169.048275 270.15304 
L 178.116723 276.110806 
z
" clip-path="url(#pf0187d452f)" style="fill: #4a53fb"/>
    <path d="M 187.238064 282.094477 
L 178.116723 276.110806 
L 187.50719 262.728374 
L 196.653143 269.300519 
z
" clip-path="url(#pf0187d452f)" style="fill: #3c68f9"/>
    <path d="M 159.015004 291.296099 
L 149.96474 285.632586 
L 159.54016 278.326493 
L 168.59844 284.104003 
z
" clip-path="url(#pf0187d452f)" style="fill: #5247fc"/>
    <path d="M 177.710644 289.910473 
L 168.59844 284.104003 
L 178.116723 276.110806 
L 187.238064 282.094477 
z
" clip-path="url(#pf0187d452f)" style="fill: #4c50fc"/>
    <path d="M 187.50719 262.728374 
L 178.411528 256.180515 
L 186.977416 189.80677 
L 196.185988 195.403942 
z
" clip-path="url(#pf0187d452f)" style="fill: #2fe0db"/>
    <path d="M 196.412815 288.103963 
L 187.238064 282.094477 
L 196.653143 269.300519 
L 205.849839 275.89334 
z
" clip-path="url(#pf0187d452f)" style="fill: #4062fa"/>
    <path d="M 149.373591 298.241186 
L 140.331056 292.66993 
L 149.96474 285.632586 
L 159.015004 291.296099 
z
" clip-path="url(#pf0187d452f)" style="fill: #583efd"/>
    <path d="M 168.119943 296.989973 
L 159.015004 291.296099 
L 168.59844 284.104003 
L 177.710644 289.910473 
z
" clip-path="url(#pf0187d452f)" style="fill: #5444fd"/>
    <path d="M 186.877287 295.746018 
L 177.710644 289.910473 
L 187.238064 282.094477 
L 196.412815 288.103963 
z
" clip-path="url(#pf0187d452f)" style="fill: #504afc"/>
    <path d="M 196.653143 269.300519 
L 187.50719 262.728374 
L 196.185988 195.403942 
L 205.450367 201.096026 
z
" clip-path="url(#pf0187d452f)" style="fill: #2adddd"/>
    <path d="M 205.641504 294.1392 
L 196.412815 288.103963 
L 205.849839 275.89334 
L 215.097776 282.50339 
z
" clip-path="url(#pf0187d452f)" style="fill: #445cfb"/>
    <path d="M 252.613183 80.800269 
L 243.235393 76.682398 
L 252.613183 70.599677 
L 261.995057 74.705773 
z
" clip-path="url(#pf0187d452f)" style="fill: #ff0000"/>
    <path d="M 139.675719 305.087986 
L 130.641125 299.598709 
L 140.331056 292.66993 
L 149.373591 298.241186 
z
" clip-path="url(#pf0187d452f)" style="fill: #5e35fe"/>
    <path d="M 158.471459 303.843695 
L 149.373591 298.241186 
L 159.015004 291.296099 
L 168.119943 296.989973 
z
" clip-path="url(#pf0187d452f)" style="fill: #5a3bfd"/>
    <path d="M 177.280076 302.714401 
L 168.119943 296.989973 
L 177.710644 289.910473 
L 186.877287 295.746018 
z
" clip-path="url(#pf0187d452f)" style="fill: #5641fd"/>
    <path d="M 196.098893 301.610764 
L 186.877287 295.746018 
L 196.412815 288.103963 
L 205.641504 294.1392 
z
" clip-path="url(#pf0187d452f)" style="fill: #5247fc"/>
    <path d="M 205.849839 275.89334 
L 196.653143 269.300519 
L 205.450367 201.096026 
L 214.770737 206.892054 
z
" clip-path="url(#pf0187d452f)" style="fill: #27dade"/>
    <path d="M 214.924668 300.200152 
L 205.641504 294.1392 
L 215.097776 282.50339 
L 224.397487 289.127455 
z
" clip-path="url(#pf0187d452f)" style="fill: #4856fb"/>
    <path d="M 243.179937 87.577448 
L 233.807849 83.448574 
L 243.235393 76.682398 
L 252.613183 80.800269 
z
" clip-path="url(#pf0187d452f)" style="fill: #ff0905"/>
    <path d="M 129.9216 311.89261 
L 120.895339 306.479176 
L 130.641125 299.598709 
L 139.675719 305.087986 
z
" clip-path="url(#pf0187d452f)" style="fill: #642cfe"/>
    <path d="M 262.051911 84.946354 
L 252.613183 80.800269 
L 261.995057 74.705773 
L 271.437643 78.839614 
z
" clip-path="url(#pf0187d452f)" style="fill: #ff0000"/>
    <path d="M 148.766265 310.609181 
L 139.675719 305.087986 
L 149.373591 298.241186 
L 158.471459 303.843695 
z
" clip-path="url(#pf0187d452f)" style="fill: #6032fe"/>
    <path d="M 167.625188 309.477693 
L 158.471459 303.843695 
L 168.119943 296.989973 
L 177.280076 302.714401 
z
" clip-path="url(#pf0187d452f)" style="fill: #5c38fd"/>
    <path d="M 186.495932 308.46958 
L 177.280076 302.714401 
L 186.877287 295.746018 
L 196.098893 301.610764 
z
" clip-path="url(#pf0187d452f)" style="fill: #5a3bfd"/>
    <path d="M 215.097776 282.50339 
L 205.849839 275.89334 
L 214.770737 206.892054 
L 224.147221 212.802903 
z
" clip-path="url(#pf0187d452f)" style="fill: #22d6e0"/>
    <path d="M 205.375996 307.504845 
L 196.098893 301.610764 
L 205.641504 294.1392 
L 214.924668 300.200152 
z
" clip-path="url(#pf0187d452f)" style="fill: #5641fd"/>
    <path d="M 196.185988 195.403942 
L 186.977416 189.80677 
L 195.941187 138.448509 
L 205.232945 142.843221 
z
" clip-path="url(#pf0187d452f)" style="fill: #cbe486"/>
    <path d="M 224.262856 306.286806 
L 214.924668 300.200152 
L 224.397487 289.127455 
L 233.749546 295.762621 
z
" clip-path="url(#pf0187d452f)" style="fill: #4e4dfc"/>
    <path d="M 233.700715 95.456963 
L 224.336818 91.316909 
L 233.807849 83.448574 
L 243.179937 87.577448 
z
" clip-path="url(#pf0187d452f)" style="fill: #ff160b"/>
    <path d="M 252.613183 91.735122 
L 243.179937 87.577448 
L 252.613183 80.800269 
L 262.051911 84.946354 
z
" clip-path="url(#pf0187d452f)" style="fill: #ff0905"/>
    <path d="M 120.111001 318.680654 
L 111.093547 313.338714 
L 120.895339 306.479176 
L 129.9216 311.89261 
z
" clip-path="url(#pf0187d452f)" style="fill: #6a22fe"/>
    <path d="M 139.004404 317.338495 
L 129.9216 311.89261 
L 139.675719 305.087986 
L 148.766265 310.609181 
z
" clip-path="url(#pf0187d452f)" style="fill: #6629fe"/>
    <path d="M 271.552163 89.121208 
L 262.051911 84.946354 
L 271.437643 78.839614 
L 280.941522 83.00169 
z
" clip-path="url(#pf0187d452f)" style="fill: #ff0000"/>
    <path d="M 157.913296 316.162563 
L 148.766265 310.609181 
L 158.471459 303.843695 
L 167.625188 309.477693 
z
" clip-path="url(#pf0187d452f)" style="fill: #622ffe"/>
    <path d="M 176.835313 315.143422 
L 167.625188 309.477693 
L 177.280076 302.714401 
L 186.495932 308.46958 
z
" clip-path="url(#pf0187d452f)" style="fill: #6032fe"/>
    <path d="M 195.768047 314.255713 
L 186.495932 308.46958 
L 196.098893 301.610764 
L 205.375996 307.504845 
z
" clip-path="url(#pf0187d452f)" style="fill: #5c38fd"/>
    <path d="M 224.397487 289.127455 
L 215.097776 282.50339 
L 224.147221 212.802903 
L 233.579859 218.841838 
z
" clip-path="url(#pf0187d452f)" style="fill: #1fd3e1"/>
    <path d="M 214.709136 313.428402 
L 205.375996 307.504845 
L 214.924668 300.200152 
L 224.262856 306.286806 
z
" clip-path="url(#pf0187d452f)" style="fill: #5a3bfd"/>
    <path d="M 224.187308 105.298853 
L 214.835833 101.14286 
L 224.336818 91.316909 
L 233.700715 95.456963 
z
" clip-path="url(#pf0187d452f)" style="fill: #ff2914"/>
    <path d="M 233.656625 312.399176 
L 224.262856 306.286806 
L 233.749546 295.762621 
L 243.154563 302.406323 
z
" clip-path="url(#pf0187d452f)" style="fill: #5247fc"/>
    <path d="M 205.450367 201.096026 
L 196.185988 195.403942 
L 205.232945 142.843221 
L 214.585427 147.277888 
z
" clip-path="url(#pf0187d452f)" style="fill: #c8e688"/>
    <path d="M 243.125973 99.6266 
L 233.700715 95.456963 
L 243.179937 87.577448 
L 252.613183 91.735122 
z
" clip-path="url(#pf0187d452f)" style="fill: #ff160b"/>
    <path d="M 110.243497 325.46526 
L 101.235362 320.191314 
L 111.093547 313.338714 
L 120.111001 318.680654 
z
" clip-path="url(#pf0187d452f)" style="fill: #7019ff"/>
    <path d="M 214.668906 119.141469 
L 205.338038 114.942878 
L 214.835833 101.14286 
L 224.187308 105.298853 
z
" clip-path="url(#pf0187d452f)" style="fill: #ff4a26"/>
    <path d="M 205.232945 142.843221 
L 195.941187 138.448509 
L 205.338038 114.942878 
L 214.668906 119.141469 
z
" clip-path="url(#pf0187d452f)" style="fill: #ff8444"/>
    <path d="M 129.18557 324.055473 
L 120.111001 318.680654 
L 129.9216 311.89261 
L 139.004404 317.338495 
z
" clip-path="url(#pf0187d452f)" style="fill: #6a22fe"/>
    <path d="M 262.108175 95.922245 
L 252.613183 91.735122 
L 262.051911 84.946354 
L 271.552163 89.121208 
z
" clip-path="url(#pf0187d452f)" style="fill: #ff0905"/>
    <path d="M 148.144293 322.81712 
L 139.004404 317.338495 
L 148.766265 310.609181 
L 157.913296 316.162563 
z
" clip-path="url(#pf0187d452f)" style="fill: #6826fe"/>
    <path d="M 167.117355 321.748403 
L 157.913296 316.162563 
L 167.625188 309.477693 
L 176.835313 315.143422 
z
" clip-path="url(#pf0187d452f)" style="fill: #642cfe"/>
    <path d="M 281.114528 93.325469 
L 271.552163 89.121208 
L 280.941522 83.00169 
L 290.507283 87.192558 
z
" clip-path="url(#pf0187d452f)" style="fill: #ff0000"/>
    <path d="M 186.102375 320.841128 
L 176.835313 315.143422 
L 186.495932 308.46958 
L 195.768047 314.255713 
z
" clip-path="url(#pf0187d452f)" style="fill: #622ffe"/>
    <path d="M 233.749546 295.762621 
L 224.397487 289.127455 
L 233.579859 218.841838 
L 243.068583 225.025278 
z
" clip-path="url(#pf0187d452f)" style="fill: #18cde4"/>
    <path d="M 205.096965 320.073007 
L 195.768047 314.255713 
L 205.375996 307.504845 
L 214.709136 313.428402 
z
" clip-path="url(#pf0187d452f)" style="fill: #5e35fe"/>
    <path d="M 224.098863 319.381588 
L 214.709136 313.428402 
L 224.262856 306.286806 
L 233.656625 312.399176 
z
" clip-path="url(#pf0187d452f)" style="fill: #5c38fd"/>
    <path d="M 233.600298 109.485603 
L 224.187308 105.298853 
L 233.700715 95.456963 
L 243.125973 99.6266 
z
" clip-path="url(#pf0187d452f)" style="fill: #ff2914"/>
    <path d="M 243.106541 318.537302 
L 233.656625 312.399176 
L 243.154563 302.406323 
L 252.613183 309.056384 
z
" clip-path="url(#pf0187d452f)" style="fill: #5641fd"/>
    <path d="M 214.770737 206.892054 
L 205.450367 201.096026 
L 214.585427 147.277888 
L 223.999177 151.755853 
z
" clip-path="url(#pf0187d452f)" style="fill: #c6e789"/>
    <path d="M 100.318566 332.253701 
L 91.320281 327.04466 
L 101.235362 320.191314 
L 110.243497 325.46526 
z
" clip-path="url(#pf0187d452f)" style="fill: #7413ff"/>
    <path d="M 252.613183 103.826627 
L 243.125973 99.6266 
L 252.613183 91.735122 
L 262.108175 95.922245 
z
" clip-path="url(#pf0187d452f)" style="fill: #ff160b"/>
    <path d="M 119.309303 330.772419 
L 110.243497 325.46526 
L 120.111001 318.680654 
L 129.18557 324.055473 
z
" clip-path="url(#pf0187d452f)" style="fill: #7019ff"/>
    <path d="M 138.317806 329.463479 
L 129.18557 324.055473 
L 139.004404 317.338495 
L 148.144293 322.81712 
z
" clip-path="url(#pf0187d452f)" style="fill: #6c1fff"/>
    <path d="M 224.061275 123.373005 
L 214.668906 119.141469 
L 224.187308 105.298853 
L 233.600298 109.485603 
z
" clip-path="url(#pf0187d452f)" style="fill: #ff4a26"/>
    <path d="M 214.585427 147.277888 
L 205.232945 142.843221 
L 214.668906 119.141469 
L 224.061275 123.373005 
z
" clip-path="url(#pf0187d452f)" style="fill: #ff8444"/>
    <path d="M 271.665506 100.139578 
L 262.108175 95.922245 
L 271.552163 89.121208 
L 281.114528 93.325469 
z
" clip-path="url(#pf0187d452f)" style="fill: #ff0905"/>
    <path d="M 157.341817 328.328782 
L 148.144293 322.81712 
L 157.913296 316.162563 
L 167.117355 321.748403 
z
" clip-path="url(#pf0187d452f)" style="fill: #6826fe"/>
    <path d="M 176.37899 327.366979 
L 167.117355 321.748403 
L 176.835313 315.143422 
L 186.102375 320.841128 
z
" clip-path="url(#pf0187d452f)" style="fill: #6629fe"/>
    <path d="M 243.154563 302.406323 
L 233.749546 295.762621 
L 243.068583 225.025278 
L 252.613183 231.373888 
z
" clip-path="url(#pf0187d452f)" style="fill: #14cae5"/>
    <path d="M 195.426924 326.571061 
L 186.102375 320.841128 
L 195.768047 314.255713 
L 205.096965 320.073007 
z
" clip-path="url(#pf0187d452f)" style="fill: #642cfe"/>
    <path d="M 290.739601 97.559883 
L 281.114528 93.325469 
L 290.507283 87.192558 
L 300.135517 91.412863 
z
" clip-path="url(#pf0187d452f)" style="fill: #ff0000"/>
    <path d="M 214.483238 325.921676 
L 205.096965 320.073007 
L 214.709136 313.428402 
L 224.098863 319.381588 
z
" clip-path="url(#pf0187d452f)" style="fill: #622ffe"/>
    <path d="M 233.545734 325.364561 
L 224.098863 319.381588 
L 233.656625 312.399176 
L 243.106541 318.537302 
z
" clip-path="url(#pf0187d452f)" style="fill: #6032fe"/>
    <path d="M 252.613183 324.701248 
L 243.106541 318.537302 
L 252.613183 309.056384 
L 262.126078 315.711033 
z
" clip-path="url(#pf0187d452f)" style="fill: #5a3bfd"/>
    <path d="M 243.075393 113.704207 
L 233.600298 109.485603 
L 243.125973 99.6266 
L 252.613183 103.826627 
z
" clip-path="url(#pf0187d452f)" style="fill: #ff2914"/>
    <path d="M 224.147221 212.802903 
L 214.770737 206.892054 
L 223.999177 151.755853 
L 233.474723 156.281318 
z
" clip-path="url(#pf0187d452f)" style="fill: #c4e88a"/>
    <path d="M 90.335621 339.050129 
L 81.347721 333.903092 
L 91.320281 327.04466 
L 100.318566 332.253701 
z
" clip-path="url(#pf0187d452f)" style="fill: #7a09ff"/>
    <path d="M 109.375064 337.496187 
L 100.318566 332.253701 
L 110.243497 325.46526 
L 119.309303 330.772419 
z
" clip-path="url(#pf0187d452f)" style="fill: #7610ff"/>
    <path d="M 262.162936 108.058004 
L 252.613183 103.826627 
L 262.108175 95.922245 
L 271.665506 100.139578 
z
" clip-path="url(#pf0187d452f)" style="fill: #ff160b"/>
    <path d="M 128.433341 336.113107 
L 119.309303 330.772419 
L 129.18557 324.055473 
L 138.317806 329.463479 
z
" clip-path="url(#pf0187d452f)" style="fill: #7216ff"/>
    <path d="M 147.508265 334.90498 
L 138.317806 329.463479 
L 148.144293 322.81712 
L 157.341817 328.328782 
z
" clip-path="url(#pf0187d452f)" style="fill: #6e1cff"/>
    <path d="M 233.515727 127.639198 
L 224.061275 123.373005 
L 233.600298 109.485603 
L 243.075393 113.704207 
z
" clip-path="url(#pf0187d452f)" style="fill: #ff4a26"/>
    <path d="M 223.999177 151.755853 
L 214.585427 147.277888 
L 224.061275 123.373005 
L 233.515727 127.639198 
z
" clip-path="url(#pf0187d452f)" style="fill: #ff8444"/>
    <path d="M 166.597532 333.873778 
L 157.341817 328.328782 
L 167.117355 321.748403 
L 176.37899 327.366979 
z
" clip-path="url(#pf0187d452f)" style="fill: #6a22fe"/>
    <path d="M 281.28577 104.388024 
L 271.665506 100.139578 
L 281.114528 93.325469 
L 290.739601 97.559883 
z
" clip-path="url(#pf0187d452f)" style="fill: #ff0905"/>
    <path d="M 252.613183 309.056384 
L 243.154563 302.406323 
L 252.613183 231.373888 
L 262.213248 237.91416 
z
" clip-path="url(#pf0187d452f)" style="fill: #0fc4e7"/>
    <path d="M 185.698757 333.018572 
L 176.37899 327.366979 
L 186.102375 320.841128 
L 195.426924 326.571061 
z
" clip-path="url(#pf0187d452f)" style="fill: #6826fe"/>
    <path d="M 204.809517 332.333477 
L 195.426924 326.571061 
L 205.096965 320.073007 
L 214.483238 325.921676 
z
" clip-path="url(#pf0187d452f)" style="fill: #6629fe"/>
    <path d="M 223.927424 331.801939 
L 214.483238 325.921676 
L 224.098863 319.381588 
L 233.545734 325.364561 
z
" clip-path="url(#pf0187d452f)" style="fill: #642cfe"/>
    <path d="M 300.427978 101.825354 
L 290.739601 97.559883 
L 300.135517 91.412863 
L 309.826819 95.663373 
z
" clip-path="url(#pf0187d452f)" style="fill: #ff0000"/>
    <path d="M 243.050315 331.377492 
L 233.545734 325.364561 
L 243.106541 318.537302 
L 252.613183 324.701248 
z
" clip-path="url(#pf0187d452f)" style="fill: #622ffe"/>
    <path d="M 262.177136 330.891099 
L 252.613183 324.701248 
L 262.126078 315.711033 
L 271.693947 322.368914 
z
" clip-path="url(#pf0187d452f)" style="fill: #5e35fe"/>
    <path d="M 233.579859 218.841838 
L 224.147221 212.802903 
L 233.474723 156.281318 
L 243.01257 160.85966 
z
" clip-path="url(#pf0187d452f)" style="fill: #c2ea8c"/>
    <path d="M 252.613183 117.955989 
L 243.075393 113.704207 
L 252.613183 103.826627 
L 262.162936 108.058004 
z
" clip-path="url(#pf0187d452f)" style="fill: #ff2914"/>
    <path d="M 80.294017 345.856534 
L 71.317035 340.768634 
L 81.347721 333.903092 
L 90.335621 339.050129 
z
" clip-path="url(#pf0187d452f)" style="fill: #7e03ff"/>
    <path d="M 99.38226 344.230737 
L 90.335621 339.050129 
L 100.318566 332.253701 
L 109.375064 337.496187 
z
" clip-path="url(#pf0187d452f)" style="fill: #7a09ff"/>
    <path d="M 118.490344 342.772443 
L 109.375064 337.496187 
L 119.309303 330.772419 
L 128.433341 336.113107 
z
" clip-path="url(#pf0187d452f)" style="fill: #7610ff"/>
    <path d="M 271.775825 112.321891 
L 262.162936 108.058004 
L 271.665506 100.139578 
L 281.28577 104.388024 
z
" clip-path="url(#pf0187d452f)" style="fill: #ff160b"/>
    <path d="M 137.616177 341.487646 
L 128.433341 336.113107 
L 138.317806 329.463479 
L 147.508265 334.90498 
z
" clip-path="url(#pf0187d452f)" style="fill: #7216ff"/>
    <path d="M 156.757514 340.380294 
L 147.508265 334.90498 
L 157.341817 328.328782 
L 166.597532 333.873778 
z
" clip-path="url(#pf0187d452f)" style="fill: #6e1cff"/>
    <path d="M 262.126078 315.711033 
L 252.613183 309.056384 
L 262.213248 237.91416 
L 271.868092 244.680789 
z
" clip-path="url(#pf0187d452f)" style="fill: #0ac0e8"/>
    <path d="M 175.912002 339.452412 
L 166.597532 333.873778 
L 176.37899 327.366979 
L 185.698757 333.018572 
z
" clip-path="url(#pf0187d452f)" style="fill: #6c1fff"/>
    <path d="M 243.032839 131.942158 
L 233.515727 127.639198 
L 243.075393 113.704207 
L 252.613183 117.955989 
z
" clip-path="url(#pf0187d452f)" style="fill: #ff4724"/>
    <path d="M 233.474723 156.281318 
L 223.999177 151.755853 
L 233.515727 127.639198 
L 243.032839 131.942158 
z
" clip-path="url(#pf0187d452f)" style="fill: #ff8444"/>
    <path d="M 195.077221 338.703466 
L 185.698757 333.018572 
L 195.426924 326.571061 
L 204.809517 332.333477 
z
" clip-path="url(#pf0187d452f)" style="fill: #6a22fe"/>
    <path d="M 290.969562 108.668689 
L 281.28577 104.388024 
L 290.739601 97.559883 
L 300.427978 101.825354 
z
" clip-path="url(#pf0187d452f)" style="fill: #ff0905"/>
    <path d="M 214.250719 338.128634 
L 204.809517 332.333477 
L 214.483238 325.921676 
L 223.927424 331.801939 
z
" clip-path="url(#pf0187d452f)" style="fill: #6826fe"/>
    <path d="M 233.430091 337.71402 
L 223.927424 331.801939 
L 233.545734 325.364561 
L 243.050315 331.377492 
z
" clip-path="url(#pf0187d452f)" style="fill: #6629fe"/>
    <path d="M 252.613183 337.420556 
L 243.050315 331.377492 
L 252.613183 324.701248 
L 262.177136 330.891099 
z
" clip-path="url(#pf0187d452f)" style="fill: #6629fe"/>
    <path d="M 310.180254 106.123001 
L 300.427978 101.825354 
L 309.826819 95.663373 
L 319.581785 99.945028 
z
" clip-path="url(#pf0187d452f)" style="fill: #ff0000"/>
    <path d="M 271.798997 337.106966 
L 262.177136 330.891099 
L 271.693947 322.368914 
L 281.317512 329.029075 
z
" clip-path="url(#pf0187d452f)" style="fill: #622ffe"/>
    <path d="M 243.068583 225.025278 
L 233.579859 218.841838 
L 243.01257 160.85966 
L 252.613183 165.49789 
z
" clip-path="url(#pf0187d452f)" style="fill: #c0eb8d"/>
    <path d="M 89.330247 350.978015 
L 80.294017 345.856534 
L 90.335621 339.050129 
L 99.38226 344.230737 
z
" clip-path="url(#pf0187d452f)" style="fill: #7e03ff"/>
    <path d="M 262.214254 122.242584 
L 252.613183 117.955989 
L 262.162936 108.058004 
L 271.775825 112.321891 
z
" clip-path="url(#pf0187d452f)" style="fill: #ff2914"/>
    <path d="M 108.488216 349.445246 
L 99.38226 344.230737 
L 109.375064 337.496187 
L 118.490344 342.772443 
z
" clip-path="url(#pf0187d452f)" style="fill: #7a09ff"/>
    <path d="M 127.664982 348.082799 
L 118.490344 342.772443 
L 128.433341 336.113107 
L 137.616177 341.487646 
z
" clip-path="url(#pf0187d452f)" style="fill: #7610ff"/>
    <path d="M 271.693947 322.368914 
L 262.126078 315.711033 
L 271.868092 244.680789 
L 281.576631 251.720337 
z
" clip-path="url(#pf0187d452f)" style="fill: #04b9ea"/>
    <path d="M 146.858385 346.896362 
L 137.616177 341.487646 
L 147.508265 334.90498 
L 156.757514 340.380294 
z
" clip-path="url(#pf0187d452f)" style="fill: #7413ff"/>
    <path d="M 281.452444 116.619731 
L 271.775825 112.321891 
L 281.28577 104.388024 
L 290.969562 108.668689 
z
" clip-path="url(#pf0187d452f)" style="fill: #ff160b"/>
    <path d="M 166.066123 345.889737 
L 156.757514 340.380294 
L 166.597532 333.873778 
L 175.912002 339.452412 
z
" clip-path="url(#pf0187d452f)" style="fill: #7019ff"/>
    <path d="M 185.285799 345.064991 
L 175.912002 339.452412 
L 185.698757 333.018572 
L 195.077221 338.703466 
z
" clip-path="url(#pf0187d452f)" style="fill: #6e1cff"/>
    <path d="M 204.514952 344.421951 
L 195.077221 338.703466 
L 204.809517 332.333477 
L 214.250719 338.128634 
z
" clip-path="url(#pf0187d452f)" style="fill: #6c1fff"/>
    <path d="M 243.01257 160.85966 
L 233.474723 156.281318 
L 243.032839 131.942158 
L 252.613183 136.28454 
z
" clip-path="url(#pf0187d452f)" style="fill: #ff8444"/>
    <path d="M 252.613183 136.28454 
L 243.032839 131.942158 
L 252.613183 117.955989 
L 262.214254 122.242584 
z
" clip-path="url(#pf0187d452f)" style="fill: #ff4724"/>
    <path d="M 223.751101 343.956797 
L 214.250719 338.128634 
L 223.927424 331.801939 
L 233.430091 337.71402 
z
" clip-path="url(#pf0187d452f)" style="fill: #6a22fe"/>
    <path d="M 300.717477 112.982966 
L 290.969562 108.668689 
L 300.427978 101.825354 
L 310.180254 106.123001 
z
" clip-path="url(#pf0187d452f)" style="fill: #ff0603"/>
    <path d="M 242.991816 343.658148 
L 233.430091 337.71402 
L 243.050315 331.377492 
L 252.613183 337.420556 
z
" clip-path="url(#pf0187d452f)" style="fill: #6a22fe"/>
    <path d="M 262.234919 343.493939 
L 252.613183 337.420556 
L 262.177136 330.891099 
L 271.798997 337.106966 
z
" clip-path="url(#pf0187d452f)" style="fill: #6826fe"/>
    <path d="M 281.479372 343.348978 
L 271.798997 337.106966 
L 281.317512 329.029075 
L 290.997512 335.69095 
z
" clip-path="url(#pf0187d452f)" style="fill: #6629fe"/>
    <path d="M 319.997021 110.454258 
L 310.180254 106.123001 
L 319.581785 99.945028 
L 329.401008 104.259017 
z
" clip-path="url(#pf0187d452f)" style="fill: #ff0000"/>
    <path d="M 252.613183 231.373888 
L 243.068583 225.025278 
L 252.613183 165.49789 
L 262.276969 170.205356 
z
" clip-path="url(#pf0187d452f)" style="fill: #beec8e"/>
    <path d="M 98.426314 356.133409 
L 89.330247 350.978015 
L 99.38226 344.230737 
L 108.488216 349.445246 
z
" clip-path="url(#pf0187d452f)" style="fill: #7e03ff"/>
    <path d="M 271.879189 126.566057 
L 262.214254 122.242584 
L 271.775825 112.321891 
L 281.452444 116.619731 
z
" clip-path="url(#pf0187d452f)" style="fill: #ff2914"/>
    <path d="M 117.654075 354.69399 
L 108.488216 349.445246 
L 118.490344 342.772443 
L 127.664982 348.082799 
z
" clip-path="url(#pf0187d452f)" style="fill: #7a09ff"/>
    <path d="M 281.317512 329.029075 
L 271.693947 322.368914 
L 281.576631 251.720337 
L 291.33719 259.097065 
z
" clip-path="url(#pf0187d452f)" style="fill: #01b3ec"/>
    <path d="M 136.899561 353.427588 
L 127.664982 348.082799 
L 137.616177 341.487646 
L 146.858385 346.896362 
z
" clip-path="url(#pf0187d452f)" style="fill: #780dff"/>
    <path d="M 156.160547 352.339586 
L 146.858385 346.896362 
L 156.757514 340.380294 
L 166.066123 345.889737 
z
" clip-path="url(#pf0187d452f)" style="fill: #7413ff"/>
    <path d="M 291.193378 120.953371 
L 281.452444 116.619731 
L 290.969562 108.668689 
L 300.717477 112.982966 
z
" clip-path="url(#pf0187d452f)" style="fill: #ff160b"/>
    <path d="M 175.434675 351.433634 
L 166.066123 345.889737 
L 175.912002 339.452412 
L 185.285799 345.064991 
z
" clip-path="url(#pf0187d452f)" style="fill: #7216ff"/>
    <path d="M 194.719502 350.711825 
L 185.285799 345.064991 
L 195.077221 338.703466 
L 204.514952 344.421951 
z
" clip-path="url(#pf0187d452f)" style="fill: #7019ff"/>
    <path d="M 214.012531 350.174319 
L 204.514952 344.421951 
L 214.250719 338.128634 
L 223.751101 343.956797 
z
" clip-path="url(#pf0187d452f)" style="fill: #6e1cff"/>
    <path d="M 233.311245 349.818234 
L 223.751101 343.956797 
L 233.430091 337.71402 
L 242.991816 343.658148 
z
" clip-path="url(#pf0187d452f)" style="fill: #6c1fff"/>
    <path d="M 252.613183 349.634559 
L 242.991816 343.658148 
L 252.613183 337.420556 
L 262.234919 343.493939 
z
" clip-path="url(#pf0187d452f)" style="fill: #6c1fff"/>
    <path d="M 271.916117 349.597832 
L 262.234919 343.493939 
L 271.798997 337.106966 
L 281.479372 343.348978 
z
" clip-path="url(#pf0187d452f)" style="fill: #6c1fff"/>
    <path d="M 252.613183 165.49789 
L 243.01257 160.85966 
L 252.613183 136.28454 
L 262.257313 140.669756 
z
" clip-path="url(#pf0187d452f)" style="fill: #ff8444"/>
    <path d="M 262.257313 140.669756 
L 252.613183 136.28454 
L 262.214254 122.242584 
L 271.879189 126.566057 
z
" clip-path="url(#pf0187d452f)" style="fill: #ff4724"/>
    <path d="M 291.218876 349.617286 
L 281.479372 343.348978 
L 290.997512 335.69095 
L 300.7347 342.354322 
z
" clip-path="url(#pf0187d452f)" style="fill: #6a22fe"/>
    <path d="M 310.530099 117.332666 
L 300.717477 112.982966 
L 310.180254 106.123001 
L 319.997021 110.454258 
z
" clip-path="url(#pf0187d452f)" style="fill: #ff0603"/>
    <path d="M 329.87886 114.821037 
L 319.997021 110.454258 
L 329.401008 104.259017 
L 339.285076 108.606909 
z
" clip-path="url(#pf0187d452f)" style="fill: #ff0000"/>
    <path d="M 262.213248 237.91416 
L 252.613183 231.373888 
L 262.276969 170.205356 
L 272.004247 174.994837 
z
" clip-path="url(#pf0187d452f)" style="fill: #bced8f"/>
    <path d="M 290.997512 335.69095 
L 281.317512 329.029075 
L 291.33719 259.097065 
L 301.147184 266.9026 
z
" clip-path="url(#pf0187d452f)" style="fill: #08acee"/>
    <path d="M 107.582812 361.323054 
L 98.426314 356.133409 
L 108.488216 349.445246 
L 117.654075 354.69399 
z
" clip-path="url(#pf0187d452f)" style="fill: #8000ff"/>
    <path d="M 281.608558 130.92909 
L 271.879189 126.566057 
L 281.452444 116.619731 
L 291.193378 120.953371 
z
" clip-path="url(#pf0187d452f)" style="fill: #ff2914"/>
    <path d="M 126.88043 359.977309 
L 117.654075 354.69399 
L 127.664982 348.082799 
L 136.899561 353.427588 
z
" clip-path="url(#pf0187d452f)" style="fill: #7c06ff"/>
    <path d="M 146.194673 358.807148 
L 136.899561 353.427588 
L 146.858385 346.896362 
L 156.160547 352.339586 
z
" clip-path="url(#pf0187d452f)" style="fill: #780dff"/>
    <path d="M 165.523251 357.817652 
L 156.160547 352.339586 
L 166.066123 345.889737 
L 175.434675 351.433634 
z
" clip-path="url(#pf0187d452f)" style="fill: #7610ff"/>
    <path d="M 184.863755 357.012311 
L 175.434675 351.433634 
L 185.285799 345.064991 
L 194.719502 350.711825 
z
" clip-path="url(#pf0187d452f)" style="fill: #7216ff"/>
    <path d="M 300.9992 125.325239 
L 291.193378 120.953371 
L 300.717477 112.982966 
L 310.530099 117.332666 
z
" clip-path="url(#pf0187d452f)" style="fill: #ff160b"/>
    <path d="M 204.213699 356.39323 
L 194.719502 350.711825 
L 204.514952 344.421951 
L 214.012531 350.174319 
z
" clip-path="url(#pf0187d452f)" style="fill: #7019ff"/>
    <path d="M 223.570544 355.960868 
L 214.012531 350.174319 
L 223.751101 343.956797 
L 233.311245 349.818234 
z
" clip-path="url(#pf0187d452f)" style="fill: #7019ff"/>
    <path d="M 242.93174 355.713217 
L 233.311245 349.818234 
L 242.991816 343.658148 
L 252.613183 349.634559 
z
" clip-path="url(#pf0187d452f)" style="fill: #6e1cff"/>
    <path d="M 262.294784 355.643492 
L 252.613183 349.634559 
L 262.234919 343.493939 
L 271.916117 349.597832 
z
" clip-path="url(#pf0187d452f)" style="fill: #6e1cff"/>
    <path d="M 281.657379 355.732435 
L 271.916117 349.597832 
L 281.479372 343.348978 
L 291.218876 349.617286 
z
" clip-path="url(#pf0187d452f)" style="fill: #6e1cff"/>
    <path d="M 301.018135 355.912054 
L 291.218876 349.617286 
L 300.7347 342.354322 
L 310.529841 349.019282 
z
" clip-path="url(#pf0187d452f)" style="fill: #6e1cff"/>
    <path d="M 262.276969 170.205356 
L 252.613183 165.49789 
L 262.257313 140.669756 
L 271.96576 145.1023 
z
" clip-path="url(#pf0187d452f)" style="fill: #ff8444"/>
    <path d="M 271.96576 145.1023 
L 262.257313 140.669756 
L 271.879189 126.566057 
L 281.608558 130.92909 
z
" clip-path="url(#pf0187d452f)" style="fill: #ff4724"/>
    <path d="M 320.407999 121.720226 
L 310.530099 117.332666 
L 319.997021 110.454258 
L 329.87886 114.821037 
z
" clip-path="url(#pf0187d452f)" style="fill: #ff0603"/>
    <path d="M 339.826331 119.225995 
L 329.87886 114.821037 
L 339.285076 108.606909 
L 349.234558 112.990856 
z
" clip-path="url(#pf0187d452f)" style="fill: #ff0000"/>
    <path d="M 271.868092 244.680789 
L 262.213248 237.91416 
L 272.004247 174.994837 
L 281.795195 179.884302 
z
" clip-path="url(#pf0187d452f)" style="fill: #b9ef92"/>
    <path d="M 300.7347 342.354322 
L 290.997512 335.69095 
L 301.147184 266.9026 
L 311.002569 275.272628 
z
" clip-path="url(#pf0187d452f)" style="fill: #0ea5ef"/>
    <path d="M 116.800348 366.547293 
L 107.582812 361.323054 
L 117.654075 354.69399 
L 126.88043 359.977309 
z
" clip-path="url(#pf0187d452f)" style="fill: #8000ff"/>
    <path d="M 291.402909 135.335263 
L 281.608558 130.92909 
L 291.193378 120.953371 
L 300.9992 125.325239 
z
" clip-path="url(#pf0187d452f)" style="fill: #ff2914"/>
    <path d="M 136.167883 365.295545 
L 126.88043 359.977309 
L 136.899561 353.427588 
L 146.194673 358.807148 
z
" clip-path="url(#pf0187d452f)" style="fill: #7c06ff"/>
    <path d="M 155.550916 364.221821 
L 146.194673 358.807148 
L 156.160547 352.339586 
L 165.523251 357.817652 
z
" clip-path="url(#pf0187d452f)" style="fill: #780dff"/>
    <path d="M 174.947095 363.330899 
L 165.523251 357.817652 
L 175.434675 351.433634 
L 184.863755 357.012311 
z
" clip-path="url(#pf0187d452f)" style="fill: #7610ff"/>
    <path d="M 194.353961 362.626099 
L 184.863755 357.012311 
L 194.719502 350.711825 
L 204.213699 356.39323 
z
" clip-path="url(#pf0187d452f)" style="fill: #7413ff"/>
    <path d="M 213.768983 362.109525 
L 204.213699 356.39323 
L 214.012531 350.174319 
L 223.570544 355.960868 
z
" clip-path="url(#pf0187d452f)" style="fill: #7216ff"/>
    <path d="M 310.870464 129.738653 
L 300.9992 125.325239 
L 310.530099 117.332666 
L 320.407999 121.720226 
z
" clip-path="url(#pf0187d452f)" style="fill: #ff160b"/>
    <path d="M 233.189587 361.7819 
L 223.570544 355.960868 
L 233.311245 349.818234 
L 242.93174 355.713217 
z
" clip-path="url(#pf0187d452f)" style="fill: #7216ff"/>
    <path d="M 291.459314 361.897953 
L 281.657379 355.732435 
L 291.218876 349.617286 
L 301.018135 355.912054 
z
" clip-path="url(#pf0187d452f)" style="fill: #7216ff"/>
    <path d="M 310.877784 362.23346 
L 301.018135 355.912054 
L 310.529841 349.019282 
L 320.38371 355.686173 
z
" clip-path="url(#pf0187d452f)" style="fill: #7216ff"/>
    <path d="M 272.03722 361.685191 
L 262.294784 355.643492 
L 271.916117 349.597832 
L 281.657379 355.732435 
z
" clip-path="url(#pf0187d452f)" style="fill: #7216ff"/>
    <path d="M 252.613183 361.642022 
L 242.93174 355.713217 
L 252.613183 349.634559 
L 262.294784 355.643492 
z
" clip-path="url(#pf0187d452f)" style="fill: #7216ff"/>
    <path d="M 272.004247 174.994837 
L 262.276969 170.205356 
L 271.96576 145.1023 
L 281.739015 149.588253 
z
" clip-path="url(#pf0187d452f)" style="fill: #ff8444"/>
    <path d="M 281.739015 149.588253 
L 271.96576 145.1023 
L 281.608558 130.92909 
L 291.402909 135.335263 
z
" clip-path="url(#pf0187d452f)" style="fill: #ff4724"/>
    <path d="M 330.351721 126.149074 
L 320.407999 121.720226 
L 329.87886 114.821037 
L 339.826331 119.225995 
z
" clip-path="url(#pf0187d452f)" style="fill: #ff0603"/>
    <path d="M 310.529841 349.019282 
L 300.7347 342.354322 
L 311.002569 275.272628 
L 320.896833 284.417122 
z
" clip-path="url(#pf0187d452f)" style="fill: #169bf2"/>
    <path d="M 281.576631 251.720337 
L 271.868092 244.680789 
L 281.795195 179.884302 
L 291.649763 184.899904 
z
" clip-path="url(#pf0187d452f)" style="fill: #b6f193"/>
    <path d="M 349.839956 123.673006 
L 339.826331 119.225995 
L 349.234558 112.990856 
L 359.249993 117.413975 
z
" clip-path="url(#pf0187d452f)" style="fill: #ff0000"/>
    <path d="M 126.079532 371.806474 
L 116.800348 366.547293 
L 126.88043 359.977309 
L 136.167883 365.295545 
z
" clip-path="url(#pf0187d452f)" style="fill: #8000ff"/>
    <path d="M 301.262756 139.78952 
L 291.402909 135.335263 
L 300.9992 125.325239 
L 310.870464 129.738653 
z
" clip-path="url(#pf0187d452f)" style="fill: #ff2914"/>
    <path d="M 145.517043 370.649048 
L 136.167883 365.295545 
L 146.194673 358.807148 
L 155.550916 364.221821 
z
" clip-path="url(#pf0187d452f)" style="fill: #7c06ff"/>
    <path d="M 164.968897 369.671955 
L 155.550916 364.221821 
L 165.523251 357.817652 
L 174.947095 363.330899 
z
" clip-path="url(#pf0187d452f)" style="fill: #7a09ff"/>
    <path d="M 184.432683 368.879669 
L 174.947095 363.330899 
L 184.863755 357.012311 
L 194.353961 362.626099 
z
" clip-path="url(#pf0187d452f)" style="fill: #780dff"/>
    <path d="M 203.905895 368.275335 
L 194.353961 362.626099 
L 204.213699 356.39323 
L 213.768983 362.109525 
z
" clip-path="url(#pf0187d452f)" style="fill: #7610ff"/>
    <path d="M 320.798467 368.581684 
L 310.877784 362.23346 
L 320.38371 355.686173 
L 330.297088 362.355501 
z
" clip-path="url(#pf0187d452f)" style="fill: #7413ff"/>
    <path d="M 301.322544 368.094592 
L 291.459314 361.897953 
L 301.018135 355.912054 
L 310.877784 362.23346 
z
" clip-path="url(#pf0187d452f)" style="fill: #7413ff"/>
    <path d="M 223.385959 367.861033 
L 213.768983 362.109525 
L 223.570544 355.960868 
L 233.189587 361.7819 
z
" clip-path="url(#pf0187d452f)" style="fill: #7413ff"/>
    <path d="M 281.841103 367.759902 
L 272.03722 361.685191 
L 281.657379 355.732435 
L 291.459314 361.897953 
z
" clip-path="url(#pf0187d452f)" style="fill: #7413ff"/>
    <path d="M 242.870262 367.637719 
L 233.189587 361.7819 
L 242.93174 355.713217 
L 252.613183 361.642022 
z
" clip-path="url(#pf0187d452f)" style="fill: #7413ff"/>
    <path d="M 262.356178 367.60493 
L 252.613183 361.642022 
L 262.294784 355.643492 
L 272.03722 361.685191 
z
" clip-path="url(#pf0187d452f)" style="fill: #7413ff"/>
    <path d="M 320.807678 134.198317 
L 310.870464 129.738653 
L 320.407999 121.720226 
L 330.351721 126.149074 
z
" clip-path="url(#pf0187d452f)" style="fill: #ff160b"/>
    <path d="M 320.38371 355.686173 
L 310.529841 349.019282 
L 320.896833 284.417122 
L 330.819058 294.677937 
z
" clip-path="url(#pf0187d452f)" style="fill: #1e91f3"/>
    <path d="M 281.795195 179.884302 
L 272.004247 174.994837 
L 281.739015 149.588253 
L 291.577504 154.136108 
z
" clip-path="url(#pf0187d452f)" style="fill: #ff8444"/>
    <path d="M 291.577504 154.136108 
L 281.739015 149.588253 
L 291.402909 135.335263 
L 301.262756 139.78952 
z
" clip-path="url(#pf0187d452f)" style="fill: #ff4724"/>
    <path d="M 340.361755 130.624254 
L 330.351721 126.149074 
L 339.826331 119.225995 
L 349.839956 123.673006 
z
" clip-path="url(#pf0187d452f)" style="fill: #ff0603"/>
    <path d="M 291.33719 259.097065 
L 281.576631 251.720337 
L 291.649763 184.899904 
L 301.567519 190.081278 
z
" clip-path="url(#pf0187d452f)" style="fill: #b2f396"/>
    <path d="M 359.920179 128.168062 
L 349.839956 123.673006 
L 359.249993 117.413975 
L 369.33186 121.881044 
z
" clip-path="url(#pf0187d452f)" style="fill: #ff0000"/>
    <path d="M 135.420986 377.100946 
L 126.079532 371.806474 
L 136.167883 365.295545 
L 145.517043 370.649048 
z
" clip-path="url(#pf0187d452f)" style="fill: #8000ff"/>
    <path d="M 311.188549 144.298949 
L 301.262756 139.78952 
L 310.870464 129.738653 
L 320.807678 134.198317 
z
" clip-path="url(#pf0187d452f)" style="fill: #ff2914"/>
    <path d="M 154.928528 376.038168 
L 145.517043 370.649048 
L 155.550916 364.221821 
L 164.968897 369.671955 
z
" clip-path="url(#pf0187d452f)" style="fill: #7c06ff"/>
    <path d="M 174.449231 375.1579 
L 164.968897 369.671955 
L 174.947095 363.330899 
L 184.432683 368.879669 
z
" clip-path="url(#pf0187d452f)" style="fill: #7a09ff"/>
    <path d="M 330.297088 362.355501 
L 320.38371 355.686173 
L 330.819058 294.677937 
L 340.749969 306.643867 
z
" clip-path="url(#pf0187d452f)" style="fill: #2884f6"/>
    <path d="M 330.780841 374.956884 
L 320.798467 368.581684 
L 330.297088 362.355501 
L 340.270768 369.02773 
z
" clip-path="url(#pf0187d452f)" style="fill: #780dff"/>
    <path d="M 193.980629 374.46431 
L 184.432683 368.879669 
L 194.353961 362.626099 
L 203.905895 368.275335 
z
" clip-path="url(#pf0187d452f)" style="fill: #780dff"/>
    <path d="M 311.247697 374.322559 
L 301.322544 368.094592 
L 310.877784 362.23346 
L 320.798467 368.581684 
z
" clip-path="url(#pf0187d452f)" style="fill: #780dff"/>
    <path d="M 213.520168 373.960358 
L 203.905895 368.275335 
L 213.768983 362.109525 
L 223.385959 367.861033 
z
" clip-path="url(#pf0187d452f)" style="fill: #7610ff"/>
    <path d="M 291.70705 373.867875 
L 281.841103 367.759902 
L 291.459314 361.897953 
L 301.322544 368.094592 
z
" clip-path="url(#pf0187d452f)" style="fill: #7610ff"/>
    <path d="M 233.065236 373.648082 
L 223.385959 367.861033 
L 233.189587 361.7819 
L 242.870262 367.637719 
z
" clip-path="url(#pf0187d452f)" style="fill: #7610ff"/>
    <path d="M 272.161341 373.602223 
L 262.356178 367.60493 
L 272.03722 361.685191 
L 281.841103 367.759902 
z
" clip-path="url(#pf0187d452f)" style="fill: #7610ff"/>
    <path d="M 252.613183 373.528634 
L 242.870262 367.637719 
L 252.613183 361.642022 
L 262.356178 367.60493 
z
" clip-path="url(#pf0187d452f)" style="fill: #7610ff"/>
    <path d="M 330.811284 138.711226 
L 320.807678 134.198317 
L 330.351721 126.149074 
L 340.361755 130.624254 
z
" clip-path="url(#pf0187d452f)" style="fill: #ff160b"/>
    <path d="M 301.147184 266.9026 
L 291.33719 259.097065 
L 301.567519 190.081278 
L 311.54736 195.491569 
z
" clip-path="url(#pf0187d452f)" style="fill: #acf59a"/>
    <path d="M 291.649763 184.899904 
L 281.795195 179.884302 
L 291.577504 154.136108 
L 301.481541 158.758159 
z
" clip-path="url(#pf0187d452f)" style="fill: #ff8444"/>
    <path d="M 301.481541 158.758159 
L 291.577504 154.136108 
L 301.262756 139.78952 
L 311.188549 144.298949 
z
" clip-path="url(#pf0187d452f)" style="fill: #ff4724"/>
    <path d="M 350.438494 135.153622 
L 340.361755 130.624254 
L 349.839956 123.673006 
L 359.920179 128.168062 
z
" clip-path="url(#pf0187d452f)" style="fill: #ff0603"/>
    <path d="M 425.280905 337.221039 
L 421.682854 160.077858 
L 431.130224 152.63355 
L 434.274841 332.151247 
z
" clip-path="url(#pf0187d452f)" style="fill: #86ffb0"/>
    <path d="M 370.067298 132.721089 
L 359.920179 128.168062 
L 369.33186 121.881044 
L 379.480516 126.399935 
z
" clip-path="url(#pf0187d452f)" style="fill: #ff0000"/>
    <path d="M 340.270768 369.02773 
L 330.297088 362.355501 
L 340.749969 306.643867 
L 350.653542 321.386224 
z
" clip-path="url(#pf0187d452f)" style="fill: #3670f8"/>
    <path d="M 144.825338 382.431068 
L 135.420986 377.100946 
L 145.517043 370.649048 
L 154.928528 376.038168 
z
" clip-path="url(#pf0187d452f)" style="fill: #8000ff"/>
    <path d="M 321.180629 148.87418 
L 311.188549 144.298949 
L 320.807678 134.198317 
L 330.811284 138.711226 
z
" clip-path="url(#pf0187d452f)" style="fill: #ff2914"/>
    <path d="M 164.402963 381.463264 
L 154.928528 376.038168 
L 164.968897 369.671955 
L 174.449231 375.1579 
z
" clip-path="url(#pf0187d452f)" style="fill: #7c06ff"/>
    <path d="M 340.825573 381.359075 
L 330.780841 374.956884 
L 340.270768 369.02773 
L 350.305583 375.702072 
z
" clip-path="url(#pf0187d452f)" style="fill: #7c06ff"/>
    <path d="M 183.992541 380.680013 
L 174.449231 375.1579 
L 184.432683 368.879669 
L 193.980629 374.46431 
z
" clip-path="url(#pf0187d452f)" style="fill: #7a09ff"/>
    <path d="M 321.235412 380.582044 
L 311.247697 374.322559 
L 320.798467 368.581684 
L 330.780841 374.956884 
z
" clip-path="url(#pf0187d452f)" style="fill: #7a09ff"/>
    <path d="M 203.591553 380.085173 
L 193.980629 374.46431 
L 203.905895 368.275335 
L 213.520168 373.960358 
z
" clip-path="url(#pf0187d452f)" style="fill: #780dff"/>
    <path d="M 301.63569 380.009356 
L 291.70705 373.867875 
L 301.322544 368.094592 
L 311.247697 374.322559 
z
" clip-path="url(#pf0187d452f)" style="fill: #780dff"/>
    <path d="M 223.197401 379.681511 
L 213.520168 373.960358 
L 223.385959 367.861033 
L 233.065236 373.648082 
z
" clip-path="url(#pf0187d452f)" style="fill: #780dff"/>
    <path d="M 282.029293 379.634186 
L 272.161341 373.602223 
L 281.841103 367.759902 
L 291.70705 373.867875 
z
" clip-path="url(#pf0187d452f)" style="fill: #780dff"/>
    <path d="M 242.807435 379.471002 
L 233.065236 373.648082 
L 242.870262 367.637719 
L 252.613183 373.528634 
z
" clip-path="url(#pf0187d452f)" style="fill: #780dff"/>
    <path d="M 262.418968 379.454957 
L 252.613183 373.528634 
L 262.356178 367.60493 
L 272.161341 373.602223 
z
" clip-path="url(#pf0187d452f)" style="fill: #780dff"/>
    <path d="M 311.002569 275.272628 
L 301.147184 266.9026 
L 311.54736 195.491569 
L 321.58691 201.237882 
z
" clip-path="url(#pf0187d452f)" style="fill: #a8f79c"/>
    <path d="M 340.881586 143.288357 
L 330.811284 138.711226 
L 340.361755 130.624254 
L 350.438494 135.153622 
z
" clip-path="url(#pf0187d452f)" style="fill: #ff160b"/>
    <path d="M 350.305583 375.702072 
L 340.270768 369.02773 
L 350.653542 321.386224 
L 360.459809 340.905881 
z
" clip-path="url(#pf0187d452f)" style="fill: #4856fb"/>
    <path d="M 301.567519 190.081278 
L 291.649763 184.899904 
L 301.481541 158.758159 
L 311.451259 163.472995 
z
" clip-path="url(#pf0187d452f)" style="fill: #ff8444"/>
    <path d="M 416.227489 342.324358 
L 412.136949 168.837227 
L 421.682854 160.077858 
L 425.280905 337.221039 
z
" clip-path="url(#pf0187d452f)" style="fill: #82ffb3"/>
    <path d="M 311.451259 163.472995 
L 301.481541 158.758159 
L 311.188549 144.298949 
L 321.180629 148.87418 
z
" clip-path="url(#pf0187d452f)" style="fill: #ff4724"/>
    <path d="M 360.582145 139.750286 
L 350.438494 135.153622 
L 359.920179 128.168062 
L 370.067298 132.721089 
z
" clip-path="url(#pf0187d452f)" style="fill: #ff0905"/>
    <path d="M 380.2813 137.350054 
L 370.067298 132.721089 
L 379.480516 126.399935 
L 389.696064 130.984811 
z
" clip-path="url(#pf0187d452f)" style="fill: #ff0000"/>
    <path d="M 360.624203 373.667371 
L 350.305583 375.702072 
L 360.459809 340.905881 
L 370.047211 368.355716 
z
" clip-path="url(#pf0187d452f)" style="fill: #5e35fe"/>
    <path d="M 154.293226 387.7972 
L 144.825338 382.431068 
L 154.928528 376.038168 
L 164.402963 381.463264 
z
" clip-path="url(#pf0187d452f)" style="fill: #8000ff"/>
    <path d="M 331.239141 153.532028 
L 321.180629 148.87418 
L 330.811284 138.711226 
L 340.881586 143.288357 
z
" clip-path="url(#pf0187d452f)" style="fill: #ff2914"/>
    <path d="M 173.940983 386.924697 
L 164.402963 381.463264 
L 174.449231 375.1579 
L 183.992541 380.680013 
z
" clip-path="url(#pf0187d452f)" style="fill: #7e03ff"/>
    <path d="M 331.286341 386.873171 
L 321.235412 380.582044 
L 330.780841 374.956884 
L 340.825573 381.359075 
z
" clip-path="url(#pf0187d452f)" style="fill: #7c06ff"/>
    <path d="M 193.599459 386.238654 
L 183.992541 380.680013 
L 193.980629 374.46431 
L 203.591553 380.085173 
z
" clip-path="url(#pf0187d452f)" style="fill: #7c06ff"/>
    <path d="M 311.627661 386.184579 
L 301.63569 380.009356 
L 311.247697 374.322559 
L 321.235412 380.582044 
z
" clip-path="url(#pf0187d452f)" style="fill: #7c06ff"/>
    <path d="M 213.266085 385.742615 
L 203.591553 380.085173 
L 213.520168 373.960358 
L 223.197401 379.681511 
z
" clip-path="url(#pf0187d452f)" style="fill: #7a09ff"/>
    <path d="M 291.960666 385.701101 
L 282.029293 379.634186 
L 291.70705 373.867875 
L 301.63569 380.009356 
z
" clip-path="url(#pf0187d452f)" style="fill: #7a09ff"/>
    <path d="M 232.938222 385.439143 
L 223.197401 379.681511 
L 233.065236 373.648082 
L 242.807435 379.471002 
z
" clip-path="url(#pf0187d452f)" style="fill: #7a09ff"/>
    <path d="M 272.288246 385.417 
L 262.418968 379.454957 
L 272.161341 373.602223 
L 282.029293 379.634186 
z
" clip-path="url(#pf0187d452f)" style="fill: #780dff"/>
    <path d="M 320.896833 284.417122 
L 311.002569 275.272628 
L 321.58691 201.237882 
L 331.681175 207.517336 
z
" clip-path="url(#pf0187d452f)" style="fill: #a0faa1"/>
    <path d="M 252.613183 385.330127 
L 242.807435 379.471002 
L 252.613183 373.528634 
L 262.418968 379.454957 
z
" clip-path="url(#pf0187d452f)" style="fill: #780dff"/>
    <path d="M 407.114001 347.46154 
L 402.464752 179.956722 
L 412.136949 168.837227 
L 416.227489 342.324358 
z
" clip-path="url(#pf0187d452f)" style="fill: #7affb7"/>
    <path d="M 351.137401 379.014986 
L 340.825573 381.359075 
L 350.305583 375.702072 
L 360.624203 373.667371 
z
" clip-path="url(#pf0187d452f)" style="fill: #7413ff"/>
    <path d="M 351.018637 147.948146 
L 340.881586 143.288357 
L 350.438494 135.153622 
L 360.582145 139.750286 
z
" clip-path="url(#pf0187d452f)" style="fill: #ff160b"/>
    <path d="M 311.54736 195.491569 
L 301.567519 190.081278 
L 311.451259 163.472995 
L 321.486453 168.310231 
z
" clip-path="url(#pf0187d452f)" style="fill: #ff8646"/>
    <path d="M 370.047211 368.355716 
L 360.459809 340.905881 
L 371.692565 269.162424 
L 379.407066 363.07966 
z
" clip-path="url(#pf0187d452f)" style="fill: #1c93f3"/>
    <path d="M 321.486453 168.310231 
L 311.451259 163.472995 
L 321.180629 148.87418 
L 331.239141 153.532028 
z
" clip-path="url(#pf0187d452f)" style="fill: #ff4724"/>
    <path d="M 370.792514 144.438104 
L 360.582145 139.750286 
L 370.067298 132.721089 
L 380.2813 137.350054 
z
" clip-path="url(#pf0187d452f)" style="fill: #ff0905"/>
    <path d="M 390.561438 142.091546 
L 380.2813 137.350054 
L 389.696064 130.984811 
L 399.978005 135.664372 
z
" clip-path="url(#pf0187d452f)" style="fill: #ff0000"/>
    <path d="M 330.819058 294.677937 
L 320.896833 284.417122 
L 331.681175 207.517336 
L 341.819081 214.735007 
z
" clip-path="url(#pf0187d452f)" style="fill: #99fca6"/>
    <path d="M 163.825296 393.199709 
L 154.293226 387.7972 
L 164.402963 381.463264 
L 173.940983 386.924697 
z
" clip-path="url(#pf0187d452f)" style="fill: #8000ff"/>
    <path d="M 397.939841 352.632921 
L 392.605588 195.803415 
L 402.464752 179.956722 
L 407.114001 347.46154 
z
" clip-path="url(#pf0187d452f)" style="fill: #6efebe"/>
    <path d="M 341.363853 158.300932 
L 331.239141 153.532028 
L 340.881586 143.288357 
L 351.018637 147.948146 
z
" clip-path="url(#pf0187d452f)" style="fill: #ff2914"/>
    <path d="M 183.54323 392.422834 
L 173.940983 386.924697 
L 183.992541 380.680013 
L 193.599459 386.238654 
z
" clip-path="url(#pf0187d452f)" style="fill: #7e03ff"/>
    <path d="M 321.683611 392.393734 
L 311.627661 386.184579 
L 321.235412 380.582044 
L 331.286341 386.873171 
z
" clip-path="url(#pf0187d452f)" style="fill: #7e03ff"/>
    <path d="M 203.270625 391.834188 
L 193.599459 386.238654 
L 203.591553 380.085173 
L 213.266085 385.742615 
z
" clip-path="url(#pf0187d452f)" style="fill: #7c06ff"/>
    <path d="M 301.956102 391.803241 
L 291.960666 385.701101 
L 301.63569 380.009356 
L 311.627661 386.184579 
z
" clip-path="url(#pf0187d452f)" style="fill: #7c06ff"/>
    <path d="M 223.004864 391.436997 
L 213.266085 385.742615 
L 223.197401 379.681511 
L 232.938222 385.439143 
z
" clip-path="url(#pf0187d452f)" style="fill: #7a09ff"/>
    <path d="M 282.221656 391.415075 
L 272.288246 385.417 
L 282.029293 379.634186 
L 291.960666 385.701101 
z
" clip-path="url(#pf0187d452f)" style="fill: #7a09ff"/>
    <path d="M 242.743268 391.233604 
L 232.938222 385.439143 
L 242.807435 379.471002 
L 252.613183 385.330127 
z
" clip-path="url(#pf0187d452f)" style="fill: #7a09ff"/>
    <path d="M 262.483116 391.225793 
L 252.613183 385.330127 
L 262.418968 379.454957 
L 272.288246 385.417 
z
" clip-path="url(#pf0187d452f)" style="fill: #7a09ff"/>
    <path d="M 341.586154 384.398928 
L 331.286341 386.873171 
L 340.825573 381.359075 
L 351.137401 379.014986 
z
" clip-path="url(#pf0187d452f)" style="fill: #7413ff"/>
    <path d="M 361.221951 152.724367 
L 351.018637 147.948146 
L 360.582145 139.750286 
L 370.792514 144.438104 
z
" clip-path="url(#pf0187d452f)" style="fill: #ff160b"/>
    <path d="M 379.407066 363.07966 
L 371.692565 269.162424 
L 382.421888 222.037523 
L 388.704402 357.838846 
z
" clip-path="url(#pf0187d452f)" style="fill: #2fe0db"/>
    <path d="M 321.58691 201.237882 
L 311.54736 195.491569 
L 321.486453 168.310231 
L 331.586285 173.32028 
z
" clip-path="url(#pf0187d452f)" style="fill: #ff8947"/>
    <path d="M 388.704402 357.838846 
L 382.421888 222.037523 
L 392.605588 195.803415 
L 397.939841 352.632921 
z
" clip-path="url(#pf0187d452f)" style="fill: #5af8c8"/>
    <path d="M 331.586285 173.32028 
L 321.486453 168.310231 
L 331.239141 153.532028 
L 341.363853 158.300932 
z
" clip-path="url(#pf0187d452f)" style="fill: #ff4a26"/>
    <path d="M 381.068479 149.265952 
L 370.792514 144.438104 
L 380.2813 137.350054 
L 390.561438 142.091546 
z
" clip-path="url(#pf0187d452f)" style="fill: #ff0905"/>
    <path d="M 340.749969 306.643867 
L 330.819058 294.677937 
L 341.819081 214.735007 
L 351.972817 223.864651 
z
" clip-path="url(#pf0187d452f)" style="fill: #8bfeae"/>
    <path d="M 400.904907 147.034078 
L 390.561438 142.091546 
L 399.978005 135.664372 
L 410.324159 140.507633 
z
" clip-path="url(#pf0187d452f)" style="fill: #ff0000"/>
    <path d="M 173.422202 398.638965 
L 163.825296 393.199709 
L 173.940983 386.924697 
L 183.54323 392.422834 
z
" clip-path="url(#pf0187d452f)" style="fill: #8000ff"/>
    <path d="M 351.55374 163.233352 
L 341.363853 158.300932 
L 351.018637 147.948146 
L 361.221951 152.724367 
z
" clip-path="url(#pf0187d452f)" style="fill: #ff2914"/>
    <path d="M 193.210356 397.958046 
L 183.54323 392.422834 
L 193.599459 386.238654 
L 203.270625 391.834188 
z
" clip-path="url(#pf0187d452f)" style="fill: #7e03ff"/>
    <path d="M 312.016252 397.940847 
L 301.956102 391.803241 
L 311.627661 386.184579 
L 321.683611 392.393734 
z
" clip-path="url(#pf0187d452f)" style="fill: #7e03ff"/>
    <path d="M 213.006687 397.466985 
L 203.270625 391.834188 
L 213.266085 385.742615 
L 223.004864 391.436997 
z
" clip-path="url(#pf0187d452f)" style="fill: #7c06ff"/>
    <path d="M 292.219843 397.44949 
L 282.221656 391.415075 
L 291.960666 385.701101 
L 301.956102 391.803241 
z
" clip-path="url(#pf0187d452f)" style="fill: #7c06ff"/>
    <path d="M 232.808534 397.168682 
L 223.004864 391.436997 
L 232.938222 385.439143 
L 242.743268 391.233604 
z
" clip-path="url(#pf0187d452f)" style="fill: #7c06ff"/>
    <path d="M 272.41788 397.158337 
L 262.483116 391.225793 
L 272.288246 385.417 
L 282.221656 391.415075 
z
" clip-path="url(#pf0187d452f)" style="fill: #7c06ff"/>
    <path d="M 252.613183 397.065249 
L 242.743268 391.233604 
L 252.613183 385.330127 
L 262.483116 391.225793 
z
" clip-path="url(#pf0187d452f)" style="fill: #7c06ff"/>
    <path d="M 360.459809 340.905881 
L 350.653542 321.386224 
L 362.055571 237.865623 
L 371.692565 269.162424 
z
" clip-path="url(#pf0187d452f)" style="fill: #4ef3cd"/>
    <path d="M 350.653542 321.386224 
L 340.749969 306.643867 
L 351.972817 223.864651 
L 362.055571 237.865623 
z
" clip-path="url(#pf0187d452f)" style="fill: #76ffb9"/>
    <path d="M 331.969805 389.819568 
L 321.683611 392.393734 
L 331.286341 386.873171 
L 341.586154 384.398928 
z
" clip-path="url(#pf0187d452f)" style="fill: #7413ff"/>
    <path d="M 371.489779 157.686681 
L 361.221951 152.724367 
L 370.792514 144.438104 
L 381.068479 149.265952 
z
" clip-path="url(#pf0187d452f)" style="fill: #ff160b"/>
    <path d="M 331.681175 207.517336 
L 321.58691 201.237882 
L 331.586285 173.32028 
L 341.748584 178.596705 
z
" clip-path="url(#pf0187d452f)" style="fill: #ff8c49"/>
    <path d="M 341.748584 178.596705 
L 331.586285 173.32028 
L 341.363853 158.300932 
L 351.55374 163.233352 
z
" clip-path="url(#pf0187d452f)" style="fill: #ff4a26"/>
    <path d="M 391.406274 154.352903 
L 381.068479 149.265952 
L 390.561438 142.091546 
L 400.904907 147.034078 
z
" clip-path="url(#pf0187d452f)" style="fill: #ff0905"/>
    <path d="M 411.301082 152.462444 
L 400.904907 147.034078 
L 410.324159 140.507633 
L 420.726013 145.734686 
z
" clip-path="url(#pf0187d452f)" style="fill: #ff0302"/>
    <path d="M 183.08461 404.115345 
L 173.422202 398.638965 
L 183.54323 392.422834 
L 193.210356 397.958046 
z
" clip-path="url(#pf0187d452f)" style="fill: #8000ff"/>
    <path d="M 361.805904 168.438316 
L 351.55374 163.233352 
L 361.221951 152.724367 
L 371.489779 157.686681 
z
" clip-path="url(#pf0187d452f)" style="fill: #ff2c16"/>
    <path d="M 202.943021 403.530711 
L 193.210356 397.958046 
L 203.270625 391.834188 
L 213.006687 397.466985 
z
" clip-path="url(#pf0187d452f)" style="fill: #7e03ff"/>
    <path d="M 302.283464 403.520526 
L 292.219843 397.44949 
L 301.956102 391.803241 
L 312.016252 397.940847 
z
" clip-path="url(#pf0187d452f)" style="fill: #7e03ff"/>
    <path d="M 222.808303 403.137419 
L 213.006687 397.466985 
L 223.004864 391.436997 
L 232.808534 397.168682 
z
" clip-path="url(#pf0187d452f)" style="fill: #7e03ff"/>
    <path d="M 282.418129 403.128092 
L 272.41788 397.158337 
L 282.221656 391.415075 
L 292.219843 397.44949 
z
" clip-path="url(#pf0187d452f)" style="fill: #7e03ff"/>
    <path d="M 242.677752 402.938038 
L 232.808534 397.168682 
L 242.743268 391.233604 
L 252.613183 397.065249 
z
" clip-path="url(#pf0187d452f)" style="fill: #7c06ff"/>
    <path d="M 262.548621 402.934433 
L 252.613183 397.065249 
L 262.483116 391.225793 
L 272.41788 397.158337 
z
" clip-path="url(#pf0187d452f)" style="fill: #7c06ff"/>
    <path d="M 341.819081 214.735007 
L 331.681175 207.517336 
L 341.748584 178.596705 
L 351.968011 184.335148 
z
" clip-path="url(#pf0187d452f)" style="fill: #ff914c"/>
    <path d="M 381.81677 163.006241 
L 371.489779 157.686681 
L 381.068479 149.265952 
L 391.406274 154.352903 
z
" clip-path="url(#pf0187d452f)" style="fill: #ff190d"/>
    <path d="M 322.287684 395.277282 
L 312.016252 397.940847 
L 321.683611 392.393734 
L 331.969805 389.819568 
z
" clip-path="url(#pf0187d452f)" style="fill: #7413ff"/>
    <path d="M 351.968011 184.335148 
L 341.748584 178.596705 
L 351.55374 163.233352 
L 361.805904 168.438316 
z
" clip-path="url(#pf0187d452f)" style="fill: #ff4d27"/>
    <path d="M 401.792022 160.086286 
L 391.406274 154.352903 
L 400.904907 147.034078 
L 411.301082 152.462444 
z
" clip-path="url(#pf0187d452f)" style="fill: #ff0d06"/>
    <path d="M 421.682854 160.077858 
L 411.301082 152.462444 
L 420.726013 145.734686 
L 431.130224 152.63355 
z
" clip-path="url(#pf0187d452f)" style="fill: #ff0905"/>
    <path d="M 372.11207 174.186288 
L 361.805904 168.438316 
L 371.489779 157.686681 
L 381.81677 163.006241 
z
" clip-path="url(#pf0187d452f)" style="fill: #ff2c16"/>
    <path d="M 192.81319 409.62923 
L 183.08461 404.115345 
L 193.210356 397.958046 
L 202.943021 403.530711 
z
" clip-path="url(#pf0187d452f)" style="fill: #8000ff"/>
    <path d="M 212.741895 409.141209 
L 202.943021 403.530711 
L 213.006687 397.466985 
L 222.808303 403.137419 
z
" clip-path="url(#pf0187d452f)" style="fill: #7e03ff"/>
    <path d="M 292.484526 409.135373 
L 282.418129 403.128092 
L 292.219843 397.44949 
L 302.283464 403.520526 
z
" clip-path="url(#pf0187d452f)" style="fill: #7e03ff"/>
    <path d="M 232.676139 408.845868 
L 222.808303 403.137419 
L 232.808534 397.168682 
L 242.677752 402.938038 
z
" clip-path="url(#pf0187d452f)" style="fill: #7e03ff"/>
    <path d="M 272.550247 408.841511 
L 262.548621 402.934433 
L 272.41788 397.158337 
L 282.418129 403.128092 
z
" clip-path="url(#pf0187d452f)" style="fill: #7e03ff"/>
    <path d="M 252.613183 408.745437 
L 242.677752 402.938038 
L 252.613183 397.065249 
L 262.548621 402.934433 
z
" clip-path="url(#pf0187d452f)" style="fill: #7e03ff"/>
    <path d="M 351.972817 223.864651 
L 341.819081 214.735007 
L 351.968011 184.335148 
L 362.230117 191.023862 
z
" clip-path="url(#pf0187d452f)" style="fill: #ff9850"/>
    <path d="M 392.183608 169.247171 
L 381.81677 163.006241 
L 391.406274 154.352903 
L 401.792022 160.086286 
z
" clip-path="url(#pf0187d452f)" style="fill: #ff1c0e"/>
    <path d="M 312.539116 400.772452 
L 302.283464 403.520526 
L 312.016252 397.940847 
L 322.287684 395.277282 
z
" clip-path="url(#pf0187d452f)" style="fill: #7413ff"/>
    <path d="M 412.136949 168.837227 
L 401.792022 160.086286 
L 411.301082 152.462444 
L 421.682854 160.077858 
z
" clip-path="url(#pf0187d452f)" style="fill: #ff160b"/>
    <path d="M 362.230117 191.023862 
L 351.968011 184.335148 
L 361.805904 168.438316 
L 372.11207 174.186288 
z
" clip-path="url(#pf0187d452f)" style="fill: #ff5029"/>
    <path d="M 362.055571 237.865623 
L 351.972817 223.864651 
L 362.230117 191.023862 
L 372.484632 200.298094 
z
" clip-path="url(#pf0187d452f)" style="fill: #ffa95b"/>
    <path d="M 371.692565 269.162424 
L 362.055571 237.865623 
L 372.484632 200.298094 
L 382.421888 222.037523 
z
" clip-path="url(#pf0187d452f)" style="fill: #e2d176"/>
    <path d="M 382.442828 181.381296 
L 372.11207 174.186288 
L 381.81677 163.006241 
L 392.183608 169.247171 
z
" clip-path="url(#pf0187d452f)" style="fill: #ff3219"/>
    <path d="M 202.608627 415.181007 
L 192.81319 409.62923 
L 202.943021 403.530711 
L 212.741895 409.141209 
z
" clip-path="url(#pf0187d452f)" style="fill: #8000ff"/>
    <path d="M 222.607655 414.789927 
L 212.741895 409.141209 
L 222.808303 403.137419 
L 232.676139 408.845868 
z
" clip-path="url(#pf0187d452f)" style="fill: #8000ff"/>
    <path d="M 282.618732 414.786827 
L 272.550247 408.841511 
L 282.418129 403.128092 
L 292.484526 409.135373 
z
" clip-path="url(#pf0187d452f)" style="fill: #8000ff"/>
    <path d="M 402.464752 179.956722 
L 392.183608 169.247171 
L 401.792022 160.086286 
L 412.136949 168.837227 
z
" clip-path="url(#pf0187d452f)" style="fill: #ff2914"/>
    <path d="M 242.610871 414.592715 
L 232.676139 408.845868 
L 242.677752 402.938038 
L 252.613183 408.745437 
z
" clip-path="url(#pf0187d452f)" style="fill: #7e03ff"/>
    <path d="M 262.615498 414.59125 
L 252.613183 408.745437 
L 262.548621 402.934433 
L 272.550247 408.841511 
z
" clip-path="url(#pf0187d452f)" style="fill: #7e03ff"/>
    <path d="M 372.484632 200.298094 
L 362.230117 191.023862 
L 372.11207 174.186288 
L 382.442828 181.381296 
z
" clip-path="url(#pf0187d452f)" style="fill: #ff5c2f"/>
    <path d="M 302.723412 406.305465 
L 292.484526 409.135373 
L 302.283464 403.520526 
L 312.539116 400.772452 
z
" clip-path="url(#pf0187d452f)" style="fill: #7413ff"/>
    <path d="M 392.605588 195.803415 
L 382.442828 181.381296 
L 392.183608 169.247171 
L 402.464752 179.956722 
z
" clip-path="url(#pf0187d452f)" style="fill: #ff4724"/>
    <path d="M 382.421888 222.037523 
L 372.484632 200.298094 
L 382.442828 181.381296 
L 392.605588 195.803415 
z
" clip-path="url(#pf0187d452f)" style="fill: #ff7b40"/>
    <path d="M 212.47161 420.771068 
L 202.608627 415.181007 
L 212.741895 409.141209 
L 222.607655 414.789927 
z
" clip-path="url(#pf0187d452f)" style="fill: #8000ff"/>
    <path d="M 232.54099 420.477257 
L 222.607655 414.789927 
L 232.676139 408.845868 
L 242.610871 414.592715 
z
" clip-path="url(#pf0187d452f)" style="fill: #8000ff"/>
    <path d="M 272.685382 420.475843 
L 262.615498 414.59125 
L 272.550247 408.841511 
L 282.618732 414.786827 
z
" clip-path="url(#pf0187d452f)" style="fill: #8000ff"/>
    <path d="M 252.613183 420.378346 
L 242.610871 414.592715 
L 252.613183 408.745437 
L 262.615498 414.59125 
z
" clip-path="url(#pf0187d452f)" style="fill: #8000ff"/>
    <path d="M 292.839879 411.876713 
L 282.618732 414.786827 
L 292.484526 409.135373 
L 302.723412 406.305465 
z
" clip-path="url(#pf0187d452f)" style="fill: #7413ff"/>
    <path d="M 222.402841 426.399809 
L 212.47161 420.771068 
L 222.607655 414.789927 
L 232.54099 420.477257 
z
" clip-path="url(#pf0187d452f)" style="fill: #8000ff"/>
    <path d="M 242.542597 426.203593 
L 232.54099 420.477257 
L 242.610871 414.592715 
L 252.613183 420.378346 
z
" clip-path="url(#pf0187d452f)" style="fill: #8000ff"/>
    <path d="M 262.683769 426.203144 
L 252.613183 420.378346 
L 262.615498 414.59125 
L 272.685382 420.475843 
z
" clip-path="url(#pf0187d452f)" style="fill: #8000ff"/>
    <path d="M 282.88781 417.486595 
L 272.685382 420.475843 
L 282.618732 414.786827 
L 292.839879 411.876713 
z
" clip-path="url(#pf0187d452f)" style="fill: #7413ff"/>
    <path d="M 232.403032 432.067635 
L 222.402841 426.399809 
L 232.54099 420.477257 
L 242.542597 426.203593 
z
" clip-path="url(#pf0187d452f)" style="fill: #8000ff"/>
    <path d="M 252.613183 431.969335 
L 242.542597 426.203593 
L 252.613183 420.378346 
L 262.683769 426.203144 
z
" clip-path="url(#pf0187d452f)" style="fill: #8000ff"/>
    <path d="M 272.866489 423.135512 
L 262.683769 426.203144 
L 272.685382 420.475843 
L 282.88781 417.486595 
z
" clip-path="url(#pf0187d452f)" style="fill: #7413ff"/>
    <path d="M 242.472902 437.774951 
L 232.403032 432.067635 
L 242.542597 426.203593 
L 252.613183 431.969335 
z
" clip-path="url(#pf0187d452f)" style="fill: #8000ff"/>
    <path d="M 262.775192 428.823875 
L 252.613183 431.969335 
L 262.683769 426.203144 
L 272.866489 423.135512 
z
" clip-path="url(#pf0187d452f)" style="fill: #7413ff"/>
    <path d="M 252.613183 434.552097 
L 242.472902 437.774951 
L 252.613183 431.969335 
L 262.775192 428.823875 
z
" clip-path="url(#pf0187d452f)" style="fill: #7413ff"/>
   </g>
   <g id="text_22">
    <!-- steady-state PQ redox state -->
    <g transform="translate(162.718436 16.318125) scale(0.12 -0.12)">
     <defs>
      <path id="DejaVuSans-2d" d="M 313 2009 
L 1997 2009 
L 1997 1497 
L 313 1497 
L 313 2009 
z
" transform="scale(0.015625)"/>
      <path id="DejaVuSans-78" d="M 3513 3500 
L 2247 1797 
L 3578 0 
L 2900 0 
L 1881 1375 
L 863 0 
L 184 0 
L 1544 1831 
L 300 3500 
L 978 3500 
L 1906 2253 
L 2834 3500 
L 3513 3500 
z
" transform="scale(0.015625)"/>
     </defs>
     <use xlink:href="#DejaVuSans-73"/>
     <use xlink:href="#DejaVuSans-74" transform="translate(52.099609 0)"/>
     <use xlink:href="#DejaVuSans-65" transform="translate(91.308594 0)"/>
     <use xlink:href="#DejaVuSans-61" transform="translate(152.832031 0)"/>
     <use xlink:href="#DejaVuSans-64" transform="translate(214.111328 0)"/>
     <use xlink:href="#DejaVuSans-79" transform="translate(277.587891 0)"/>
     <use xlink:href="#DejaVuSans-2d" transform="translate(335.017578 0)"/>
     <use xlink:href="#DejaVuSans-73" transform="translate(371.101562 0)"/>
     <use xlink:href="#DejaVuSans-74" transform="translate(423.201172 0)"/>
     <use xlink:href="#DejaVuSans-61" transform="translate(462.410156 0)"/>
     <use xlink:href="#DejaVuSans-74" transform="translate(523.689453 0)"/>
     <use xlink:href="#DejaVuSans-65" transform="translate(562.898438 0)"/>
     <use xlink:href="#DejaVuSans-20" transform="translate(624.421875 0)"/>
     <use xlink:href="#DejaVuSans-50" transform="translate(656.208984 0)"/>
     <use xlink:href="#DejaVuSans-51" transform="translate(716.511719 0)"/>
     <use xlink:href="#DejaVuSans-20" transform="translate(795.222656 0)"/>
     <use xlink:href="#DejaVuSans-72" transform="translate(827.009766 0)"/>
     <use xlink:href="#DejaVuSans-65" transform="translate(865.873047 0)"/>
     <use xlink:href="#DejaVuSans-64" transform="translate(927.396484 0)"/>
     <use xlink:href="#DejaVuSans-6f" transform="translate(990.873047 0)"/>
     <use xlink:href="#DejaVuSans-78" transform="translate(1048.929688 0)"/>
     <use xlink:href="#DejaVuSans-20" transform="translate(1108.109375 0)"/>
     <use xlink:href="#DejaVuSans-73" transform="translate(1139.896484 0)"/>
     <use xlink:href="#DejaVuSans-74" transform="translate(1191.996094 0)"/>
     <use xlink:href="#DejaVuSans-61" transform="translate(1231.205078 0)"/>
     <use xlink:href="#DejaVuSans-74" transform="translate(1292.484375 0)"/>
     <use xlink:href="#DejaVuSans-65" transform="translate(1331.693359 0)"/>
    </g>
   </g>
  </g>
 </g>
 <defs>
  <clipPath id="pf0187d452f">
   <rect x="13.151561" y="22.318125" width="466.32" height="466.32"/>
  </clipPath>
 </defs>
</svg>
