<?xml version="1.0" encoding="utf-8" standalone="no"?>
<!DOCTYPE svg PUBLIC "-//W3C//DTD SVG 1.1//EN"
  "http://www.w3.org/Graphics/SVG/1.1/DTD/svg11.dtd">
<svg xmlns:xlink="http://www.w3.org/1999/xlink" width="352.46125pt" height="711.835469pt" viewBox="0 0 352.46125 711.835469" xmlns="http://www.w3.org/2000/svg" version="1.1">
 <metadata>
  <rdf:RDF xmlns:dc="http://purl.org/dc/elements/1.1/" xmlns:cc="http://creativecommons.org/ns#" xmlns:rdf="http://www.w3.org/1999/02/22-rdf-syntax-ns#">
   <cc:Work>
    <dc:type rdf:resource="http://purl.org/dc/dcmitype/StillImage"/>
    <dc:date>2026-06-26T14:42:39.032373</dc:date>
    <dc:format>image/svg+xml</dc:format>
    <dc:creator>
     <cc:Agent>
      <dc:title>Matplotlib v3.10.9, https://matplotlib.org/</dc:title>
     </cc:Agent>
    </dc:creator>
   </cc:Work>
  </rdf:RDF>
 </metadata>
 <defs>
  <style type="text/css">*{stroke-linejoin: round; stroke-linecap: butt}</style>
 </defs>
 <g id="figure_1">
  <g id="patch_1">
   <path d="M 0 711.835469 
L 352.46125 711.835469 
L 352.46125 0 
L 0 0 
z
" style="fill: #ffffff"/>
  </g>
  <g id="axes_1">
   <g id="patch_2">
    <path d="M 43.78125 319.679219 
L 345.26125 319.679219 
L 345.26125 10.999219 
L 43.78125 10.999219 
z
" style="fill: #ffffff"/>
   </g>
   <g id="matplotlib.axis_1">
    <g id="xtick_1">
     <g id="line2d_1">
      <defs>
       <path id="m41046f9174" d="M 0 0 
L 0 3.5 
" style="stroke: #000000; stroke-width: 0.8"/>
      </defs>
      <g>
       <use xlink:href="#m41046f9174" x="43.78125" y="319.679219" style="stroke: #000000; stroke-width: 0.8"/>
      </g>
     </g>
     <g id="text_1">
      <!-- 0.0 -->
      <g transform="translate(35.829688 334.277656) scale(0.1 -0.1)">
       <defs>
        <path id="DejaVuSans-30" d="M 2034 4250 
Q 1547 4250 1301 3770 
Q 1056 3291 1056 2328 
Q 1056 1369 1301 889 
Q 1547 409 2034 409 
Q 2525 409 2770 889 
Q 3016 1369 3016 2328 
Q 3016 3291 2770 3770 
Q 2525 4250 2034 4250 
z
M 2034 4750 
Q 2819 4750 3233 4129 
Q 3647 3509 3647 2328 
Q 3647 1150 3233 529 
Q 2819 -91 2034 -91 
Q 1250 -91 836 529 
Q 422 1150 422 2328 
Q 422 3509 836 4129 
Q 1250 4750 2034 4750 
z
" transform="scale(0.015625)"/>
        <path id="DejaVuSans-2e" d="M 684 794 
L 1344 794 
L 1344 0 
L 684 0 
L 684 794 
z
" transform="scale(0.015625)"/>
       </defs>
       <use xlink:href="#DejaVuSans-30"/>
       <use xlink:href="#DejaVuSans-2e" transform="translate(63.623047 0)"/>
       <use xlink:href="#DejaVuSans-30" transform="translate(95.410156 0)"/>
      </g>
     </g>
    </g>
    <g id="xtick_2">
     <g id="line2d_2">
      <g>
       <use xlink:href="#m41046f9174" x="76.550815" y="319.679219" style="stroke: #000000; stroke-width: 0.8"/>
      </g>
     </g>
     <g id="text_2">
      <!-- 0.5 -->
      <g transform="translate(68.599253 334.277656) scale(0.1 -0.1)">
       <defs>
        <path id="DejaVuSans-35" d="M 691 4666 
L 3169 4666 
L 3169 4134 
L 1269 4134 
L 1269 2991 
Q 1406 3038 1543 3061 
Q 1681 3084 1819 3084 
Q 2600 3084 3056 2656 
Q 3513 2228 3513 1497 
Q 3513 744 3044 326 
Q 2575 -91 1722 -91 
Q 1428 -91 1123 -41 
Q 819 9 494 109 
L 494 744 
Q 775 591 1075 516 
Q 1375 441 1709 441 
Q 2250 441 2565 725 
Q 2881 1009 2881 1497 
Q 2881 1984 2565 2268 
Q 2250 2553 1709 2553 
Q 1456 2553 1204 2497 
Q 953 2441 691 2322 
L 691 4666 
z
" transform="scale(0.015625)"/>
       </defs>
       <use xlink:href="#DejaVuSans-30"/>
       <use xlink:href="#DejaVuSans-2e" transform="translate(63.623047 0)"/>
       <use xlink:href="#DejaVuSans-35" transform="translate(95.410156 0)"/>
      </g>
     </g>
    </g>
    <g id="xtick_3">
     <g id="line2d_3">
      <g>
       <use xlink:href="#m41046f9174" x="109.32038" y="319.679219" style="stroke: #000000; stroke-width: 0.8"/>
      </g>
     </g>
     <g id="text_3">
      <!-- 1.0 -->
      <g transform="translate(101.368818 334.277656) scale(0.1 -0.1)">
       <defs>
        <path id="DejaVuSans-31" d="M 794 531 
L 1825 531 
L 1825 4091 
L 703 3866 
L 703 4441 
L 1819 4666 
L 2450 4666 
L 2450 531 
L 3481 531 
L 3481 0 
L 794 0 
L 794 531 
z
" transform="scale(0.015625)"/>
       </defs>
       <use xlink:href="#DejaVuSans-31"/>
       <use xlink:href="#DejaVuSans-2e" transform="translate(63.623047 0)"/>
       <use xlink:href="#DejaVuSans-30" transform="translate(95.410156 0)"/>
      </g>
     </g>
    </g>
    <g id="xtick_4">
     <g id="line2d_4">
      <g>
       <use xlink:href="#m41046f9174" x="142.089946" y="319.679219" style="stroke: #000000; stroke-width: 0.8"/>
      </g>
     </g>
     <g id="text_4">
      <!-- 1.5 -->
      <g transform="translate(134.138383 334.277656) scale(0.1 -0.1)">
       <use xlink:href="#DejaVuSans-31"/>
       <use xlink:href="#DejaVuSans-2e" transform="translate(63.623047 0)"/>
       <use xlink:href="#DejaVuSans-35" transform="translate(95.410156 0)"/>
      </g>
     </g>
    </g>
    <g id="xtick_5">
     <g id="line2d_5">
      <g>
       <use xlink:href="#m41046f9174" x="174.859511" y="319.679219" style="stroke: #000000; stroke-width: 0.8"/>
      </g>
     </g>
     <g id="text_5">
      <!-- 2.0 -->
      <g transform="translate(166.907948 334.277656) scale(0.1 -0.1)">
       <defs>
        <path id="DejaVuSans-32" d="M 1228 531 
L 3431 531 
L 3431 0 
L 469 0 
L 469 531 
Q 828 903 1448 1529 
Q 2069 2156 2228 2338 
Q 2531 2678 2651 2914 
Q 2772 3150 2772 3378 
Q 2772 3750 2511 3984 
Q 2250 4219 1831 4219 
Q 1534 4219 1204 4116 
Q 875 4013 500 3803 
L 500 4441 
Q 881 4594 1212 4672 
Q 1544 4750 1819 4750 
Q 2544 4750 2975 4387 
Q 3406 4025 3406 3419 
Q 3406 3131 3298 2873 
Q 3191 2616 2906 2266 
Q 2828 2175 2409 1742 
Q 1991 1309 1228 531 
z
" transform="scale(0.015625)"/>
       </defs>
       <use xlink:href="#DejaVuSans-32"/>
       <use xlink:href="#DejaVuSans-2e" transform="translate(63.623047 0)"/>
       <use xlink:href="#DejaVuSans-30" transform="translate(95.410156 0)"/>
      </g>
     </g>
    </g>
    <g id="xtick_6">
     <g id="line2d_6">
      <g>
       <use xlink:href="#m41046f9174" x="207.629076" y="319.679219" style="stroke: #000000; stroke-width: 0.8"/>
      </g>
     </g>
     <g id="text_6">
      <!-- 2.5 -->
      <g transform="translate(199.677514 334.277656) scale(0.1 -0.1)">
       <use xlink:href="#DejaVuSans-32"/>
       <use xlink:href="#DejaVuSans-2e" transform="translate(63.623047 0)"/>
       <use xlink:href="#DejaVuSans-35" transform="translate(95.410156 0)"/>
      </g>
     </g>
    </g>
    <g id="xtick_7">
     <g id="line2d_7">
      <g>
       <use xlink:href="#m41046f9174" x="240.398641" y="319.679219" style="stroke: #000000; stroke-width: 0.8"/>
      </g>
     </g>
     <g id="text_7">
      <!-- 3.0 -->
      <g transform="translate(232.447079 334.277656) scale(0.1 -0.1)">
       <defs>
        <path id="DejaVuSans-33" d="M 2597 2516 
Q 3050 2419 3304 2112 
Q 3559 1806 3559 1356 
Q 3559 666 3084 287 
Q 2609 -91 1734 -91 
Q 1441 -91 1130 -33 
Q 819 25 488 141 
L 488 750 
Q 750 597 1062 519 
Q 1375 441 1716 441 
Q 2309 441 2620 675 
Q 2931 909 2931 1356 
Q 2931 1769 2642 2001 
Q 2353 2234 1838 2234 
L 1294 2234 
L 1294 2753 
L 1863 2753 
Q 2328 2753 2575 2939 
Q 2822 3125 2822 3475 
Q 2822 3834 2567 4026 
Q 2313 4219 1838 4219 
Q 1578 4219 1281 4162 
Q 984 4106 628 3988 
L 628 4550 
Q 988 4650 1302 4700 
Q 1616 4750 1894 4750 
Q 2613 4750 3031 4423 
Q 3450 4097 3450 3541 
Q 3450 3153 3228 2886 
Q 3006 2619 2597 2516 
z
" transform="scale(0.015625)"/>
       </defs>
       <use xlink:href="#DejaVuSans-33"/>
       <use xlink:href="#DejaVuSans-2e" transform="translate(63.623047 0)"/>
       <use xlink:href="#DejaVuSans-30" transform="translate(95.410156 0)"/>
      </g>
     </g>
    </g>
    <g id="xtick_8">
     <g id="line2d_8">
      <g>
       <use xlink:href="#m41046f9174" x="273.168207" y="319.679219" style="stroke: #000000; stroke-width: 0.8"/>
      </g>
     </g>
     <g id="text_8">
      <!-- 3.5 -->
      <g transform="translate(265.216644 334.277656) scale(0.1 -0.1)">
       <use xlink:href="#DejaVuSans-33"/>
       <use xlink:href="#DejaVuSans-2e" transform="translate(63.623047 0)"/>
       <use xlink:href="#DejaVuSans-35" transform="translate(95.410156 0)"/>
      </g>
     </g>
    </g>
    <g id="xtick_9">
     <g id="line2d_9">
      <g>
       <use xlink:href="#m41046f9174" x="305.937772" y="319.679219" style="stroke: #000000; stroke-width: 0.8"/>
      </g>
     </g>
     <g id="text_9">
      <!-- 4.0 -->
      <g transform="translate(297.986209 334.277656) scale(0.1 -0.1)">
       <defs>
        <path id="DejaVuSans-34" d="M 2419 4116 
L 825 1625 
L 2419 1625 
L 2419 4116 
z
M 2253 4666 
L 3047 4666 
L 3047 1625 
L 3713 1625 
L 3713 1100 
L 3047 1100 
L 3047 0 
L 2419 0 
L 2419 1100 
L 313 1100 
L 313 1709 
L 2253 4666 
z
" transform="scale(0.015625)"/>
       </defs>
       <use xlink:href="#DejaVuSans-34"/>
       <use xlink:href="#DejaVuSans-2e" transform="translate(63.623047 0)"/>
       <use xlink:href="#DejaVuSans-30" transform="translate(95.410156 0)"/>
      </g>
     </g>
    </g>
    <g id="text_10">
     <!-- Time (min) -->
     <g transform="translate(167.368906 347.955781) scale(0.1 -0.1)">
      <defs>
       <path id="DejaVuSans-54" d="M -19 4666 
L 3928 4666 
L 3928 4134 
L 2272 4134 
L 2272 0 
L 1638 0 
L 1638 4134 
L -19 4134 
L -19 4666 
z
" transform="scale(0.015625)"/>
       <path id="DejaVuSans-69" d="M 603 3500 
L 1178 3500 
L 1178 0 
L 603 0 
L 603 3500 
z
M 603 4863 
L 1178 4863 
L 1178 4134 
L 603 4134 
L 603 4863 
z
" transform="scale(0.015625)"/>
       <path id="DejaVuSans-6d" d="M 3328 2828 
Q 3544 3216 3844 3400 
Q 4144 3584 4550 3584 
Q 5097 3584 5394 3201 
Q 5691 2819 5691 2113 
L 5691 0 
L 5113 0 
L 5113 2094 
Q 5113 2597 4934 2840 
Q 4756 3084 4391 3084 
Q 3944 3084 3684 2787 
Q 3425 2491 3425 1978 
L 3425 0 
L 2847 0 
L 2847 2094 
Q 2847 2600 2669 2842 
Q 2491 3084 2119 3084 
Q 1678 3084 1418 2786 
Q 1159 2488 1159 1978 
L 1159 0 
L 581 0 
L 581 3500 
L 1159 3500 
L 1159 2956 
Q 1356 3278 1631 3431 
Q 1906 3584 2284 3584 
Q 2666 3584 2933 3390 
Q 3200 3197 3328 2828 
z
" transform="scale(0.015625)"/>
       <path id="DejaVuSans-65" d="M 3597 1894 
L 3597 1613 
L 953 1613 
Q 991 1019 1311 708 
Q 1631 397 2203 397 
Q 2534 397 2845 478 
Q 3156 559 3463 722 
L 3463 178 
Q 3153 47 2828 -22 
Q 2503 -91 2169 -91 
Q 1331 -91 842 396 
Q 353 884 353 1716 
Q 353 2575 817 3079 
Q 1281 3584 2069 3584 
Q 2775 3584 3186 3129 
Q 3597 2675 3597 1894 
z
M 3022 2063 
Q 3016 2534 2758 2815 
Q 2500 3097 2075 3097 
Q 1594 3097 1305 2825 
Q 1016 2553 972 2059 
L 3022 2063 
z
" transform="scale(0.015625)"/>
       <path id="DejaVuSans-20" transform="scale(0.015625)"/>
       <path id="DejaVuSans-28" d="M 1984 4856 
Q 1566 4138 1362 3434 
Q 1159 2731 1159 2009 
Q 1159 1288 1364 580 
Q 1569 -128 1984 -844 
L 1484 -844 
Q 1016 -109 783 600 
Q 550 1309 550 2009 
Q 550 2706 781 3412 
Q 1013 4119 1484 4856 
L 1984 4856 
z
" transform="scale(0.015625)"/>
       <path id="DejaVuSans-6e" d="M 3513 2113 
L 3513 0 
L 2938 0 
L 2938 2094 
Q 2938 2591 2744 2837 
Q 2550 3084 2163 3084 
Q 1697 3084 1428 2787 
Q 1159 2491 1159 1978 
L 1159 0 
L 581 0 
L 581 3500 
L 1159 3500 
L 1159 2956 
Q 1366 3272 1645 3428 
Q 1925 3584 2291 3584 
Q 2894 3584 3203 3211 
Q 3513 2838 3513 2113 
z
" transform="scale(0.015625)"/>
       <path id="DejaVuSans-29" d="M 513 4856 
L 1013 4856 
Q 1481 4119 1714 3412 
Q 1947 2706 1947 2009 
Q 1947 1309 1714 600 
Q 1481 -109 1013 -844 
L 513 -844 
Q 928 -128 1133 580 
Q 1338 1288 1338 2009 
Q 1338 2731 1133 3434 
Q 928 4138 513 4856 
z
" transform="scale(0.015625)"/>
      </defs>
      <use xlink:href="#DejaVuSans-54"/>
      <use xlink:href="#DejaVuSans-69" transform="translate(57.958984 0)"/>
      <use xlink:href="#DejaVuSans-6d" transform="translate(85.742188 0)"/>
      <use xlink:href="#DejaVuSans-65" transform="translate(183.154297 0)"/>
      <use xlink:href="#DejaVuSans-20" transform="translate(244.677734 0)"/>
      <use xlink:href="#DejaVuSans-28" transform="translate(276.464844 0)"/>
      <use xlink:href="#DejaVuSans-6d" transform="translate(315.478516 0)"/>
      <use xlink:href="#DejaVuSans-69" transform="translate(412.890625 0)"/>
      <use xlink:href="#DejaVuSans-6e" transform="translate(440.673828 0)"/>
      <use xlink:href="#DejaVuSans-29" transform="translate(504.052734 0)"/>
     </g>
    </g>
   </g>
   <g id="matplotlib.axis_2">
    <g id="ytick_1">
     <g id="line2d_10">
      <defs>
       <path id="m8950971286" d="M 0 0 
L -3.5 0 
" style="stroke: #000000; stroke-width: 0.8"/>
      </defs>
      <g>
       <use xlink:href="#m8950971286" x="43.78125" y="319.679219" style="stroke: #000000; stroke-width: 0.8"/>
      </g>
     </g>
     <g id="text_11">
      <!-- 0.0 -->
      <g transform="translate(20.878125 323.478437) scale(0.1 -0.1)">
       <use xlink:href="#DejaVuSans-30"/>
       <use xlink:href="#DejaVuSans-2e" transform="translate(63.623047 0)"/>
       <use xlink:href="#DejaVuSans-30" transform="translate(95.410156 0)"/>
      </g>
     </g>
    </g>
    <g id="ytick_2">
     <g id="line2d_11">
      <g>
       <use xlink:href="#m8950971286" x="43.78125" y="288.811219" style="stroke: #000000; stroke-width: 0.8"/>
      </g>
     </g>
     <g id="text_12">
      <!-- 0.1 -->
      <g transform="translate(20.878125 292.610437) scale(0.1 -0.1)">
       <use xlink:href="#DejaVuSans-30"/>
       <use xlink:href="#DejaVuSans-2e" transform="translate(63.623047 0)"/>
       <use xlink:href="#DejaVuSans-31" transform="translate(95.410156 0)"/>
      </g>
     </g>
    </g>
    <g id="ytick_3">
     <g id="line2d_12">
      <g>
       <use xlink:href="#m8950971286" x="43.78125" y="257.943219" style="stroke: #000000; stroke-width: 0.8"/>
      </g>
     </g>
     <g id="text_13">
      <!-- 0.2 -->
      <g transform="translate(20.878125 261.742437) scale(0.1 -0.1)">
       <use xlink:href="#DejaVuSans-30"/>
       <use xlink:href="#DejaVuSans-2e" transform="translate(63.623047 0)"/>
       <use xlink:href="#DejaVuSans-32" transform="translate(95.410156 0)"/>
      </g>
     </g>
    </g>
    <g id="ytick_4">
     <g id="line2d_13">
      <g>
       <use xlink:href="#m8950971286" x="43.78125" y="227.075219" style="stroke: #000000; stroke-width: 0.8"/>
      </g>
     </g>
     <g id="text_14">
      <!-- 0.3 -->
      <g transform="translate(20.878125 230.874437) scale(0.1 -0.1)">
       <use xlink:href="#DejaVuSans-30"/>
       <use xlink:href="#DejaVuSans-2e" transform="translate(63.623047 0)"/>
       <use xlink:href="#DejaVuSans-33" transform="translate(95.410156 0)"/>
      </g>
     </g>
    </g>
    <g id="ytick_5">
     <g id="line2d_14">
      <g>
       <use xlink:href="#m8950971286" x="43.78125" y="196.207219" style="stroke: #000000; stroke-width: 0.8"/>
      </g>
     </g>
     <g id="text_15">
      <!-- 0.4 -->
      <g transform="translate(20.878125 200.006437) scale(0.1 -0.1)">
       <use xlink:href="#DejaVuSans-30"/>
       <use xlink:href="#DejaVuSans-2e" transform="translate(63.623047 0)"/>
       <use xlink:href="#DejaVuSans-34" transform="translate(95.410156 0)"/>
      </g>
     </g>
    </g>
    <g id="ytick_6">
     <g id="line2d_15">
      <g>
       <use xlink:href="#m8950971286" x="43.78125" y="165.339219" style="stroke: #000000; stroke-width: 0.8"/>
      </g>
     </g>
     <g id="text_16">
      <!-- 0.5 -->
      <g transform="translate(20.878125 169.138437) scale(0.1 -0.1)">
       <use xlink:href="#DejaVuSans-30"/>
       <use xlink:href="#DejaVuSans-2e" transform="translate(63.623047 0)"/>
       <use xlink:href="#DejaVuSans-35" transform="translate(95.410156 0)"/>
      </g>
     </g>
    </g>
    <g id="ytick_7">
     <g id="line2d_16">
      <g>
       <use xlink:href="#m8950971286" x="43.78125" y="134.471219" style="stroke: #000000; stroke-width: 0.8"/>
      </g>
     </g>
     <g id="text_17">
      <!-- 0.6 -->
      <g transform="translate(20.878125 138.270437) scale(0.1 -0.1)">
       <defs>
        <path id="DejaVuSans-36" d="M 2113 2584 
Q 1688 2584 1439 2293 
Q 1191 2003 1191 1497 
Q 1191 994 1439 701 
Q 1688 409 2113 409 
Q 2538 409 2786 701 
Q 3034 994 3034 1497 
Q 3034 2003 2786 2293 
Q 2538 2584 2113 2584 
z
M 3366 4563 
L 3366 3988 
Q 3128 4100 2886 4159 
Q 2644 4219 2406 4219 
Q 1781 4219 1451 3797 
Q 1122 3375 1075 2522 
Q 1259 2794 1537 2939 
Q 1816 3084 2150 3084 
Q 2853 3084 3261 2657 
Q 3669 2231 3669 1497 
Q 3669 778 3244 343 
Q 2819 -91 2113 -91 
Q 1303 -91 875 529 
Q 447 1150 447 2328 
Q 447 3434 972 4092 
Q 1497 4750 2381 4750 
Q 2619 4750 2861 4703 
Q 3103 4656 3366 4563 
z
" transform="scale(0.015625)"/>
       </defs>
       <use xlink:href="#DejaVuSans-30"/>
       <use xlink:href="#DejaVuSans-2e" transform="translate(63.623047 0)"/>
       <use xlink:href="#DejaVuSans-36" transform="translate(95.410156 0)"/>
      </g>
     </g>
    </g>
    <g id="ytick_8">
     <g id="line2d_17">
      <g>
       <use xlink:href="#m8950971286" x="43.78125" y="103.603219" style="stroke: #000000; stroke-width: 0.8"/>
      </g>
     </g>
     <g id="text_18">
      <!-- 0.7 -->
      <g transform="translate(20.878125 107.402437) scale(0.1 -0.1)">
       <defs>
        <path id="DejaVuSans-37" d="M 525 4666 
L 3525 4666 
L 3525 4397 
L 1831 0 
L 1172 0 
L 2766 4134 
L 525 4134 
L 525 4666 
z
" transform="scale(0.015625)"/>
       </defs>
       <use xlink:href="#DejaVuSans-30"/>
       <use xlink:href="#DejaVuSans-2e" transform="translate(63.623047 0)"/>
       <use xlink:href="#DejaVuSans-37" transform="translate(95.410156 0)"/>
      </g>
     </g>
    </g>
    <g id="ytick_9">
     <g id="line2d_18">
      <g>
       <use xlink:href="#m8950971286" x="43.78125" y="72.735219" style="stroke: #000000; stroke-width: 0.8"/>
      </g>
     </g>
     <g id="text_19">
      <!-- 0.8 -->
      <g transform="translate(20.878125 76.534437) scale(0.1 -0.1)">
       <defs>
        <path id="DejaVuSans-38" d="M 2034 2216 
Q 1584 2216 1326 1975 
Q 1069 1734 1069 1313 
Q 1069 891 1326 650 
Q 1584 409 2034 409 
Q 2484 409 2743 651 
Q 3003 894 3003 1313 
Q 3003 1734 2745 1975 
Q 2488 2216 2034 2216 
z
M 1403 2484 
Q 997 2584 770 2862 
Q 544 3141 544 3541 
Q 544 4100 942 4425 
Q 1341 4750 2034 4750 
Q 2731 4750 3128 4425 
Q 3525 4100 3525 3541 
Q 3525 3141 3298 2862 
Q 3072 2584 2669 2484 
Q 3125 2378 3379 2068 
Q 3634 1759 3634 1313 
Q 3634 634 3220 271 
Q 2806 -91 2034 -91 
Q 1263 -91 848 271 
Q 434 634 434 1313 
Q 434 1759 690 2068 
Q 947 2378 1403 2484 
z
M 1172 3481 
Q 1172 3119 1398 2916 
Q 1625 2713 2034 2713 
Q 2441 2713 2670 2916 
Q 2900 3119 2900 3481 
Q 2900 3844 2670 4047 
Q 2441 4250 2034 4250 
Q 1625 4250 1398 4047 
Q 1172 3844 1172 3481 
z
" transform="scale(0.015625)"/>
       </defs>
       <use xlink:href="#DejaVuSans-30"/>
       <use xlink:href="#DejaVuSans-2e" transform="translate(63.623047 0)"/>
       <use xlink:href="#DejaVuSans-38" transform="translate(95.410156 0)"/>
      </g>
     </g>
    </g>
    <g id="ytick_10">
     <g id="line2d_19">
      <g>
       <use xlink:href="#m8950971286" x="43.78125" y="41.867219" style="stroke: #000000; stroke-width: 0.8"/>
      </g>
     </g>
     <g id="text_20">
      <!-- 0.9 -->
      <g transform="translate(20.878125 45.666437) scale(0.1 -0.1)">
       <defs>
        <path id="DejaVuSans-39" d="M 703 97 
L 703 672 
Q 941 559 1184 500 
Q 1428 441 1663 441 
Q 2288 441 2617 861 
Q 2947 1281 2994 2138 
Q 2813 1869 2534 1725 
Q 2256 1581 1919 1581 
Q 1219 1581 811 2004 
Q 403 2428 403 3163 
Q 403 3881 828 4315 
Q 1253 4750 1959 4750 
Q 2769 4750 3195 4129 
Q 3622 3509 3622 2328 
Q 3622 1225 3098 567 
Q 2575 -91 1691 -91 
Q 1453 -91 1209 -44 
Q 966 3 703 97 
z
M 1959 2075 
Q 2384 2075 2632 2365 
Q 2881 2656 2881 3163 
Q 2881 3666 2632 3958 
Q 2384 4250 1959 4250 
Q 1534 4250 1286 3958 
Q 1038 3666 1038 3163 
Q 1038 2656 1286 2365 
Q 1534 2075 1959 2075 
z
" transform="scale(0.015625)"/>
       </defs>
       <use xlink:href="#DejaVuSans-30"/>
       <use xlink:href="#DejaVuSans-2e" transform="translate(63.623047 0)"/>
       <use xlink:href="#DejaVuSans-39" transform="translate(95.410156 0)"/>
      </g>
     </g>
    </g>
    <g id="ytick_11">
     <g id="line2d_20">
      <g>
       <use xlink:href="#m8950971286" x="43.78125" y="10.999219" style="stroke: #000000; stroke-width: 0.8"/>
      </g>
     </g>
     <g id="text_21">
      <!-- 1.0 -->
      <g transform="translate(20.878125 14.798437) scale(0.1 -0.1)">
       <use xlink:href="#DejaVuSans-31"/>
       <use xlink:href="#DejaVuSans-2e" transform="translate(63.623047 0)"/>
       <use xlink:href="#DejaVuSans-30" transform="translate(95.410156 0)"/>
      </g>
     </g>
    </g>
    <g id="text_22">
     <!-- Concentration (mM) -->
     <g transform="translate(14.798438 215.385312) rotate(-90) scale(0.1 -0.1)">
      <defs>
       <path id="DejaVuSans-43" d="M 4122 4306 
L 4122 3641 
Q 3803 3938 3442 4084 
Q 3081 4231 2675 4231 
Q 1875 4231 1450 3742 
Q 1025 3253 1025 2328 
Q 1025 1406 1450 917 
Q 1875 428 2675 428 
Q 3081 428 3442 575 
Q 3803 722 4122 1019 
L 4122 359 
Q 3791 134 3420 21 
Q 3050 -91 2638 -91 
Q 1578 -91 968 557 
Q 359 1206 359 2328 
Q 359 3453 968 4101 
Q 1578 4750 2638 4750 
Q 3056 4750 3426 4639 
Q 3797 4528 4122 4306 
z
" transform="scale(0.015625)"/>
       <path id="DejaVuSans-6f" d="M 1959 3097 
Q 1497 3097 1228 2736 
Q 959 2375 959 1747 
Q 959 1119 1226 758 
Q 1494 397 1959 397 
Q 2419 397 2687 759 
Q 2956 1122 2956 1747 
Q 2956 2369 2687 2733 
Q 2419 3097 1959 3097 
z
M 1959 3584 
Q 2709 3584 3137 3096 
Q 3566 2609 3566 1747 
Q 3566 888 3137 398 
Q 2709 -91 1959 -91 
Q 1206 -91 779 398 
Q 353 888 353 1747 
Q 353 2609 779 3096 
Q 1206 3584 1959 3584 
z
" transform="scale(0.015625)"/>
       <path id="DejaVuSans-63" d="M 3122 3366 
L 3122 2828 
Q 2878 2963 2633 3030 
Q 2388 3097 2138 3097 
Q 1578 3097 1268 2742 
Q 959 2388 959 1747 
Q 959 1106 1268 751 
Q 1578 397 2138 397 
Q 2388 397 2633 464 
Q 2878 531 3122 666 
L 3122 134 
Q 2881 22 2623 -34 
Q 2366 -91 2075 -91 
Q 1284 -91 818 406 
Q 353 903 353 1747 
Q 353 2603 823 3093 
Q 1294 3584 2113 3584 
Q 2378 3584 2631 3529 
Q 2884 3475 3122 3366 
z
" transform="scale(0.015625)"/>
       <path id="DejaVuSans-74" d="M 1172 4494 
L 1172 3500 
L 2356 3500 
L 2356 3053 
L 1172 3053 
L 1172 1153 
Q 1172 725 1289 603 
Q 1406 481 1766 481 
L 2356 481 
L 2356 0 
L 1766 0 
Q 1100 0 847 248 
Q 594 497 594 1153 
L 594 3053 
L 172 3053 
L 172 3500 
L 594 3500 
L 594 4494 
L 1172 4494 
z
" transform="scale(0.015625)"/>
       <path id="DejaVuSans-72" d="M 2631 2963 
Q 2534 3019 2420 3045 
Q 2306 3072 2169 3072 
Q 1681 3072 1420 2755 
Q 1159 2438 1159 1844 
L 1159 0 
L 581 0 
L 581 3500 
L 1159 3500 
L 1159 2956 
Q 1341 3275 1631 3429 
Q 1922 3584 2338 3584 
Q 2397 3584 2469 3576 
Q 2541 3569 2628 3553 
L 2631 2963 
z
" transform="scale(0.015625)"/>
       <path id="DejaVuSans-61" d="M 2194 1759 
Q 1497 1759 1228 1600 
Q 959 1441 959 1056 
Q 959 750 1161 570 
Q 1363 391 1709 391 
Q 2188 391 2477 730 
Q 2766 1069 2766 1631 
L 2766 1759 
L 2194 1759 
z
M 3341 1997 
L 3341 0 
L 2766 0 
L 2766 531 
Q 2569 213 2275 61 
Q 1981 -91 1556 -91 
Q 1019 -91 701 211 
Q 384 513 384 1019 
Q 384 1609 779 1909 
Q 1175 2209 1959 2209 
L 2766 2209 
L 2766 2266 
Q 2766 2663 2505 2880 
Q 2244 3097 1772 3097 
Q 1472 3097 1187 3025 
Q 903 2953 641 2809 
L 641 3341 
Q 956 3463 1253 3523 
Q 1550 3584 1831 3584 
Q 2591 3584 2966 3190 
Q 3341 2797 3341 1997 
z
" transform="scale(0.015625)"/>
       <path id="DejaVuSans-4d" d="M 628 4666 
L 1569 4666 
L 2759 1491 
L 3956 4666 
L 4897 4666 
L 4897 0 
L 4281 0 
L 4281 4097 
L 3078 897 
L 2444 897 
L 1241 4097 
L 1241 0 
L 628 0 
L 628 4666 
z
" transform="scale(0.015625)"/>
      </defs>
      <use xlink:href="#DejaVuSans-43"/>
      <use xlink:href="#DejaVuSans-6f" transform="translate(69.824219 0)"/>
      <use xlink:href="#DejaVuSans-6e" transform="translate(131.005859 0)"/>
      <use xlink:href="#DejaVuSans-63" transform="translate(194.384766 0)"/>
      <use xlink:href="#DejaVuSans-65" transform="translate(249.365234 0)"/>
      <use xlink:href="#DejaVuSans-6e" transform="translate(310.888672 0)"/>
      <use xlink:href="#DejaVuSans-74" transform="translate(374.267578 0)"/>
      <use xlink:href="#DejaVuSans-72" transform="translate(413.476562 0)"/>
      <use xlink:href="#DejaVuSans-61" transform="translate(454.589844 0)"/>
      <use xlink:href="#DejaVuSans-74" transform="translate(515.869141 0)"/>
      <use xlink:href="#DejaVuSans-69" transform="translate(555.078125 0)"/>
      <use xlink:href="#DejaVuSans-6f" transform="translate(582.861328 0)"/>
      <use xlink:href="#DejaVuSans-6e" transform="translate(644.042969 0)"/>
      <use xlink:href="#DejaVuSans-20" transform="translate(707.421875 0)"/>
      <use xlink:href="#DejaVuSans-28" transform="translate(739.208984 0)"/>
      <use xlink:href="#DejaVuSans-6d" transform="translate(778.222656 0)"/>
      <use xlink:href="#DejaVuSans-4d" transform="translate(875.634766 0)"/>
      <use xlink:href="#DejaVuSans-29" transform="translate(961.914062 0)"/>
     </g>
    </g>
   </g>
   <g id="line2d_21">
    <path d="M 43.78125 319.679219 
L 44.725013 258.248336 
L 45.59013 215.587437 
L 46.3766 186.931916 
L 47.110638 167.725185 
L 47.766029 155.818327 
L 48.368989 148.558572 
L 48.893302 144.686148 
L 49.312753 142.98942 
L 49.62734 142.432768 
L 49.863281 142.377257 
L 50.073007 142.566875 
L 50.361379 143.164787 
L 50.754613 144.545677 
L 51.278927 147.260301 
L 51.986749 152.201986 
L 52.956728 160.703474 
L 54.424805 175.773645 
L 58.67174 220.30894 
L 60.270895 234.297953 
L 61.68654 244.810923 
L 62.997323 252.933344 
L 64.203243 259.084696 
L 65.356732 263.8698 
L 66.457789 267.534698 
L 67.532631 270.365053 
L 68.581257 272.514493 
L 69.603667 274.119386 
L 70.626078 275.322739 
L 71.674704 276.217601 
L 72.775761 276.862572 
L 73.955466 277.292873 
L 75.266248 277.53047 
L 76.76054 277.570592 
L 78.464558 277.390603 
L 80.3783 276.959784 
L 82.37069 276.282539 
L 84.389295 275.361143 
L 86.4079 274.191923 
L 88.40029 272.779192 
L 90.39268 271.09252 
L 92.385069 269.114039 
L 94.403674 266.791773 
L 96.42228 264.126398 
L 98.440885 261.090874 
L 100.485706 257.606819 
L 102.530527 253.67518 
L 104.575347 249.257116 
L 106.646384 244.24567 
L 108.743636 238.579681 
L 110.89332 232.117891 
L 113.12165 224.694431 
L 115.454843 216.12779 
L 117.997761 205.914743 
L 120.96013 193.044267 
L 125.731379 171.127347 
L 129.611295 153.753461 
L 132.075567 143.70292 
L 134.120387 136.25129 
L 135.929267 130.458037 
L 137.580853 125.87782 
L 139.127577 122.218206 
L 140.595653 119.301396 
L 141.985083 117.020338 
L 143.322081 115.23826 
L 144.632864 113.852314 
L 145.943647 112.78822 
L 147.254429 112.007456 
L 148.617643 111.453018 
L 150.08572 111.09854 
L 151.737306 110.934112 
L 153.755911 110.968352 
L 156.849358 111.274715 
L 161.35845 111.693477 
L 164.006231 111.703638 
L 166.444287 111.491157 
L 168.882342 111.053288 
L 171.42526 110.367276 
L 174.230335 109.373148 
L 177.507292 107.965633 
L 181.963953 105.787305 
L 193.420193 100.091092 
L 198.243873 98.006532 
L 203.093768 96.154678 
L 208.467977 94.345834 
L 215.100537 92.359889 
L 224.616819 89.763423 
L 238.170311 86.301359 
L 250.517883 83.367607 
L 262.629514 80.721916 
L 276.10436 78.012076 
L 291.388085 75.169147 
L 305.937772 72.652763 
L 305.937772 72.652763 
" clip-path="url(#p43ea48e6e4)" style="fill: none; stroke: #000000; stroke-width: 1.5; stroke-linecap: square"/>
   </g>
   <g id="line2d_22">
    <path d="M 43.78125 319.679219 
L 60.454405 319.568377 
L 65.749967 319.287235 
L 70.285274 318.826029 
L 74.558426 318.168307 
L 78.674283 317.310682 
L 82.685278 316.248651 
L 86.59141 314.985029 
L 90.39268 313.52247 
L 94.115302 311.851401 
L 97.759278 309.970622 
L 101.324607 307.88019 
L 104.86372 305.545407 
L 108.376617 302.958305 
L 111.863299 300.113151 
L 115.376196 296.958144 
L 118.941525 293.454924 
L 122.611716 289.532519 
L 126.439201 285.109772 
L 130.476412 280.099375 
L 134.880641 274.271568 
L 139.861615 267.301011 
L 145.891215 258.462651 
L 154.489949 245.423458 
L 172.945768 217.36063 
L 180.679386 206.063129 
L 187.390593 196.644092 
L 193.525055 188.4113 
L 199.292499 181.039042 
L 204.797786 174.359166 
L 210.119563 168.247738 
L 215.336478 162.593146 
L 220.474746 157.35012 
L 225.560582 152.4759 
L 230.646419 147.908384 
L 235.732255 143.637945 
L 240.870523 139.613321 
L 246.061222 135.829752 
L 251.330568 132.263618 
L 256.704777 128.894934 
L 262.210064 125.707012 
L 267.872645 122.686085 
L 273.718735 119.820915 
L 279.774551 117.102381 
L 286.066307 114.523081 
L 292.646436 112.067605 
L 299.541153 109.733432 
L 305.937772 107.763666 
L 305.937772 107.763666 
" clip-path="url(#p43ea48e6e4)" style="fill: none; stroke: #000000; stroke-width: 1.5; stroke-linecap: square"/>
   </g>
   <g id="line2d_23">
    <path d="M 43.78125 319.679219 
L 47.477657 319.569312 
L 48.78844 319.292303 
L 49.915713 318.824884 
L 50.964339 318.147984 
L 52.03918 317.181696 
L 53.166453 315.860698 
L 54.424805 314.027746 
L 55.892881 311.470159 
L 57.754193 307.743338 
L 65.592673 291.486025 
L 67.637493 288.069539 
L 69.734746 284.994669 
L 72.199017 281.788071 
L 82.501768 268.840178 
L 85.542784 264.381018 
L 88.714878 259.328992 
L 92.096697 253.515179 
L 95.714457 246.844578 
L 99.751667 238.917713 
L 104.811288 228.455564 
L 113.72461 209.957424 
L 116.844273 204.053962 
L 119.387191 199.700681 
L 121.589306 196.35751 
L 123.55548 193.760478 
L 125.390575 191.696217 
L 127.120808 190.080734 
L 128.772394 188.838583 
L 130.397765 187.89257 
L 132.023135 187.202238 
L 133.700937 186.729478 
L 135.536033 186.44804 
L 137.633285 186.358239 
L 140.464575 186.479001 
L 146.913626 186.820215 
L 149.587622 186.691928 
L 152.13054 186.345761 
L 154.699674 185.769862 
L 157.478533 184.914292 
L 160.676843 183.687608 
L 164.818916 181.842837 
L 179.945347 174.890289 
L 184.978753 172.947863 
L 190.274314 171.145696 
L 196.408777 169.300732 
L 204.430767 167.135514 
L 216.0443 164.24733 
L 228.365657 161.40108 
L 239.428662 159.071817 
L 250.675177 156.93403 
L 262.996533 154.822444 
L 276.759751 152.693261 
L 292.122123 150.545878 
L 305.937772 148.776524 
L 305.937772 148.776524 
" clip-path="url(#p43ea48e6e4)" style="fill: none; stroke: #000000; stroke-width: 1.5; stroke-linecap: square"/>
   </g>
   <g id="line2d_24">
    <path d="M 43.78125 319.679219 
L 47.058207 295.740015 
L 49.62734 277.706058 
L 51.20028 268.231002 
L 52.563493 261.324685 
L 53.821845 256.038335 
L 55.027765 251.880523 
L 56.207469 248.572423 
L 57.387173 245.906051 
L 58.566878 243.774623 
L 59.772798 242.047034 
L 61.004933 240.65943 
L 62.315716 239.512587 
L 63.731361 238.567797 
L 65.3043 237.787153 
L 67.086965 237.153432 
L 69.184217 236.651085 
L 71.674704 236.291307 
L 74.689504 236.089051 
L 78.359695 236.073782 
L 82.947434 236.287353 
L 89.344053 236.827635 
L 101.953782 237.929585 
L 106.410443 238.065496 
L 109.949556 237.957844 
L 112.964356 237.649061 
L 115.638353 237.155429 
L 118.076408 236.48285 
L 120.383386 235.616549 
L 122.611716 234.540996 
L 124.813831 233.230047 
L 127.068377 231.626554 
L 129.480217 229.630861 
L 132.206645 227.074123 
L 135.85062 223.322311 
L 142.48318 216.461572 
L 145.340687 213.861289 
L 147.857389 211.865069 
L 150.243013 210.254344 
L 152.576207 208.945551 
L 154.961831 207.863862 
L 157.452318 206.98021 
L 160.178746 206.251845 
L 163.35084 205.642663 
L 167.440481 205.098631 
L 187.495455 202.742438 
L 198.217657 200.974592 
L 210.486582 199.025343 
L 220.86798 197.616444 
L 234.50012 196.00925 
L 254.974544 193.832774 
L 277.100554 191.702044 
L 303.316207 189.410864 
L 305.937772 189.192586 
L 305.937772 189.192586 
" clip-path="url(#p43ea48e6e4)" style="fill: none; stroke: #000000; stroke-width: 1.5; stroke-linecap: square"/>
   </g>
   <g id="line2d_25">
    <path d="M 43.78125 165.339219 
L 44.80366 199.036171 
L 45.826071 225.716723 
L 46.848481 246.717214 
L 47.844676 262.785281 
L 48.840871 275.377237 
L 49.81085 284.957614 
L 50.780829 292.413212 
L 51.724593 298.020685 
L 52.64214 302.207938 
L 53.533473 305.29813 
L 54.398589 307.537156 
L 55.23749 309.113802 
L 56.02396 310.146556 
L 56.784213 310.799489 
L 57.544467 311.165224 
L 58.304721 311.288583 
L 59.117407 311.196563 
L 60.034954 310.865486 
L 61.136012 310.219784 
L 62.525441 309.127724 
L 64.491615 307.270573 
L 71.464979 300.463556 
L 74.453563 297.993983 
L 78.543205 294.934974 
L 85.359274 289.833408 
L 89.448916 286.463187 
L 93.564773 282.777516 
L 97.969003 278.528968 
L 103.081055 273.276221 
L 118.312349 257.387678 
L 121.458227 254.580079 
L 124.184655 252.436659 
L 126.675142 250.757572 
L 129.008335 249.448983 
L 131.262881 248.434917 
L 133.543643 247.653252 
L 135.903052 247.082111 
L 138.472186 246.693732 
L 141.513201 246.469318 
L 146.10094 246.384545 
L 152.549991 246.230875 
L 156.639633 245.897703 
L 160.781706 245.333806 
L 165.605386 244.443079 
L 173.103062 242.798783 
L 183.772833 240.499704 
L 191.349156 239.111571 
L 199.895459 237.78181 
L 211.954659 236.151859 
L 230.987222 233.81707 
L 249.39061 231.776812 
L 270.3107 229.692887 
L 296.00204 227.363096 
L 305.937772 226.51545 
L 305.937772 226.51545 
" clip-path="url(#p43ea48e6e4)" style="fill: none; stroke: #000000; stroke-width: 1.5; stroke-linecap: square"/>
   </g>
   <g id="line2d_26">
    <path d="M 43.78125 319.679219 
L 56.44341 319.568819 
L 61.948697 319.266478 
L 68.109375 318.693715 
L 76.996481 317.623518 
L 86.696273 316.244 
L 94.954203 314.848365 
L 102.635389 313.325483 
L 110.316575 311.574087 
L 119.33476 309.276652 
L 135.404954 305.147454 
L 142.48318 303.603553 
L 149.928426 302.213966 
L 159.287413 300.707948 
L 172.919553 298.75702 
L 188.045984 296.807659 
L 202.071358 295.223997 
L 216.83077 293.785892 
L 233.241768 292.414724 
L 251.251921 291.136143 
L 271.018523 289.95976 
L 293.196965 288.867469 
L 305.937772 288.327535 
L 305.937772 288.327535 
" clip-path="url(#p43ea48e6e4)" style="fill: none; stroke: #000000; stroke-width: 1.5; stroke-linecap: square"/>
   </g>
   <g id="line2d_27">
    <path d="M 43.78125 196.207219 
L 48.60493 202.605717 
L 62.158422 220.734062 
L 68.240453 228.410515 
L 74.007897 235.335955 
L 79.591831 241.698052 
L 85.044687 247.577611 
L 90.39268 253.020865 
L 95.688241 258.095548 
L 100.931372 262.814356 
L 106.174502 267.235191 
L 111.417633 271.366612 
L 116.713194 275.256472 
L 122.061187 278.90942 
L 127.514043 282.364218 
L 133.071761 285.621908 
L 138.760558 288.698372 
L 144.580433 291.592862 
L 150.531386 294.30481 
L 156.639633 296.844475 
L 162.931389 299.219205 
L 169.432871 301.434314 
L 176.170293 303.4936 
L 183.169873 305.399495 
L 190.48404 307.158818 
L 198.112794 308.763083 
L 206.029921 310.199883 
L 214.23542 311.462381 
L 222.650645 312.532135 
L 231.196947 313.394953 
L 239.795681 314.04018 
L 248.3682 314.461402 
L 256.914502 314.659078 
L 265.434589 314.633816 
L 273.980892 314.38627 
L 282.658273 313.912161 
L 291.59781 313.199889 
L 300.983013 312.226791 
L 305.937772 311.628799 
L 305.937772 311.628799 
" clip-path="url(#p43ea48e6e4)" style="fill: none; stroke: #000000; stroke-width: 1.5; stroke-linecap: square"/>
   </g>
   <g id="patch_3">
    <path d="M 43.78125 319.679219 
L 43.78125 10.999219 
" style="fill: none; stroke: #000000; stroke-width: 0.8; stroke-linejoin: miter; stroke-linecap: square"/>
   </g>
   <g id="patch_4">
    <path d="M 345.26125 319.679219 
L 345.26125 10.999219 
" style="fill: none; stroke: #000000; stroke-width: 0.8; stroke-linejoin: miter; stroke-linecap: square"/>
   </g>
   <g id="patch_5">
    <path d="M 43.78125 319.679219 
L 345.26125 319.679219 
" style="fill: none; stroke: #000000; stroke-width: 0.8; stroke-linejoin: miter; stroke-linecap: square"/>
   </g>
   <g id="patch_6">
    <path d="M 43.78125 10.999219 
L 345.26125 10.999219 
" style="fill: none; stroke: #000000; stroke-width: 0.8; stroke-linejoin: miter; stroke-linecap: square"/>
   </g>
   <g id="text_23">
    <!-- TP -->
    <g transform="translate(312.491685 75.412138) scale(0.1 -0.1)">
     <defs>
      <path id="DejaVuSans-50" d="M 1259 4147 
L 1259 2394 
L 2053 2394 
Q 2494 2394 2734 2622 
Q 2975 2850 2975 3272 
Q 2975 3691 2734 3919 
Q 2494 4147 2053 4147 
L 1259 4147 
z
M 628 4666 
L 2053 4666 
Q 2838 4666 3239 4311 
Q 3641 3956 3641 3272 
Q 3641 2581 3239 2228 
Q 2838 1875 2053 1875 
L 1259 1875 
L 1259 0 
L 628 0 
L 628 4666 
z
" transform="scale(0.015625)"/>
     </defs>
     <use xlink:href="#DejaVuSans-54"/>
     <use xlink:href="#DejaVuSans-50" transform="translate(61.083984 0)"/>
    </g>
   </g>
   <g id="text_24">
    <!-- Gl -->
    <g transform="translate(312.491685 110.523041) scale(0.1 -0.1)">
     <defs>
      <path id="DejaVuSans-47" d="M 3809 666 
L 3809 1919 
L 2778 1919 
L 2778 2438 
L 4434 2438 
L 4434 434 
Q 4069 175 3628 42 
Q 3188 -91 2688 -91 
Q 1594 -91 976 548 
Q 359 1188 359 2328 
Q 359 3472 976 4111 
Q 1594 4750 2688 4750 
Q 3144 4750 3555 4637 
Q 3966 4525 4313 4306 
L 4313 3634 
Q 3963 3931 3569 4081 
Q 3175 4231 2741 4231 
Q 1884 4231 1454 3753 
Q 1025 3275 1025 2328 
Q 1025 1384 1454 906 
Q 1884 428 2741 428 
Q 3075 428 3337 486 
Q 3600 544 3809 666 
z
" transform="scale(0.015625)"/>
      <path id="DejaVuSans-6c" d="M 603 4863 
L 1178 4863 
L 1178 0 
L 603 0 
L 603 4863 
z
" transform="scale(0.015625)"/>
     </defs>
     <use xlink:href="#DejaVuSans-47"/>
     <use xlink:href="#DejaVuSans-6c" transform="translate(77.490234 0)"/>
    </g>
   </g>
   <g id="text_25">
    <!-- RuBP -->
    <g transform="translate(312.491685 151.535899) scale(0.1 -0.1)">
     <defs>
      <path id="DejaVuSans-52" d="M 2841 2188 
Q 3044 2119 3236 1894 
Q 3428 1669 3622 1275 
L 4263 0 
L 3584 0 
L 2988 1197 
Q 2756 1666 2539 1819 
Q 2322 1972 1947 1972 
L 1259 1972 
L 1259 0 
L 628 0 
L 628 4666 
L 2053 4666 
Q 2853 4666 3247 4331 
Q 3641 3997 3641 3322 
Q 3641 2881 3436 2590 
Q 3231 2300 2841 2188 
z
M 1259 4147 
L 1259 2491 
L 2053 2491 
Q 2509 2491 2742 2702 
Q 2975 2913 2975 3322 
Q 2975 3731 2742 3939 
Q 2509 4147 2053 4147 
L 1259 4147 
z
" transform="scale(0.015625)"/>
      <path id="DejaVuSans-75" d="M 544 1381 
L 544 3500 
L 1119 3500 
L 1119 1403 
Q 1119 906 1312 657 
Q 1506 409 1894 409 
Q 2359 409 2629 706 
Q 2900 1003 2900 1516 
L 2900 3500 
L 3475 3500 
L 3475 0 
L 2900 0 
L 2900 538 
Q 2691 219 2414 64 
Q 2138 -91 1772 -91 
Q 1169 -91 856 284 
Q 544 659 544 1381 
z
M 1991 3584 
L 1991 3584 
z
" transform="scale(0.015625)"/>
      <path id="DejaVuSans-42" d="M 1259 2228 
L 1259 519 
L 2272 519 
Q 2781 519 3026 730 
Q 3272 941 3272 1375 
Q 3272 1813 3026 2020 
Q 2781 2228 2272 2228 
L 1259 2228 
z
M 1259 4147 
L 1259 2741 
L 2194 2741 
Q 2656 2741 2882 2914 
Q 3109 3088 3109 3444 
Q 3109 3797 2882 3972 
Q 2656 4147 2194 4147 
L 1259 4147 
z
M 628 4666 
L 2241 4666 
Q 2963 4666 3353 4366 
Q 3744 4066 3744 3513 
Q 3744 3084 3544 2831 
Q 3344 2578 2956 2516 
Q 3422 2416 3680 2098 
Q 3938 1781 3938 1306 
Q 3938 681 3513 340 
Q 3088 0 2303 0 
L 628 0 
L 628 4666 
z
" transform="scale(0.015625)"/>
     </defs>
     <use xlink:href="#DejaVuSans-52"/>
     <use xlink:href="#DejaVuSans-75" transform="translate(64.982422 0)"/>
     <use xlink:href="#DejaVuSans-42" transform="translate(128.361328 0)"/>
     <use xlink:href="#DejaVuSans-50" transform="translate(196.964844 0)"/>
    </g>
   </g>
   <g id="text_26">
    <!-- HP -->
    <g transform="translate(312.491685 191.951961) scale(0.1 -0.1)">
     <defs>
      <path id="DejaVuSans-48" d="M 628 4666 
L 1259 4666 
L 1259 2753 
L 3553 2753 
L 3553 4666 
L 4184 4666 
L 4184 0 
L 3553 0 
L 3553 2222 
L 1259 2222 
L 1259 0 
L 628 0 
L 628 4666 
z
" transform="scale(0.015625)"/>
     </defs>
     <use xlink:href="#DejaVuSans-48"/>
     <use xlink:href="#DejaVuSans-50" transform="translate(75.195312 0)"/>
    </g>
   </g>
   <g id="text_27">
    <!-- PGA -->
    <g transform="translate(312.491685 229.274825) scale(0.1 -0.1)">
     <defs>
      <path id="DejaVuSans-41" d="M 2188 4044 
L 1331 1722 
L 3047 1722 
L 2188 4044 
z
M 1831 4666 
L 2547 4666 
L 4325 0 
L 3669 0 
L 3244 1197 
L 1141 1197 
L 716 0 
L 50 0 
L 1831 4666 
z
" transform="scale(0.015625)"/>
     </defs>
     <use xlink:href="#DejaVuSans-50"/>
     <use xlink:href="#DejaVuSans-47" transform="translate(60.302734 0)"/>
     <use xlink:href="#DejaVuSans-41" transform="translate(137.792969 0)"/>
    </g>
   </g>
   <g id="text_28">
    <!-- PGl -->
    <g transform="translate(312.491685 291.08691) scale(0.1 -0.1)">
     <use xlink:href="#DejaVuSans-50"/>
     <use xlink:href="#DejaVuSans-47" transform="translate(60.302734 0)"/>
     <use xlink:href="#DejaVuSans-6c" transform="translate(137.792969 0)"/>
    </g>
   </g>
   <g id="text_29">
    <!-- NH3 -->
    <g transform="translate(312.491685 314.388174) scale(0.1 -0.1)">
     <defs>
      <path id="DejaVuSans-4e" d="M 628 4666 
L 1478 4666 
L 3547 763 
L 3547 4666 
L 4159 4666 
L 4159 0 
L 3309 0 
L 1241 3903 
L 1241 0 
L 628 0 
L 628 4666 
z
" transform="scale(0.015625)"/>
     </defs>
     <use xlink:href="#DejaVuSans-4e"/>
     <use xlink:href="#DejaVuSans-48" transform="translate(74.804688 0)"/>
     <use xlink:href="#DejaVuSans-33" transform="translate(150 0)"/>
    </g>
   </g>
   <g id="text_30">
    <!-- A -->
    <g transform="translate(49.81085 24.771256) scale(0.1 -0.1)">
     <use xlink:href="#DejaVuSans-41"/>
    </g>
   </g>
  </g>
  <g id="axes_2">
   <g id="patch_7">
    <path d="M 43.78125 674.279219 
L 345.26125 674.279219 
L 345.26125 365.599219 
L 43.78125 365.599219 
z
" style="fill: #ffffff"/>
   </g>
   <g id="matplotlib.axis_3">
    <g id="xtick_10">
     <g id="line2d_28">
      <g>
       <use xlink:href="#m41046f9174" x="43.78125" y="674.279219" style="stroke: #000000; stroke-width: 0.8"/>
      </g>
     </g>
     <g id="text_31">
      <!-- 0 -->
      <g transform="translate(40.6 688.877656) scale(0.1 -0.1)">
       <use xlink:href="#DejaVuSans-30"/>
      </g>
     </g>
    </g>
    <g id="xtick_11">
     <g id="line2d_29">
      <g>
       <use xlink:href="#m41046f9174" x="77.279028" y="674.279219" style="stroke: #000000; stroke-width: 0.8"/>
      </g>
     </g>
     <g id="text_32">
      <!-- 10 -->
      <g transform="translate(70.916528 688.877656) scale(0.1 -0.1)">
       <use xlink:href="#DejaVuSans-31"/>
       <use xlink:href="#DejaVuSans-30" transform="translate(63.623047 0)"/>
      </g>
     </g>
    </g>
    <g id="xtick_12">
     <g id="line2d_30">
      <g>
       <use xlink:href="#m41046f9174" x="110.776806" y="674.279219" style="stroke: #000000; stroke-width: 0.8"/>
      </g>
     </g>
     <g id="text_33">
      <!-- 20 -->
      <g transform="translate(104.414306 688.877656) scale(0.1 -0.1)">
       <use xlink:href="#DejaVuSans-32"/>
       <use xlink:href="#DejaVuSans-30" transform="translate(63.623047 0)"/>
      </g>
     </g>
    </g>
    <g id="xtick_13">
     <g id="line2d_31">
      <g>
       <use xlink:href="#m41046f9174" x="144.274583" y="674.279219" style="stroke: #000000; stroke-width: 0.8"/>
      </g>
     </g>
     <g id="text_34">
      <!-- 30 -->
      <g transform="translate(137.912083 688.877656) scale(0.1 -0.1)">
       <use xlink:href="#DejaVuSans-33"/>
       <use xlink:href="#DejaVuSans-30" transform="translate(63.623047 0)"/>
      </g>
     </g>
    </g>
    <g id="xtick_14">
     <g id="line2d_32">
      <g>
       <use xlink:href="#m41046f9174" x="177.772361" y="674.279219" style="stroke: #000000; stroke-width: 0.8"/>
      </g>
     </g>
     <g id="text_35">
      <!-- 40 -->
      <g transform="translate(171.409861 688.877656) scale(0.1 -0.1)">
       <use xlink:href="#DejaVuSans-34"/>
       <use xlink:href="#DejaVuSans-30" transform="translate(63.623047 0)"/>
      </g>
     </g>
    </g>
    <g id="xtick_15">
     <g id="line2d_33">
      <g>
       <use xlink:href="#m41046f9174" x="211.270139" y="674.279219" style="stroke: #000000; stroke-width: 0.8"/>
      </g>
     </g>
     <g id="text_36">
      <!-- 50 -->
      <g transform="translate(204.907639 688.877656) scale(0.1 -0.1)">
       <use xlink:href="#DejaVuSans-35"/>
       <use xlink:href="#DejaVuSans-30" transform="translate(63.623047 0)"/>
      </g>
     </g>
    </g>
    <g id="xtick_16">
     <g id="line2d_34">
      <g>
       <use xlink:href="#m41046f9174" x="244.767917" y="674.279219" style="stroke: #000000; stroke-width: 0.8"/>
      </g>
     </g>
     <g id="text_37">
      <!-- 60 -->
      <g transform="translate(238.405417 688.877656) scale(0.1 -0.1)">
       <use xlink:href="#DejaVuSans-36"/>
       <use xlink:href="#DejaVuSans-30" transform="translate(63.623047 0)"/>
      </g>
     </g>
    </g>
    <g id="xtick_17">
     <g id="line2d_35">
      <g>
       <use xlink:href="#m41046f9174" x="278.265694" y="674.279219" style="stroke: #000000; stroke-width: 0.8"/>
      </g>
     </g>
     <g id="text_38">
      <!-- 70 -->
      <g transform="translate(271.903194 688.877656) scale(0.1 -0.1)">
       <use xlink:href="#DejaVuSans-37"/>
       <use xlink:href="#DejaVuSans-30" transform="translate(63.623047 0)"/>
      </g>
     </g>
    </g>
    <g id="xtick_18">
     <g id="line2d_36">
      <g>
       <use xlink:href="#m41046f9174" x="311.763472" y="674.279219" style="stroke: #000000; stroke-width: 0.8"/>
      </g>
     </g>
     <g id="text_39">
      <!-- 80 -->
      <g transform="translate(305.400972 688.877656) scale(0.1 -0.1)">
       <use xlink:href="#DejaVuSans-38"/>
       <use xlink:href="#DejaVuSans-30" transform="translate(63.623047 0)"/>
      </g>
     </g>
    </g>
    <g id="text_40">
     <!-- Time (min) -->
     <g transform="translate(167.368906 702.555781) scale(0.1 -0.1)">
      <use xlink:href="#DejaVuSans-54"/>
      <use xlink:href="#DejaVuSans-69" transform="translate(57.958984 0)"/>
      <use xlink:href="#DejaVuSans-6d" transform="translate(85.742188 0)"/>
      <use xlink:href="#DejaVuSans-65" transform="translate(183.154297 0)"/>
      <use xlink:href="#DejaVuSans-20" transform="translate(244.677734 0)"/>
      <use xlink:href="#DejaVuSans-28" transform="translate(276.464844 0)"/>
      <use xlink:href="#DejaVuSans-6d" transform="translate(315.478516 0)"/>
      <use xlink:href="#DejaVuSans-69" transform="translate(412.890625 0)"/>
      <use xlink:href="#DejaVuSans-6e" transform="translate(440.673828 0)"/>
      <use xlink:href="#DejaVuSans-29" transform="translate(504.052734 0)"/>
     </g>
    </g>
   </g>
   <g id="matplotlib.axis_4">
    <g id="ytick_12">
     <g id="line2d_37">
      <g>
       <use xlink:href="#m8950971286" x="43.78125" y="674.279219" style="stroke: #000000; stroke-width: 0.8"/>
      </g>
     </g>
     <g id="text_41">
      <!-- 0.0 -->
      <g transform="translate(20.878125 678.078437) scale(0.1 -0.1)">
       <use xlink:href="#DejaVuSans-30"/>
       <use xlink:href="#DejaVuSans-2e" transform="translate(63.623047 0)"/>
       <use xlink:href="#DejaVuSans-30" transform="translate(95.410156 0)"/>
      </g>
     </g>
    </g>
    <g id="ytick_13">
     <g id="line2d_38">
      <g>
       <use xlink:href="#m8950971286" x="43.78125" y="643.411219" style="stroke: #000000; stroke-width: 0.8"/>
      </g>
     </g>
     <g id="text_42">
      <!-- 0.1 -->
      <g transform="translate(20.878125 647.210437) scale(0.1 -0.1)">
       <use xlink:href="#DejaVuSans-30"/>
       <use xlink:href="#DejaVuSans-2e" transform="translate(63.623047 0)"/>
       <use xlink:href="#DejaVuSans-31" transform="translate(95.410156 0)"/>
      </g>
     </g>
    </g>
    <g id="ytick_14">
     <g id="line2d_39">
      <g>
       <use xlink:href="#m8950971286" x="43.78125" y="612.543219" style="stroke: #000000; stroke-width: 0.8"/>
      </g>
     </g>
     <g id="text_43">
      <!-- 0.2 -->
      <g transform="translate(20.878125 616.342437) scale(0.1 -0.1)">
       <use xlink:href="#DejaVuSans-30"/>
       <use xlink:href="#DejaVuSans-2e" transform="translate(63.623047 0)"/>
       <use xlink:href="#DejaVuSans-32" transform="translate(95.410156 0)"/>
      </g>
     </g>
    </g>
    <g id="ytick_15">
     <g id="line2d_40">
      <g>
       <use xlink:href="#m8950971286" x="43.78125" y="581.675219" style="stroke: #000000; stroke-width: 0.8"/>
      </g>
     </g>
     <g id="text_44">
      <!-- 0.3 -->
      <g transform="translate(20.878125 585.474437) scale(0.1 -0.1)">
       <use xlink:href="#DejaVuSans-30"/>
       <use xlink:href="#DejaVuSans-2e" transform="translate(63.623047 0)"/>
       <use xlink:href="#DejaVuSans-33" transform="translate(95.410156 0)"/>
      </g>
     </g>
    </g>
    <g id="ytick_16">
     <g id="line2d_41">
      <g>
       <use xlink:href="#m8950971286" x="43.78125" y="550.807219" style="stroke: #000000; stroke-width: 0.8"/>
      </g>
     </g>
     <g id="text_45">
      <!-- 0.4 -->
      <g transform="translate(20.878125 554.606437) scale(0.1 -0.1)">
       <use xlink:href="#DejaVuSans-30"/>
       <use xlink:href="#DejaVuSans-2e" transform="translate(63.623047 0)"/>
       <use xlink:href="#DejaVuSans-34" transform="translate(95.410156 0)"/>
      </g>
     </g>
    </g>
    <g id="ytick_17">
     <g id="line2d_42">
      <g>
       <use xlink:href="#m8950971286" x="43.78125" y="519.939219" style="stroke: #000000; stroke-width: 0.8"/>
      </g>
     </g>
     <g id="text_46">
      <!-- 0.5 -->
      <g transform="translate(20.878125 523.738437) scale(0.1 -0.1)">
       <use xlink:href="#DejaVuSans-30"/>
       <use xlink:href="#DejaVuSans-2e" transform="translate(63.623047 0)"/>
       <use xlink:href="#DejaVuSans-35" transform="translate(95.410156 0)"/>
      </g>
     </g>
    </g>
    <g id="ytick_18">
     <g id="line2d_43">
      <g>
       <use xlink:href="#m8950971286" x="43.78125" y="489.071219" style="stroke: #000000; stroke-width: 0.8"/>
      </g>
     </g>
     <g id="text_47">
      <!-- 0.6 -->
      <g transform="translate(20.878125 492.870437) scale(0.1 -0.1)">
       <use xlink:href="#DejaVuSans-30"/>
       <use xlink:href="#DejaVuSans-2e" transform="translate(63.623047 0)"/>
       <use xlink:href="#DejaVuSans-36" transform="translate(95.410156 0)"/>
      </g>
     </g>
    </g>
    <g id="ytick_19">
     <g id="line2d_44">
      <g>
       <use xlink:href="#m8950971286" x="43.78125" y="458.203219" style="stroke: #000000; stroke-width: 0.8"/>
      </g>
     </g>
     <g id="text_48">
      <!-- 0.7 -->
      <g transform="translate(20.878125 462.002437) scale(0.1 -0.1)">
       <use xlink:href="#DejaVuSans-30"/>
       <use xlink:href="#DejaVuSans-2e" transform="translate(63.623047 0)"/>
       <use xlink:href="#DejaVuSans-37" transform="translate(95.410156 0)"/>
      </g>
     </g>
    </g>
    <g id="ytick_20">
     <g id="line2d_45">
      <g>
       <use xlink:href="#m8950971286" x="43.78125" y="427.335219" style="stroke: #000000; stroke-width: 0.8"/>
      </g>
     </g>
     <g id="text_49">
      <!-- 0.8 -->
      <g transform="translate(20.878125 431.134437) scale(0.1 -0.1)">
       <use xlink:href="#DejaVuSans-30"/>
       <use xlink:href="#DejaVuSans-2e" transform="translate(63.623047 0)"/>
       <use xlink:href="#DejaVuSans-38" transform="translate(95.410156 0)"/>
      </g>
     </g>
    </g>
    <g id="ytick_21">
     <g id="line2d_46">
      <g>
       <use xlink:href="#m8950971286" x="43.78125" y="396.467219" style="stroke: #000000; stroke-width: 0.8"/>
      </g>
     </g>
     <g id="text_50">
      <!-- 0.9 -->
      <g transform="translate(20.878125 400.266437) scale(0.1 -0.1)">
       <use xlink:href="#DejaVuSans-30"/>
       <use xlink:href="#DejaVuSans-2e" transform="translate(63.623047 0)"/>
       <use xlink:href="#DejaVuSans-39" transform="translate(95.410156 0)"/>
      </g>
     </g>
    </g>
    <g id="ytick_22">
     <g id="line2d_47">
      <g>
       <use xlink:href="#m8950971286" x="43.78125" y="365.599219" style="stroke: #000000; stroke-width: 0.8"/>
      </g>
     </g>
     <g id="text_51">
      <!-- 1.0 -->
      <g transform="translate(20.878125 369.398437) scale(0.1 -0.1)">
       <use xlink:href="#DejaVuSans-31"/>
       <use xlink:href="#DejaVuSans-2e" transform="translate(63.623047 0)"/>
       <use xlink:href="#DejaVuSans-30" transform="translate(95.410156 0)"/>
      </g>
     </g>
    </g>
   </g>
   <g id="line2d_48">
    <path d="M 43.78125 674.279219 
L 43.995636 507.522187 
L 44.07603 497.1184 
L 44.129627 498.519968 
L 44.290416 523.15875 
L 44.826381 613.804999 
L 45.094363 628.537731 
L 45.335547 631.95234 
L 45.44274 632.180453 
L 45.496336 632.133648 
L 45.630327 631.673113 
L 45.871511 629.809631 
L 46.19309 625.150638 
L 46.568265 615.89981 
L 46.970238 600.037151 
L 47.425808 572.128173 
L 48.176158 507.682746 
L 48.658526 476.648344 
L 48.980105 467.716247 
L 49.221289 465.677317 
L 49.35528 465.527691 
L 49.382078 465.546596 
L 49.569666 465.896248 
L 49.864446 466.328008 
L 49.998438 466.207593 
L 50.186025 465.605285 
L 50.480806 463.720974 
L 51.097165 457.850712 
L 51.901111 450.915338 
L 52.67826 446.187275 
L 54.125364 438.974414 
L 55.465275 433.339506 
L 57.019572 427.782242 
L 58.681062 422.660424 
L 60.422946 418.006868 
L 62.218427 413.832207 
L 64.067504 410.085763 
L 65.970178 406.730185 
L 67.926448 403.731142 
L 69.936315 401.053798 
L 72.026576 398.634453 
L 74.250829 396.400966 
L 76.609072 394.35074 
L 79.128105 392.457677 
L 81.834726 390.702814 
L 84.78253 389.058403 
L 88.025115 387.508282 
L 91.589278 386.054725 
L 95.528617 384.69171 
L 99.869929 383.427201 
L 104.666811 382.265201 
L 109.865666 381.236797 
L 115.493293 380.352989 
L 121.522893 379.634125 
L 128.008062 379.088253 
L 135.082793 378.719786 
L 143.095462 378.531224 
L 152.876813 378.534848 
L 167.910615 378.793124 
L 193.181339 379.211589 
L 210.975358 379.257498 
L 233.432269 379.075685 
L 291.021648 378.288737 
L 311.763472 378.010202 
L 311.763472 378.010202 
" clip-path="url(#p2c97401bf6)" style="fill: none; stroke: #000000; stroke-width: 1.5; stroke-linecap: square"/>
   </g>
   <g id="line2d_49">
    <path d="M 43.78125 674.279219 
L 44.611995 674.181249 
L 44.906775 673.883175 
L 45.228354 673.17543 
L 45.603529 671.726983 
L 46.059099 668.938765 
L 46.568265 664.264383 
L 47.131028 656.815895 
L 47.747387 645.484739 
L 48.497737 627.253767 
L 49.864446 587.285619 
L 51.552734 540.017852 
L 52.651462 515.12181 
L 53.642996 497.435293 
L 54.580934 484.486192 
L 55.492073 474.804572 
L 56.403213 467.357695 
L 57.34115 461.457946 
L 58.305886 456.767616 
L 59.324219 452.906967 
L 60.396148 449.692381 
L 61.57527 446.841933 
L 62.915181 444.177146 
L 64.496276 441.533402 
L 66.345353 438.879626 
L 68.435614 436.268535 
L 70.686665 433.81253 
L 73.01811 431.595619 
L 75.456749 429.581682 
L 78.056176 427.724828 
L 80.843191 426.008147 
L 83.898189 424.389498 
L 87.301563 422.842821 
L 91.10691 421.362631 
L 95.421424 419.92831 
L 100.325499 418.53704 
L 105.899529 417.190685 
L 112.170313 415.907992 
L 119.084254 414.722931 
L 126.614555 413.660728 
L 134.761214 412.739017 
L 143.819014 411.942978 
L 154.457908 411.239712 
L 168.955746 410.522953 
L 222.203814 408.063198 
L 311.763472 403.34252 
L 311.763472 403.34252 
" clip-path="url(#p2c97401bf6)" style="fill: none; stroke: #000000; stroke-width: 1.5; stroke-linecap: square"/>
   </g>
   <g id="line2d_50">
    <path d="M 43.78125 674.279219 
L 43.968838 674.172609 
L 44.07603 673.604485 
L 44.23682 671.051819 
L 44.504802 661.955482 
L 45.201556 637.176326 
L 46.19309 610.100302 
L 47.023835 577.967304 
L 47.827782 549.11566 
L 48.202957 542.545645 
L 48.470939 541.04804 
L 48.631728 540.979885 
L 49.140894 541.363582 
L 49.167693 541.327479 
L 49.35528 540.809305 
L 49.650061 539.107797 
L 50.239622 533.901229 
L 51.097165 526.861029 
L 51.901111 522.200137 
L 53.241022 515.891314 
L 54.420144 511.30812 
L 55.679661 507.32027 
L 57.099966 503.571566 
L 58.895447 499.490369 
L 61.441278 494.277798 
L 64.040706 489.429071 
L 66.372151 485.535264 
L 68.623202 482.201777 
L 70.901051 479.22498 
L 73.259294 476.510542 
L 75.724731 474.011166 
L 78.350957 471.665472 
L 81.16477 469.450753 
L 84.219767 467.331567 
L 87.542747 465.299527 
L 91.187305 463.333718 
L 95.207038 461.420938 
L 99.628745 459.565554 
L 104.479223 457.774414 
L 109.704877 456.083459 
L 115.278907 454.514498 
L 121.174516 453.087344 
L 127.391703 451.812407 
L 134.037662 450.678994 
L 141.299981 449.669854 
L 149.60743 448.746314 
L 160.031938 447.823289 
L 178.763895 446.435247 
L 201.327998 444.683992 
L 223.00776 442.757529 
L 311.763472 434.586081 
L 311.763472 434.586081 
" clip-path="url(#p2c97401bf6)" style="fill: none; stroke: #000000; stroke-width: 1.5; stroke-linecap: square"/>
   </g>
   <g id="line2d_51">
    <path d="M 43.78125 674.279219 
L 44.344013 607.228789 
L 44.638793 595.722643 
L 44.933574 591.996246 
L 45.201556 590.902408 
L 45.44274 590.656718 
L 45.657126 590.747026 
L 45.978704 591.189152 
L 46.94344 592.660473 
L 47.131028 592.594802 
L 47.318615 592.245309 
L 47.559799 591.199221 
L 47.85458 588.656005 
L 48.229755 583.012353 
L 49.435675 562.691799 
L 49.81085 560.522966 
L 50.212823 559.468847 
L 51.01677 557.665957 
L 53.72339 550.188867 
L 55.411678 546.837076 
L 57.314352 543.576106 
L 59.431412 540.380559 
L 61.57527 537.542078 
L 63.745926 535.033044 
L 65.996976 532.771172 
L 68.35522 530.71926 
L 70.847454 528.846175 
L 73.527277 527.110152 
L 76.448283 525.483222 
L 79.690868 523.935313 
L 83.308628 522.459529 
L 87.381958 521.042289 
L 92.01805 519.668486 
L 97.324098 518.331919 
L 103.380496 517.040307 
L 110.133648 515.830734 
L 117.529958 514.734537 
L 125.515828 513.778151 
L 134.252048 512.959889 
L 144.16739 512.260999 
L 156.574967 511.622247 
L 179.165869 510.731506 
L 207.732774 509.525223 
L 244.017566 507.724788 
L 304.25997 504.769615 
L 311.763472 504.420732 
L 311.763472 504.420732 
" clip-path="url(#p2c97401bf6)" style="fill: none; stroke: #000000; stroke-width: 1.5; stroke-linecap: square"/>
   </g>
   <g id="line2d_52">
    <path d="M 43.78125 519.939219 
L 44.049232 631.974957 
L 44.290416 660.504365 
L 44.504802 665.8567 
L 44.5316 665.887529 
L 44.558398 665.825322 
L 44.665591 664.855612 
L 45.013968 658.413486 
L 45.630327 648.504217 
L 46.407476 635.869118 
L 48.256553 603.003949 
L 48.578132 601.397022 
L 48.846114 601.024545 
L 49.462473 600.664008 
L 49.757254 599.946461 
L 50.26642 597.948805 
L 51.391945 593.489014 
L 52.303085 590.938057 
L 53.88418 587.230097 
L 55.438477 584.146349 
L 57.394747 580.76565 
L 59.538605 577.504442 
L 61.736059 574.563014 
L 63.960311 571.953319 
L 66.23816 569.620086 
L 68.623202 567.495293 
L 71.142235 565.549346 
L 73.848855 563.740576 
L 76.79666 562.040592 
L 80.039245 560.430418 
L 83.657005 558.88638 
L 87.730334 557.394012 
L 92.366427 555.936766 
L 97.672475 554.5073 
L 103.675277 553.125044 
L 110.321236 551.826153 
L 117.476361 550.655932 
L 125.087056 549.638149 
L 133.233716 548.776159 
L 142.184322 548.057075 
L 152.716023 547.442499 
L 167.213862 546.838908 
L 214.593118 545.001868 
L 253.128962 543.13004 
L 311.763472 540.333823 
L 311.763472 540.333823 
" clip-path="url(#p2c97401bf6)" style="fill: none; stroke: #000000; stroke-width: 1.5; stroke-linecap: square"/>
   </g>
   <g id="line2d_53">
    <path d="M 43.78125 674.279219 
L 44.424407 674.171527 
L 44.745986 673.811764 
L 45.228354 672.838291 
L 46.032301 670.666887 
L 46.755853 668.06441 
L 47.586598 664.166634 
L 48.953307 657.714235 
L 49.81085 654.939447 
L 51.123963 651.480757 
L 52.276286 649.025748 
L 53.455408 647.0289 
L 54.714925 645.328402 
L 56.028038 643.924227 
L 57.475142 642.70074 
L 59.16343 641.568743 
L 61.334086 640.39461 
L 64.228294 639.093254 
L 67.685264 637.783381 
L 71.356621 636.630156 
L 75.376354 635.604643 
L 79.985648 634.665273 
L 85.452486 633.786386 
L 92.125243 632.947793 
L 100.432692 632.136541 
L 110.723209 631.36231 
L 122.836006 630.678274 
L 136.610292 630.127803 
L 153.278786 629.695023 
L 181.792094 629.220354 
L 230.591657 628.360666 
L 311.763472 626.802718 
L 311.763472 626.802718 
" clip-path="url(#p2c97401bf6)" style="fill: none; stroke: #000000; stroke-width: 1.5; stroke-linecap: square"/>
   </g>
   <g id="line2d_54">
    <path d="M 43.78125 550.807219 
L 46.032301 605.045988 
L 47.050633 623.104558 
L 48.015369 636.417442 
L 48.953307 646.379619 
L 49.864446 653.772112 
L 50.748788 659.192286 
L 51.606331 663.119072 
L 52.410278 665.829885 
L 53.160628 667.62816 
L 53.803785 668.645053 
L 54.33975 669.127394 
L 54.795319 669.27433 
L 55.224091 669.190608 
L 55.679661 668.86764 
L 56.215625 668.188709 
L 56.858782 666.978579 
L 57.662729 664.949109 
L 58.761456 661.514242 
L 63.638733 645.489269 
L 65.166231 641.617947 
L 66.720528 638.275546 
L 68.382018 635.231233 
L 70.204297 632.360912 
L 72.26776 629.533464 
L 74.626004 626.684334 
L 77.386221 623.704902 
L 80.628806 620.539691 
L 84.460951 617.116596 
L 89.043447 613.328764 
L 94.403092 609.191607 
L 100.191508 605.003046 
L 105.819134 601.200917 
L 110.991191 597.969174 
L 115.788073 595.230416 
L 120.290174 592.913633 
L 124.604688 590.942278 
L 128.812009 589.264245 
L 132.965734 587.846008 
L 137.173054 586.645122 
L 141.487568 585.646339 
L 146.016468 584.829045 
L 150.866946 584.183163 
L 156.253389 583.695688 
L 162.524173 583.359403 
L 170.590438 583.163393 
L 187.768098 583.040675 
L 201.890761 582.808887 
L 214.887899 582.366782 
L 230.162886 581.613386 
L 255.72839 580.089628 
L 296.461687 577.70633 
L 311.763472 576.876751 
L 311.763472 576.876751 
" clip-path="url(#p2c97401bf6)" style="fill: none; stroke: #000000; stroke-width: 1.5; stroke-linecap: square"/>
   </g>
   <g id="patch_8">
    <path d="M 43.78125 674.279219 
L 43.78125 365.599219 
" style="fill: none; stroke: #000000; stroke-width: 0.8; stroke-linejoin: miter; stroke-linecap: square"/>
   </g>
   <g id="patch_9">
    <path d="M 345.26125 674.279219 
L 345.26125 365.599219 
" style="fill: none; stroke: #000000; stroke-width: 0.8; stroke-linejoin: miter; stroke-linecap: square"/>
   </g>
   <g id="patch_10">
    <path d="M 43.78125 674.279219 
L 345.26125 674.279219 
" style="fill: none; stroke: #000000; stroke-width: 0.8; stroke-linejoin: miter; stroke-linecap: square"/>
   </g>
   <g id="patch_11">
    <path d="M 43.78125 365.599219 
L 345.26125 365.599219 
" style="fill: none; stroke: #000000; stroke-width: 0.8; stroke-linejoin: miter; stroke-linecap: square"/>
   </g>
   <g id="text_52">
    <!-- TP -->
    <g transform="translate(315.11325 380.769577) scale(0.1 -0.1)">
     <use xlink:href="#DejaVuSans-54"/>
     <use xlink:href="#DejaVuSans-50" transform="translate(61.083984 0)"/>
    </g>
   </g>
   <g id="text_53">
    <!-- Gl -->
    <g transform="translate(315.11325 406.101895) scale(0.1 -0.1)">
     <use xlink:href="#DejaVuSans-47"/>
     <use xlink:href="#DejaVuSans-6c" transform="translate(77.490234 0)"/>
    </g>
   </g>
   <g id="text_54">
    <!-- RuBP -->
    <g transform="translate(315.11325 437.345456) scale(0.1 -0.1)">
     <use xlink:href="#DejaVuSans-52"/>
     <use xlink:href="#DejaVuSans-75" transform="translate(64.982422 0)"/>
     <use xlink:href="#DejaVuSans-42" transform="translate(128.361328 0)"/>
     <use xlink:href="#DejaVuSans-50" transform="translate(196.964844 0)"/>
    </g>
   </g>
   <g id="text_55">
    <!-- HP -->
    <g transform="translate(315.11325 507.180107) scale(0.1 -0.1)">
     <use xlink:href="#DejaVuSans-48"/>
     <use xlink:href="#DejaVuSans-50" transform="translate(75.195312 0)"/>
    </g>
   </g>
   <g id="text_56">
    <!-- PGA -->
    <g transform="translate(315.11325 543.093198) scale(0.1 -0.1)">
     <use xlink:href="#DejaVuSans-50"/>
     <use xlink:href="#DejaVuSans-47" transform="translate(60.302734 0)"/>
     <use xlink:href="#DejaVuSans-41" transform="translate(137.792969 0)"/>
    </g>
   </g>
   <g id="text_57">
    <!-- PGl -->
    <g transform="translate(315.11325 629.562093) scale(0.1 -0.1)">
     <use xlink:href="#DejaVuSans-50"/>
     <use xlink:href="#DejaVuSans-47" transform="translate(60.302734 0)"/>
     <use xlink:href="#DejaVuSans-6c" transform="translate(137.792969 0)"/>
    </g>
   </g>
   <g id="text_58">
    <!-- NH3 -->
    <g transform="translate(315.11325 579.636126) scale(0.1 -0.1)">
     <use xlink:href="#DejaVuSans-4e"/>
     <use xlink:href="#DejaVuSans-48" transform="translate(74.804688 0)"/>
     <use xlink:href="#DejaVuSans-33" transform="translate(150 0)"/>
    </g>
   </g>
   <g id="text_59">
    <!-- B -->
    <g transform="translate(49.81085 379.371256) scale(0.1 -0.1)">
     <use xlink:href="#DejaVuSans-42"/>
    </g>
   </g>
  </g>
 </g>
 <defs>
  <clipPath id="p43ea48e6e4">
   <rect x="43.78125" y="10.999219" width="301.48" height="308.68"/>
  </clipPath>
  <clipPath id="p2c97401bf6">
   <rect x="43.78125" y="365.599219" width="301.48" height="308.68"/>
  </clipPath>
 </defs>
</svg>
