<?xml version="1.0" encoding="utf-8" standalone="no"?>
<!DOCTYPE svg PUBLIC "-//W3C//DTD SVG 1.1//EN"
  "http://www.w3.org/Graphics/SVG/1.1/DTD/svg11.dtd">
<svg xmlns:xlink="http://www.w3.org/1999/xlink" width="352.46125pt" height="711.99625pt" viewBox="0 0 352.46125 711.99625" xmlns="http://www.w3.org/2000/svg" version="1.1">
 <metadata>
  <rdf:RDF xmlns:dc="http://purl.org/dc/elements/1.1/" xmlns:cc="http://creativecommons.org/ns#" xmlns:rdf="http://www.w3.org/1999/02/22-rdf-syntax-ns#">
   <cc:Work>
    <dc:type rdf:resource="http://purl.org/dc/dcmitype/StillImage"/>
    <dc:date>2026-06-26T14:42:41.477108</dc:date>
    <dc:format>image/svg+xml</dc:format>
    <dc:creator>
     <cc:Agent>
      <dc:title>Matplotlib v3.10.9, https://matplotlib.org/</dc:title>
     </cc:Agent>
    </dc:creator>
   </cc:Work>
  </rdf:RDF>
 </metadata>
 <defs>
  <style type="text/css">*{stroke-linejoin: round; stroke-linecap: butt}</style>
 </defs>
 <g id="figure_1">
  <g id="patch_1">
   <path d="M 0 711.99625 
L 352.46125 711.99625 
L 352.46125 0 
L 0 0 
z
" style="fill: #ffffff"/>
  </g>
  <g id="axes_1">
   <g id="patch_2">
    <path d="M 43.78125 319.84 
L 345.26125 319.84 
L 345.26125 7.2 
L 43.78125 7.2 
z
" style="fill: #ffffff"/>
   </g>
   <g id="matplotlib.axis_1">
    <g id="xtick_1">
     <g id="line2d_1">
      <defs>
       <path id="mcde99c04ca" d="M 0 0 
L 0 3.5 
" style="stroke: #000000; stroke-width: 0.8"/>
      </defs>
      <g>
       <use xlink:href="#mcde99c04ca" x="43.78125" y="319.84" style="stroke: #000000; stroke-width: 0.8"/>
      </g>
     </g>
     <g id="text_1">
      <!-- 0.00 -->
      <g transform="translate(32.648438 334.438437) scale(0.1 -0.1)">
       <defs>
        <path id="DejaVuSans-30" d="M 2034 4250 
Q 1547 4250 1301 3770 
Q 1056 3291 1056 2328 
Q 1056 1369 1301 889 
Q 1547 409 2034 409 
Q 2525 409 2770 889 
Q 3016 1369 3016 2328 
Q 3016 3291 2770 3770 
Q 2525 4250 2034 4250 
z
M 2034 4750 
Q 2819 4750 3233 4129 
Q 3647 3509 3647 2328 
Q 3647 1150 3233 529 
Q 2819 -91 2034 -91 
Q 1250 -91 836 529 
Q 422 1150 422 2328 
Q 422 3509 836 4129 
Q 1250 4750 2034 4750 
z
" transform="scale(0.015625)"/>
        <path id="DejaVuSans-2e" d="M 684 794 
L 1344 794 
L 1344 0 
L 684 0 
L 684 794 
z
" transform="scale(0.015625)"/>
       </defs>
       <use xlink:href="#DejaVuSans-30"/>
       <use xlink:href="#DejaVuSans-2e" transform="translate(63.623047 0)"/>
       <use xlink:href="#DejaVuSans-30" transform="translate(95.410156 0)"/>
       <use xlink:href="#DejaVuSans-30" transform="translate(159.033203 0)"/>
      </g>
     </g>
    </g>
    <g id="xtick_2">
     <g id="line2d_2">
      <g>
       <use xlink:href="#mcde99c04ca" x="75.85359" y="319.84" style="stroke: #000000; stroke-width: 0.8"/>
      </g>
     </g>
     <g id="text_2">
      <!-- 0.25 -->
      <g transform="translate(64.720778 334.438437) scale(0.1 -0.1)">
       <defs>
        <path id="DejaVuSans-32" d="M 1228 531 
L 3431 531 
L 3431 0 
L 469 0 
L 469 531 
Q 828 903 1448 1529 
Q 2069 2156 2228 2338 
Q 2531 2678 2651 2914 
Q 2772 3150 2772 3378 
Q 2772 3750 2511 3984 
Q 2250 4219 1831 4219 
Q 1534 4219 1204 4116 
Q 875 4013 500 3803 
L 500 4441 
Q 881 4594 1212 4672 
Q 1544 4750 1819 4750 
Q 2544 4750 2975 4387 
Q 3406 4025 3406 3419 
Q 3406 3131 3298 2873 
Q 3191 2616 2906 2266 
Q 2828 2175 2409 1742 
Q 1991 1309 1228 531 
z
" transform="scale(0.015625)"/>
        <path id="DejaVuSans-35" d="M 691 4666 
L 3169 4666 
L 3169 4134 
L 1269 4134 
L 1269 2991 
Q 1406 3038 1543 3061 
Q 1681 3084 1819 3084 
Q 2600 3084 3056 2656 
Q 3513 2228 3513 1497 
Q 3513 744 3044 326 
Q 2575 -91 1722 -91 
Q 1428 -91 1123 -41 
Q 819 9 494 109 
L 494 744 
Q 775 591 1075 516 
Q 1375 441 1709 441 
Q 2250 441 2565 725 
Q 2881 1009 2881 1497 
Q 2881 1984 2565 2268 
Q 2250 2553 1709 2553 
Q 1456 2553 1204 2497 
Q 953 2441 691 2322 
L 691 4666 
z
" transform="scale(0.015625)"/>
       </defs>
       <use xlink:href="#DejaVuSans-30"/>
       <use xlink:href="#DejaVuSans-2e" transform="translate(63.623047 0)"/>
       <use xlink:href="#DejaVuSans-32" transform="translate(95.410156 0)"/>
       <use xlink:href="#DejaVuSans-35" transform="translate(159.033203 0)"/>
      </g>
     </g>
    </g>
    <g id="xtick_3">
     <g id="line2d_3">
      <g>
       <use xlink:href="#mcde99c04ca" x="107.925931" y="319.84" style="stroke: #000000; stroke-width: 0.8"/>
      </g>
     </g>
     <g id="text_3">
      <!-- 0.50 -->
      <g transform="translate(96.793118 334.438437) scale(0.1 -0.1)">
       <use xlink:href="#DejaVuSans-30"/>
       <use xlink:href="#DejaVuSans-2e" transform="translate(63.623047 0)"/>
       <use xlink:href="#DejaVuSans-35" transform="translate(95.410156 0)"/>
       <use xlink:href="#DejaVuSans-30" transform="translate(159.033203 0)"/>
      </g>
     </g>
    </g>
    <g id="xtick_4">
     <g id="line2d_4">
      <g>
       <use xlink:href="#mcde99c04ca" x="139.998271" y="319.84" style="stroke: #000000; stroke-width: 0.8"/>
      </g>
     </g>
     <g id="text_4">
      <!-- 0.75 -->
      <g transform="translate(128.865459 334.438437) scale(0.1 -0.1)">
       <defs>
        <path id="DejaVuSans-37" d="M 525 4666 
L 3525 4666 
L 3525 4397 
L 1831 0 
L 1172 0 
L 2766 4134 
L 525 4134 
L 525 4666 
z
" transform="scale(0.015625)"/>
       </defs>
       <use xlink:href="#DejaVuSans-30"/>
       <use xlink:href="#DejaVuSans-2e" transform="translate(63.623047 0)"/>
       <use xlink:href="#DejaVuSans-37" transform="translate(95.410156 0)"/>
       <use xlink:href="#DejaVuSans-35" transform="translate(159.033203 0)"/>
      </g>
     </g>
    </g>
    <g id="xtick_5">
     <g id="line2d_5">
      <g>
       <use xlink:href="#mcde99c04ca" x="172.070612" y="319.84" style="stroke: #000000; stroke-width: 0.8"/>
      </g>
     </g>
     <g id="text_5">
      <!-- 1.00 -->
      <g transform="translate(160.937799 334.438437) scale(0.1 -0.1)">
       <defs>
        <path id="DejaVuSans-31" d="M 794 531 
L 1825 531 
L 1825 4091 
L 703 3866 
L 703 4441 
L 1819 4666 
L 2450 4666 
L 2450 531 
L 3481 531 
L 3481 0 
L 794 0 
L 794 531 
z
" transform="scale(0.015625)"/>
       </defs>
       <use xlink:href="#DejaVuSans-31"/>
       <use xlink:href="#DejaVuSans-2e" transform="translate(63.623047 0)"/>
       <use xlink:href="#DejaVuSans-30" transform="translate(95.410156 0)"/>
       <use xlink:href="#DejaVuSans-30" transform="translate(159.033203 0)"/>
      </g>
     </g>
    </g>
    <g id="xtick_6">
     <g id="line2d_6">
      <g>
       <use xlink:href="#mcde99c04ca" x="204.142952" y="319.84" style="stroke: #000000; stroke-width: 0.8"/>
      </g>
     </g>
     <g id="text_6">
      <!-- 1.25 -->
      <g transform="translate(193.01014 334.438437) scale(0.1 -0.1)">
       <use xlink:href="#DejaVuSans-31"/>
       <use xlink:href="#DejaVuSans-2e" transform="translate(63.623047 0)"/>
       <use xlink:href="#DejaVuSans-32" transform="translate(95.410156 0)"/>
       <use xlink:href="#DejaVuSans-35" transform="translate(159.033203 0)"/>
      </g>
     </g>
    </g>
    <g id="xtick_7">
     <g id="line2d_7">
      <g>
       <use xlink:href="#mcde99c04ca" x="236.215293" y="319.84" style="stroke: #000000; stroke-width: 0.8"/>
      </g>
     </g>
     <g id="text_7">
      <!-- 1.50 -->
      <g transform="translate(225.08248 334.438437) scale(0.1 -0.1)">
       <use xlink:href="#DejaVuSans-31"/>
       <use xlink:href="#DejaVuSans-2e" transform="translate(63.623047 0)"/>
       <use xlink:href="#DejaVuSans-35" transform="translate(95.410156 0)"/>
       <use xlink:href="#DejaVuSans-30" transform="translate(159.033203 0)"/>
      </g>
     </g>
    </g>
    <g id="xtick_8">
     <g id="line2d_8">
      <g>
       <use xlink:href="#mcde99c04ca" x="268.287633" y="319.84" style="stroke: #000000; stroke-width: 0.8"/>
      </g>
     </g>
     <g id="text_8">
      <!-- 1.75 -->
      <g transform="translate(257.15482 334.438437) scale(0.1 -0.1)">
       <use xlink:href="#DejaVuSans-31"/>
       <use xlink:href="#DejaVuSans-2e" transform="translate(63.623047 0)"/>
       <use xlink:href="#DejaVuSans-37" transform="translate(95.410156 0)"/>
       <use xlink:href="#DejaVuSans-35" transform="translate(159.033203 0)"/>
      </g>
     </g>
    </g>
    <g id="xtick_9">
     <g id="line2d_9">
      <g>
       <use xlink:href="#mcde99c04ca" x="300.359973" y="319.84" style="stroke: #000000; stroke-width: 0.8"/>
      </g>
     </g>
     <g id="text_9">
      <!-- 2.00 -->
      <g transform="translate(289.227161 334.438437) scale(0.1 -0.1)">
       <use xlink:href="#DejaVuSans-32"/>
       <use xlink:href="#DejaVuSans-2e" transform="translate(63.623047 0)"/>
       <use xlink:href="#DejaVuSans-30" transform="translate(95.410156 0)"/>
       <use xlink:href="#DejaVuSans-30" transform="translate(159.033203 0)"/>
      </g>
     </g>
    </g>
    <g id="text_10">
     <!-- Time (min) -->
     <g transform="translate(167.368906 348.116562) scale(0.1 -0.1)">
      <defs>
       <path id="DejaVuSans-54" d="M -19 4666 
L 3928 4666 
L 3928 4134 
L 2272 4134 
L 2272 0 
L 1638 0 
L 1638 4134 
L -19 4134 
L -19 4666 
z
" transform="scale(0.015625)"/>
       <path id="DejaVuSans-69" d="M 603 3500 
L 1178 3500 
L 1178 0 
L 603 0 
L 603 3500 
z
M 603 4863 
L 1178 4863 
L 1178 4134 
L 603 4134 
L 603 4863 
z
" transform="scale(0.015625)"/>
       <path id="DejaVuSans-6d" d="M 3328 2828 
Q 3544 3216 3844 3400 
Q 4144 3584 4550 3584 
Q 5097 3584 5394 3201 
Q 5691 2819 5691 2113 
L 5691 0 
L 5113 0 
L 5113 2094 
Q 5113 2597 4934 2840 
Q 4756 3084 4391 3084 
Q 3944 3084 3684 2787 
Q 3425 2491 3425 1978 
L 3425 0 
L 2847 0 
L 2847 2094 
Q 2847 2600 2669 2842 
Q 2491 3084 2119 3084 
Q 1678 3084 1418 2786 
Q 1159 2488 1159 1978 
L 1159 0 
L 581 0 
L 581 3500 
L 1159 3500 
L 1159 2956 
Q 1356 3278 1631 3431 
Q 1906 3584 2284 3584 
Q 2666 3584 2933 3390 
Q 3200 3197 3328 2828 
z
" transform="scale(0.015625)"/>
       <path id="DejaVuSans-65" d="M 3597 1894 
L 3597 1613 
L 953 1613 
Q 991 1019 1311 708 
Q 1631 397 2203 397 
Q 2534 397 2845 478 
Q 3156 559 3463 722 
L 3463 178 
Q 3153 47 2828 -22 
Q 2503 -91 2169 -91 
Q 1331 -91 842 396 
Q 353 884 353 1716 
Q 353 2575 817 3079 
Q 1281 3584 2069 3584 
Q 2775 3584 3186 3129 
Q 3597 2675 3597 1894 
z
M 3022 2063 
Q 3016 2534 2758 2815 
Q 2500 3097 2075 3097 
Q 1594 3097 1305 2825 
Q 1016 2553 972 2059 
L 3022 2063 
z
" transform="scale(0.015625)"/>
       <path id="DejaVuSans-20" transform="scale(0.015625)"/>
       <path id="DejaVuSans-28" d="M 1984 4856 
Q 1566 4138 1362 3434 
Q 1159 2731 1159 2009 
Q 1159 1288 1364 580 
Q 1569 -128 1984 -844 
L 1484 -844 
Q 1016 -109 783 600 
Q 550 1309 550 2009 
Q 550 2706 781 3412 
Q 1013 4119 1484 4856 
L 1984 4856 
z
" transform="scale(0.015625)"/>
       <path id="DejaVuSans-6e" d="M 3513 2113 
L 3513 0 
L 2938 0 
L 2938 2094 
Q 2938 2591 2744 2837 
Q 2550 3084 2163 3084 
Q 1697 3084 1428 2787 
Q 1159 2491 1159 1978 
L 1159 0 
L 581 0 
L 581 3500 
L 1159 3500 
L 1159 2956 
Q 1366 3272 1645 3428 
Q 1925 3584 2291 3584 
Q 2894 3584 3203 3211 
Q 3513 2838 3513 2113 
z
" transform="scale(0.015625)"/>
       <path id="DejaVuSans-29" d="M 513 4856 
L 1013 4856 
Q 1481 4119 1714 3412 
Q 1947 2706 1947 2009 
Q 1947 1309 1714 600 
Q 1481 -109 1013 -844 
L 513 -844 
Q 928 -128 1133 580 
Q 1338 1288 1338 2009 
Q 1338 2731 1133 3434 
Q 928 4138 513 4856 
z
" transform="scale(0.015625)"/>
      </defs>
      <use xlink:href="#DejaVuSans-54"/>
      <use xlink:href="#DejaVuSans-69" transform="translate(57.958984 0)"/>
      <use xlink:href="#DejaVuSans-6d" transform="translate(85.742188 0)"/>
      <use xlink:href="#DejaVuSans-65" transform="translate(183.154297 0)"/>
      <use xlink:href="#DejaVuSans-20" transform="translate(244.677734 0)"/>
      <use xlink:href="#DejaVuSans-28" transform="translate(276.464844 0)"/>
      <use xlink:href="#DejaVuSans-6d" transform="translate(315.478516 0)"/>
      <use xlink:href="#DejaVuSans-69" transform="translate(412.890625 0)"/>
      <use xlink:href="#DejaVuSans-6e" transform="translate(440.673828 0)"/>
      <use xlink:href="#DejaVuSans-29" transform="translate(504.052734 0)"/>
     </g>
    </g>
   </g>
   <g id="matplotlib.axis_2">
    <g id="ytick_1">
     <g id="line2d_10">
      <defs>
       <path id="mf46d17b7fe" d="M 0 0 
L -3.5 0 
" style="stroke: #000000; stroke-width: 0.8"/>
      </defs>
      <g>
       <use xlink:href="#mf46d17b7fe" x="43.78125" y="319.84" style="stroke: #000000; stroke-width: 0.8"/>
      </g>
     </g>
     <g id="text_11">
      <!-- 0.0 -->
      <g transform="translate(20.878125 323.639219) scale(0.1 -0.1)">
       <use xlink:href="#DejaVuSans-30"/>
       <use xlink:href="#DejaVuSans-2e" transform="translate(63.623047 0)"/>
       <use xlink:href="#DejaVuSans-30" transform="translate(95.410156 0)"/>
      </g>
     </g>
    </g>
    <g id="ytick_2">
     <g id="line2d_11">
      <g>
       <use xlink:href="#mf46d17b7fe" x="43.78125" y="290.064762" style="stroke: #000000; stroke-width: 0.8"/>
      </g>
     </g>
     <g id="text_12">
      <!-- 0.1 -->
      <g transform="translate(20.878125 293.863981) scale(0.1 -0.1)">
       <use xlink:href="#DejaVuSans-30"/>
       <use xlink:href="#DejaVuSans-2e" transform="translate(63.623047 0)"/>
       <use xlink:href="#DejaVuSans-31" transform="translate(95.410156 0)"/>
      </g>
     </g>
    </g>
    <g id="ytick_3">
     <g id="line2d_12">
      <g>
       <use xlink:href="#mf46d17b7fe" x="43.78125" y="260.289524" style="stroke: #000000; stroke-width: 0.8"/>
      </g>
     </g>
     <g id="text_13">
      <!-- 0.2 -->
      <g transform="translate(20.878125 264.088743) scale(0.1 -0.1)">
       <use xlink:href="#DejaVuSans-30"/>
       <use xlink:href="#DejaVuSans-2e" transform="translate(63.623047 0)"/>
       <use xlink:href="#DejaVuSans-32" transform="translate(95.410156 0)"/>
      </g>
     </g>
    </g>
    <g id="ytick_4">
     <g id="line2d_13">
      <g>
       <use xlink:href="#mf46d17b7fe" x="43.78125" y="230.514286" style="stroke: #000000; stroke-width: 0.8"/>
      </g>
     </g>
     <g id="text_14">
      <!-- 0.3 -->
      <g transform="translate(20.878125 234.313504) scale(0.1 -0.1)">
       <defs>
        <path id="DejaVuSans-33" d="M 2597 2516 
Q 3050 2419 3304 2112 
Q 3559 1806 3559 1356 
Q 3559 666 3084 287 
Q 2609 -91 1734 -91 
Q 1441 -91 1130 -33 
Q 819 25 488 141 
L 488 750 
Q 750 597 1062 519 
Q 1375 441 1716 441 
Q 2309 441 2620 675 
Q 2931 909 2931 1356 
Q 2931 1769 2642 2001 
Q 2353 2234 1838 2234 
L 1294 2234 
L 1294 2753 
L 1863 2753 
Q 2328 2753 2575 2939 
Q 2822 3125 2822 3475 
Q 2822 3834 2567 4026 
Q 2313 4219 1838 4219 
Q 1578 4219 1281 4162 
Q 984 4106 628 3988 
L 628 4550 
Q 988 4650 1302 4700 
Q 1616 4750 1894 4750 
Q 2613 4750 3031 4423 
Q 3450 4097 3450 3541 
Q 3450 3153 3228 2886 
Q 3006 2619 2597 2516 
z
" transform="scale(0.015625)"/>
       </defs>
       <use xlink:href="#DejaVuSans-30"/>
       <use xlink:href="#DejaVuSans-2e" transform="translate(63.623047 0)"/>
       <use xlink:href="#DejaVuSans-33" transform="translate(95.410156 0)"/>
      </g>
     </g>
    </g>
    <g id="ytick_5">
     <g id="line2d_14">
      <g>
       <use xlink:href="#mf46d17b7fe" x="43.78125" y="200.739048" style="stroke: #000000; stroke-width: 0.8"/>
      </g>
     </g>
     <g id="text_15">
      <!-- 0.4 -->
      <g transform="translate(20.878125 204.538266) scale(0.1 -0.1)">
       <defs>
        <path id="DejaVuSans-34" d="M 2419 4116 
L 825 1625 
L 2419 1625 
L 2419 4116 
z
M 2253 4666 
L 3047 4666 
L 3047 1625 
L 3713 1625 
L 3713 1100 
L 3047 1100 
L 3047 0 
L 2419 0 
L 2419 1100 
L 313 1100 
L 313 1709 
L 2253 4666 
z
" transform="scale(0.015625)"/>
       </defs>
       <use xlink:href="#DejaVuSans-30"/>
       <use xlink:href="#DejaVuSans-2e" transform="translate(63.623047 0)"/>
       <use xlink:href="#DejaVuSans-34" transform="translate(95.410156 0)"/>
      </g>
     </g>
    </g>
    <g id="ytick_6">
     <g id="line2d_15">
      <g>
       <use xlink:href="#mf46d17b7fe" x="43.78125" y="170.96381" style="stroke: #000000; stroke-width: 0.8"/>
      </g>
     </g>
     <g id="text_16">
      <!-- 0.5 -->
      <g transform="translate(20.878125 174.763028) scale(0.1 -0.1)">
       <use xlink:href="#DejaVuSans-30"/>
       <use xlink:href="#DejaVuSans-2e" transform="translate(63.623047 0)"/>
       <use xlink:href="#DejaVuSans-35" transform="translate(95.410156 0)"/>
      </g>
     </g>
    </g>
    <g id="ytick_7">
     <g id="line2d_16">
      <g>
       <use xlink:href="#mf46d17b7fe" x="43.78125" y="141.188571" style="stroke: #000000; stroke-width: 0.8"/>
      </g>
     </g>
     <g id="text_17">
      <!-- 0.6 -->
      <g transform="translate(20.878125 144.98779) scale(0.1 -0.1)">
       <defs>
        <path id="DejaVuSans-36" d="M 2113 2584 
Q 1688 2584 1439 2293 
Q 1191 2003 1191 1497 
Q 1191 994 1439 701 
Q 1688 409 2113 409 
Q 2538 409 2786 701 
Q 3034 994 3034 1497 
Q 3034 2003 2786 2293 
Q 2538 2584 2113 2584 
z
M 3366 4563 
L 3366 3988 
Q 3128 4100 2886 4159 
Q 2644 4219 2406 4219 
Q 1781 4219 1451 3797 
Q 1122 3375 1075 2522 
Q 1259 2794 1537 2939 
Q 1816 3084 2150 3084 
Q 2853 3084 3261 2657 
Q 3669 2231 3669 1497 
Q 3669 778 3244 343 
Q 2819 -91 2113 -91 
Q 1303 -91 875 529 
Q 447 1150 447 2328 
Q 447 3434 972 4092 
Q 1497 4750 2381 4750 
Q 2619 4750 2861 4703 
Q 3103 4656 3366 4563 
z
" transform="scale(0.015625)"/>
       </defs>
       <use xlink:href="#DejaVuSans-30"/>
       <use xlink:href="#DejaVuSans-2e" transform="translate(63.623047 0)"/>
       <use xlink:href="#DejaVuSans-36" transform="translate(95.410156 0)"/>
      </g>
     </g>
    </g>
    <g id="ytick_8">
     <g id="line2d_17">
      <g>
       <use xlink:href="#mf46d17b7fe" x="43.78125" y="111.413333" style="stroke: #000000; stroke-width: 0.8"/>
      </g>
     </g>
     <g id="text_18">
      <!-- 0.7 -->
      <g transform="translate(20.878125 115.212552) scale(0.1 -0.1)">
       <use xlink:href="#DejaVuSans-30"/>
       <use xlink:href="#DejaVuSans-2e" transform="translate(63.623047 0)"/>
       <use xlink:href="#DejaVuSans-37" transform="translate(95.410156 0)"/>
      </g>
     </g>
    </g>
    <g id="ytick_9">
     <g id="line2d_18">
      <g>
       <use xlink:href="#mf46d17b7fe" x="43.78125" y="81.638095" style="stroke: #000000; stroke-width: 0.8"/>
      </g>
     </g>
     <g id="text_19">
      <!-- 0.8 -->
      <g transform="translate(20.878125 85.437314) scale(0.1 -0.1)">
       <defs>
        <path id="DejaVuSans-38" d="M 2034 2216 
Q 1584 2216 1326 1975 
Q 1069 1734 1069 1313 
Q 1069 891 1326 650 
Q 1584 409 2034 409 
Q 2484 409 2743 651 
Q 3003 894 3003 1313 
Q 3003 1734 2745 1975 
Q 2488 2216 2034 2216 
z
M 1403 2484 
Q 997 2584 770 2862 
Q 544 3141 544 3541 
Q 544 4100 942 4425 
Q 1341 4750 2034 4750 
Q 2731 4750 3128 4425 
Q 3525 4100 3525 3541 
Q 3525 3141 3298 2862 
Q 3072 2584 2669 2484 
Q 3125 2378 3379 2068 
Q 3634 1759 3634 1313 
Q 3634 634 3220 271 
Q 2806 -91 2034 -91 
Q 1263 -91 848 271 
Q 434 634 434 1313 
Q 434 1759 690 2068 
Q 947 2378 1403 2484 
z
M 1172 3481 
Q 1172 3119 1398 2916 
Q 1625 2713 2034 2713 
Q 2441 2713 2670 2916 
Q 2900 3119 2900 3481 
Q 2900 3844 2670 4047 
Q 2441 4250 2034 4250 
Q 1625 4250 1398 4047 
Q 1172 3844 1172 3481 
z
" transform="scale(0.015625)"/>
       </defs>
       <use xlink:href="#DejaVuSans-30"/>
       <use xlink:href="#DejaVuSans-2e" transform="translate(63.623047 0)"/>
       <use xlink:href="#DejaVuSans-38" transform="translate(95.410156 0)"/>
      </g>
     </g>
    </g>
    <g id="ytick_10">
     <g id="line2d_19">
      <g>
       <use xlink:href="#mf46d17b7fe" x="43.78125" y="51.862857" style="stroke: #000000; stroke-width: 0.8"/>
      </g>
     </g>
     <g id="text_20">
      <!-- 0.9 -->
      <g transform="translate(20.878125 55.662076) scale(0.1 -0.1)">
       <defs>
        <path id="DejaVuSans-39" d="M 703 97 
L 703 672 
Q 941 559 1184 500 
Q 1428 441 1663 441 
Q 2288 441 2617 861 
Q 2947 1281 2994 2138 
Q 2813 1869 2534 1725 
Q 2256 1581 1919 1581 
Q 1219 1581 811 2004 
Q 403 2428 403 3163 
Q 403 3881 828 4315 
Q 1253 4750 1959 4750 
Q 2769 4750 3195 4129 
Q 3622 3509 3622 2328 
Q 3622 1225 3098 567 
Q 2575 -91 1691 -91 
Q 1453 -91 1209 -44 
Q 966 3 703 97 
z
M 1959 2075 
Q 2384 2075 2632 2365 
Q 2881 2656 2881 3163 
Q 2881 3666 2632 3958 
Q 2384 4250 1959 4250 
Q 1534 4250 1286 3958 
Q 1038 3666 1038 3163 
Q 1038 2656 1286 2365 
Q 1534 2075 1959 2075 
z
" transform="scale(0.015625)"/>
       </defs>
       <use xlink:href="#DejaVuSans-30"/>
       <use xlink:href="#DejaVuSans-2e" transform="translate(63.623047 0)"/>
       <use xlink:href="#DejaVuSans-39" transform="translate(95.410156 0)"/>
      </g>
     </g>
    </g>
    <g id="ytick_11">
     <g id="line2d_20">
      <g>
       <use xlink:href="#mf46d17b7fe" x="43.78125" y="22.087619" style="stroke: #000000; stroke-width: 0.8"/>
      </g>
     </g>
     <g id="text_21">
      <!-- 1.0 -->
      <g transform="translate(20.878125 25.886838) scale(0.1 -0.1)">
       <use xlink:href="#DejaVuSans-31"/>
       <use xlink:href="#DejaVuSans-2e" transform="translate(63.623047 0)"/>
       <use xlink:href="#DejaVuSans-30" transform="translate(95.410156 0)"/>
      </g>
     </g>
    </g>
    <g id="text_22">
     <!-- Concentration (mM) -->
     <g transform="translate(14.798438 213.566094) rotate(-90) scale(0.1 -0.1)">
      <defs>
       <path id="DejaVuSans-43" d="M 4122 4306 
L 4122 3641 
Q 3803 3938 3442 4084 
Q 3081 4231 2675 4231 
Q 1875 4231 1450 3742 
Q 1025 3253 1025 2328 
Q 1025 1406 1450 917 
Q 1875 428 2675 428 
Q 3081 428 3442 575 
Q 3803 722 4122 1019 
L 4122 359 
Q 3791 134 3420 21 
Q 3050 -91 2638 -91 
Q 1578 -91 968 557 
Q 359 1206 359 2328 
Q 359 3453 968 4101 
Q 1578 4750 2638 4750 
Q 3056 4750 3426 4639 
Q 3797 4528 4122 4306 
z
" transform="scale(0.015625)"/>
       <path id="DejaVuSans-6f" d="M 1959 3097 
Q 1497 3097 1228 2736 
Q 959 2375 959 1747 
Q 959 1119 1226 758 
Q 1494 397 1959 397 
Q 2419 397 2687 759 
Q 2956 1122 2956 1747 
Q 2956 2369 2687 2733 
Q 2419 3097 1959 3097 
z
M 1959 3584 
Q 2709 3584 3137 3096 
Q 3566 2609 3566 1747 
Q 3566 888 3137 398 
Q 2709 -91 1959 -91 
Q 1206 -91 779 398 
Q 353 888 353 1747 
Q 353 2609 779 3096 
Q 1206 3584 1959 3584 
z
" transform="scale(0.015625)"/>
       <path id="DejaVuSans-63" d="M 3122 3366 
L 3122 2828 
Q 2878 2963 2633 3030 
Q 2388 3097 2138 3097 
Q 1578 3097 1268 2742 
Q 959 2388 959 1747 
Q 959 1106 1268 751 
Q 1578 397 2138 397 
Q 2388 397 2633 464 
Q 2878 531 3122 666 
L 3122 134 
Q 2881 22 2623 -34 
Q 2366 -91 2075 -91 
Q 1284 -91 818 406 
Q 353 903 353 1747 
Q 353 2603 823 3093 
Q 1294 3584 2113 3584 
Q 2378 3584 2631 3529 
Q 2884 3475 3122 3366 
z
" transform="scale(0.015625)"/>
       <path id="DejaVuSans-74" d="M 1172 4494 
L 1172 3500 
L 2356 3500 
L 2356 3053 
L 1172 3053 
L 1172 1153 
Q 1172 725 1289 603 
Q 1406 481 1766 481 
L 2356 481 
L 2356 0 
L 1766 0 
Q 1100 0 847 248 
Q 594 497 594 1153 
L 594 3053 
L 172 3053 
L 172 3500 
L 594 3500 
L 594 4494 
L 1172 4494 
z
" transform="scale(0.015625)"/>
       <path id="DejaVuSans-72" d="M 2631 2963 
Q 2534 3019 2420 3045 
Q 2306 3072 2169 3072 
Q 1681 3072 1420 2755 
Q 1159 2438 1159 1844 
L 1159 0 
L 581 0 
L 581 3500 
L 1159 3500 
L 1159 2956 
Q 1341 3275 1631 3429 
Q 1922 3584 2338 3584 
Q 2397 3584 2469 3576 
Q 2541 3569 2628 3553 
L 2631 2963 
z
" transform="scale(0.015625)"/>
       <path id="DejaVuSans-61" d="M 2194 1759 
Q 1497 1759 1228 1600 
Q 959 1441 959 1056 
Q 959 750 1161 570 
Q 1363 391 1709 391 
Q 2188 391 2477 730 
Q 2766 1069 2766 1631 
L 2766 1759 
L 2194 1759 
z
M 3341 1997 
L 3341 0 
L 2766 0 
L 2766 531 
Q 2569 213 2275 61 
Q 1981 -91 1556 -91 
Q 1019 -91 701 211 
Q 384 513 384 1019 
Q 384 1609 779 1909 
Q 1175 2209 1959 2209 
L 2766 2209 
L 2766 2266 
Q 2766 2663 2505 2880 
Q 2244 3097 1772 3097 
Q 1472 3097 1187 3025 
Q 903 2953 641 2809 
L 641 3341 
Q 956 3463 1253 3523 
Q 1550 3584 1831 3584 
Q 2591 3584 2966 3190 
Q 3341 2797 3341 1997 
z
" transform="scale(0.015625)"/>
       <path id="DejaVuSans-4d" d="M 628 4666 
L 1569 4666 
L 2759 1491 
L 3956 4666 
L 4897 4666 
L 4897 0 
L 4281 0 
L 4281 4097 
L 3078 897 
L 2444 897 
L 1241 4097 
L 1241 0 
L 628 0 
L 628 4666 
z
" transform="scale(0.015625)"/>
      </defs>
      <use xlink:href="#DejaVuSans-43"/>
      <use xlink:href="#DejaVuSans-6f" transform="translate(69.824219 0)"/>
      <use xlink:href="#DejaVuSans-6e" transform="translate(131.005859 0)"/>
      <use xlink:href="#DejaVuSans-63" transform="translate(194.384766 0)"/>
      <use xlink:href="#DejaVuSans-65" transform="translate(249.365234 0)"/>
      <use xlink:href="#DejaVuSans-6e" transform="translate(310.888672 0)"/>
      <use xlink:href="#DejaVuSans-74" transform="translate(374.267578 0)"/>
      <use xlink:href="#DejaVuSans-72" transform="translate(413.476562 0)"/>
      <use xlink:href="#DejaVuSans-61" transform="translate(454.589844 0)"/>
      <use xlink:href="#DejaVuSans-74" transform="translate(515.869141 0)"/>
      <use xlink:href="#DejaVuSans-69" transform="translate(555.078125 0)"/>
      <use xlink:href="#DejaVuSans-6f" transform="translate(582.861328 0)"/>
      <use xlink:href="#DejaVuSans-6e" transform="translate(644.042969 0)"/>
      <use xlink:href="#DejaVuSans-20" transform="translate(707.421875 0)"/>
      <use xlink:href="#DejaVuSans-28" transform="translate(739.208984 0)"/>
      <use xlink:href="#DejaVuSans-6d" transform="translate(778.222656 0)"/>
      <use xlink:href="#DejaVuSans-4d" transform="translate(875.634766 0)"/>
      <use xlink:href="#DejaVuSans-29" transform="translate(961.914062 0)"/>
     </g>
    </g>
   </g>
   <g id="line2d_21">
    <path d="M 43.78125 245.401905 
L 44.550986 245.306446 
L 45.115459 244.99458 
L 45.731248 244.386909 
L 46.475327 243.323457 
L 47.424668 241.555295 
L 48.707561 238.655666 
L 50.580586 233.810803 
L 54.506241 222.869121 
L 58.893737 210.909696 
L 62.177944 202.594833 
L 65.179916 195.583837 
L 68.027939 189.485004 
L 70.773332 184.121109 
L 73.467408 179.340236 
L 76.110169 175.096782 
L 78.75293 171.2704 
L 81.395691 167.831484 
L 84.06411 164.71943 
L 86.783844 161.884748 
L 89.580552 159.28771 
L 92.479892 156.897046 
L 95.507521 154.688823 
L 98.689097 152.645612 
L 102.02462 150.769493 
L 105.539749 149.049617 
L 109.208824 147.502165 
L 113.057505 146.121211 
L 117.034476 144.930193 
L 121.139735 143.932479 
L 125.347626 143.138119 
L 129.658149 142.550251 
L 134.096961 142.170306 
L 138.664062 142.003107 
L 143.436426 142.052122 
L 148.491027 142.328482 
L 153.981812 142.855483 
L 160.139701 143.676185 
L 167.477853 144.888163 
L 177.741001 146.82998 
L 201.115323 151.307961 
L 212.045577 153.131036 
L 222.796225 154.697457 
L 234.111347 156.118387 
L 246.529757 157.449559 
L 260.564613 158.725223 
L 276.472494 159.943643 
L 293.971163 161.058993 
L 300.359973 161.413457 
L 300.359973 161.413457 
" clip-path="url(#pe309c0fa6e)" style="fill: none; stroke: #000000; stroke-width: 1.5; stroke-linecap: square"/>
   </g>
   <g id="line2d_22">
    <path d="M 43.78125 170.96381 
L 44.243092 171.058287 
L 44.576644 171.389085 
L 44.961512 172.140039 
L 45.449012 173.664061 
L 46.090459 176.518776 
L 46.962826 181.539452 
L 48.399667 191.327203 
L 51.658217 213.722177 
L 53.274663 223.168228 
L 54.762819 230.592973 
L 56.174002 236.535676 
L 57.53387 241.331914 
L 58.868079 245.24498 
L 60.17663 248.413412 
L 61.459524 250.96116 
L 62.742418 253.03269 
L 64.025311 254.696795 
L 65.333863 256.037636 
L 66.668072 257.092214 
L 68.053597 257.908445 
L 69.541754 258.524374 
L 71.132542 258.941147 
L 72.902935 259.173644 
L 74.955565 259.212025 
L 77.418721 259.025048 
L 80.574639 258.549434 
L 85.449635 257.562856 
L 97.56015 255.056652 
L 104.205539 253.950793 
L 111.107507 253.030661 
L 118.573948 252.263481 
L 126.681836 251.656955 
L 135.43117 251.227816 
L 144.898925 250.989357 
L 155.469968 250.951377 
L 168.427194 251.138836 
L 225.002802 252.231966 
L 243.835681 252.196131 
L 266.414608 251.920474 
L 297.152739 251.306812 
L 300.359973 251.233148 
L 300.359973 251.233148 
" clip-path="url(#pe309c0fa6e)" style="fill: none; stroke: #000000; stroke-width: 1.5; stroke-linecap: square"/>
   </g>
   <g id="line2d_23">
    <path d="M 43.78125 170.96381 
L 45.320722 171.127917 
L 46.064801 171.457898 
L 46.757563 172.018274 
L 47.475984 172.893955 
L 48.271378 174.224696 
L 49.195061 176.228535 
L 50.272692 179.125334 
L 51.606901 183.397194 
L 53.351636 189.798868 
L 56.302292 201.630144 
L 60.150973 216.839324 
L 62.537155 225.364407 
L 64.666758 232.167901 
L 66.642414 237.751317 
L 68.515439 242.39713 
L 70.337148 246.332705 
L 72.107541 249.638522 
L 73.852276 252.43266 
L 75.571354 254.773435 
L 77.290431 256.743195 
L 79.009509 258.379285 
L 80.754244 259.735211 
L 82.524637 260.832886 
L 84.346346 261.704561 
L 86.245029 262.369319 
L 88.246343 262.83574 
L 90.375946 263.10404 
L 92.685155 263.167351 
L 95.173968 263.010139 
L 97.893703 262.61267 
L 100.895674 261.944742 
L 104.205539 260.97668 
L 107.900273 259.660439 
L 112.082506 257.929531 
L 116.98316 255.652075 
L 123.218023 252.493395 
L 142.718006 242.435976 
L 148.029185 240.056093 
L 152.852865 238.136004 
L 157.445624 236.546415 
L 161.935752 235.227199 
L 166.42588 234.138995 
L 171.044297 233.250067 
L 175.867977 232.551016 
L 181.025209 232.032229 
L 186.695599 231.690224 
L 193.187041 231.52757 
L 201.217955 231.559256 
L 213.559391 231.858777 
L 235.265951 232.379707 
L 248.582387 232.454001 
L 262.41198 232.304203 
L 278.550782 231.898257 
L 300.359973 231.11227 
L 300.359973 231.11227 
" clip-path="url(#pe309c0fa6e)" style="fill: none; stroke: #000000; stroke-width: 1.5; stroke-linecap: square"/>
   </g>
   <g id="line2d_24">
    <path d="M 43.78125 170.96381 
L 47.116773 170.846826 
L 49.32335 170.528453 
L 51.50427 169.989583 
L 53.736504 169.206333 
L 56.045713 168.156558 
L 58.457553 166.812433 
L 61.02334 165.122116 
L 63.768733 163.039714 
L 66.719388 160.517302 
L 69.977938 157.431928 
L 73.621356 153.66818 
L 77.854904 148.963351 
L 83.012137 142.882973 
L 90.145025 134.099327 
L 110.902244 108.355569 
L 118.214738 99.74307 
L 124.783153 92.34453 
L 130.889727 85.795534 
L 136.688406 79.898815 
L 142.230506 74.575779 
L 147.593001 69.729497 
L 152.827207 65.296 
L 157.958782 61.238116 
L 163.039041 57.502652 
L 168.093641 54.061327 
L 173.148242 50.888562 
L 178.228501 47.961578 
L 183.360076 45.260394 
L 188.594281 42.756048 
L 193.956777 40.437256 
L 199.473219 38.294731 
L 205.194925 36.312537 
L 211.147551 34.487541 
L 217.356756 32.817439 
L 223.899514 31.289377 
L 230.827139 29.90217 
L 238.190949 28.657156 
L 246.042258 27.55747 
L 254.483698 26.602148 
L 263.6179 25.79541 
L 273.547497 25.14473 
L 284.47775 24.654957 
L 296.690898 24.33503 
L 300.359973 24.277949 
L 300.359973 24.277949 
" clip-path="url(#pe309c0fa6e)" style="fill: none; stroke: #000000; stroke-width: 1.5; stroke-linecap: square"/>
   </g>
   <g id="line2d_25">
    <path d="M 43.78125 150.121143 
L 56.379265 150.193328 
L 60.715446 149.835878 
L 65.282547 149.233991 
L 70.003596 148.386098 
L 74.852933 147.287346 
L 79.804903 145.936541 
L 84.936477 144.304954 
L 90.32463 142.355681 
L 96.071994 140.035891 
L 102.332515 137.263951 
L 109.362772 133.901809 
L 117.752896 129.633086 
L 129.658149 123.301039 
L 150.287078 112.321349 
L 159.934438 107.462901 
L 168.375878 103.45696 
L 176.227187 99.974489 
L 183.770601 96.870355 
L 191.160069 94.069658 
L 198.472562 91.535031 
L 205.836372 89.218092 
L 213.302813 87.102786 
L 220.923201 85.175376 
L 228.800167 83.41379 
L 236.985029 81.813169 
L 245.554758 80.366158 
L 254.586329 79.068942 
L 264.182373 77.917502 
L 274.47118 76.909307 
L 285.606697 76.044247 
L 297.819844 75.322186 
L 300.359973 75.197853 
L 300.359973 75.197853 
" clip-path="url(#pe309c0fa6e)" style="fill: none; stroke: #000000; stroke-width: 1.5; stroke-linecap: square"/>
   </g>
   <g id="line2d_26">
    <path d="M 43.78125 170.96381 
L 83.140426 171.074847 
L 102.640409 171.086405 
L 115.161451 170.871315 
L 125.989073 170.466181 
L 136.046959 169.869076 
L 145.719977 169.072572 
L 155.239047 168.065897 
L 164.835092 166.826846 
L 174.713373 165.325278 
L 185.104811 163.518397 
L 196.419933 161.321404 
L 209.428474 158.561961 
L 226.388327 154.720601 
L 270.699473 144.581282 
L 286.248144 141.318869 
L 300.359973 138.580196 
L 300.359973 138.580196 
" clip-path="url(#pe309c0fa6e)" style="fill: none; stroke: #000000; stroke-width: 1.5; stroke-linecap: square"/>
   </g>
   <g id="line2d_27">
    <path d="M 43.78125 120.345905 
L 58.662816 120.456663 
L 74.673328 120.872093 
L 117.34237 122.028392 
L 133.121961 122.206255 
L 145.899582 122.133475 
L 157.060756 121.851398 
L 167.169958 121.376802 
L 176.586397 120.714615 
L 185.515337 119.865345 
L 194.085066 118.828109 
L 202.398217 117.599198 
L 210.55742 116.168723 
L 218.613992 114.530428 
L 226.619248 112.67547 
L 234.624504 110.591943 
L 242.681076 108.264592 
L 250.814622 105.683188 
L 259.102115 102.818484 
L 267.569213 99.654909 
L 276.267231 96.166039 
L 285.247487 92.322756 
L 294.586952 88.081808 
L 300.359973 85.343723 
L 300.359973 85.343723 
" clip-path="url(#pe309c0fa6e)" style="fill: none; stroke: #000000; stroke-width: 1.5; stroke-linecap: square"/>
   </g>
   <g id="line2d_28">
    <path d="M 43.78125 146.43428 
L 43.832566 146.565641 
L 43.960855 147.928339 
L 44.217434 153.951647 
L 44.730591 172.795307 
L 46.270064 231.154936 
L 47.116773 254.256361 
L 47.937825 270.92465 
L 48.758877 283.222673 
L 49.554271 291.986705 
L 50.349665 298.419186 
L 51.145059 303.095705 
L 51.914796 306.360165 
L 52.684532 308.68779 
L 53.42861 310.263149 
L 54.172688 311.336453 
L 54.916767 312.030336 
L 55.686503 312.449173 
L 56.533213 312.652321 
L 57.508212 312.65096 
L 58.73979 312.415608 
L 60.510183 311.82774 
L 64.718074 310.108828 
L 68.874649 308.543643 
L 72.748988 307.32734 
L 76.879905 306.267163 
L 81.447007 305.328239 
L 86.629897 304.494071 
L 92.659497 303.754975 
L 99.766727 303.114165 
L 108.156852 302.58678 
L 117.727238 302.211715 
L 128.118676 302.028757 
L 139.177219 302.058652 
L 151.236419 302.317978 
L 165.399565 302.853919 
L 185.130469 303.843708 
L 261.847507 307.872542 
L 294.12511 309.276833 
L 300.359973 309.519576 
L 300.359973 309.519576 
" clip-path="url(#pe309c0fa6e)" style="fill: none; stroke: #000000; stroke-width: 1.5; stroke-linecap: square"/>
   </g>
   <g id="patch_3">
    <path d="M 43.78125 319.84 
L 43.78125 7.2 
" style="fill: none; stroke: #000000; stroke-width: 0.8; stroke-linejoin: miter; stroke-linecap: square"/>
   </g>
   <g id="patch_4">
    <path d="M 345.26125 319.84 
L 345.26125 7.2 
" style="fill: none; stroke: #000000; stroke-width: 0.8; stroke-linejoin: miter; stroke-linecap: square"/>
   </g>
   <g id="patch_5">
    <path d="M 43.78125 319.84 
L 345.26125 319.84 
" style="fill: none; stroke: #000000; stroke-width: 0.8; stroke-linejoin: miter; stroke-linecap: square"/>
   </g>
   <g id="patch_6">
    <path d="M 43.78125 7.2 
L 345.26125 7.2 
" style="fill: none; stroke: #000000; stroke-width: 0.8; stroke-linejoin: miter; stroke-linecap: square"/>
   </g>
   <g id="text_23">
    <!-- RuBP -->
    <g transform="translate(306.774441 164.172832) scale(0.1 -0.1)">
     <defs>
      <path id="DejaVuSans-52" d="M 2841 2188 
Q 3044 2119 3236 1894 
Q 3428 1669 3622 1275 
L 4263 0 
L 3584 0 
L 2988 1197 
Q 2756 1666 2539 1819 
Q 2322 1972 1947 1972 
L 1259 1972 
L 1259 0 
L 628 0 
L 628 4666 
L 2053 4666 
Q 2853 4666 3247 4331 
Q 3641 3997 3641 3322 
Q 3641 2881 3436 2590 
Q 3231 2300 2841 2188 
z
M 1259 4147 
L 1259 2491 
L 2053 2491 
Q 2509 2491 2742 2702 
Q 2975 2913 2975 3322 
Q 2975 3731 2742 3939 
Q 2509 4147 2053 4147 
L 1259 4147 
z
" transform="scale(0.015625)"/>
      <path id="DejaVuSans-75" d="M 544 1381 
L 544 3500 
L 1119 3500 
L 1119 1403 
Q 1119 906 1312 657 
Q 1506 409 1894 409 
Q 2359 409 2629 706 
Q 2900 1003 2900 1516 
L 2900 3500 
L 3475 3500 
L 3475 0 
L 2900 0 
L 2900 538 
Q 2691 219 2414 64 
Q 2138 -91 1772 -91 
Q 1169 -91 856 284 
Q 544 659 544 1381 
z
M 1991 3584 
L 1991 3584 
z
" transform="scale(0.015625)"/>
      <path id="DejaVuSans-42" d="M 1259 2228 
L 1259 519 
L 2272 519 
Q 2781 519 3026 730 
Q 3272 941 3272 1375 
Q 3272 1813 3026 2020 
Q 2781 2228 2272 2228 
L 1259 2228 
z
M 1259 4147 
L 1259 2741 
L 2194 2741 
Q 2656 2741 2882 2914 
Q 3109 3088 3109 3444 
Q 3109 3797 2882 3972 
Q 2656 4147 2194 4147 
L 1259 4147 
z
M 628 4666 
L 2241 4666 
Q 2963 4666 3353 4366 
Q 3744 4066 3744 3513 
Q 3744 3084 3544 2831 
Q 3344 2578 2956 2516 
Q 3422 2416 3680 2098 
Q 3938 1781 3938 1306 
Q 3938 681 3513 340 
Q 3088 0 2303 0 
L 628 0 
L 628 4666 
z
" transform="scale(0.015625)"/>
      <path id="DejaVuSans-50" d="M 1259 4147 
L 1259 2394 
L 2053 2394 
Q 2494 2394 2734 2622 
Q 2975 2850 2975 3272 
Q 2975 3691 2734 3919 
Q 2494 4147 2053 4147 
L 1259 4147 
z
M 628 4666 
L 2053 4666 
Q 2838 4666 3239 4311 
Q 3641 3956 3641 3272 
Q 3641 2581 3239 2228 
Q 2838 1875 2053 1875 
L 1259 1875 
L 1259 0 
L 628 0 
L 628 4666 
z
" transform="scale(0.015625)"/>
     </defs>
     <use xlink:href="#DejaVuSans-52"/>
     <use xlink:href="#DejaVuSans-75" transform="translate(64.982422 0)"/>
     <use xlink:href="#DejaVuSans-42" transform="translate(128.361328 0)"/>
     <use xlink:href="#DejaVuSans-50" transform="translate(196.964844 0)"/>
    </g>
   </g>
   <g id="text_24">
    <!-- PGA -->
    <g transform="translate(306.774441 253.992523) scale(0.1 -0.1)">
     <defs>
      <path id="DejaVuSans-47" d="M 3809 666 
L 3809 1919 
L 2778 1919 
L 2778 2438 
L 4434 2438 
L 4434 434 
Q 4069 175 3628 42 
Q 3188 -91 2688 -91 
Q 1594 -91 976 548 
Q 359 1188 359 2328 
Q 359 3472 976 4111 
Q 1594 4750 2688 4750 
Q 3144 4750 3555 4637 
Q 3966 4525 4313 4306 
L 4313 3634 
Q 3963 3931 3569 4081 
Q 3175 4231 2741 4231 
Q 1884 4231 1454 3753 
Q 1025 3275 1025 2328 
Q 1025 1384 1454 906 
Q 1884 428 2741 428 
Q 3075 428 3337 486 
Q 3600 544 3809 666 
z
" transform="scale(0.015625)"/>
      <path id="DejaVuSans-41" d="M 2188 4044 
L 1331 1722 
L 3047 1722 
L 2188 4044 
z
M 1831 4666 
L 2547 4666 
L 4325 0 
L 3669 0 
L 3244 1197 
L 1141 1197 
L 716 0 
L 50 0 
L 1831 4666 
z
" transform="scale(0.015625)"/>
     </defs>
     <use xlink:href="#DejaVuSans-50"/>
     <use xlink:href="#DejaVuSans-47" transform="translate(60.302734 0)"/>
     <use xlink:href="#DejaVuSans-41" transform="translate(137.792969 0)"/>
    </g>
   </g>
   <g id="text_25">
    <!-- TP -->
    <g transform="translate(306.774441 233.871645) scale(0.1 -0.1)">
     <use xlink:href="#DejaVuSans-54"/>
     <use xlink:href="#DejaVuSans-50" transform="translate(61.083984 0)"/>
    </g>
   </g>
   <g id="text_26">
    <!-- PGl -->
    <g transform="translate(306.774441 27.037324) scale(0.1 -0.1)">
     <defs>
      <path id="DejaVuSans-6c" d="M 603 4863 
L 1178 4863 
L 1178 0 
L 603 0 
L 603 4863 
z
" transform="scale(0.015625)"/>
     </defs>
     <use xlink:href="#DejaVuSans-50"/>
     <use xlink:href="#DejaVuSans-47" transform="translate(60.302734 0)"/>
     <use xlink:href="#DejaVuSans-6c" transform="translate(137.792969 0)"/>
    </g>
   </g>
   <g id="text_27">
    <!-- Gl -->
    <g transform="translate(306.774441 77.957228) scale(0.1 -0.1)">
     <use xlink:href="#DejaVuSans-47"/>
     <use xlink:href="#DejaVuSans-6c" transform="translate(77.490234 0)"/>
    </g>
   </g>
   <g id="text_28">
    <!-- Gn -->
    <g transform="translate(306.774441 141.339571) scale(0.1 -0.1)">
     <use xlink:href="#DejaVuSans-47"/>
     <use xlink:href="#DejaVuSans-6e" transform="translate(77.490234 0)"/>
    </g>
   </g>
   <g id="text_29">
    <!-- NH3 -->
    <g transform="translate(306.774441 88.103098) scale(0.1 -0.1)">
     <defs>
      <path id="DejaVuSans-4e" d="M 628 4666 
L 1478 4666 
L 3547 763 
L 3547 4666 
L 4159 4666 
L 4159 0 
L 3309 0 
L 1241 3903 
L 1241 0 
L 628 0 
L 628 4666 
z
" transform="scale(0.015625)"/>
      <path id="DejaVuSans-48" d="M 628 4666 
L 1259 4666 
L 1259 2753 
L 3553 2753 
L 3553 4666 
L 4184 4666 
L 4184 0 
L 3553 0 
L 3553 2222 
L 1259 2222 
L 1259 0 
L 628 0 
L 628 4666 
z
" transform="scale(0.015625)"/>
     </defs>
     <use xlink:href="#DejaVuSans-4e"/>
     <use xlink:href="#DejaVuSans-48" transform="translate(74.804688 0)"/>
     <use xlink:href="#DejaVuSans-33" transform="translate(150 0)"/>
    </g>
   </g>
   <g id="text_30">
    <!-- PAn -->
    <g transform="translate(306.774441 312.278951) scale(0.1 -0.1)">
     <use xlink:href="#DejaVuSans-50"/>
     <use xlink:href="#DejaVuSans-41" transform="translate(53.927734 0)"/>
     <use xlink:href="#DejaVuSans-6e" transform="translate(122.335938 0)"/>
    </g>
   </g>
   <g id="text_31">
    <!-- A -->
    <g transform="translate(332.391025 21.051237) scale(0.1 -0.1)">
     <use xlink:href="#DejaVuSans-41"/>
    </g>
   </g>
  </g>
  <g id="axes_2">
   <g id="patch_7">
    <path d="M 43.78125 674.44 
L 345.26125 674.44 
L 345.26125 361.8 
L 43.78125 361.8 
z
" style="fill: #ffffff"/>
   </g>
   <g id="matplotlib.axis_3">
    <g id="xtick_10">
     <g id="line2d_29">
      <g>
       <use xlink:href="#mcde99c04ca" x="43.78125" y="674.44" style="stroke: #000000; stroke-width: 0.8"/>
      </g>
     </g>
     <g id="text_32">
      <!-- 0.00 -->
      <g transform="translate(32.648438 689.038437) scale(0.1 -0.1)">
       <use xlink:href="#DejaVuSans-30"/>
       <use xlink:href="#DejaVuSans-2e" transform="translate(63.623047 0)"/>
       <use xlink:href="#DejaVuSans-30" transform="translate(95.410156 0)"/>
       <use xlink:href="#DejaVuSans-30" transform="translate(159.033203 0)"/>
      </g>
     </g>
    </g>
    <g id="xtick_11">
     <g id="line2d_30">
      <g>
       <use xlink:href="#mcde99c04ca" x="75.85359" y="674.44" style="stroke: #000000; stroke-width: 0.8"/>
      </g>
     </g>
     <g id="text_33">
      <!-- 0.25 -->
      <g transform="translate(64.720778 689.038437) scale(0.1 -0.1)">
       <use xlink:href="#DejaVuSans-30"/>
       <use xlink:href="#DejaVuSans-2e" transform="translate(63.623047 0)"/>
       <use xlink:href="#DejaVuSans-32" transform="translate(95.410156 0)"/>
       <use xlink:href="#DejaVuSans-35" transform="translate(159.033203 0)"/>
      </g>
     </g>
    </g>
    <g id="xtick_12">
     <g id="line2d_31">
      <g>
       <use xlink:href="#mcde99c04ca" x="107.925931" y="674.44" style="stroke: #000000; stroke-width: 0.8"/>
      </g>
     </g>
     <g id="text_34">
      <!-- 0.50 -->
      <g transform="translate(96.793118 689.038437) scale(0.1 -0.1)">
       <use xlink:href="#DejaVuSans-30"/>
       <use xlink:href="#DejaVuSans-2e" transform="translate(63.623047 0)"/>
       <use xlink:href="#DejaVuSans-35" transform="translate(95.410156 0)"/>
       <use xlink:href="#DejaVuSans-30" transform="translate(159.033203 0)"/>
      </g>
     </g>
    </g>
    <g id="xtick_13">
     <g id="line2d_32">
      <g>
       <use xlink:href="#mcde99c04ca" x="139.998271" y="674.44" style="stroke: #000000; stroke-width: 0.8"/>
      </g>
     </g>
     <g id="text_35">
      <!-- 0.75 -->
      <g transform="translate(128.865459 689.038437) scale(0.1 -0.1)">
       <use xlink:href="#DejaVuSans-30"/>
       <use xlink:href="#DejaVuSans-2e" transform="translate(63.623047 0)"/>
       <use xlink:href="#DejaVuSans-37" transform="translate(95.410156 0)"/>
       <use xlink:href="#DejaVuSans-35" transform="translate(159.033203 0)"/>
      </g>
     </g>
    </g>
    <g id="xtick_14">
     <g id="line2d_33">
      <g>
       <use xlink:href="#mcde99c04ca" x="172.070612" y="674.44" style="stroke: #000000; stroke-width: 0.8"/>
      </g>
     </g>
     <g id="text_36">
      <!-- 1.00 -->
      <g transform="translate(160.937799 689.038437) scale(0.1 -0.1)">
       <use xlink:href="#DejaVuSans-31"/>
       <use xlink:href="#DejaVuSans-2e" transform="translate(63.623047 0)"/>
       <use xlink:href="#DejaVuSans-30" transform="translate(95.410156 0)"/>
       <use xlink:href="#DejaVuSans-30" transform="translate(159.033203 0)"/>
      </g>
     </g>
    </g>
    <g id="xtick_15">
     <g id="line2d_34">
      <g>
       <use xlink:href="#mcde99c04ca" x="204.142952" y="674.44" style="stroke: #000000; stroke-width: 0.8"/>
      </g>
     </g>
     <g id="text_37">
      <!-- 1.25 -->
      <g transform="translate(193.01014 689.038437) scale(0.1 -0.1)">
       <use xlink:href="#DejaVuSans-31"/>
       <use xlink:href="#DejaVuSans-2e" transform="translate(63.623047 0)"/>
       <use xlink:href="#DejaVuSans-32" transform="translate(95.410156 0)"/>
       <use xlink:href="#DejaVuSans-35" transform="translate(159.033203 0)"/>
      </g>
     </g>
    </g>
    <g id="xtick_16">
     <g id="line2d_35">
      <g>
       <use xlink:href="#mcde99c04ca" x="236.215293" y="674.44" style="stroke: #000000; stroke-width: 0.8"/>
      </g>
     </g>
     <g id="text_38">
      <!-- 1.50 -->
      <g transform="translate(225.08248 689.038437) scale(0.1 -0.1)">
       <use xlink:href="#DejaVuSans-31"/>
       <use xlink:href="#DejaVuSans-2e" transform="translate(63.623047 0)"/>
       <use xlink:href="#DejaVuSans-35" transform="translate(95.410156 0)"/>
       <use xlink:href="#DejaVuSans-30" transform="translate(159.033203 0)"/>
      </g>
     </g>
    </g>
    <g id="xtick_17">
     <g id="line2d_36">
      <g>
       <use xlink:href="#mcde99c04ca" x="268.287633" y="674.44" style="stroke: #000000; stroke-width: 0.8"/>
      </g>
     </g>
     <g id="text_39">
      <!-- 1.75 -->
      <g transform="translate(257.15482 689.038437) scale(0.1 -0.1)">
       <use xlink:href="#DejaVuSans-31"/>
       <use xlink:href="#DejaVuSans-2e" transform="translate(63.623047 0)"/>
       <use xlink:href="#DejaVuSans-37" transform="translate(95.410156 0)"/>
       <use xlink:href="#DejaVuSans-35" transform="translate(159.033203 0)"/>
      </g>
     </g>
    </g>
    <g id="xtick_18">
     <g id="line2d_37">
      <g>
       <use xlink:href="#mcde99c04ca" x="300.359973" y="674.44" style="stroke: #000000; stroke-width: 0.8"/>
      </g>
     </g>
     <g id="text_40">
      <!-- 2.00 -->
      <g transform="translate(289.227161 689.038437) scale(0.1 -0.1)">
       <use xlink:href="#DejaVuSans-32"/>
       <use xlink:href="#DejaVuSans-2e" transform="translate(63.623047 0)"/>
       <use xlink:href="#DejaVuSans-30" transform="translate(95.410156 0)"/>
       <use xlink:href="#DejaVuSans-30" transform="translate(159.033203 0)"/>
      </g>
     </g>
    </g>
    <g id="text_41">
     <!-- Time (min) -->
     <g transform="translate(167.368906 702.716562) scale(0.1 -0.1)">
      <use xlink:href="#DejaVuSans-54"/>
      <use xlink:href="#DejaVuSans-69" transform="translate(57.958984 0)"/>
      <use xlink:href="#DejaVuSans-6d" transform="translate(85.742188 0)"/>
      <use xlink:href="#DejaVuSans-65" transform="translate(183.154297 0)"/>
      <use xlink:href="#DejaVuSans-20" transform="translate(244.677734 0)"/>
      <use xlink:href="#DejaVuSans-28" transform="translate(276.464844 0)"/>
      <use xlink:href="#DejaVuSans-6d" transform="translate(315.478516 0)"/>
      <use xlink:href="#DejaVuSans-69" transform="translate(412.890625 0)"/>
      <use xlink:href="#DejaVuSans-6e" transform="translate(440.673828 0)"/>
      <use xlink:href="#DejaVuSans-29" transform="translate(504.052734 0)"/>
     </g>
    </g>
   </g>
   <g id="matplotlib.axis_4">
    <g id="ytick_12">
     <g id="line2d_38">
      <g>
       <use xlink:href="#mf46d17b7fe" x="43.78125" y="674.44" style="stroke: #000000; stroke-width: 0.8"/>
      </g>
     </g>
     <g id="text_42">
      <!-- 0.0 -->
      <g transform="translate(20.878125 678.239219) scale(0.1 -0.1)">
       <use xlink:href="#DejaVuSans-30"/>
       <use xlink:href="#DejaVuSans-2e" transform="translate(63.623047 0)"/>
       <use xlink:href="#DejaVuSans-30" transform="translate(95.410156 0)"/>
      </g>
     </g>
    </g>
    <g id="ytick_13">
     <g id="line2d_39">
      <g>
       <use xlink:href="#mf46d17b7fe" x="43.78125" y="644.664762" style="stroke: #000000; stroke-width: 0.8"/>
      </g>
     </g>
     <g id="text_43">
      <!-- 0.1 -->
      <g transform="translate(20.878125 648.463981) scale(0.1 -0.1)">
       <use xlink:href="#DejaVuSans-30"/>
       <use xlink:href="#DejaVuSans-2e" transform="translate(63.623047 0)"/>
       <use xlink:href="#DejaVuSans-31" transform="translate(95.410156 0)"/>
      </g>
     </g>
    </g>
    <g id="ytick_14">
     <g id="line2d_40">
      <g>
       <use xlink:href="#mf46d17b7fe" x="43.78125" y="614.889524" style="stroke: #000000; stroke-width: 0.8"/>
      </g>
     </g>
     <g id="text_44">
      <!-- 0.2 -->
      <g transform="translate(20.878125 618.688743) scale(0.1 -0.1)">
       <use xlink:href="#DejaVuSans-30"/>
       <use xlink:href="#DejaVuSans-2e" transform="translate(63.623047 0)"/>
       <use xlink:href="#DejaVuSans-32" transform="translate(95.410156 0)"/>
      </g>
     </g>
    </g>
    <g id="ytick_15">
     <g id="line2d_41">
      <g>
       <use xlink:href="#mf46d17b7fe" x="43.78125" y="585.114286" style="stroke: #000000; stroke-width: 0.8"/>
      </g>
     </g>
     <g id="text_45">
      <!-- 0.3 -->
      <g transform="translate(20.878125 588.913504) scale(0.1 -0.1)">
       <use xlink:href="#DejaVuSans-30"/>
       <use xlink:href="#DejaVuSans-2e" transform="translate(63.623047 0)"/>
       <use xlink:href="#DejaVuSans-33" transform="translate(95.410156 0)"/>
      </g>
     </g>
    </g>
    <g id="ytick_16">
     <g id="line2d_42">
      <g>
       <use xlink:href="#mf46d17b7fe" x="43.78125" y="555.339048" style="stroke: #000000; stroke-width: 0.8"/>
      </g>
     </g>
     <g id="text_46">
      <!-- 0.4 -->
      <g transform="translate(20.878125 559.138266) scale(0.1 -0.1)">
       <use xlink:href="#DejaVuSans-30"/>
       <use xlink:href="#DejaVuSans-2e" transform="translate(63.623047 0)"/>
       <use xlink:href="#DejaVuSans-34" transform="translate(95.410156 0)"/>
      </g>
     </g>
    </g>
    <g id="ytick_17">
     <g id="line2d_43">
      <g>
       <use xlink:href="#mf46d17b7fe" x="43.78125" y="525.56381" style="stroke: #000000; stroke-width: 0.8"/>
      </g>
     </g>
     <g id="text_47">
      <!-- 0.5 -->
      <g transform="translate(20.878125 529.363028) scale(0.1 -0.1)">
       <use xlink:href="#DejaVuSans-30"/>
       <use xlink:href="#DejaVuSans-2e" transform="translate(63.623047 0)"/>
       <use xlink:href="#DejaVuSans-35" transform="translate(95.410156 0)"/>
      </g>
     </g>
    </g>
    <g id="ytick_18">
     <g id="line2d_44">
      <g>
       <use xlink:href="#mf46d17b7fe" x="43.78125" y="495.788571" style="stroke: #000000; stroke-width: 0.8"/>
      </g>
     </g>
     <g id="text_48">
      <!-- 0.6 -->
      <g transform="translate(20.878125 499.58779) scale(0.1 -0.1)">
       <use xlink:href="#DejaVuSans-30"/>
       <use xlink:href="#DejaVuSans-2e" transform="translate(63.623047 0)"/>
       <use xlink:href="#DejaVuSans-36" transform="translate(95.410156 0)"/>
      </g>
     </g>
    </g>
    <g id="ytick_19">
     <g id="line2d_45">
      <g>
       <use xlink:href="#mf46d17b7fe" x="43.78125" y="466.013333" style="stroke: #000000; stroke-width: 0.8"/>
      </g>
     </g>
     <g id="text_49">
      <!-- 0.7 -->
      <g transform="translate(20.878125 469.812552) scale(0.1 -0.1)">
       <use xlink:href="#DejaVuSans-30"/>
       <use xlink:href="#DejaVuSans-2e" transform="translate(63.623047 0)"/>
       <use xlink:href="#DejaVuSans-37" transform="translate(95.410156 0)"/>
      </g>
     </g>
    </g>
    <g id="ytick_20">
     <g id="line2d_46">
      <g>
       <use xlink:href="#mf46d17b7fe" x="43.78125" y="436.238095" style="stroke: #000000; stroke-width: 0.8"/>
      </g>
     </g>
     <g id="text_50">
      <!-- 0.8 -->
      <g transform="translate(20.878125 440.037314) scale(0.1 -0.1)">
       <use xlink:href="#DejaVuSans-30"/>
       <use xlink:href="#DejaVuSans-2e" transform="translate(63.623047 0)"/>
       <use xlink:href="#DejaVuSans-38" transform="translate(95.410156 0)"/>
      </g>
     </g>
    </g>
    <g id="ytick_21">
     <g id="line2d_47">
      <g>
       <use xlink:href="#mf46d17b7fe" x="43.78125" y="406.462857" style="stroke: #000000; stroke-width: 0.8"/>
      </g>
     </g>
     <g id="text_51">
      <!-- 0.9 -->
      <g transform="translate(20.878125 410.262076) scale(0.1 -0.1)">
       <use xlink:href="#DejaVuSans-30"/>
       <use xlink:href="#DejaVuSans-2e" transform="translate(63.623047 0)"/>
       <use xlink:href="#DejaVuSans-39" transform="translate(95.410156 0)"/>
      </g>
     </g>
    </g>
    <g id="ytick_22">
     <g id="line2d_48">
      <g>
       <use xlink:href="#mf46d17b7fe" x="43.78125" y="376.687619" style="stroke: #000000; stroke-width: 0.8"/>
      </g>
     </g>
     <g id="text_52">
      <!-- 1.0 -->
      <g transform="translate(20.878125 380.486838) scale(0.1 -0.1)">
       <use xlink:href="#DejaVuSans-31"/>
       <use xlink:href="#DejaVuSans-2e" transform="translate(63.623047 0)"/>
       <use xlink:href="#DejaVuSans-30" transform="translate(95.410156 0)"/>
      </g>
     </g>
    </g>
    <g id="text_53">
     <!-- Concentration (mM) -->
     <g transform="translate(14.798438 568.166094) rotate(-90) scale(0.1 -0.1)">
      <use xlink:href="#DejaVuSans-43"/>
      <use xlink:href="#DejaVuSans-6f" transform="translate(69.824219 0)"/>
      <use xlink:href="#DejaVuSans-6e" transform="translate(131.005859 0)"/>
      <use xlink:href="#DejaVuSans-63" transform="translate(194.384766 0)"/>
      <use xlink:href="#DejaVuSans-65" transform="translate(249.365234 0)"/>
      <use xlink:href="#DejaVuSans-6e" transform="translate(310.888672 0)"/>
      <use xlink:href="#DejaVuSans-74" transform="translate(374.267578 0)"/>
      <use xlink:href="#DejaVuSans-72" transform="translate(413.476562 0)"/>
      <use xlink:href="#DejaVuSans-61" transform="translate(454.589844 0)"/>
      <use xlink:href="#DejaVuSans-74" transform="translate(515.869141 0)"/>
      <use xlink:href="#DejaVuSans-69" transform="translate(555.078125 0)"/>
      <use xlink:href="#DejaVuSans-6f" transform="translate(582.861328 0)"/>
      <use xlink:href="#DejaVuSans-6e" transform="translate(644.042969 0)"/>
      <use xlink:href="#DejaVuSans-20" transform="translate(707.421875 0)"/>
      <use xlink:href="#DejaVuSans-28" transform="translate(739.208984 0)"/>
      <use xlink:href="#DejaVuSans-6d" transform="translate(778.222656 0)"/>
      <use xlink:href="#DejaVuSans-4d" transform="translate(875.634766 0)"/>
      <use xlink:href="#DejaVuSans-29" transform="translate(961.914062 0)"/>
     </g>
    </g>
   </g>
   <g id="line2d_49">
    <path d="M 43.78125 376.687619 
L 43.986513 376.796469 
L 44.14046 377.205732 
L 44.345723 378.486123 
L 44.62796 381.975284 
L 44.98717 389.591933 
L 45.47467 405.248582 
L 46.19309 436.404051 
L 48.810193 556.448041 
L 49.708219 584.832092 
L 50.52927 604.054822 
L 51.299007 617.166005 
L 52.043085 626.273658 
L 52.761505 632.538476 
L 53.479926 636.966964 
L 54.198346 640.066621 
L 54.916767 642.221592 
L 55.635187 643.71262 
L 56.379265 644.769684 
L 57.174659 645.522726 
L 58.047027 646.046621 
L 59.073342 646.39864 
L 60.330578 646.586959 
L 61.998339 646.597509 
L 64.333206 646.37316 
L 68.053597 645.767927 
L 84.910819 642.802 
L 91.017393 642.064229 
L 97.277914 641.534383 
L 104.179881 641.179097 
L 112.775269 640.972206 
L 132.17262 640.811634 
L 152.493655 640.499942 
L 203.398874 639.633485 
L 250.686333 639.113356 
L 297.460634 638.820578 
L 300.359973 638.809504 
L 300.359973 638.809504 
" clip-path="url(#p17f1a99505)" style="fill: none; stroke: #000000; stroke-width: 1.5; stroke-linecap: square"/>
   </g>
   <g id="line2d_50">
    <path d="M 43.78125 600.001905 
L 44.037829 599.904207 
L 44.243092 599.494135 
L 44.49967 598.327102 
L 44.833223 595.554155 
L 45.295064 589.461082 
L 45.987827 576.778752 
L 48.014799 537.951902 
L 48.758877 528.543359 
L 49.374666 523.31351 
L 49.913481 520.485526 
L 50.349665 519.245377 
L 50.683218 518.847149 
L 50.939796 518.825663 
L 51.222033 519.054878 
L 51.581243 519.679969 
L 52.068743 521.020979 
L 52.761505 523.65222 
L 53.839136 528.749971 
L 57.841764 548.448089 
L 59.355579 554.454382 
L 60.792419 559.266397 
L 62.177944 563.152392 
L 63.537812 566.325281 
L 64.872021 568.896135 
L 66.20623 570.998738 
L 67.54044 572.694899 
L 68.874649 574.039639 
L 70.234516 575.098895 
L 71.620041 575.901275 
L 73.08254 576.490812 
L 74.622013 576.871708 
L 76.315432 577.056912 
L 78.188457 577.033063 
L 80.343718 576.77721 
L 82.935163 576.237688 
L 86.373318 575.279461 
L 93.993706 572.843581 
L 99.535807 571.217781 
L 104.154224 570.094531 
L 108.670009 569.226068 
L 113.391058 568.547378 
L 118.676579 568.01846 
L 125.193679 567.601317 
L 136.175248 567.160525 
L 153.16076 566.434298 
L 176.07324 565.154613 
L 197.754142 564.057017 
L 219.948201 563.168396 
L 244.785022 562.397061 
L 269.544869 561.849201 
L 294.586952 561.518646 
L 300.359973 561.473163 
L 300.359973 561.473163 
" clip-path="url(#p17f1a99505)" style="fill: none; stroke: #000000; stroke-width: 1.5; stroke-linecap: square"/>
   </g>
   <g id="line2d_51">
    <path d="M 43.78125 576.181714 
L 44.653618 576.097505 
L 45.064144 575.804446 
L 45.449012 575.235769 
L 45.885196 574.159166 
L 46.398353 572.246922 
L 47.0398 568.904147 
L 47.88651 563.179735 
L 49.477298 550.506448 
L 51.068086 538.539699 
L 52.171374 531.858475 
L 53.120716 527.405425 
L 53.967425 524.43569 
L 54.737161 522.496907 
L 55.429924 521.311059 
L 56.071371 520.63352 
L 56.661502 520.326468 
L 57.225975 520.283212 
L 57.816106 520.467867 
L 58.483211 520.921355 
L 59.278605 521.747114 
L 60.253604 523.097495 
L 61.51084 525.243089 
L 63.281233 528.744149 
L 70.696358 543.895719 
L 72.774646 547.407667 
L 74.698986 550.238105 
L 76.520695 552.536252 
L 78.291088 554.421246 
L 80.035824 555.957805 
L 81.754901 557.179329 
L 83.473979 558.132755 
L 85.244372 558.859623 
L 87.066081 559.365607 
L 88.990421 559.66591 
L 91.043051 559.758764 
L 93.326601 559.633477 
L 95.918047 559.262148 
L 99.073965 558.575193 
L 103.58975 557.340949 
L 113.288426 554.646735 
L 117.855527 553.647604 
L 122.217366 552.920735 
L 126.758809 552.391924 
L 131.787752 552.035254 
L 137.919984 551.833399 
L 147.49037 551.771578 
L 166.06667 551.652109 
L 184.206785 551.24978 
L 212.071235 550.66594 
L 238.627133 550.363315 
L 270.109342 550.225819 
L 300.359973 550.303255 
L 300.359973 550.303255 
" clip-path="url(#p17f1a99505)" style="fill: none; stroke: #000000; stroke-width: 1.5; stroke-linecap: square"/>
   </g>
   <g id="line2d_52">
    <path d="M 43.78125 376.687619 
L 45.012828 376.791489 
L 45.679933 377.090907 
L 46.398353 377.671653 
L 47.245063 378.669461 
L 48.24572 380.215637 
L 49.45164 382.50807 
L 51.01677 385.997251 
L 53.454268 392.051375 
L 63.050312 416.299849 
L 67.797019 427.520876 
L 72.466751 437.993722 
L 77.110826 447.869211 
L 81.780559 457.281317 
L 86.47595 466.249562 
L 91.222656 474.840292 
L 96.020678 483.067966 
L 100.895674 490.987972 
L 105.821985 498.569955 
L 110.82527 505.864256 
L 115.879871 512.843257 
L 121.011446 519.551077 
L 126.194336 525.961685 
L 131.428542 532.084336 
L 136.714064 537.927537 
L 142.076559 543.525433 
L 147.49037 548.857089 
L 152.981155 553.95396 
L 158.548913 558.8205 
L 164.219303 563.482168 
L 169.992324 567.940725 
L 175.867977 572.19867 
L 181.871919 576.275981 
L 188.029808 580.188778 
L 194.341645 583.934994 
L 200.807429 587.513494 
L 207.452818 590.936744 
L 214.277812 594.202525 
L 221.333727 597.331554 
L 228.620562 600.318615 
L 236.163977 603.169251 
L 243.989628 605.887342 
L 252.123173 608.475433 
L 260.590271 610.935038 
L 269.442237 613.273383 
L 278.704729 615.488911 
L 288.454721 617.590567 
L 298.71787 619.573765 
L 300.359973 619.870978 
L 300.359973 619.870978 
" clip-path="url(#p17f1a99505)" style="fill: none; stroke: #000000; stroke-width: 1.5; stroke-linecap: square"/>
   </g>
   <g id="line2d_53">
    <path d="M 43.78125 376.687619 
L 45.269407 376.618808 
L 46.577958 376.275452 
L 48.168746 375.90874 
L 49.272035 375.890192 
L 50.426639 376.096466 
L 51.86348 376.595103 
L 54.018741 377.607761 
L 65.179916 383.377732 
L 71.645699 386.895802 
L 77.367405 390.266067 
L 83.243058 393.989353 
L 89.683184 398.339913 
L 97.226598 403.714871 
L 107.079221 411.027224 
L 143.87261 438.584087 
L 154.828521 446.3736 
L 165.117328 453.418519 
L 175.046925 459.949618 
L 184.745601 466.064495 
L 194.341645 471.852887 
L 203.886373 477.351325 
L 213.431102 482.593716 
L 223.027146 487.610686 
L 232.700164 492.416797 
L 242.475813 497.025377 
L 252.379752 501.448371 
L 262.437638 505.696281 
L 272.675129 509.778172 
L 283.117883 513.701733 
L 293.7659 517.464565 
L 300.359973 519.679666 
L 300.359973 519.679666 
" clip-path="url(#p17f1a99505)" style="fill: none; stroke: #000000; stroke-width: 1.5; stroke-linecap: square"/>
   </g>
   <g id="line2d_54">
    <path d="M 43.78125 436.238095 
L 65.051626 436.127067 
L 80.728586 435.974253 
L 91.350945 436.100128 
L 101.100937 436.436543 
L 110.414744 436.979566 
L 119.497631 437.73161 
L 128.477887 438.69801 
L 137.509458 439.894332 
L 146.669318 441.332828 
L 156.085757 443.037935 
L 165.861407 445.035442 
L 176.150213 447.367035 
L 187.080467 450.074586 
L 198.883088 453.230842 
L 211.840314 456.930461 
L 226.439643 461.335789 
L 243.630418 466.763308 
L 266.004082 474.075359 
L 300.359973 485.501572 
L 300.359973 485.501572 
" clip-path="url(#p17f1a99505)" style="fill: none; stroke: #000000; stroke-width: 1.5; stroke-linecap: square"/>
   </g>
   <g id="line2d_55">
    <path d="M 43.78125 436.238095 
L 51.196375 436.127502 
L 70.747674 435.467134 
L 99.356201 435.065125 
L 118.18908 434.956552 
L 131.300253 435.101075 
L 142.769321 435.446662 
L 153.391681 435.986706 
L 163.475224 436.719975 
L 173.199558 437.648666 
L 182.667313 438.775038 
L 191.981121 440.106324 
L 201.217955 441.651266 
L 210.429131 443.417722 
L 219.665965 445.415814 
L 228.979773 447.658165 
L 238.447527 450.167079 
L 248.094887 452.954346 
L 257.998826 456.048145 
L 268.236317 459.48077 
L 278.884334 463.287828 
L 290.045509 467.517148 
L 300.359973 471.623016 
L 300.359973 471.623016 
" clip-path="url(#p17f1a99505)" style="fill: none; stroke: #000000; stroke-width: 1.5; stroke-linecap: square"/>
   </g>
   <g id="line2d_56">
    <path d="M 43.78125 631.08857 
L 43.832566 630.751498 
L 43.960855 627.292876 
L 44.217434 612.090129 
L 44.807565 558.655562 
L 45.577301 495.314918 
L 46.064801 470.871351 
L 46.449669 460.717906 
L 46.731905 457.790929 
L 46.860195 457.564314 
L 46.885853 457.594737 
L 47.014142 458.102563 
L 47.219405 460.047347 
L 47.552957 465.702286 
L 48.066115 478.760393 
L 49.09243 512.07182 
L 50.452297 554.018605 
L 51.350322 575.107011 
L 52.145716 588.95216 
L 52.889795 598.335579 
L 53.608215 604.768683 
L 54.300978 609.096272 
L 54.968082 611.964343 
L 55.635187 613.898891 
L 56.276634 615.121319 
L 56.918081 615.894979 
L 57.585185 616.360757 
L 58.303606 616.592472 
L 59.150316 616.623914 
L 60.227946 616.426754 
L 61.741761 615.902293 
L 64.204916 614.782311 
L 78.39372 608.001578 
L 82.652927 606.34699 
L 86.70687 605.00956 
L 90.709499 603.922274 
L 94.7891 603.044623 
L 99.073965 602.352394 
L 103.743698 601.827731 
L 109.131851 601.453093 
L 116.264739 601.196479 
L 143.949584 600.40487 
L 162.012726 599.469154 
L 190.005464 598.063737 
L 220.102149 596.807098 
L 252.148831 595.68162 
L 282.142884 594.851066 
L 300.359973 594.455176 
L 300.359973 594.455176 
" clip-path="url(#p17f1a99505)" style="fill: none; stroke: #000000; stroke-width: 1.5; stroke-linecap: square"/>
   </g>
   <g id="patch_8">
    <path d="M 43.78125 674.44 
L 43.78125 361.8 
" style="fill: none; stroke: #000000; stroke-width: 0.8; stroke-linejoin: miter; stroke-linecap: square"/>
   </g>
   <g id="patch_9">
    <path d="M 345.26125 674.44 
L 345.26125 361.8 
" style="fill: none; stroke: #000000; stroke-width: 0.8; stroke-linejoin: miter; stroke-linecap: square"/>
   </g>
   <g id="patch_10">
    <path d="M 43.78125 674.44 
L 345.26125 674.44 
" style="fill: none; stroke: #000000; stroke-width: 0.8; stroke-linejoin: miter; stroke-linecap: square"/>
   </g>
   <g id="patch_11">
    <path d="M 43.78125 361.8 
L 345.26125 361.8 
" style="fill: none; stroke: #000000; stroke-width: 0.8; stroke-linejoin: miter; stroke-linecap: square"/>
   </g>
   <g id="text_54">
    <!-- RuBP -->
    <g transform="translate(306.774441 641.568879) scale(0.1 -0.1)">
     <use xlink:href="#DejaVuSans-52"/>
     <use xlink:href="#DejaVuSans-75" transform="translate(64.982422 0)"/>
     <use xlink:href="#DejaVuSans-42" transform="translate(128.361328 0)"/>
     <use xlink:href="#DejaVuSans-50" transform="translate(196.964844 0)"/>
    </g>
   </g>
   <g id="text_55">
    <!-- PGA -->
    <g transform="translate(306.774441 564.232538) scale(0.1 -0.1)">
     <use xlink:href="#DejaVuSans-50"/>
     <use xlink:href="#DejaVuSans-47" transform="translate(60.302734 0)"/>
     <use xlink:href="#DejaVuSans-41" transform="translate(137.792969 0)"/>
    </g>
   </g>
   <g id="text_56">
    <!-- TP -->
    <g transform="translate(306.774441 553.06263) scale(0.1 -0.1)">
     <use xlink:href="#DejaVuSans-54"/>
     <use xlink:href="#DejaVuSans-50" transform="translate(61.083984 0)"/>
    </g>
   </g>
   <g id="text_57">
    <!-- PGl -->
    <g transform="translate(306.774441 622.630353) scale(0.1 -0.1)">
     <use xlink:href="#DejaVuSans-50"/>
     <use xlink:href="#DejaVuSans-47" transform="translate(60.302734 0)"/>
     <use xlink:href="#DejaVuSans-6c" transform="translate(137.792969 0)"/>
    </g>
   </g>
   <g id="text_58">
    <!-- Gl -->
    <g transform="translate(306.774441 522.439041) scale(0.1 -0.1)">
     <use xlink:href="#DejaVuSans-47"/>
     <use xlink:href="#DejaVuSans-6c" transform="translate(77.490234 0)"/>
    </g>
   </g>
   <g id="text_59">
    <!-- Gn -->
    <g transform="translate(306.774441 488.260947) scale(0.1 -0.1)">
     <use xlink:href="#DejaVuSans-47"/>
     <use xlink:href="#DejaVuSans-6e" transform="translate(77.490234 0)"/>
    </g>
   </g>
   <g id="text_60">
    <!-- NH3 -->
    <g transform="translate(306.774441 474.382391) scale(0.1 -0.1)">
     <use xlink:href="#DejaVuSans-4e"/>
     <use xlink:href="#DejaVuSans-48" transform="translate(74.804688 0)"/>
     <use xlink:href="#DejaVuSans-33" transform="translate(150 0)"/>
    </g>
   </g>
   <g id="text_61">
    <!-- PAn -->
    <g transform="translate(306.774441 597.214551) scale(0.1 -0.1)">
     <use xlink:href="#DejaVuSans-50"/>
     <use xlink:href="#DejaVuSans-41" transform="translate(53.927734 0)"/>
     <use xlink:href="#DejaVuSans-6e" transform="translate(122.335938 0)"/>
    </g>
   </g>
   <g id="text_62">
    <!-- B -->
    <g transform="translate(332.370713 375.651237) scale(0.1 -0.1)">
     <use xlink:href="#DejaVuSans-42"/>
    </g>
   </g>
  </g>
 </g>
 <defs>
  <clipPath id="pe309c0fa6e">
   <rect x="43.78125" y="7.2" width="301.48" height="312.64"/>
  </clipPath>
  <clipPath id="p17f1a99505">
   <rect x="43.78125" y="361.8" width="301.48" height="312.64"/>
  </clipPath>
 </defs>
</svg>
