<?xml version="1.0" encoding="utf-8" standalone="no"?>
<!DOCTYPE svg PUBLIC "-//W3C//DTD SVG 1.1//EN"
  "http://www.w3.org/Graphics/SVG/1.1/DTD/svg11.dtd">
<svg xmlns:xlink="http://www.w3.org/1999/xlink" width="453.663125pt" height="334.525344pt" viewBox="0 0 453.663125 334.525344" xmlns="http://www.w3.org/2000/svg" version="1.1">
 <metadata>
  <rdf:RDF xmlns:dc="http://purl.org/dc/elements/1.1/" xmlns:cc="http://creativecommons.org/ns#" xmlns:rdf="http://www.w3.org/1999/02/22-rdf-syntax-ns#">
   <cc:Work>
    <dc:type rdf:resource="http://purl.org/dc/dcmitype/StillImage"/>
    <dc:date>2026-06-26T14:44:11.358557</dc:date>
    <dc:format>image/svg+xml</dc:format>
    <dc:creator>
     <cc:Agent>
      <dc:title>Matplotlib v3.10.9, https://matplotlib.org/</dc:title>
     </cc:Agent>
    </dc:creator>
   </cc:Work>
  </rdf:RDF>
 </metadata>
 <defs>
  <style type="text/css">*{stroke-linejoin: round; stroke-linecap: butt}</style>
 </defs>
 <g id="figure_1">
  <g id="patch_1">
   <path d="M 0 334.525344 
L 453.663125 334.525344 
L 453.663125 0 
L 0 0 
z
" style="fill: #ffffff"/>
  </g>
  <g id="axes_1">
   <g id="patch_2">
    <path d="M 30.103125 310.647219 
L 446.463125 310.647219 
L 446.463125 10.999219 
L 30.103125 10.999219 
z
" style="fill: #ffffff"/>
   </g>
   <g id="matplotlib.axis_1">
    <g id="xtick_1">
     <g id="line2d_1">
      <defs>
       <path id="m357dccfb9f" d="M 0 0 
L 0 3.5 
" style="stroke: #000000; stroke-width: 0.8"/>
      </defs>
      <g>
       <use xlink:href="#m357dccfb9f" x="30.103125" y="310.647219" style="stroke: #000000; stroke-width: 0.8"/>
      </g>
     </g>
     <g id="text_1">
      <!-- $\mathdefault{10^{-5}}$ -->
      <g transform="translate(18.353125 325.245656) scale(0.1 -0.1)">
       <defs>
        <path id="DejaVuSans-31" d="M 794 531 
L 1825 531 
L 1825 4091 
L 703 3866 
L 703 4441 
L 1819 4666 
L 2450 4666 
L 2450 531 
L 3481 531 
L 3481 0 
L 794 0 
L 794 531 
z
" transform="scale(0.015625)"/>
        <path id="DejaVuSans-30" d="M 2034 4250 
Q 1547 4250 1301 3770 
Q 1056 3291 1056 2328 
Q 1056 1369 1301 889 
Q 1547 409 2034 409 
Q 2525 409 2770 889 
Q 3016 1369 3016 2328 
Q 3016 3291 2770 3770 
Q 2525 4250 2034 4250 
z
M 2034 4750 
Q 2819 4750 3233 4129 
Q 3647 3509 3647 2328 
Q 3647 1150 3233 529 
Q 2819 -91 2034 -91 
Q 1250 -91 836 529 
Q 422 1150 422 2328 
Q 422 3509 836 4129 
Q 1250 4750 2034 4750 
z
" transform="scale(0.015625)"/>
        <path id="DejaVuSans-2212" d="M 678 2272 
L 4684 2272 
L 4684 1741 
L 678 1741 
L 678 2272 
z
" transform="scale(0.015625)"/>
        <path id="DejaVuSans-35" d="M 691 4666 
L 3169 4666 
L 3169 4134 
L 1269 4134 
L 1269 2991 
Q 1406 3038 1543 3061 
Q 1681 3084 1819 3084 
Q 2600 3084 3056 2656 
Q 3513 2228 3513 1497 
Q 3513 744 3044 326 
Q 2575 -91 1722 -91 
Q 1428 -91 1123 -41 
Q 819 9 494 109 
L 494 744 
Q 775 591 1075 516 
Q 1375 441 1709 441 
Q 2250 441 2565 725 
Q 2881 1009 2881 1497 
Q 2881 1984 2565 2268 
Q 2250 2553 1709 2553 
Q 1456 2553 1204 2497 
Q 953 2441 691 2322 
L 691 4666 
z
" transform="scale(0.015625)"/>
       </defs>
       <use xlink:href="#DejaVuSans-31" transform="translate(0 0.684375)"/>
       <use xlink:href="#DejaVuSans-30" transform="translate(63.623047 0.684375)"/>
       <use xlink:href="#DejaVuSans-2212" transform="translate(128.203125 38.965625) scale(0.7)"/>
       <use xlink:href="#DejaVuSans-35" transform="translate(186.855469 38.965625) scale(0.7)"/>
      </g>
     </g>
    </g>
    <g id="xtick_2">
     <g id="line2d_2">
      <g>
       <use xlink:href="#m357dccfb9f" x="103.161941" y="310.647219" style="stroke: #000000; stroke-width: 0.8"/>
      </g>
     </g>
     <g id="text_2">
      <!-- $\mathdefault{10^{-4}}$ -->
      <g transform="translate(91.411941 325.245656) scale(0.1 -0.1)">
       <defs>
        <path id="DejaVuSans-34" d="M 2419 4116 
L 825 1625 
L 2419 1625 
L 2419 4116 
z
M 2253 4666 
L 3047 4666 
L 3047 1625 
L 3713 1625 
L 3713 1100 
L 3047 1100 
L 3047 0 
L 2419 0 
L 2419 1100 
L 313 1100 
L 313 1709 
L 2253 4666 
z
" transform="scale(0.015625)"/>
       </defs>
       <use xlink:href="#DejaVuSans-31" transform="translate(0 0.684375)"/>
       <use xlink:href="#DejaVuSans-30" transform="translate(63.623047 0.684375)"/>
       <use xlink:href="#DejaVuSans-2212" transform="translate(128.203125 38.965625) scale(0.7)"/>
       <use xlink:href="#DejaVuSans-34" transform="translate(186.855469 38.965625) scale(0.7)"/>
      </g>
     </g>
    </g>
    <g id="xtick_3">
     <g id="line2d_3">
      <g>
       <use xlink:href="#m357dccfb9f" x="176.220757" y="310.647219" style="stroke: #000000; stroke-width: 0.8"/>
      </g>
     </g>
     <g id="text_3">
      <!-- $\mathdefault{10^{-3}}$ -->
      <g transform="translate(164.470757 325.245656) scale(0.1 -0.1)">
       <defs>
        <path id="DejaVuSans-33" d="M 2597 2516 
Q 3050 2419 3304 2112 
Q 3559 1806 3559 1356 
Q 3559 666 3084 287 
Q 2609 -91 1734 -91 
Q 1441 -91 1130 -33 
Q 819 25 488 141 
L 488 750 
Q 750 597 1062 519 
Q 1375 441 1716 441 
Q 2309 441 2620 675 
Q 2931 909 2931 1356 
Q 2931 1769 2642 2001 
Q 2353 2234 1838 2234 
L 1294 2234 
L 1294 2753 
L 1863 2753 
Q 2328 2753 2575 2939 
Q 2822 3125 2822 3475 
Q 2822 3834 2567 4026 
Q 2313 4219 1838 4219 
Q 1578 4219 1281 4162 
Q 984 4106 628 3988 
L 628 4550 
Q 988 4650 1302 4700 
Q 1616 4750 1894 4750 
Q 2613 4750 3031 4423 
Q 3450 4097 3450 3541 
Q 3450 3153 3228 2886 
Q 3006 2619 2597 2516 
z
" transform="scale(0.015625)"/>
       </defs>
       <use xlink:href="#DejaVuSans-31" transform="translate(0 0.765625)"/>
       <use xlink:href="#DejaVuSans-30" transform="translate(63.623047 0.765625)"/>
       <use xlink:href="#DejaVuSans-2212" transform="translate(128.203125 39.046875) scale(0.7)"/>
       <use xlink:href="#DejaVuSans-33" transform="translate(186.855469 39.046875) scale(0.7)"/>
      </g>
     </g>
    </g>
    <g id="xtick_4">
     <g id="line2d_4">
      <g>
       <use xlink:href="#m357dccfb9f" x="249.279573" y="310.647219" style="stroke: #000000; stroke-width: 0.8"/>
      </g>
     </g>
     <g id="text_4">
      <!-- $\mathdefault{10^{-2}}$ -->
      <g transform="translate(237.529573 325.245656) scale(0.1 -0.1)">
       <defs>
        <path id="DejaVuSans-32" d="M 1228 531 
L 3431 531 
L 3431 0 
L 469 0 
L 469 531 
Q 828 903 1448 1529 
Q 2069 2156 2228 2338 
Q 2531 2678 2651 2914 
Q 2772 3150 2772 3378 
Q 2772 3750 2511 3984 
Q 2250 4219 1831 4219 
Q 1534 4219 1204 4116 
Q 875 4013 500 3803 
L 500 4441 
Q 881 4594 1212 4672 
Q 1544 4750 1819 4750 
Q 2544 4750 2975 4387 
Q 3406 4025 3406 3419 
Q 3406 3131 3298 2873 
Q 3191 2616 2906 2266 
Q 2828 2175 2409 1742 
Q 1991 1309 1228 531 
z
" transform="scale(0.015625)"/>
       </defs>
       <use xlink:href="#DejaVuSans-31" transform="translate(0 0.765625)"/>
       <use xlink:href="#DejaVuSans-30" transform="translate(63.623047 0.765625)"/>
       <use xlink:href="#DejaVuSans-2212" transform="translate(128.203125 39.046875) scale(0.7)"/>
       <use xlink:href="#DejaVuSans-32" transform="translate(186.855469 39.046875) scale(0.7)"/>
      </g>
     </g>
    </g>
    <g id="xtick_5">
     <g id="line2d_5">
      <g>
       <use xlink:href="#m357dccfb9f" x="322.338388" y="310.647219" style="stroke: #000000; stroke-width: 0.8"/>
      </g>
     </g>
     <g id="text_5">
      <!-- $\mathdefault{10^{-1}}$ -->
      <g transform="translate(310.588388 325.245656) scale(0.1 -0.1)">
       <use xlink:href="#DejaVuSans-31" transform="translate(0 0.684375)"/>
       <use xlink:href="#DejaVuSans-30" transform="translate(63.623047 0.684375)"/>
       <use xlink:href="#DejaVuSans-2212" transform="translate(128.203125 38.965625) scale(0.7)"/>
       <use xlink:href="#DejaVuSans-31" transform="translate(186.855469 38.965625) scale(0.7)"/>
      </g>
     </g>
    </g>
    <g id="xtick_6">
     <g id="line2d_6">
      <g>
       <use xlink:href="#m357dccfb9f" x="395.397204" y="310.647219" style="stroke: #000000; stroke-width: 0.8"/>
      </g>
     </g>
     <g id="text_6">
      <!-- $\mathdefault{10^{0}}$ -->
      <g transform="translate(386.597204 325.245656) scale(0.1 -0.1)">
       <use xlink:href="#DejaVuSans-31" transform="translate(0 0.765625)"/>
       <use xlink:href="#DejaVuSans-30" transform="translate(63.623047 0.765625)"/>
       <use xlink:href="#DejaVuSans-30" transform="translate(128.203125 39.046875) scale(0.7)"/>
      </g>
     </g>
    </g>
    <g id="xtick_7">
     <g id="line2d_7">
      <defs>
       <path id="m094ee7827c" d="M 0 0 
L 0 2 
" style="stroke: #000000; stroke-width: 0.6"/>
      </defs>
      <g>
       <use xlink:href="#m094ee7827c" x="52.09602" y="310.647219" style="stroke: #000000; stroke-width: 0.6"/>
      </g>
     </g>
    </g>
    <g id="xtick_8">
     <g id="line2d_8">
      <g>
       <use xlink:href="#m094ee7827c" x="64.961039" y="310.647219" style="stroke: #000000; stroke-width: 0.6"/>
      </g>
     </g>
    </g>
    <g id="xtick_9">
     <g id="line2d_9">
      <g>
       <use xlink:href="#m094ee7827c" x="74.088915" y="310.647219" style="stroke: #000000; stroke-width: 0.6"/>
      </g>
     </g>
    </g>
    <g id="xtick_10">
     <g id="line2d_10">
      <g>
       <use xlink:href="#m094ee7827c" x="81.169046" y="310.647219" style="stroke: #000000; stroke-width: 0.6"/>
      </g>
     </g>
    </g>
    <g id="xtick_11">
     <g id="line2d_11">
      <g>
       <use xlink:href="#m094ee7827c" x="86.953934" y="310.647219" style="stroke: #000000; stroke-width: 0.6"/>
      </g>
     </g>
    </g>
    <g id="xtick_12">
     <g id="line2d_12">
      <g>
       <use xlink:href="#m094ee7827c" x="91.844987" y="310.647219" style="stroke: #000000; stroke-width: 0.6"/>
      </g>
     </g>
    </g>
    <g id="xtick_13">
     <g id="line2d_13">
      <g>
       <use xlink:href="#m094ee7827c" x="96.08181" y="310.647219" style="stroke: #000000; stroke-width: 0.6"/>
      </g>
     </g>
    </g>
    <g id="xtick_14">
     <g id="line2d_14">
      <g>
       <use xlink:href="#m094ee7827c" x="99.818953" y="310.647219" style="stroke: #000000; stroke-width: 0.6"/>
      </g>
     </g>
    </g>
    <g id="xtick_15">
     <g id="line2d_15">
      <g>
       <use xlink:href="#m094ee7827c" x="125.154836" y="310.647219" style="stroke: #000000; stroke-width: 0.6"/>
      </g>
     </g>
    </g>
    <g id="xtick_16">
     <g id="line2d_16">
      <g>
       <use xlink:href="#m094ee7827c" x="138.019855" y="310.647219" style="stroke: #000000; stroke-width: 0.6"/>
      </g>
     </g>
    </g>
    <g id="xtick_17">
     <g id="line2d_17">
      <g>
       <use xlink:href="#m094ee7827c" x="147.147731" y="310.647219" style="stroke: #000000; stroke-width: 0.6"/>
      </g>
     </g>
    </g>
    <g id="xtick_18">
     <g id="line2d_18">
      <g>
       <use xlink:href="#m094ee7827c" x="154.227862" y="310.647219" style="stroke: #000000; stroke-width: 0.6"/>
      </g>
     </g>
    </g>
    <g id="xtick_19">
     <g id="line2d_19">
      <g>
       <use xlink:href="#m094ee7827c" x="160.01275" y="310.647219" style="stroke: #000000; stroke-width: 0.6"/>
      </g>
     </g>
    </g>
    <g id="xtick_20">
     <g id="line2d_20">
      <g>
       <use xlink:href="#m094ee7827c" x="164.903803" y="310.647219" style="stroke: #000000; stroke-width: 0.6"/>
      </g>
     </g>
    </g>
    <g id="xtick_21">
     <g id="line2d_21">
      <g>
       <use xlink:href="#m094ee7827c" x="169.140626" y="310.647219" style="stroke: #000000; stroke-width: 0.6"/>
      </g>
     </g>
    </g>
    <g id="xtick_22">
     <g id="line2d_22">
      <g>
       <use xlink:href="#m094ee7827c" x="172.877769" y="310.647219" style="stroke: #000000; stroke-width: 0.6"/>
      </g>
     </g>
    </g>
    <g id="xtick_23">
     <g id="line2d_23">
      <g>
       <use xlink:href="#m094ee7827c" x="198.213652" y="310.647219" style="stroke: #000000; stroke-width: 0.6"/>
      </g>
     </g>
    </g>
    <g id="xtick_24">
     <g id="line2d_24">
      <g>
       <use xlink:href="#m094ee7827c" x="211.078671" y="310.647219" style="stroke: #000000; stroke-width: 0.6"/>
      </g>
     </g>
    </g>
    <g id="xtick_25">
     <g id="line2d_25">
      <g>
       <use xlink:href="#m094ee7827c" x="220.206547" y="310.647219" style="stroke: #000000; stroke-width: 0.6"/>
      </g>
     </g>
    </g>
    <g id="xtick_26">
     <g id="line2d_26">
      <g>
       <use xlink:href="#m094ee7827c" x="227.286677" y="310.647219" style="stroke: #000000; stroke-width: 0.6"/>
      </g>
     </g>
    </g>
    <g id="xtick_27">
     <g id="line2d_27">
      <g>
       <use xlink:href="#m094ee7827c" x="233.071566" y="310.647219" style="stroke: #000000; stroke-width: 0.6"/>
      </g>
     </g>
    </g>
    <g id="xtick_28">
     <g id="line2d_28">
      <g>
       <use xlink:href="#m094ee7827c" x="237.962619" y="310.647219" style="stroke: #000000; stroke-width: 0.6"/>
      </g>
     </g>
    </g>
    <g id="xtick_29">
     <g id="line2d_29">
      <g>
       <use xlink:href="#m094ee7827c" x="242.199442" y="310.647219" style="stroke: #000000; stroke-width: 0.6"/>
      </g>
     </g>
    </g>
    <g id="xtick_30">
     <g id="line2d_30">
      <g>
       <use xlink:href="#m094ee7827c" x="245.936584" y="310.647219" style="stroke: #000000; stroke-width: 0.6"/>
      </g>
     </g>
    </g>
    <g id="xtick_31">
     <g id="line2d_31">
      <g>
       <use xlink:href="#m094ee7827c" x="271.272468" y="310.647219" style="stroke: #000000; stroke-width: 0.6"/>
      </g>
     </g>
    </g>
    <g id="xtick_32">
     <g id="line2d_32">
      <g>
       <use xlink:href="#m094ee7827c" x="284.137486" y="310.647219" style="stroke: #000000; stroke-width: 0.6"/>
      </g>
     </g>
    </g>
    <g id="xtick_33">
     <g id="line2d_33">
      <g>
       <use xlink:href="#m094ee7827c" x="293.265363" y="310.647219" style="stroke: #000000; stroke-width: 0.6"/>
      </g>
     </g>
    </g>
    <g id="xtick_34">
     <g id="line2d_34">
      <g>
       <use xlink:href="#m094ee7827c" x="300.345493" y="310.647219" style="stroke: #000000; stroke-width: 0.6"/>
      </g>
     </g>
    </g>
    <g id="xtick_35">
     <g id="line2d_35">
      <g>
       <use xlink:href="#m094ee7827c" x="306.130381" y="310.647219" style="stroke: #000000; stroke-width: 0.6"/>
      </g>
     </g>
    </g>
    <g id="xtick_36">
     <g id="line2d_36">
      <g>
       <use xlink:href="#m094ee7827c" x="311.021435" y="310.647219" style="stroke: #000000; stroke-width: 0.6"/>
      </g>
     </g>
    </g>
    <g id="xtick_37">
     <g id="line2d_37">
      <g>
       <use xlink:href="#m094ee7827c" x="315.258258" y="310.647219" style="stroke: #000000; stroke-width: 0.6"/>
      </g>
     </g>
    </g>
    <g id="xtick_38">
     <g id="line2d_38">
      <g>
       <use xlink:href="#m094ee7827c" x="318.9954" y="310.647219" style="stroke: #000000; stroke-width: 0.6"/>
      </g>
     </g>
    </g>
    <g id="xtick_39">
     <g id="line2d_39">
      <g>
       <use xlink:href="#m094ee7827c" x="344.331283" y="310.647219" style="stroke: #000000; stroke-width: 0.6"/>
      </g>
     </g>
    </g>
    <g id="xtick_40">
     <g id="line2d_40">
      <g>
       <use xlink:href="#m094ee7827c" x="357.196302" y="310.647219" style="stroke: #000000; stroke-width: 0.6"/>
      </g>
     </g>
    </g>
    <g id="xtick_41">
     <g id="line2d_41">
      <g>
       <use xlink:href="#m094ee7827c" x="366.324178" y="310.647219" style="stroke: #000000; stroke-width: 0.6"/>
      </g>
     </g>
    </g>
    <g id="xtick_42">
     <g id="line2d_42">
      <g>
       <use xlink:href="#m094ee7827c" x="373.404309" y="310.647219" style="stroke: #000000; stroke-width: 0.6"/>
      </g>
     </g>
    </g>
    <g id="xtick_43">
     <g id="line2d_43">
      <g>
       <use xlink:href="#m094ee7827c" x="379.189197" y="310.647219" style="stroke: #000000; stroke-width: 0.6"/>
      </g>
     </g>
    </g>
    <g id="xtick_44">
     <g id="line2d_44">
      <g>
       <use xlink:href="#m094ee7827c" x="384.08025" y="310.647219" style="stroke: #000000; stroke-width: 0.6"/>
      </g>
     </g>
    </g>
    <g id="xtick_45">
     <g id="line2d_45">
      <g>
       <use xlink:href="#m094ee7827c" x="388.317073" y="310.647219" style="stroke: #000000; stroke-width: 0.6"/>
      </g>
     </g>
    </g>
    <g id="xtick_46">
     <g id="line2d_46">
      <g>
       <use xlink:href="#m094ee7827c" x="392.054216" y="310.647219" style="stroke: #000000; stroke-width: 0.6"/>
      </g>
     </g>
    </g>
    <g id="xtick_47">
     <g id="line2d_47">
      <g>
       <use xlink:href="#m094ee7827c" x="417.390099" y="310.647219" style="stroke: #000000; stroke-width: 0.6"/>
      </g>
     </g>
    </g>
    <g id="xtick_48">
     <g id="line2d_48">
      <g>
       <use xlink:href="#m094ee7827c" x="430.255118" y="310.647219" style="stroke: #000000; stroke-width: 0.6"/>
      </g>
     </g>
    </g>
    <g id="xtick_49">
     <g id="line2d_49">
      <g>
       <use xlink:href="#m094ee7827c" x="439.382994" y="310.647219" style="stroke: #000000; stroke-width: 0.6"/>
      </g>
     </g>
    </g>
    <g id="xtick_50">
     <g id="line2d_50">
      <g>
       <use xlink:href="#m094ee7827c" x="446.463125" y="310.647219" style="stroke: #000000; stroke-width: 0.6"/>
      </g>
     </g>
    </g>
   </g>
   <g id="matplotlib.axis_2">
    <g id="ytick_1">
     <g id="line2d_51">
      <defs>
       <path id="m85e3a5ee75" d="M 0 0 
L -3.5 0 
" style="stroke: #000000; stroke-width: 0.8"/>
      </defs>
      <g>
       <use xlink:href="#m85e3a5ee75" x="30.103125" y="307.680407" style="stroke: #000000; stroke-width: 0.8"/>
      </g>
     </g>
     <g id="text_7">
      <!-- 0.0 -->
      <g transform="translate(7.2 311.479626) scale(0.1 -0.1)">
       <defs>
        <path id="DejaVuSans-2e" d="M 684 794 
L 1344 794 
L 1344 0 
L 684 0 
L 684 794 
z
" transform="scale(0.015625)"/>
       </defs>
       <use xlink:href="#DejaVuSans-30"/>
       <use xlink:href="#DejaVuSans-2e" transform="translate(63.623047 0)"/>
       <use xlink:href="#DejaVuSans-30" transform="translate(95.410156 0)"/>
      </g>
     </g>
    </g>
    <g id="ytick_2">
     <g id="line2d_52">
      <g>
       <use xlink:href="#m85e3a5ee75" x="30.103125" y="248.344169" style="stroke: #000000; stroke-width: 0.8"/>
      </g>
     </g>
     <g id="text_8">
      <!-- 0.2 -->
      <g transform="translate(7.2 252.143388) scale(0.1 -0.1)">
       <use xlink:href="#DejaVuSans-30"/>
       <use xlink:href="#DejaVuSans-2e" transform="translate(63.623047 0)"/>
       <use xlink:href="#DejaVuSans-32" transform="translate(95.410156 0)"/>
      </g>
     </g>
    </g>
    <g id="ytick_3">
     <g id="line2d_53">
      <g>
       <use xlink:href="#m85e3a5ee75" x="30.103125" y="189.007932" style="stroke: #000000; stroke-width: 0.8"/>
      </g>
     </g>
     <g id="text_9">
      <!-- 0.4 -->
      <g transform="translate(7.2 192.80715) scale(0.1 -0.1)">
       <use xlink:href="#DejaVuSans-30"/>
       <use xlink:href="#DejaVuSans-2e" transform="translate(63.623047 0)"/>
       <use xlink:href="#DejaVuSans-34" transform="translate(95.410156 0)"/>
      </g>
     </g>
    </g>
    <g id="ytick_4">
     <g id="line2d_54">
      <g>
       <use xlink:href="#m85e3a5ee75" x="30.103125" y="129.671694" style="stroke: #000000; stroke-width: 0.8"/>
      </g>
     </g>
     <g id="text_10">
      <!-- 0.6 -->
      <g transform="translate(7.2 133.470913) scale(0.1 -0.1)">
       <defs>
        <path id="DejaVuSans-36" d="M 2113 2584 
Q 1688 2584 1439 2293 
Q 1191 2003 1191 1497 
Q 1191 994 1439 701 
Q 1688 409 2113 409 
Q 2538 409 2786 701 
Q 3034 994 3034 1497 
Q 3034 2003 2786 2293 
Q 2538 2584 2113 2584 
z
M 3366 4563 
L 3366 3988 
Q 3128 4100 2886 4159 
Q 2644 4219 2406 4219 
Q 1781 4219 1451 3797 
Q 1122 3375 1075 2522 
Q 1259 2794 1537 2939 
Q 1816 3084 2150 3084 
Q 2853 3084 3261 2657 
Q 3669 2231 3669 1497 
Q 3669 778 3244 343 
Q 2819 -91 2113 -91 
Q 1303 -91 875 529 
Q 447 1150 447 2328 
Q 447 3434 972 4092 
Q 1497 4750 2381 4750 
Q 2619 4750 2861 4703 
Q 3103 4656 3366 4563 
z
" transform="scale(0.015625)"/>
       </defs>
       <use xlink:href="#DejaVuSans-30"/>
       <use xlink:href="#DejaVuSans-2e" transform="translate(63.623047 0)"/>
       <use xlink:href="#DejaVuSans-36" transform="translate(95.410156 0)"/>
      </g>
     </g>
    </g>
    <g id="ytick_5">
     <g id="line2d_55">
      <g>
       <use xlink:href="#m85e3a5ee75" x="30.103125" y="70.335456" style="stroke: #000000; stroke-width: 0.8"/>
      </g>
     </g>
     <g id="text_11">
      <!-- 0.8 -->
      <g transform="translate(7.2 74.134675) scale(0.1 -0.1)">
       <defs>
        <path id="DejaVuSans-38" d="M 2034 2216 
Q 1584 2216 1326 1975 
Q 1069 1734 1069 1313 
Q 1069 891 1326 650 
Q 1584 409 2034 409 
Q 2484 409 2743 651 
Q 3003 894 3003 1313 
Q 3003 1734 2745 1975 
Q 2488 2216 2034 2216 
z
M 1403 2484 
Q 997 2584 770 2862 
Q 544 3141 544 3541 
Q 544 4100 942 4425 
Q 1341 4750 2034 4750 
Q 2731 4750 3128 4425 
Q 3525 4100 3525 3541 
Q 3525 3141 3298 2862 
Q 3072 2584 2669 2484 
Q 3125 2378 3379 2068 
Q 3634 1759 3634 1313 
Q 3634 634 3220 271 
Q 2806 -91 2034 -91 
Q 1263 -91 848 271 
Q 434 634 434 1313 
Q 434 1759 690 2068 
Q 947 2378 1403 2484 
z
M 1172 3481 
Q 1172 3119 1398 2916 
Q 1625 2713 2034 2713 
Q 2441 2713 2670 2916 
Q 2900 3119 2900 3481 
Q 2900 3844 2670 4047 
Q 2441 4250 2034 4250 
Q 1625 4250 1398 4047 
Q 1172 3844 1172 3481 
z
" transform="scale(0.015625)"/>
       </defs>
       <use xlink:href="#DejaVuSans-30"/>
       <use xlink:href="#DejaVuSans-2e" transform="translate(63.623047 0)"/>
       <use xlink:href="#DejaVuSans-38" transform="translate(95.410156 0)"/>
      </g>
     </g>
    </g>
    <g id="ytick_6">
     <g id="line2d_56">
      <g>
       <use xlink:href="#m85e3a5ee75" x="30.103125" y="10.999219" style="stroke: #000000; stroke-width: 0.8"/>
      </g>
     </g>
     <g id="text_12">
      <!-- 1.0 -->
      <g transform="translate(7.2 14.798437) scale(0.1 -0.1)">
       <use xlink:href="#DejaVuSans-31"/>
       <use xlink:href="#DejaVuSans-2e" transform="translate(63.623047 0)"/>
       <use xlink:href="#DejaVuSans-30" transform="translate(95.410156 0)"/>
      </g>
     </g>
    </g>
   </g>
   <g id="line2d_57">
    <path d="M 81.169046 260.373227 
L 86.953722 258.216912 
L 91.844624 256.121199 
L 96.081334 254.085463 
L 99.818389 252.10899 
L 106.185349 248.330576 
L 111.485726 244.778759 
L 116.026114 241.445413 
L 121.810931 236.835611 
L 128.177956 231.368035 
L 136.943141 223.448691 
L 145.519142 215.792058 
L 150.170706 211.924007 
L 154.226719 208.826582 
L 157.822516 206.347669 
L 161.051973 204.362985 
L 164.446085 202.539213 
L 167.926717 200.95161 
L 171.062992 199.758252 
L 174.592067 198.662422 
L 178.366291 197.739663 
L 182.7879 196.910143 
L 188.872314 196.025892 
L 198.528128 194.622578 
L 203.329293 193.687362 
L 207.616704 192.627481 
L 211.601881 191.412243 
L 215.41983 190.013636 
L 219.156971 188.404222 
L 222.866771 186.559663 
L 226.579589 184.46251 
L 230.424689 182.029405 
L 234.46692 179.200538 
L 238.855193 175.850562 
L 244.046997 171.593317 
L 253.324184 163.625056 
L 259.56661 158.42547 
L 263.972181 155.039682 
L 267.786882 152.382307 
L 271.334596 150.178693 
L 274.753491 148.314696 
L 278.17315 146.702581 
L 281.731104 145.272894 
L 285.6036 143.961075 
L 290.175678 142.656594 
L 297.148962 140.930495 
L 306.097368 138.668048 
L 311.483635 137.06838 
L 316.256412 135.421148 
L 320.69627 133.655051 
L 324.902171 131.74367 
L 328.931266 129.668947 
L 332.828953 127.411908 
L 336.63921 124.948122 
L 340.408906 122.244639 
L 344.194879 119.253799 
L 348.078437 115.898931 
L 352.194856 112.043155 
L 356.869735 107.347903 
L 364.078257 99.739865 
L 370.13189 93.481487 
L 373.878567 89.923177 
L 377.021506 87.236813 
L 379.860284 85.096971 
L 382.531551 83.357618 
L 385.122734 81.933065 
L 387.703513 80.766744 
L 390.34148 79.818747 
L 393.116187 79.059601 
L 395.397204 78.59257 
L 395.397204 78.59257 
" clip-path="url(#p77e378b0e6)" style="fill: none; stroke: #000000; stroke-width: 1.5; stroke-linecap: square"/>
   </g>
   <g id="line2d_58">
    <path d="M 81.169046 293.403878 
L 86.953722 290.994302 
L 91.844624 288.717493 
L 96.081334 286.567109 
L 103.161306 282.621339 
L 108.946089 279.110611 
L 118.073832 273.226066 
L 128.177956 266.697607 
L 133.478377 263.525538 
L 138.018797 261.072526 
L 141.990079 259.186586 
L 145.519142 257.745835 
L 148.694678 256.653275 
L 152.26348 255.662008 
L 156.075529 254.874859 
L 159.478314 254.394959 
L 163.512813 254.069511 
L 167.511953 253.969892 
L 172.163529 254.079659 
L 177.463984 254.432703 
L 183.803314 255.090472 
L 191.132291 256.084594 
L 199.303937 257.420175 
L 207.498532 258.981094 
L 215.14191 260.658711 
L 222.426083 262.483596 
L 229.72732 264.543218 
L 237.915999 267.092461 
L 260.582567 274.302832 
L 266.393367 275.8098 
L 271.790458 276.980655 
L 277.214339 277.927832 
L 283.093362 278.723195 
L 290.367448 279.46944 
L 314.632161 281.783973 
L 322.260879 282.834499 
L 329.262034 284.020804 
L 335.89054 285.368277 
L 342.387013 286.916227 
L 349.125283 288.753932 
L 357.22886 291.208901 
L 370.811178 295.347476 
L 376.119323 296.69892 
L 380.810946 297.666136 
L 385.366536 298.377998 
L 390.111445 298.891473 
L 395.397204 299.236484 
L 395.397204 299.236484 
" clip-path="url(#p77e378b0e6)" style="fill: none; stroke: #000000; stroke-width: 1.5; stroke-linecap: square"/>
   </g>
   <g id="line2d_59">
    <path d="M 81.169046 307.656794 
L 106.185349 307.489078 
L 118.073832 307.209868 
L 128.177956 306.741466 
L 136.943141 306.0898 
L 146.343315 305.12961 
L 165.796457 303.011989 
L 172.522053 302.575538 
L 179.530788 302.357282 
L 188.226956 302.331378 
L 203.193988 302.55114 
L 226.056212 303.102072 
L 253.352102 304.01647 
L 272.347394 304.542673 
L 290.044258 304.790516 
L 330.776192 305.289385 
L 351.124572 305.804001 
L 385.154736 306.726261 
L 395.397204 306.817056 
L 395.397204 306.817056 
" clip-path="url(#p77e378b0e6)" style="fill: none; stroke: #000000; stroke-width: 1.5; stroke-linecap: square"/>
   </g>
   <g id="line2d_60">
    <path d="M 81.169046 307.680404 
L 157.250808 307.575535 
L 168.740324 307.326917 
L 176.535265 306.943651 
L 182.7879 306.421835 
L 188.226956 305.749636 
L 193.05585 304.936025 
L 197.571402 303.954129 
L 201.808221 302.810338 
L 205.920857 301.472414 
L 210.00176 299.907732 
L 214.005227 298.135252 
L 218.157549 296.048951 
L 222.499957 293.609806 
L 227.15825 290.732342 
L 232.644408 287.069349 
L 241.108838 281.105844 
L 249.594024 275.216492 
L 254.744309 271.91279 
L 259.150939 269.34571 
L 263.163239 267.261376 
L 266.97994 265.526463 
L 270.711027 264.07401 
L 274.439198 262.861353 
L 278.27509 261.848792 
L 282.352486 261.005394 
L 286.899651 260.29745 
L 292.403784 259.675767 
L 300.891563 258.970918 
L 315.097946 257.77513 
L 323.700317 256.812418 
L 331.542637 255.712986 
L 339.025654 254.439998 
L 346.571507 252.928556 
L 355.212653 250.96017 
L 372.235119 247.020879 
L 377.959269 245.979095 
L 383.196541 245.251208 
L 388.495358 244.741591 
L 394.375476 244.405784 
L 395.397204 244.367131 
L 395.397204 244.367131 
" clip-path="url(#p77e378b0e6)" style="fill: none; stroke-dasharray: 4.5,1.5,1.5,1.5,1.5,1.5; stroke-dashoffset: 0; stroke: #000000; stroke-width: 1.5"/>
   </g>
   <g id="line2d_61">
    <path d="M 81.169046 307.680407 
L 169.922907 307.572334 
L 182.004428 307.322933 
L 190.531725 306.936515 
L 197.571402 306.39921 
L 203.598185 305.718083 
L 209.001462 304.88356 
L 213.908639 303.903179 
L 218.577807 302.742891 
L 223.012317 301.413092 
L 227.412084 299.859932 
L 231.830102 298.061444 
L 236.429155 295.944269 
L 241.435523 293.388789 
L 247.650823 289.95071 
L 261.867143 281.99546 
L 266.651328 279.638603 
L 270.952314 277.765366 
L 275.106903 276.19745 
L 279.36305 274.830387 
L 284.009049 273.576616 
L 289.708872 272.281459 
L 308.814896 268.127029 
L 314.270097 266.600585 
L 319.299373 264.96419 
L 324.059968 263.182563 
L 328.630858 261.235229 
L 333.078717 259.098718 
L 337.471213 256.741418 
L 341.892366 254.114646 
L 346.47231 251.131416 
L 351.471007 247.603017 
L 357.816092 242.831256 
L 368.17846 235.023587 
L 372.342909 232.193857 
L 375.861975 230.065405 
L 379.071905 228.379693 
L 382.131643 227.021529 
L 385.149477 225.924226 
L 388.22127 225.044392 
L 391.452918 224.352175 
L 394.990074 223.825999 
L 395.397204 223.778608 
L 395.397204 223.778608 
" clip-path="url(#p77e378b0e6)" style="fill: none; stroke-dasharray: 5.55,2.4; stroke-dashoffset: 0; stroke: #000000; stroke-width: 1.5"/>
   </g>
   <g id="line2d_62">
    <path d="M 81.169046 297.20179 
L 86.953722 295.317342 
L 91.844624 293.497706 
L 96.081334 291.740654 
L 103.161306 288.405763 
L 108.946089 285.296322 
L 113.837066 282.39709 
L 119.99737 278.411563 
L 126.701934 273.708502 
L 134.675832 267.780389 
L 146.343315 259.080001 
L 151.581112 255.457932 
L 156.075529 252.622894 
L 160.011586 250.403875 
L 163.512813 248.667022 
L 167.091696 247.139142 
L 170.687497 245.861466 
L 174.256308 244.842402 
L 177.767613 244.065329 
L 181.738912 243.42433 
L 185.975729 242.969724 
L 191.132291 242.651957 
L 198.053371 242.472201 
L 210.865187 242.412473 
L 392.082547 242.410545 
L 395.397204 242.410545 
L 395.397204 242.410545 
" clip-path="url(#p77e378b0e6)" style="fill: none; stroke-dasharray: 1.5,15; stroke-dashoffset: 0; stroke: #000000; stroke-width: 1.5"/>
   </g>
   <g id="line2d_63">
    <path d="M 81.169046 272.078664 
L 395.397204 272.078664 
L 395.397204 272.078664 
" clip-path="url(#p77e378b0e6)" style="fill: none; stroke-dasharray: 1.5,2.475; stroke-dashoffset: 0; stroke: #000000; stroke-width: 1.5"/>
   </g>
   <g id="line2d_64">
    <path d="M 81.169046 307.643742 
L 111.485726 307.47062 
L 129.588355 307.143116 
L 143.80365 306.650943 
L 157.250808 305.948592 
L 174.924311 304.76855 
L 192.868658 303.630088 
L 204.521755 303.126751 
L 218.577807 302.767315 
L 236.571544 302.276067 
L 249.087362 301.685136 
L 280.426828 300.083212 
L 318.320726 298.570166 
L 328.643866 297.827609 
L 337.885978 296.942662 
L 346.732228 295.871962 
L 356.411243 294.467757 
L 375.754914 291.591868 
L 382.288854 290.908495 
L 388.657818 290.468468 
L 395.397204 290.21472 
L 395.397204 290.21472 
" clip-path="url(#p77e378b0e6)" style="fill: none; stroke-dasharray: 4.5,7.5,1.5,7.5; stroke-dashoffset: 0; stroke: #000000; stroke-width: 1.5"/>
   </g>
   <g id="patch_3">
    <path d="M 30.103125 310.647219 
L 30.103125 10.999219 
" style="fill: none; stroke: #000000; stroke-width: 0.8; stroke-linejoin: miter; stroke-linecap: square"/>
   </g>
   <g id="patch_4">
    <path d="M 446.463125 310.647219 
L 446.463125 10.999219 
" style="fill: none; stroke: #000000; stroke-width: 0.8; stroke-linejoin: miter; stroke-linecap: square"/>
   </g>
   <g id="patch_5">
    <path d="M 30.103125 310.647219 
L 446.463125 310.647219 
" style="fill: none; stroke: #000000; stroke-width: 0.8; stroke-linejoin: miter; stroke-linecap: square"/>
   </g>
   <g id="patch_6">
    <path d="M 30.103125 10.999219 
L 446.463125 10.999219 
" style="fill: none; stroke: #000000; stroke-width: 0.8; stroke-linejoin: miter; stroke-linecap: square"/>
   </g>
   <g id="text_13">
    <!-- O -->
    <g transform="translate(77.233108 252.359916) scale(0.1 -0.1)">
     <defs>
      <path id="DejaVuSans-4f" d="M 2522 4238 
Q 1834 4238 1429 3725 
Q 1025 3213 1025 2328 
Q 1025 1447 1429 934 
Q 1834 422 2522 422 
Q 3209 422 3611 934 
Q 4013 1447 4013 2328 
Q 4013 3213 3611 3725 
Q 3209 4238 2522 4238 
z
M 2522 4750 
Q 3503 4750 4090 4092 
Q 4678 3434 4678 2328 
Q 4678 1225 4090 567 
Q 3503 -91 2522 -91 
Q 1538 -91 948 565 
Q 359 1222 359 2328 
Q 359 3434 948 4092 
Q 1538 4750 2522 4750 
z
" transform="scale(0.015625)"/>
     </defs>
     <use xlink:href="#DejaVuSans-4f"/>
    </g>
   </g>
   <g id="text_14">
    <!-- J -->
    <g transform="translate(188.44457 187.872495) scale(0.1 -0.1)">
     <defs>
      <path id="DejaVuSans-4a" d="M 628 4666 
L 1259 4666 
L 1259 325 
Q 1259 -519 939 -900 
Q 619 -1281 -91 -1281 
L -331 -1281 
L -331 -750 
L -134 -750 
Q 284 -750 456 -515 
Q 628 -281 628 325 
L 628 4666 
z
" transform="scale(0.015625)"/>
     </defs>
     <use xlink:href="#DejaVuSans-4a"/>
    </g>
   </g>
   <g id="text_15">
    <!-- I -->
    <g transform="translate(295.370737 132.989968) scale(0.1 -0.1)">
     <defs>
      <path id="DejaVuSans-49" d="M 628 4666 
L 1259 4666 
L 1259 0 
L 628 0 
L 628 4666 
z
" transform="scale(0.015625)"/>
     </defs>
     <use xlink:href="#DejaVuSans-49"/>
    </g>
   </g>
   <g id="text_16">
    <!-- P -->
    <g transform="translate(392.38236 70.579258) scale(0.1 -0.1)">
     <defs>
      <path id="DejaVuSans-50" d="M 1259 4147 
L 1259 2394 
L 2053 2394 
Q 2494 2394 2734 2622 
Q 2975 2850 2975 3272 
Q 2975 3691 2734 3919 
Q 2494 4147 2053 4147 
L 1259 4147 
z
M 628 4666 
L 2053 4666 
Q 2838 4666 3239 4311 
Q 3641 3956 3641 3272 
Q 3641 2581 3239 2228 
Q 2838 1875 2053 1875 
L 1259 1875 
L 1259 0 
L 628 0 
L 628 4666 
z
" transform="scale(0.015625)"/>
     </defs>
     <use xlink:href="#DejaVuSans-50"/>
    </g>
   </g>
   <g id="legend_1">
    <g id="line2d_65">
     <path d="M 39.103125 24.097656 
L 49.103125 24.097656 
L 59.103125 24.097656 
" style="fill: none; stroke: #000000; stroke-width: 1.5; stroke-linecap: square"/>
    </g>
    <g id="text_17">
     <!-- $\mathrm{Q_A^-Q_B}$ -->
     <g transform="translate(67.103125 27.597656) scale(0.1 -0.1)">
      <defs>
       <path id="DejaVuSans-51" d="M 2522 4238 
Q 1834 4238 1429 3725 
Q 1025 3213 1025 2328 
Q 1025 1447 1429 934 
Q 1834 422 2522 422 
Q 3209 422 3611 934 
Q 4013 1447 4013 2328 
Q 4013 3213 3611 3725 
Q 3209 4238 2522 4238 
z
M 3406 84 
L 4238 -825 
L 3475 -825 
L 2784 -78 
Q 2681 -84 2626 -87 
Q 2572 -91 2522 -91 
Q 1538 -91 948 567 
Q 359 1225 359 2328 
Q 359 3434 948 4092 
Q 1538 4750 2522 4750 
Q 3503 4750 4090 4092 
Q 4678 3434 4678 2328 
Q 4678 1516 4351 937 
Q 4025 359 3406 84 
z
" transform="scale(0.015625)"/>
       <path id="DejaVuSans-41" d="M 2188 4044 
L 1331 1722 
L 3047 1722 
L 2188 4044 
z
M 1831 4666 
L 2547 4666 
L 4325 0 
L 3669 0 
L 3244 1197 
L 1141 1197 
L 716 0 
L 50 0 
L 1831 4666 
z
" transform="scale(0.015625)"/>
       <path id="DejaVuSans-42" d="M 1259 2228 
L 1259 519 
L 2272 519 
Q 2781 519 3026 730 
Q 3272 941 3272 1375 
Q 3272 1813 3026 2020 
Q 2781 2228 2272 2228 
L 1259 2228 
z
M 1259 4147 
L 1259 2741 
L 2194 2741 
Q 2656 2741 2882 2914 
Q 3109 3088 3109 3444 
Q 3109 3797 2882 3972 
Q 2656 4147 2194 4147 
L 1259 4147 
z
M 628 4666 
L 2241 4666 
Q 2963 4666 3353 4366 
Q 3744 4066 3744 3513 
Q 3744 3084 3544 2831 
Q 3344 2578 2956 2516 
Q 3422 2416 3680 2098 
Q 3938 1781 3938 1306 
Q 3938 681 3513 340 
Q 3088 0 2303 0 
L 628 0 
L 628 4666 
z
" transform="scale(0.015625)"/>
      </defs>
      <use xlink:href="#DejaVuSans-51" transform="translate(0 0.78125)"/>
      <use xlink:href="#DejaVuSans-2212" transform="translate(93.305664 39.0625) scale(0.7)"/>
      <use xlink:href="#DejaVuSans-41" transform="translate(79.667969 -26.5625) scale(0.7)"/>
      <use xlink:href="#DejaVuSans-51" transform="translate(168.330078 0.78125)"/>
      <use xlink:href="#DejaVuSans-42" transform="translate(247.998047 -15.625) scale(0.7)"/>
     </g>
    </g>
    <g id="line2d_66">
     <path d="M 39.103125 39.496094 
L 49.103125 39.496094 
L 59.103125 39.496094 
" style="fill: none; stroke: #000000; stroke-width: 1.5; stroke-linecap: square"/>
    </g>
    <g id="text_18">
     <!-- $\mathrm{Q_A^-Q_B^-}$ -->
     <g transform="translate(67.103125 42.996094) scale(0.1 -0.1)">
      <use xlink:href="#DejaVuSans-51" transform="translate(0 0.78125)"/>
      <use xlink:href="#DejaVuSans-2212" transform="translate(93.305664 39.0625) scale(0.7)"/>
      <use xlink:href="#DejaVuSans-41" transform="translate(79.667969 -26.5625) scale(0.7)"/>
      <use xlink:href="#DejaVuSans-51" transform="translate(168.330078 0.78125)"/>
      <use xlink:href="#DejaVuSans-2212" transform="translate(261.635742 39.0625) scale(0.7)"/>
      <use xlink:href="#DejaVuSans-42" transform="translate(247.998047 -26.5625) scale(0.7)"/>
     </g>
    </g>
    <g id="line2d_67">
     <path d="M 39.103125 56.396094 
L 49.103125 56.396094 
L 59.103125 56.396094 
" style="fill: none; stroke-dasharray: 4.5,1.5,1.5,1.5,1.5,1.5; stroke-dashoffset: 0; stroke: #000000; stroke-width: 1.5"/>
    </g>
    <g id="text_19">
     <!-- $\mathrm{Q_A^-Q_B^{2-}}$ -->
     <g transform="translate(67.103125 59.896094) scale(0.1 -0.1)">
      <use xlink:href="#DejaVuSans-51" transform="translate(0 0.765625)"/>
      <use xlink:href="#DejaVuSans-2212" transform="translate(93.305664 39.046875) scale(0.7)"/>
      <use xlink:href="#DejaVuSans-41" transform="translate(79.667969 -26.578125) scale(0.7)"/>
      <use xlink:href="#DejaVuSans-51" transform="translate(168.330078 0.765625)"/>
      <use xlink:href="#DejaVuSans-32" transform="translate(247.998047 39.046875) scale(0.7)"/>
      <use xlink:href="#DejaVuSans-2212" transform="translate(306.171875 39.046875) scale(0.7)"/>
      <use xlink:href="#DejaVuSans-42" transform="translate(247.998047 -26.578125) scale(0.7)"/>
     </g>
    </g>
    <g id="line2d_68">
     <path d="M 39.103125 71.794531 
L 49.103125 71.794531 
L 59.103125 71.794531 
" style="fill: none; stroke-dasharray: 5.55,2.4; stroke-dashoffset: 0; stroke: #000000; stroke-width: 1.5"/>
    </g>
    <g id="text_20">
     <!-- $\mathrm{Q_A^-Q_BH_2}$ -->
     <g transform="translate(67.103125 75.294531) scale(0.1 -0.1)">
      <defs>
       <path id="DejaVuSans-48" d="M 628 4666 
L 1259 4666 
L 1259 2753 
L 3553 2753 
L 3553 4666 
L 4184 4666 
L 4184 0 
L 3553 0 
L 3553 2222 
L 1259 2222 
L 1259 0 
L 628 0 
L 628 4666 
z
" transform="scale(0.015625)"/>
      </defs>
      <use xlink:href="#DejaVuSans-51" transform="translate(0 0.78125)"/>
      <use xlink:href="#DejaVuSans-2212" transform="translate(93.305664 39.0625) scale(0.7)"/>
      <use xlink:href="#DejaVuSans-41" transform="translate(79.667969 -26.5625) scale(0.7)"/>
      <use xlink:href="#DejaVuSans-51" transform="translate(168.330078 0.78125)"/>
      <use xlink:href="#DejaVuSans-42" transform="translate(247.998047 -15.625) scale(0.7)"/>
      <use xlink:href="#DejaVuSans-48" transform="translate(298.754883 0.78125)"/>
      <use xlink:href="#DejaVuSans-32" transform="translate(374.907227 -15.625) scale(0.7)"/>
     </g>
    </g>
    <g id="line2d_69">
     <path d="M 39.103125 87.192969 
L 49.103125 87.192969 
L 59.103125 87.192969 
" style="fill: none; stroke-dasharray: 1.5,15; stroke-dashoffset: 0; stroke: #000000; stroke-width: 1.5"/>
    </g>
    <g id="text_21">
     <!-- $\mathrm{Q_A^-N}$ -->
     <g transform="translate(67.103125 90.692969) scale(0.1 -0.1)">
      <defs>
       <path id="DejaVuSans-4e" d="M 628 4666 
L 1478 4666 
L 3547 763 
L 3547 4666 
L 4159 4666 
L 4159 0 
L 3309 0 
L 1241 3903 
L 1241 0 
L 628 0 
L 628 4666 
z
" transform="scale(0.015625)"/>
      </defs>
      <use xlink:href="#DejaVuSans-51" transform="translate(0 0.78125)"/>
      <use xlink:href="#DejaVuSans-2212" transform="translate(93.305664 39.0625) scale(0.7)"/>
      <use xlink:href="#DejaVuSans-41" transform="translate(79.667969 -26.5625) scale(0.7)"/>
      <use xlink:href="#DejaVuSans-4e" transform="translate(168.330078 0.78125)"/>
     </g>
    </g>
    <g id="line2d_70">
     <path d="M 39.103125 102.591406 
L 49.103125 102.591406 
L 59.103125 102.591406 
" style="fill: none; stroke-dasharray: 1.5,2.475; stroke-dashoffset: 0; stroke: #000000; stroke-width: 1.5"/>
    </g>
    <g id="text_22">
     <!-- $\mathrm{Q_A^-I}$ -->
     <g transform="translate(67.103125 106.091406) scale(0.1 -0.1)">
      <use xlink:href="#DejaVuSans-51" transform="translate(0 0.78125)"/>
      <use xlink:href="#DejaVuSans-2212" transform="translate(93.305664 39.0625) scale(0.7)"/>
      <use xlink:href="#DejaVuSans-41" transform="translate(79.667969 -26.5625) scale(0.7)"/>
      <use xlink:href="#DejaVuSans-49" transform="translate(168.330078 0.78125)"/>
     </g>
    </g>
    <g id="line2d_71">
     <path d="M 39.103125 117.989844 
L 49.103125 117.989844 
L 59.103125 117.989844 
" style="fill: none; stroke-dasharray: 4.5,7.5,1.5,7.5; stroke-dashoffset: 0; stroke: #000000; stroke-width: 1.5"/>
    </g>
    <g id="text_23">
     <!-- $\mathrm{Q_A^-R}$ -->
     <g transform="translate(67.103125 121.489844) scale(0.1 -0.1)">
      <defs>
       <path id="DejaVuSans-52" d="M 2841 2188 
Q 3044 2119 3236 1894 
Q 3428 1669 3622 1275 
L 4263 0 
L 3584 0 
L 2988 1197 
Q 2756 1666 2539 1819 
Q 2322 1972 1947 1972 
L 1259 1972 
L 1259 0 
L 628 0 
L 628 4666 
L 2053 4666 
Q 2853 4666 3247 4331 
Q 3641 3997 3641 3322 
Q 3641 2881 3436 2590 
Q 3231 2300 2841 2188 
z
M 1259 4147 
L 1259 2491 
L 2053 2491 
Q 2509 2491 2742 2702 
Q 2975 2913 2975 3322 
Q 2975 3731 2742 3939 
Q 2509 4147 2053 4147 
L 1259 4147 
z
" transform="scale(0.015625)"/>
      </defs>
      <use xlink:href="#DejaVuSans-51" transform="translate(0 0.78125)"/>
      <use xlink:href="#DejaVuSans-2212" transform="translate(93.305664 39.0625) scale(0.7)"/>
      <use xlink:href="#DejaVuSans-41" transform="translate(79.667969 -26.5625) scale(0.7)"/>
      <use xlink:href="#DejaVuSans-52" transform="translate(168.330078 0.78125)"/>
     </g>
    </g>
   </g>
  </g>
 </g>
 <defs>
  <clipPath id="p77e378b0e6">
   <rect x="30.103125" y="10.999219" width="416.36" height="299.648"/>
  </clipPath>
 </defs>
</svg>
