<?xml version="1.0" encoding="utf-8" standalone="no"?>
<!DOCTYPE svg PUBLIC "-//W3C//DTD SVG 1.1//EN"
  "http://www.w3.org/Graphics/SVG/1.1/DTD/svg11.dtd">
<svg xmlns:xlink="http://www.w3.org/1999/xlink" width="568.46125pt" height="492.523469pt" viewBox="0 0 568.46125 492.523469" xmlns="http://www.w3.org/2000/svg" version="1.1">
 <metadata>
  <rdf:RDF xmlns:dc="http://purl.org/dc/elements/1.1/" xmlns:cc="http://creativecommons.org/ns#" xmlns:rdf="http://www.w3.org/1999/02/22-rdf-syntax-ns#">
   <cc:Work>
    <dc:type rdf:resource="http://purl.org/dc/dcmitype/StillImage"/>
    <dc:date>2026-06-26T14:44:54.774030</dc:date>
    <dc:format>image/svg+xml</dc:format>
    <dc:creator>
     <cc:Agent>
      <dc:title>Matplotlib v3.10.9, https://matplotlib.org/</dc:title>
     </cc:Agent>
    </dc:creator>
   </cc:Work>
  </rdf:RDF>
 </metadata>
 <defs>
  <style type="text/css">*{stroke-linejoin: round; stroke-linecap: butt}</style>
 </defs>
 <g id="figure_1">
  <g id="patch_1">
   <path d="M 0 492.523469 
L 568.46125 492.523469 
L 568.46125 0 
L 0 0 
z
" style="fill: #ffffff"/>
  </g>
  <g id="axes_1">
   <g id="patch_2">
    <path d="M 43.78125 454.967219 
L 561.26125 454.967219 
L 561.26125 10.999219 
L 43.78125 10.999219 
z
" style="fill: #ffffff"/>
   </g>
   <g id="matplotlib.axis_1">
    <g id="xtick_1">
     <g id="line2d_1">
      <defs>
       <path id="m47e8f51c48" d="M 0 0 
L 0 3.5 
" style="stroke: #000000; stroke-width: 0.8"/>
      </defs>
      <g>
       <use xlink:href="#m47e8f51c48" x="43.78125" y="454.967219" style="stroke: #000000; stroke-width: 0.8"/>
      </g>
     </g>
     <g id="text_1">
      <!-- $\mathdefault{10^{-5}}$ -->
      <g transform="translate(32.03125 469.565656) scale(0.1 -0.1)">
       <defs>
        <path id="DejaVuSans-31" d="M 794 531 
L 1825 531 
L 1825 4091 
L 703 3866 
L 703 4441 
L 1819 4666 
L 2450 4666 
L 2450 531 
L 3481 531 
L 3481 0 
L 794 0 
L 794 531 
z
" transform="scale(0.015625)"/>
        <path id="DejaVuSans-30" d="M 2034 4250 
Q 1547 4250 1301 3770 
Q 1056 3291 1056 2328 
Q 1056 1369 1301 889 
Q 1547 409 2034 409 
Q 2525 409 2770 889 
Q 3016 1369 3016 2328 
Q 3016 3291 2770 3770 
Q 2525 4250 2034 4250 
z
M 2034 4750 
Q 2819 4750 3233 4129 
Q 3647 3509 3647 2328 
Q 3647 1150 3233 529 
Q 2819 -91 2034 -91 
Q 1250 -91 836 529 
Q 422 1150 422 2328 
Q 422 3509 836 4129 
Q 1250 4750 2034 4750 
z
" transform="scale(0.015625)"/>
        <path id="DejaVuSans-2212" d="M 678 2272 
L 4684 2272 
L 4684 1741 
L 678 1741 
L 678 2272 
z
" transform="scale(0.015625)"/>
        <path id="DejaVuSans-35" d="M 691 4666 
L 3169 4666 
L 3169 4134 
L 1269 4134 
L 1269 2991 
Q 1406 3038 1543 3061 
Q 1681 3084 1819 3084 
Q 2600 3084 3056 2656 
Q 3513 2228 3513 1497 
Q 3513 744 3044 326 
Q 2575 -91 1722 -91 
Q 1428 -91 1123 -41 
Q 819 9 494 109 
L 494 744 
Q 775 591 1075 516 
Q 1375 441 1709 441 
Q 2250 441 2565 725 
Q 2881 1009 2881 1497 
Q 2881 1984 2565 2268 
Q 2250 2553 1709 2553 
Q 1456 2553 1204 2497 
Q 953 2441 691 2322 
L 691 4666 
z
" transform="scale(0.015625)"/>
       </defs>
       <use xlink:href="#DejaVuSans-31" transform="translate(0 0.684375)"/>
       <use xlink:href="#DejaVuSans-30" transform="translate(63.623047 0.684375)"/>
       <use xlink:href="#DejaVuSans-2212" transform="translate(128.203125 38.965625) scale(0.7)"/>
       <use xlink:href="#DejaVuSans-35" transform="translate(186.855469 38.965625) scale(0.7)"/>
      </g>
     </g>
    </g>
    <g id="xtick_2">
     <g id="line2d_2">
      <g>
       <use xlink:href="#m47e8f51c48" x="134.583623" y="454.967219" style="stroke: #000000; stroke-width: 0.8"/>
      </g>
     </g>
     <g id="text_2">
      <!-- $\mathdefault{10^{-4}}$ -->
      <g transform="translate(122.833623 469.565656) scale(0.1 -0.1)">
       <defs>
        <path id="DejaVuSans-34" d="M 2419 4116 
L 825 1625 
L 2419 1625 
L 2419 4116 
z
M 2253 4666 
L 3047 4666 
L 3047 1625 
L 3713 1625 
L 3713 1100 
L 3047 1100 
L 3047 0 
L 2419 0 
L 2419 1100 
L 313 1100 
L 313 1709 
L 2253 4666 
z
" transform="scale(0.015625)"/>
       </defs>
       <use xlink:href="#DejaVuSans-31" transform="translate(0 0.684375)"/>
       <use xlink:href="#DejaVuSans-30" transform="translate(63.623047 0.684375)"/>
       <use xlink:href="#DejaVuSans-2212" transform="translate(128.203125 38.965625) scale(0.7)"/>
       <use xlink:href="#DejaVuSans-34" transform="translate(186.855469 38.965625) scale(0.7)"/>
      </g>
     </g>
    </g>
    <g id="xtick_3">
     <g id="line2d_3">
      <g>
       <use xlink:href="#m47e8f51c48" x="225.385996" y="454.967219" style="stroke: #000000; stroke-width: 0.8"/>
      </g>
     </g>
     <g id="text_3">
      <!-- $\mathdefault{10^{-3}}$ -->
      <g transform="translate(213.635996 469.565656) scale(0.1 -0.1)">
       <defs>
        <path id="DejaVuSans-33" d="M 2597 2516 
Q 3050 2419 3304 2112 
Q 3559 1806 3559 1356 
Q 3559 666 3084 287 
Q 2609 -91 1734 -91 
Q 1441 -91 1130 -33 
Q 819 25 488 141 
L 488 750 
Q 750 597 1062 519 
Q 1375 441 1716 441 
Q 2309 441 2620 675 
Q 2931 909 2931 1356 
Q 2931 1769 2642 2001 
Q 2353 2234 1838 2234 
L 1294 2234 
L 1294 2753 
L 1863 2753 
Q 2328 2753 2575 2939 
Q 2822 3125 2822 3475 
Q 2822 3834 2567 4026 
Q 2313 4219 1838 4219 
Q 1578 4219 1281 4162 
Q 984 4106 628 3988 
L 628 4550 
Q 988 4650 1302 4700 
Q 1616 4750 1894 4750 
Q 2613 4750 3031 4423 
Q 3450 4097 3450 3541 
Q 3450 3153 3228 2886 
Q 3006 2619 2597 2516 
z
" transform="scale(0.015625)"/>
       </defs>
       <use xlink:href="#DejaVuSans-31" transform="translate(0 0.765625)"/>
       <use xlink:href="#DejaVuSans-30" transform="translate(63.623047 0.765625)"/>
       <use xlink:href="#DejaVuSans-2212" transform="translate(128.203125 39.046875) scale(0.7)"/>
       <use xlink:href="#DejaVuSans-33" transform="translate(186.855469 39.046875) scale(0.7)"/>
      </g>
     </g>
    </g>
    <g id="xtick_4">
     <g id="line2d_4">
      <g>
       <use xlink:href="#m47e8f51c48" x="316.188369" y="454.967219" style="stroke: #000000; stroke-width: 0.8"/>
      </g>
     </g>
     <g id="text_4">
      <!-- $\mathdefault{10^{-2}}$ -->
      <g transform="translate(304.438369 469.565656) scale(0.1 -0.1)">
       <defs>
        <path id="DejaVuSans-32" d="M 1228 531 
L 3431 531 
L 3431 0 
L 469 0 
L 469 531 
Q 828 903 1448 1529 
Q 2069 2156 2228 2338 
Q 2531 2678 2651 2914 
Q 2772 3150 2772 3378 
Q 2772 3750 2511 3984 
Q 2250 4219 1831 4219 
Q 1534 4219 1204 4116 
Q 875 4013 500 3803 
L 500 4441 
Q 881 4594 1212 4672 
Q 1544 4750 1819 4750 
Q 2544 4750 2975 4387 
Q 3406 4025 3406 3419 
Q 3406 3131 3298 2873 
Q 3191 2616 2906 2266 
Q 2828 2175 2409 1742 
Q 1991 1309 1228 531 
z
" transform="scale(0.015625)"/>
       </defs>
       <use xlink:href="#DejaVuSans-31" transform="translate(0 0.765625)"/>
       <use xlink:href="#DejaVuSans-30" transform="translate(63.623047 0.765625)"/>
       <use xlink:href="#DejaVuSans-2212" transform="translate(128.203125 39.046875) scale(0.7)"/>
       <use xlink:href="#DejaVuSans-32" transform="translate(186.855469 39.046875) scale(0.7)"/>
      </g>
     </g>
    </g>
    <g id="xtick_5">
     <g id="line2d_5">
      <g>
       <use xlink:href="#m47e8f51c48" x="406.990742" y="454.967219" style="stroke: #000000; stroke-width: 0.8"/>
      </g>
     </g>
     <g id="text_5">
      <!-- $\mathdefault{10^{-1}}$ -->
      <g transform="translate(395.240742 469.565656) scale(0.1 -0.1)">
       <use xlink:href="#DejaVuSans-31" transform="translate(0 0.684375)"/>
       <use xlink:href="#DejaVuSans-30" transform="translate(63.623047 0.684375)"/>
       <use xlink:href="#DejaVuSans-2212" transform="translate(128.203125 38.965625) scale(0.7)"/>
       <use xlink:href="#DejaVuSans-31" transform="translate(186.855469 38.965625) scale(0.7)"/>
      </g>
     </g>
    </g>
    <g id="xtick_6">
     <g id="line2d_6">
      <g>
       <use xlink:href="#m47e8f51c48" x="497.793115" y="454.967219" style="stroke: #000000; stroke-width: 0.8"/>
      </g>
     </g>
     <g id="text_6">
      <!-- $\mathdefault{10^{0}}$ -->
      <g transform="translate(488.993115 469.565656) scale(0.1 -0.1)">
       <use xlink:href="#DejaVuSans-31" transform="translate(0 0.765625)"/>
       <use xlink:href="#DejaVuSans-30" transform="translate(63.623047 0.765625)"/>
       <use xlink:href="#DejaVuSans-30" transform="translate(128.203125 39.046875) scale(0.7)"/>
      </g>
     </g>
    </g>
    <g id="xtick_7">
     <g id="line2d_7">
      <defs>
       <path id="m89ed8d5839" d="M 0 0 
L 0 2 
" style="stroke: #000000; stroke-width: 0.6"/>
      </defs>
      <g>
       <use xlink:href="#m89ed8d5839" x="71.115488" y="454.967219" style="stroke: #000000; stroke-width: 0.6"/>
      </g>
     </g>
    </g>
    <g id="xtick_8">
     <g id="line2d_8">
      <g>
       <use xlink:href="#m89ed8d5839" x="87.104992" y="454.967219" style="stroke: #000000; stroke-width: 0.6"/>
      </g>
     </g>
    </g>
    <g id="xtick_9">
     <g id="line2d_9">
      <g>
       <use xlink:href="#m89ed8d5839" x="98.449726" y="454.967219" style="stroke: #000000; stroke-width: 0.6"/>
      </g>
     </g>
    </g>
    <g id="xtick_10">
     <g id="line2d_10">
      <g>
       <use xlink:href="#m89ed8d5839" x="107.249385" y="454.967219" style="stroke: #000000; stroke-width: 0.6"/>
      </g>
     </g>
    </g>
    <g id="xtick_11">
     <g id="line2d_11">
      <g>
       <use xlink:href="#m89ed8d5839" x="114.43923" y="454.967219" style="stroke: #000000; stroke-width: 0.6"/>
      </g>
     </g>
    </g>
    <g id="xtick_12">
     <g id="line2d_12">
      <g>
       <use xlink:href="#m89ed8d5839" x="120.518157" y="454.967219" style="stroke: #000000; stroke-width: 0.6"/>
      </g>
     </g>
    </g>
    <g id="xtick_13">
     <g id="line2d_13">
      <g>
       <use xlink:href="#m89ed8d5839" x="125.783964" y="454.967219" style="stroke: #000000; stroke-width: 0.6"/>
      </g>
     </g>
    </g>
    <g id="xtick_14">
     <g id="line2d_14">
      <g>
       <use xlink:href="#m89ed8d5839" x="130.428734" y="454.967219" style="stroke: #000000; stroke-width: 0.6"/>
      </g>
     </g>
    </g>
    <g id="xtick_15">
     <g id="line2d_15">
      <g>
       <use xlink:href="#m89ed8d5839" x="161.917861" y="454.967219" style="stroke: #000000; stroke-width: 0.6"/>
      </g>
     </g>
    </g>
    <g id="xtick_16">
     <g id="line2d_16">
      <g>
       <use xlink:href="#m89ed8d5839" x="177.907365" y="454.967219" style="stroke: #000000; stroke-width: 0.6"/>
      </g>
     </g>
    </g>
    <g id="xtick_17">
     <g id="line2d_17">
      <g>
       <use xlink:href="#m89ed8d5839" x="189.252099" y="454.967219" style="stroke: #000000; stroke-width: 0.6"/>
      </g>
     </g>
    </g>
    <g id="xtick_18">
     <g id="line2d_18">
      <g>
       <use xlink:href="#m89ed8d5839" x="198.051758" y="454.967219" style="stroke: #000000; stroke-width: 0.6"/>
      </g>
     </g>
    </g>
    <g id="xtick_19">
     <g id="line2d_19">
      <g>
       <use xlink:href="#m89ed8d5839" x="205.241603" y="454.967219" style="stroke: #000000; stroke-width: 0.6"/>
      </g>
     </g>
    </g>
    <g id="xtick_20">
     <g id="line2d_20">
      <g>
       <use xlink:href="#m89ed8d5839" x="211.32053" y="454.967219" style="stroke: #000000; stroke-width: 0.6"/>
      </g>
     </g>
    </g>
    <g id="xtick_21">
     <g id="line2d_21">
      <g>
       <use xlink:href="#m89ed8d5839" x="216.586337" y="454.967219" style="stroke: #000000; stroke-width: 0.6"/>
      </g>
     </g>
    </g>
    <g id="xtick_22">
     <g id="line2d_22">
      <g>
       <use xlink:href="#m89ed8d5839" x="221.231107" y="454.967219" style="stroke: #000000; stroke-width: 0.6"/>
      </g>
     </g>
    </g>
    <g id="xtick_23">
     <g id="line2d_23">
      <g>
       <use xlink:href="#m89ed8d5839" x="252.720234" y="454.967219" style="stroke: #000000; stroke-width: 0.6"/>
      </g>
     </g>
    </g>
    <g id="xtick_24">
     <g id="line2d_24">
      <g>
       <use xlink:href="#m89ed8d5839" x="268.709738" y="454.967219" style="stroke: #000000; stroke-width: 0.6"/>
      </g>
     </g>
    </g>
    <g id="xtick_25">
     <g id="line2d_25">
      <g>
       <use xlink:href="#m89ed8d5839" x="280.054472" y="454.967219" style="stroke: #000000; stroke-width: 0.6"/>
      </g>
     </g>
    </g>
    <g id="xtick_26">
     <g id="line2d_26">
      <g>
       <use xlink:href="#m89ed8d5839" x="288.854131" y="454.967219" style="stroke: #000000; stroke-width: 0.6"/>
      </g>
     </g>
    </g>
    <g id="xtick_27">
     <g id="line2d_27">
      <g>
       <use xlink:href="#m89ed8d5839" x="296.043976" y="454.967219" style="stroke: #000000; stroke-width: 0.6"/>
      </g>
     </g>
    </g>
    <g id="xtick_28">
     <g id="line2d_28">
      <g>
       <use xlink:href="#m89ed8d5839" x="302.122903" y="454.967219" style="stroke: #000000; stroke-width: 0.6"/>
      </g>
     </g>
    </g>
    <g id="xtick_29">
     <g id="line2d_29">
      <g>
       <use xlink:href="#m89ed8d5839" x="307.38871" y="454.967219" style="stroke: #000000; stroke-width: 0.6"/>
      </g>
     </g>
    </g>
    <g id="xtick_30">
     <g id="line2d_30">
      <g>
       <use xlink:href="#m89ed8d5839" x="312.03348" y="454.967219" style="stroke: #000000; stroke-width: 0.6"/>
      </g>
     </g>
    </g>
    <g id="xtick_31">
     <g id="line2d_31">
      <g>
       <use xlink:href="#m89ed8d5839" x="343.522607" y="454.967219" style="stroke: #000000; stroke-width: 0.6"/>
      </g>
     </g>
    </g>
    <g id="xtick_32">
     <g id="line2d_32">
      <g>
       <use xlink:href="#m89ed8d5839" x="359.512111" y="454.967219" style="stroke: #000000; stroke-width: 0.6"/>
      </g>
     </g>
    </g>
    <g id="xtick_33">
     <g id="line2d_33">
      <g>
       <use xlink:href="#m89ed8d5839" x="370.856845" y="454.967219" style="stroke: #000000; stroke-width: 0.6"/>
      </g>
     </g>
    </g>
    <g id="xtick_34">
     <g id="line2d_34">
      <g>
       <use xlink:href="#m89ed8d5839" x="379.656504" y="454.967219" style="stroke: #000000; stroke-width: 0.6"/>
      </g>
     </g>
    </g>
    <g id="xtick_35">
     <g id="line2d_35">
      <g>
       <use xlink:href="#m89ed8d5839" x="386.846349" y="454.967219" style="stroke: #000000; stroke-width: 0.6"/>
      </g>
     </g>
    </g>
    <g id="xtick_36">
     <g id="line2d_36">
      <g>
       <use xlink:href="#m89ed8d5839" x="392.925276" y="454.967219" style="stroke: #000000; stroke-width: 0.6"/>
      </g>
     </g>
    </g>
    <g id="xtick_37">
     <g id="line2d_37">
      <g>
       <use xlink:href="#m89ed8d5839" x="398.191083" y="454.967219" style="stroke: #000000; stroke-width: 0.6"/>
      </g>
     </g>
    </g>
    <g id="xtick_38">
     <g id="line2d_38">
      <g>
       <use xlink:href="#m89ed8d5839" x="402.835853" y="454.967219" style="stroke: #000000; stroke-width: 0.6"/>
      </g>
     </g>
    </g>
    <g id="xtick_39">
     <g id="line2d_39">
      <g>
       <use xlink:href="#m89ed8d5839" x="434.32498" y="454.967219" style="stroke: #000000; stroke-width: 0.6"/>
      </g>
     </g>
    </g>
    <g id="xtick_40">
     <g id="line2d_40">
      <g>
       <use xlink:href="#m89ed8d5839" x="450.314484" y="454.967219" style="stroke: #000000; stroke-width: 0.6"/>
      </g>
     </g>
    </g>
    <g id="xtick_41">
     <g id="line2d_41">
      <g>
       <use xlink:href="#m89ed8d5839" x="461.659218" y="454.967219" style="stroke: #000000; stroke-width: 0.6"/>
      </g>
     </g>
    </g>
    <g id="xtick_42">
     <g id="line2d_42">
      <g>
       <use xlink:href="#m89ed8d5839" x="470.458877" y="454.967219" style="stroke: #000000; stroke-width: 0.6"/>
      </g>
     </g>
    </g>
    <g id="xtick_43">
     <g id="line2d_43">
      <g>
       <use xlink:href="#m89ed8d5839" x="477.648722" y="454.967219" style="stroke: #000000; stroke-width: 0.6"/>
      </g>
     </g>
    </g>
    <g id="xtick_44">
     <g id="line2d_44">
      <g>
       <use xlink:href="#m89ed8d5839" x="483.727649" y="454.967219" style="stroke: #000000; stroke-width: 0.6"/>
      </g>
     </g>
    </g>
    <g id="xtick_45">
     <g id="line2d_45">
      <g>
       <use xlink:href="#m89ed8d5839" x="488.993456" y="454.967219" style="stroke: #000000; stroke-width: 0.6"/>
      </g>
     </g>
    </g>
    <g id="xtick_46">
     <g id="line2d_46">
      <g>
       <use xlink:href="#m89ed8d5839" x="493.638226" y="454.967219" style="stroke: #000000; stroke-width: 0.6"/>
      </g>
     </g>
    </g>
    <g id="xtick_47">
     <g id="line2d_47">
      <g>
       <use xlink:href="#m89ed8d5839" x="525.127353" y="454.967219" style="stroke: #000000; stroke-width: 0.6"/>
      </g>
     </g>
    </g>
    <g id="xtick_48">
     <g id="line2d_48">
      <g>
       <use xlink:href="#m89ed8d5839" x="541.116857" y="454.967219" style="stroke: #000000; stroke-width: 0.6"/>
      </g>
     </g>
    </g>
    <g id="xtick_49">
     <g id="line2d_49">
      <g>
       <use xlink:href="#m89ed8d5839" x="552.461591" y="454.967219" style="stroke: #000000; stroke-width: 0.6"/>
      </g>
     </g>
    </g>
    <g id="xtick_50">
     <g id="line2d_50">
      <g>
       <use xlink:href="#m89ed8d5839" x="561.26125" y="454.967219" style="stroke: #000000; stroke-width: 0.6"/>
      </g>
     </g>
    </g>
    <g id="text_7">
     <!-- time [s] -->
     <g transform="translate(283.129844 483.243781) scale(0.1 -0.1)">
      <defs>
       <path id="DejaVuSans-74" d="M 1172 4494 
L 1172 3500 
L 2356 3500 
L 2356 3053 
L 1172 3053 
L 1172 1153 
Q 1172 725 1289 603 
Q 1406 481 1766 481 
L 2356 481 
L 2356 0 
L 1766 0 
Q 1100 0 847 248 
Q 594 497 594 1153 
L 594 3053 
L 172 3053 
L 172 3500 
L 594 3500 
L 594 4494 
L 1172 4494 
z
" transform="scale(0.015625)"/>
       <path id="DejaVuSans-69" d="M 603 3500 
L 1178 3500 
L 1178 0 
L 603 0 
L 603 3500 
z
M 603 4863 
L 1178 4863 
L 1178 4134 
L 603 4134 
L 603 4863 
z
" transform="scale(0.015625)"/>
       <path id="DejaVuSans-6d" d="M 3328 2828 
Q 3544 3216 3844 3400 
Q 4144 3584 4550 3584 
Q 5097 3584 5394 3201 
Q 5691 2819 5691 2113 
L 5691 0 
L 5113 0 
L 5113 2094 
Q 5113 2597 4934 2840 
Q 4756 3084 4391 3084 
Q 3944 3084 3684 2787 
Q 3425 2491 3425 1978 
L 3425 0 
L 2847 0 
L 2847 2094 
Q 2847 2600 2669 2842 
Q 2491 3084 2119 3084 
Q 1678 3084 1418 2786 
Q 1159 2488 1159 1978 
L 1159 0 
L 581 0 
L 581 3500 
L 1159 3500 
L 1159 2956 
Q 1356 3278 1631 3431 
Q 1906 3584 2284 3584 
Q 2666 3584 2933 3390 
Q 3200 3197 3328 2828 
z
" transform="scale(0.015625)"/>
       <path id="DejaVuSans-65" d="M 3597 1894 
L 3597 1613 
L 953 1613 
Q 991 1019 1311 708 
Q 1631 397 2203 397 
Q 2534 397 2845 478 
Q 3156 559 3463 722 
L 3463 178 
Q 3153 47 2828 -22 
Q 2503 -91 2169 -91 
Q 1331 -91 842 396 
Q 353 884 353 1716 
Q 353 2575 817 3079 
Q 1281 3584 2069 3584 
Q 2775 3584 3186 3129 
Q 3597 2675 3597 1894 
z
M 3022 2063 
Q 3016 2534 2758 2815 
Q 2500 3097 2075 3097 
Q 1594 3097 1305 2825 
Q 1016 2553 972 2059 
L 3022 2063 
z
" transform="scale(0.015625)"/>
       <path id="DejaVuSans-20" transform="scale(0.015625)"/>
       <path id="DejaVuSans-5b" d="M 550 4863 
L 1875 4863 
L 1875 4416 
L 1125 4416 
L 1125 -397 
L 1875 -397 
L 1875 -844 
L 550 -844 
L 550 4863 
z
" transform="scale(0.015625)"/>
       <path id="DejaVuSans-73" d="M 2834 3397 
L 2834 2853 
Q 2591 2978 2328 3040 
Q 2066 3103 1784 3103 
Q 1356 3103 1142 2972 
Q 928 2841 928 2578 
Q 928 2378 1081 2264 
Q 1234 2150 1697 2047 
L 1894 2003 
Q 2506 1872 2764 1633 
Q 3022 1394 3022 966 
Q 3022 478 2636 193 
Q 2250 -91 1575 -91 
Q 1294 -91 989 -36 
Q 684 19 347 128 
L 347 722 
Q 666 556 975 473 
Q 1284 391 1588 391 
Q 1994 391 2212 530 
Q 2431 669 2431 922 
Q 2431 1156 2273 1281 
Q 2116 1406 1581 1522 
L 1381 1569 
Q 847 1681 609 1914 
Q 372 2147 372 2553 
Q 372 3047 722 3315 
Q 1072 3584 1716 3584 
Q 2034 3584 2315 3537 
Q 2597 3491 2834 3397 
z
" transform="scale(0.015625)"/>
       <path id="DejaVuSans-5d" d="M 1947 4863 
L 1947 -844 
L 622 -844 
L 622 -397 
L 1369 -397 
L 1369 4416 
L 622 4416 
L 622 4863 
L 1947 4863 
z
" transform="scale(0.015625)"/>
      </defs>
      <use xlink:href="#DejaVuSans-74"/>
      <use xlink:href="#DejaVuSans-69" transform="translate(39.208984 0)"/>
      <use xlink:href="#DejaVuSans-6d" transform="translate(66.992188 0)"/>
      <use xlink:href="#DejaVuSans-65" transform="translate(164.404297 0)"/>
      <use xlink:href="#DejaVuSans-20" transform="translate(225.927734 0)"/>
      <use xlink:href="#DejaVuSans-5b" transform="translate(257.714844 0)"/>
      <use xlink:href="#DejaVuSans-73" transform="translate(296.728516 0)"/>
      <use xlink:href="#DejaVuSans-5d" transform="translate(348.828125 0)"/>
     </g>
    </g>
   </g>
   <g id="matplotlib.axis_2">
    <g id="ytick_1">
     <g id="line2d_51">
      <defs>
       <path id="md3f217b3a6" d="M 0 0 
L -3.5 0 
" style="stroke: #000000; stroke-width: 0.8"/>
      </defs>
      <g>
       <use xlink:href="#md3f217b3a6" x="43.78125" y="450.571496" style="stroke: #000000; stroke-width: 0.8"/>
      </g>
     </g>
     <g id="text_8">
      <!-- 0.0 -->
      <g transform="translate(20.878125 454.370715) scale(0.1 -0.1)">
       <defs>
        <path id="DejaVuSans-2e" d="M 684 794 
L 1344 794 
L 1344 0 
L 684 0 
L 684 794 
z
" transform="scale(0.015625)"/>
       </defs>
       <use xlink:href="#DejaVuSans-30"/>
       <use xlink:href="#DejaVuSans-2e" transform="translate(63.623047 0)"/>
       <use xlink:href="#DejaVuSans-30" transform="translate(95.410156 0)"/>
      </g>
     </g>
    </g>
    <g id="ytick_2">
     <g id="line2d_52">
      <g>
       <use xlink:href="#md3f217b3a6" x="43.78125" y="362.657041" style="stroke: #000000; stroke-width: 0.8"/>
      </g>
     </g>
     <g id="text_9">
      <!-- 0.2 -->
      <g transform="translate(20.878125 366.456259) scale(0.1 -0.1)">
       <use xlink:href="#DejaVuSans-30"/>
       <use xlink:href="#DejaVuSans-2e" transform="translate(63.623047 0)"/>
       <use xlink:href="#DejaVuSans-32" transform="translate(95.410156 0)"/>
      </g>
     </g>
    </g>
    <g id="ytick_3">
     <g id="line2d_53">
      <g>
       <use xlink:href="#md3f217b3a6" x="43.78125" y="274.742585" style="stroke: #000000; stroke-width: 0.8"/>
      </g>
     </g>
     <g id="text_10">
      <!-- 0.4 -->
      <g transform="translate(20.878125 278.541804) scale(0.1 -0.1)">
       <use xlink:href="#DejaVuSans-30"/>
       <use xlink:href="#DejaVuSans-2e" transform="translate(63.623047 0)"/>
       <use xlink:href="#DejaVuSans-34" transform="translate(95.410156 0)"/>
      </g>
     </g>
    </g>
    <g id="ytick_4">
     <g id="line2d_54">
      <g>
       <use xlink:href="#md3f217b3a6" x="43.78125" y="186.82813" style="stroke: #000000; stroke-width: 0.8"/>
      </g>
     </g>
     <g id="text_11">
      <!-- 0.6 -->
      <g transform="translate(20.878125 190.627348) scale(0.1 -0.1)">
       <defs>
        <path id="DejaVuSans-36" d="M 2113 2584 
Q 1688 2584 1439 2293 
Q 1191 2003 1191 1497 
Q 1191 994 1439 701 
Q 1688 409 2113 409 
Q 2538 409 2786 701 
Q 3034 994 3034 1497 
Q 3034 2003 2786 2293 
Q 2538 2584 2113 2584 
z
M 3366 4563 
L 3366 3988 
Q 3128 4100 2886 4159 
Q 2644 4219 2406 4219 
Q 1781 4219 1451 3797 
Q 1122 3375 1075 2522 
Q 1259 2794 1537 2939 
Q 1816 3084 2150 3084 
Q 2853 3084 3261 2657 
Q 3669 2231 3669 1497 
Q 3669 778 3244 343 
Q 2819 -91 2113 -91 
Q 1303 -91 875 529 
Q 447 1150 447 2328 
Q 447 3434 972 4092 
Q 1497 4750 2381 4750 
Q 2619 4750 2861 4703 
Q 3103 4656 3366 4563 
z
" transform="scale(0.015625)"/>
       </defs>
       <use xlink:href="#DejaVuSans-30"/>
       <use xlink:href="#DejaVuSans-2e" transform="translate(63.623047 0)"/>
       <use xlink:href="#DejaVuSans-36" transform="translate(95.410156 0)"/>
      </g>
     </g>
    </g>
    <g id="ytick_5">
     <g id="line2d_55">
      <g>
       <use xlink:href="#md3f217b3a6" x="43.78125" y="98.913674" style="stroke: #000000; stroke-width: 0.8"/>
      </g>
     </g>
     <g id="text_12">
      <!-- 0.8 -->
      <g transform="translate(20.878125 102.712893) scale(0.1 -0.1)">
       <defs>
        <path id="DejaVuSans-38" d="M 2034 2216 
Q 1584 2216 1326 1975 
Q 1069 1734 1069 1313 
Q 1069 891 1326 650 
Q 1584 409 2034 409 
Q 2484 409 2743 651 
Q 3003 894 3003 1313 
Q 3003 1734 2745 1975 
Q 2488 2216 2034 2216 
z
M 1403 2484 
Q 997 2584 770 2862 
Q 544 3141 544 3541 
Q 544 4100 942 4425 
Q 1341 4750 2034 4750 
Q 2731 4750 3128 4425 
Q 3525 4100 3525 3541 
Q 3525 3141 3298 2862 
Q 3072 2584 2669 2484 
Q 3125 2378 3379 2068 
Q 3634 1759 3634 1313 
Q 3634 634 3220 271 
Q 2806 -91 2034 -91 
Q 1263 -91 848 271 
Q 434 634 434 1313 
Q 434 1759 690 2068 
Q 947 2378 1403 2484 
z
M 1172 3481 
Q 1172 3119 1398 2916 
Q 1625 2713 2034 2713 
Q 2441 2713 2670 2916 
Q 2900 3119 2900 3481 
Q 2900 3844 2670 4047 
Q 2441 4250 2034 4250 
Q 1625 4250 1398 4047 
Q 1172 3844 1172 3481 
z
" transform="scale(0.015625)"/>
       </defs>
       <use xlink:href="#DejaVuSans-30"/>
       <use xlink:href="#DejaVuSans-2e" transform="translate(63.623047 0)"/>
       <use xlink:href="#DejaVuSans-38" transform="translate(95.410156 0)"/>
      </g>
     </g>
    </g>
    <g id="ytick_6">
     <g id="line2d_56">
      <g>
       <use xlink:href="#md3f217b3a6" x="43.78125" y="10.999219" style="stroke: #000000; stroke-width: 0.8"/>
      </g>
     </g>
     <g id="text_13">
      <!-- 1.0 -->
      <g transform="translate(20.878125 14.798438) scale(0.1 -0.1)">
       <use xlink:href="#DejaVuSans-31"/>
       <use xlink:href="#DejaVuSans-2e" transform="translate(63.623047 0)"/>
       <use xlink:href="#DejaVuSans-30" transform="translate(95.410156 0)"/>
      </g>
     </g>
    </g>
    <g id="text_14">
     <!-- fluorescence intensity [rel. units] -->
     <g transform="translate(14.798437 315.439469) rotate(-90) scale(0.1 -0.1)">
      <defs>
       <path id="DejaVuSans-66" d="M 2375 4863 
L 2375 4384 
L 1825 4384 
Q 1516 4384 1395 4259 
Q 1275 4134 1275 3809 
L 1275 3500 
L 2222 3500 
L 2222 3053 
L 1275 3053 
L 1275 0 
L 697 0 
L 697 3053 
L 147 3053 
L 147 3500 
L 697 3500 
L 697 3744 
Q 697 4328 969 4595 
Q 1241 4863 1831 4863 
L 2375 4863 
z
" transform="scale(0.015625)"/>
       <path id="DejaVuSans-6c" d="M 603 4863 
L 1178 4863 
L 1178 0 
L 603 0 
L 603 4863 
z
" transform="scale(0.015625)"/>
       <path id="DejaVuSans-75" d="M 544 1381 
L 544 3500 
L 1119 3500 
L 1119 1403 
Q 1119 906 1312 657 
Q 1506 409 1894 409 
Q 2359 409 2629 706 
Q 2900 1003 2900 1516 
L 2900 3500 
L 3475 3500 
L 3475 0 
L 2900 0 
L 2900 538 
Q 2691 219 2414 64 
Q 2138 -91 1772 -91 
Q 1169 -91 856 284 
Q 544 659 544 1381 
z
M 1991 3584 
L 1991 3584 
z
" transform="scale(0.015625)"/>
       <path id="DejaVuSans-6f" d="M 1959 3097 
Q 1497 3097 1228 2736 
Q 959 2375 959 1747 
Q 959 1119 1226 758 
Q 1494 397 1959 397 
Q 2419 397 2687 759 
Q 2956 1122 2956 1747 
Q 2956 2369 2687 2733 
Q 2419 3097 1959 3097 
z
M 1959 3584 
Q 2709 3584 3137 3096 
Q 3566 2609 3566 1747 
Q 3566 888 3137 398 
Q 2709 -91 1959 -91 
Q 1206 -91 779 398 
Q 353 888 353 1747 
Q 353 2609 779 3096 
Q 1206 3584 1959 3584 
z
" transform="scale(0.015625)"/>
       <path id="DejaVuSans-72" d="M 2631 2963 
Q 2534 3019 2420 3045 
Q 2306 3072 2169 3072 
Q 1681 3072 1420 2755 
Q 1159 2438 1159 1844 
L 1159 0 
L 581 0 
L 581 3500 
L 1159 3500 
L 1159 2956 
Q 1341 3275 1631 3429 
Q 1922 3584 2338 3584 
Q 2397 3584 2469 3576 
Q 2541 3569 2628 3553 
L 2631 2963 
z
" transform="scale(0.015625)"/>
       <path id="DejaVuSans-63" d="M 3122 3366 
L 3122 2828 
Q 2878 2963 2633 3030 
Q 2388 3097 2138 3097 
Q 1578 3097 1268 2742 
Q 959 2388 959 1747 
Q 959 1106 1268 751 
Q 1578 397 2138 397 
Q 2388 397 2633 464 
Q 2878 531 3122 666 
L 3122 134 
Q 2881 22 2623 -34 
Q 2366 -91 2075 -91 
Q 1284 -91 818 406 
Q 353 903 353 1747 
Q 353 2603 823 3093 
Q 1294 3584 2113 3584 
Q 2378 3584 2631 3529 
Q 2884 3475 3122 3366 
z
" transform="scale(0.015625)"/>
       <path id="DejaVuSans-6e" d="M 3513 2113 
L 3513 0 
L 2938 0 
L 2938 2094 
Q 2938 2591 2744 2837 
Q 2550 3084 2163 3084 
Q 1697 3084 1428 2787 
Q 1159 2491 1159 1978 
L 1159 0 
L 581 0 
L 581 3500 
L 1159 3500 
L 1159 2956 
Q 1366 3272 1645 3428 
Q 1925 3584 2291 3584 
Q 2894 3584 3203 3211 
Q 3513 2838 3513 2113 
z
" transform="scale(0.015625)"/>
       <path id="DejaVuSans-79" d="M 2059 -325 
Q 1816 -950 1584 -1140 
Q 1353 -1331 966 -1331 
L 506 -1331 
L 506 -850 
L 844 -850 
Q 1081 -850 1212 -737 
Q 1344 -625 1503 -206 
L 1606 56 
L 191 3500 
L 800 3500 
L 1894 763 
L 2988 3500 
L 3597 3500 
L 2059 -325 
z
" transform="scale(0.015625)"/>
      </defs>
      <use xlink:href="#DejaVuSans-66"/>
      <use xlink:href="#DejaVuSans-6c" transform="translate(35.205078 0)"/>
      <use xlink:href="#DejaVuSans-75" transform="translate(62.988281 0)"/>
      <use xlink:href="#DejaVuSans-6f" transform="translate(126.367188 0)"/>
      <use xlink:href="#DejaVuSans-72" transform="translate(187.548828 0)"/>
      <use xlink:href="#DejaVuSans-65" transform="translate(226.412109 0)"/>
      <use xlink:href="#DejaVuSans-73" transform="translate(287.935547 0)"/>
      <use xlink:href="#DejaVuSans-63" transform="translate(340.035156 0)"/>
      <use xlink:href="#DejaVuSans-65" transform="translate(395.015625 0)"/>
      <use xlink:href="#DejaVuSans-6e" transform="translate(456.539062 0)"/>
      <use xlink:href="#DejaVuSans-63" transform="translate(519.917969 0)"/>
      <use xlink:href="#DejaVuSans-65" transform="translate(574.898438 0)"/>
      <use xlink:href="#DejaVuSans-20" transform="translate(636.421875 0)"/>
      <use xlink:href="#DejaVuSans-69" transform="translate(668.208984 0)"/>
      <use xlink:href="#DejaVuSans-6e" transform="translate(695.992188 0)"/>
      <use xlink:href="#DejaVuSans-74" transform="translate(759.371094 0)"/>
      <use xlink:href="#DejaVuSans-65" transform="translate(798.580078 0)"/>
      <use xlink:href="#DejaVuSans-6e" transform="translate(860.103516 0)"/>
      <use xlink:href="#DejaVuSans-73" transform="translate(923.482422 0)"/>
      <use xlink:href="#DejaVuSans-69" transform="translate(975.582031 0)"/>
      <use xlink:href="#DejaVuSans-74" transform="translate(1003.365234 0)"/>
      <use xlink:href="#DejaVuSans-79" transform="translate(1042.574219 0)"/>
      <use xlink:href="#DejaVuSans-20" transform="translate(1101.753906 0)"/>
      <use xlink:href="#DejaVuSans-5b" transform="translate(1133.541016 0)"/>
      <use xlink:href="#DejaVuSans-72" transform="translate(1172.554688 0)"/>
      <use xlink:href="#DejaVuSans-65" transform="translate(1211.417969 0)"/>
      <use xlink:href="#DejaVuSans-6c" transform="translate(1272.941406 0)"/>
      <use xlink:href="#DejaVuSans-2e" transform="translate(1300.724609 0)"/>
      <use xlink:href="#DejaVuSans-20" transform="translate(1332.511719 0)"/>
      <use xlink:href="#DejaVuSans-75" transform="translate(1364.298828 0)"/>
      <use xlink:href="#DejaVuSans-6e" transform="translate(1427.677734 0)"/>
      <use xlink:href="#DejaVuSans-69" transform="translate(1491.056641 0)"/>
      <use xlink:href="#DejaVuSans-74" transform="translate(1518.839844 0)"/>
      <use xlink:href="#DejaVuSans-73" transform="translate(1558.048828 0)"/>
      <use xlink:href="#DejaVuSans-5d" transform="translate(1610.148438 0)"/>
     </g>
    </g>
   </g>
   <g id="line2d_57">
    <path d="M 107.249385 380.479674 
L 114.438967 377.28481 
L 120.517707 374.179734 
L 125.783372 371.163523 
L 130.428033 368.235118 
L 134.582834 365.39334 
L 138.341317 362.636901 
L 144.928979 357.374415 
L 150.572076 352.435624 
L 155.507818 347.807469 
L 161.916678 341.417413 
L 169.106457 333.852868 
L 188.252317 313.381409 
L 193.009255 308.69577 
L 197.253648 304.802216 
L 201.085283 301.568298 
L 204.577371 298.881933 
L 208.396629 296.249688 
L 211.878435 294.137653 
L 215.077609 292.438719 
L 218.508892 290.865475 
L 222.096353 289.478293 
L 225.776888 288.300188 
L 229.853602 287.239264 
L 234.498365 286.268424 
L 241.110196 285.140618 
L 251.72029 283.33893 
L 257.011362 282.195497 
L 261.518347 281.000276 
L 265.704768 279.667359 
L 269.746009 278.149469 
L 273.643989 276.449854 
L 277.507841 274.521499 
L 281.314164 272.373942 
L 285.133432 269.965575 
L 289.088472 267.202939 
L 293.109854 264.119464 
L 297.335477 260.596558 
L 301.895348 256.500592 
L 307.090265 251.523077 
L 313.746745 244.811634 
L 327.757633 230.60063 
L 332.672673 225.992061 
L 336.902777 222.324464 
L 340.765076 219.265174 
L 344.437034 216.637713 
L 348.007747 214.354394 
L 351.572257 212.338213 
L 355.223978 210.528784 
L 359.087637 208.865243 
L 363.352651 207.275991 
L 368.46762 205.617352 
L 376.77614 203.196542 
L 385.582586 200.554232 
L 391.354943 198.586592 
L 396.466565 196.611193 
L 401.224463 194.535675 
L 405.747332 192.321218 
L 410.093437 189.946334 
L 414.300414 187.394279 
L 418.400881 184.646572 
L 422.425345 181.681607 
L 426.408427 178.469877 
L 430.386991 174.974434 
L 434.408097 171.143054 
L 438.536415 166.898677 
L 442.877804 162.11082 
L 447.647064 156.510766 
L 453.504561 149.268734 
L 466.54354 133.028308 
L 470.562057 128.461687 
L 473.98358 124.901151 
L 477.074486 121.998607 
L 479.962335 119.586373 
L 482.726509 117.56312 
L 485.425741 115.860104 
L 488.111095 114.427053 
L 490.832734 113.226093 
L 493.646725 112.228013 
L 496.622484 111.410341 
L 497.793115 111.147676 
L 497.793115 111.147676 
" clip-path="url(#p73ea4de47e)" style="fill: none; stroke: #000000; stroke-width: 1.5; stroke-linecap: square"/>
   </g>
   <g id="line2d_58">
    <path d="M 107.249385 379.617387 
L 114.438967 376.050006 
L 120.517707 372.509011 
L 125.783372 368.995138 
L 130.428033 365.509096 
L 134.582834 362.051558 
L 138.341317 358.62317 
L 141.772548 355.224544 
L 144.928979 351.856258 
L 147.851381 348.518864 
L 150.572076 345.212878 
L 155.507818 338.697051 
L 159.893949 332.312302 
L 163.840698 326.061676 
L 167.428134 319.94774 
L 170.716258 313.972609 
L 175.185338 305.273704 
L 179.199108 296.894644 
L 182.841824 288.837317 
L 187.22798 278.594547 
L 192.102668 266.58821 
L 198.050338 251.232047 
L 209.591716 220.488518 
L 215.586454 204.953716 
L 219.892714 194.396023 
L 223.361752 186.416749 
L 226.550146 179.586914 
L 229.499924 173.754722 
L 232.244328 168.783716 
L 234.810105 164.552868 
L 237.510126 160.546162 
L 240.03707 157.211594 
L 242.411796 154.438324 
L 244.892798 151.901984 
L 247.226906 149.836713 
L 249.644288 148.004951 
L 252.122691 146.42577 
L 254.642733 145.100008 
L 257.187805 144.014201 
L 259.908534 143.095755 
L 262.913048 142.323593 
L 266.268134 141.699025 
L 270.254854 141.195813 
L 275.346481 140.794865 
L 283.360776 140.418559 
L 306.084217 139.422553 
L 321.869391 138.460199 
L 339.953277 137.12842 
L 360.879854 135.35988 
L 378.986792 133.622108 
L 392.046445 132.155199 
L 402.667421 130.743349 
L 412.055816 129.2741 
L 420.72834 127.693969 
L 428.956062 125.970236 
L 436.921433 124.074924 
L 444.805999 121.969911 
L 452.850587 119.59014 
L 461.522344 116.787841 
L 472.485609 112.993705 
L 489.322238 107.163695 
L 496.377181 104.979171 
L 497.793115 104.573578 
L 497.793115 104.573578 
" clip-path="url(#p73ea4de47e)" style="fill: none; stroke-dasharray: 9.6,2.4,1.5,2.4; stroke-dashoffset: 0; stroke: #000000; stroke-width: 1.5"/>
   </g>
   <g id="line2d_59">
    <path d="M 107.249385 379.748306 
L 114.438967 376.239401 
L 120.517707 372.7679 
L 125.783372 369.334611 
L 130.428033 365.940286 
L 134.582834 362.585632 
L 138.341317 359.271299 
L 141.772548 355.997889 
L 144.928979 352.765954 
L 147.851381 349.575996 
L 153.117117 343.323773 
L 157.761833 337.24427 
L 161.916678 331.339793 
L 165.675196 325.611938 
L 169.106457 320.061624 
L 173.751191 312.069507 
L 177.906051 304.475867 
L 182.841824 294.963307 
L 188.252317 284.032673 
L 196.440531 266.902481 
L 204.577371 249.970481 
L 209.591716 240.046367 
L 213.510455 232.770061 
L 217.074738 226.625514 
L 220.343403 221.453826 
L 223.361752 217.112319 
L 226.165412 213.475064 
L 228.782906 210.432383 
L 231.237425 207.889747 
L 233.867393 205.49309 
L 236.332877 203.543097 
L 238.933924 201.779876 
L 241.373975 200.380244 
L 243.919047 199.158693 
L 246.771006 198.045747 
L 249.856876 197.101383 
L 253.111087 196.343492 
L 257.011362 195.67899 
L 261.832571 195.103477 
L 269.360019 194.464762 
L 282.996479 193.305105 
L 291.594326 192.328663 
L 300.335081 191.109542 
L 309.824239 189.556533 
L 320.7614 187.533604 
L 335.910947 184.482807 
L 359.484238 179.745885 
L 392.538745 173.292817 
L 400.07597 171.4856 
L 406.811307 169.644453 
L 413.103005 167.695581 
L 419.120614 165.599798 
L 424.967753 163.328358 
L 430.721096 160.854662 
L 436.453466 158.147248 
L 442.257096 155.158756 
L 448.265243 151.812058 
L 454.722118 147.955765 
L 462.27196 143.176317 
L 484.742122 128.761177 
L 489.8915 125.847785 
L 494.436462 123.527166 
L 497.793115 121.989385 
L 497.793115 121.989385 
" clip-path="url(#p73ea4de47e)" style="fill: none; stroke-dasharray: 1.5,2.475; stroke-dashoffset: 0; stroke: #000000; stroke-width: 1.5"/>
   </g>
   <g id="line2d_60">
    <path d="M 107.249385 380.013171 
L 114.438967 376.620488 
L 120.517707 373.28596 
L 125.783372 370.010153 
L 130.428033 366.793539 
L 134.582834 363.636495 
L 138.341317 360.539311 
L 141.772548 357.502185 
L 144.928979 354.525235 
L 150.572076 348.751923 
L 155.507818 343.218743 
L 159.893949 337.923933 
L 163.840698 332.864709 
L 169.106457 325.709312 
L 175.185338 316.952567 
L 182.841824 305.401291 
L 194.762201 287.316367 
L 199.597 280.389456 
L 203.903255 274.619381 
L 207.785223 269.83353 
L 211.319066 265.877516 
L 214.562114 262.616045 
L 217.558608 259.932397 
L 220.343403 257.727089 
L 223.361752 255.647528 
L 226.165412 253.995066 
L 229.143044 252.516206 
L 232.244328 251.251215 
L 235.426288 250.20929 
L 238.933924 249.311475 
L 242.920641 248.53844 
L 247.901024 247.820663 
L 257.712446 246.706263 
L 265.276898 245.728425 
L 271.25326 244.732037 
L 276.764765 243.587668 
L 282.070733 242.259443 
L 287.324827 240.714677 
L 292.611122 238.927308 
L 298.028995 236.858029 
L 303.668004 234.464139 
L 309.777872 231.624557 
L 316.851559 228.08169 
L 327.31404 222.55813 
L 338.636461 216.648951 
L 345.313402 213.419006 
L 351.200759 210.815466 
L 356.874218 208.549789 
L 362.72764 206.454558 
L 369.368497 204.321749 
L 379.88299 201.219117 
L 389.451417 198.304983 
L 395.780903 196.143661 
L 401.338404 194.013244 
L 406.513083 191.792794 
L 411.458278 189.429512 
L 416.252992 186.891848 
L 420.947617 184.155412 
L 425.587774 181.192783 
L 430.218871 177.970982 
L 434.894991 174.445053 
L 439.687182 170.550258 
L 444.71066 166.176625 
L 450.187831 161.105922 
L 456.745161 154.716491 
L 474.331122 137.40534 
L 478.8466 133.386909 
L 482.758854 130.196097 
L 486.325157 127.5691 
L 489.678444 125.371217 
L 492.90384 123.520087 
L 496.068597 121.958235 
L 497.793115 121.211878 
L 497.793115 121.211878 
" clip-path="url(#p73ea4de47e)" style="fill: none; stroke-dasharray: 5.55,2.4; stroke-dashoffset: 0; stroke: #000000; stroke-width: 1.5"/>
   </g>
   <g id="line2d_61">
    <path d="M 107.249385 379.515141 
L 114.438967 375.901623 
L 120.517707 372.305529 
L 125.783372 368.727451 
L 130.428033 365.167962 
L 134.582834 361.627617 
L 138.341317 358.106954 
L 141.772548 354.606491 
L 144.928979 351.126725 
L 147.851381 347.668134 
L 150.572076 344.231183 
L 155.507818 337.423947 
L 159.893949 330.70834 
L 163.840698 324.087393 
L 167.428134 317.563849 
L 170.716258 311.140172 
L 173.751191 304.818552 
L 177.906051 295.531611 
L 181.664581 286.483986 
L 185.095852 277.679866 
L 189.250719 266.324915 
L 193.009255 255.412381 
L 197.253648 242.395399 
L 201.808878 227.684213 
L 207.164189 209.582538 
L 215.077609 181.868499 
L 223.774687 151.535537 
L 228.419448 136.114706 
L 232.244328 124.147 
L 235.730806 113.980363 
L 238.653247 106.095859 
L 241.373975 99.333206 
L 243.919047 93.543869 
L 246.541064 88.142689 
L 248.999561 83.605863 
L 251.313741 79.800408 
L 253.499611 76.612186 
L 255.753649 73.723954 
L 257.885787 71.347718 
L 260.072505 69.248202 
L 262.299263 67.435461 
L 264.553301 65.904757 
L 266.823565 64.639797 
L 269.230512 63.564459 
L 271.743141 62.691415 
L 274.44764 61.987535 
L 277.507841 61.424852 
L 281.122732 60.997408 
L 285.56442 60.706932 
L 291.814429 60.538422 
L 303.991686 60.479055 
L 457.784361 60.476656 
L 497.793115 60.476656 
L 497.793115 60.476656 
" clip-path="url(#p73ea4de47e)" style="fill: none; stroke-dasharray: 4.5,1.5,1.5,1.5,1.5,1.5; stroke-dashoffset: 0; stroke: #000000; stroke-width: 1.5"/>
   </g>
   <g id="patch_3">
    <path d="M 43.78125 454.967219 
L 43.78125 10.999219 
" style="fill: none; stroke: #000000; stroke-width: 0.8; stroke-linejoin: miter; stroke-linecap: square"/>
   </g>
   <g id="patch_4">
    <path d="M 561.26125 454.967219 
L 561.26125 10.999219 
" style="fill: none; stroke: #000000; stroke-width: 0.8; stroke-linejoin: miter; stroke-linecap: square"/>
   </g>
   <g id="patch_5">
    <path d="M 43.78125 454.967219 
L 561.26125 454.967219 
" style="fill: none; stroke: #000000; stroke-width: 0.8; stroke-linejoin: miter; stroke-linecap: square"/>
   </g>
   <g id="patch_6">
    <path d="M 43.78125 10.999219 
L 561.26125 10.999219 
" style="fill: none; stroke: #000000; stroke-width: 0.8; stroke-linejoin: miter; stroke-linecap: square"/>
   </g>
   <g id="text_15">
    <!-- O -->
    <g transform="translate(103.313448 369.608541) scale(0.1 -0.1)">
     <defs>
      <path id="DejaVuSans-4f" d="M 2522 4238 
Q 1834 4238 1429 3725 
Q 1025 3213 1025 2328 
Q 1025 1447 1429 934 
Q 1834 422 2522 422 
Q 3209 422 3611 934 
Q 4013 1447 4013 2328 
Q 4013 3213 3611 3725 
Q 3209 4238 2522 4238 
z
M 2522 4750 
Q 3503 4750 4090 4092 
Q 4678 3434 4678 2328 
Q 4678 1225 4090 567 
Q 3503 -91 2522 -91 
Q 1538 -91 948 565 
Q 359 1222 359 2328 
Q 359 3434 948 4092 
Q 1538 4750 2522 4750 
z
" transform="scale(0.015625)"/>
     </defs>
     <use xlink:href="#DejaVuSans-4f"/>
    </g>
   </g>
   <g id="text_16">
    <!-- J -->
    <g transform="translate(240.936796 274.061929) scale(0.1 -0.1)">
     <defs>
      <path id="DejaVuSans-4a" d="M 628 4666 
L 1259 4666 
L 1259 325 
Q 1259 -519 939 -900 
Q 619 -1281 -91 -1281 
L -331 -1281 
L -331 -750 
L -134 -750 
Q 284 -750 456 -515 
Q 628 -281 628 325 
L 628 4666 
z
" transform="scale(0.015625)"/>
     </defs>
     <use xlink:href="#DejaVuSans-4a"/>
    </g>
   </g>
   <g id="text_17">
    <!-- I -->
    <g transform="translate(373.831774 192.746234) scale(0.1 -0.1)">
     <defs>
      <path id="DejaVuSans-49" d="M 628 4666 
L 1259 4666 
L 1259 0 
L 628 0 
L 628 4666 
z
" transform="scale(0.015625)"/>
     </defs>
     <use xlink:href="#DejaVuSans-49"/>
    </g>
   </g>
   <g id="text_18">
    <!-- P -->
    <g transform="translate(494.778271 100.276543) scale(0.1 -0.1)">
     <defs>
      <path id="DejaVuSans-50" d="M 1259 4147 
L 1259 2394 
L 2053 2394 
Q 2494 2394 2734 2622 
Q 2975 2850 2975 3272 
Q 2975 3691 2734 3919 
Q 2494 4147 2053 4147 
L 1259 4147 
z
M 628 4666 
L 2053 4666 
Q 2838 4666 3239 4311 
Q 3641 3956 3641 3272 
Q 3641 2581 3239 2228 
Q 2838 1875 2053 1875 
L 1259 1875 
L 1259 0 
L 628 0 
L 628 4666 
z
" transform="scale(0.015625)"/>
     </defs>
     <use xlink:href="#DejaVuSans-50"/>
    </g>
   </g>
   <g id="axes_2">
    <g id="patch_7">
     <path d="M 354.26925 410.570419 
L 535.38725 410.570419 
L 535.38725 255.181619 
L 354.26925 255.181619 
z
" style="fill: #ffffff"/>
    </g>
    <g id="matplotlib.axis_3">
     <g id="xtick_51">
      <g id="line2d_62">
       <g>
        <use xlink:href="#m47e8f51c48" x="369.362417" y="410.570419" style="stroke: #000000; stroke-width: 0.8"/>
       </g>
      </g>
      <g id="text_19">
       <!-- 0 -->
       <g transform="translate(366.181167 425.168856) scale(0.1 -0.1)">
        <use xlink:href="#DejaVuSans-30"/>
       </g>
      </g>
     </g>
     <g id="xtick_52">
      <g id="line2d_63">
       <g>
        <use xlink:href="#m47e8f51c48" x="399.54875" y="410.570419" style="stroke: #000000; stroke-width: 0.8"/>
       </g>
      </g>
      <g id="text_20">
       <!-- 20 -->
       <g transform="translate(393.18625 425.168856) scale(0.1 -0.1)">
        <use xlink:href="#DejaVuSans-32"/>
        <use xlink:href="#DejaVuSans-30" transform="translate(63.623047 0)"/>
       </g>
      </g>
     </g>
     <g id="xtick_53">
      <g id="line2d_64">
       <g>
        <use xlink:href="#m47e8f51c48" x="429.735083" y="410.570419" style="stroke: #000000; stroke-width: 0.8"/>
       </g>
      </g>
      <g id="text_21">
       <!-- 40 -->
       <g transform="translate(423.372583 425.168856) scale(0.1 -0.1)">
        <use xlink:href="#DejaVuSans-34"/>
        <use xlink:href="#DejaVuSans-30" transform="translate(63.623047 0)"/>
       </g>
      </g>
     </g>
     <g id="xtick_54">
      <g id="line2d_65">
       <g>
        <use xlink:href="#m47e8f51c48" x="459.921417" y="410.570419" style="stroke: #000000; stroke-width: 0.8"/>
       </g>
      </g>
      <g id="text_22">
       <!-- 60 -->
       <g transform="translate(453.558917 425.168856) scale(0.1 -0.1)">
        <use xlink:href="#DejaVuSans-36"/>
        <use xlink:href="#DejaVuSans-30" transform="translate(63.623047 0)"/>
       </g>
      </g>
     </g>
     <g id="xtick_55">
      <g id="line2d_66">
       <g>
        <use xlink:href="#m47e8f51c48" x="490.10775" y="410.570419" style="stroke: #000000; stroke-width: 0.8"/>
       </g>
      </g>
      <g id="text_23">
       <!-- 80 -->
       <g transform="translate(483.74525 425.168856) scale(0.1 -0.1)">
        <use xlink:href="#DejaVuSans-38"/>
        <use xlink:href="#DejaVuSans-30" transform="translate(63.623047 0)"/>
       </g>
      </g>
     </g>
     <g id="xtick_56">
      <g id="line2d_67">
       <g>
        <use xlink:href="#m47e8f51c48" x="520.294083" y="410.570419" style="stroke: #000000; stroke-width: 0.8"/>
       </g>
      </g>
      <g id="text_24">
       <!-- 100 -->
       <g transform="translate(510.750333 425.168856) scale(0.1 -0.1)">
        <use xlink:href="#DejaVuSans-31"/>
        <use xlink:href="#DejaVuSans-30" transform="translate(63.623047 0)"/>
        <use xlink:href="#DejaVuSans-30" transform="translate(127.246094 0)"/>
       </g>
      </g>
     </g>
     <g id="text_25">
      <!-- decrease of the rate constants [%] -->
      <g transform="translate(357.944656 438.846981) scale(0.1 -0.1)">
       <defs>
        <path id="DejaVuSans-64" d="M 2906 2969 
L 2906 4863 
L 3481 4863 
L 3481 0 
L 2906 0 
L 2906 525 
Q 2725 213 2448 61 
Q 2172 -91 1784 -91 
Q 1150 -91 751 415 
Q 353 922 353 1747 
Q 353 2572 751 3078 
Q 1150 3584 1784 3584 
Q 2172 3584 2448 3432 
Q 2725 3281 2906 2969 
z
M 947 1747 
Q 947 1113 1208 752 
Q 1469 391 1925 391 
Q 2381 391 2643 752 
Q 2906 1113 2906 1747 
Q 2906 2381 2643 2742 
Q 2381 3103 1925 3103 
Q 1469 3103 1208 2742 
Q 947 2381 947 1747 
z
" transform="scale(0.015625)"/>
        <path id="DejaVuSans-61" d="M 2194 1759 
Q 1497 1759 1228 1600 
Q 959 1441 959 1056 
Q 959 750 1161 570 
Q 1363 391 1709 391 
Q 2188 391 2477 730 
Q 2766 1069 2766 1631 
L 2766 1759 
L 2194 1759 
z
M 3341 1997 
L 3341 0 
L 2766 0 
L 2766 531 
Q 2569 213 2275 61 
Q 1981 -91 1556 -91 
Q 1019 -91 701 211 
Q 384 513 384 1019 
Q 384 1609 779 1909 
Q 1175 2209 1959 2209 
L 2766 2209 
L 2766 2266 
Q 2766 2663 2505 2880 
Q 2244 3097 1772 3097 
Q 1472 3097 1187 3025 
Q 903 2953 641 2809 
L 641 3341 
Q 956 3463 1253 3523 
Q 1550 3584 1831 3584 
Q 2591 3584 2966 3190 
Q 3341 2797 3341 1997 
z
" transform="scale(0.015625)"/>
        <path id="DejaVuSans-68" d="M 3513 2113 
L 3513 0 
L 2938 0 
L 2938 2094 
Q 2938 2591 2744 2837 
Q 2550 3084 2163 3084 
Q 1697 3084 1428 2787 
Q 1159 2491 1159 1978 
L 1159 0 
L 581 0 
L 581 4863 
L 1159 4863 
L 1159 2956 
Q 1366 3272 1645 3428 
Q 1925 3584 2291 3584 
Q 2894 3584 3203 3211 
Q 3513 2838 3513 2113 
z
" transform="scale(0.015625)"/>
        <path id="DejaVuSans-25" d="M 4653 2053 
Q 4381 2053 4226 1822 
Q 4072 1591 4072 1178 
Q 4072 772 4226 539 
Q 4381 306 4653 306 
Q 4919 306 5073 539 
Q 5228 772 5228 1178 
Q 5228 1588 5073 1820 
Q 4919 2053 4653 2053 
z
M 4653 2450 
Q 5147 2450 5437 2106 
Q 5728 1763 5728 1178 
Q 5728 594 5436 251 
Q 5144 -91 4653 -91 
Q 4153 -91 3862 251 
Q 3572 594 3572 1178 
Q 3572 1766 3864 2108 
Q 4156 2450 4653 2450 
z
M 1428 4353 
Q 1159 4353 1004 4120 
Q 850 3888 850 3481 
Q 850 3069 1003 2837 
Q 1156 2606 1428 2606 
Q 1700 2606 1854 2837 
Q 2009 3069 2009 3481 
Q 2009 3884 1853 4118 
Q 1697 4353 1428 4353 
z
M 4250 4750 
L 4750 4750 
L 1831 -91 
L 1331 -91 
L 4250 4750 
z
M 1428 4750 
Q 1922 4750 2215 4408 
Q 2509 4066 2509 3481 
Q 2509 2891 2217 2550 
Q 1925 2209 1428 2209 
Q 931 2209 642 2551 
Q 353 2894 353 3481 
Q 353 4063 643 4406 
Q 934 4750 1428 4750 
z
" transform="scale(0.015625)"/>
       </defs>
       <use xlink:href="#DejaVuSans-64"/>
       <use xlink:href="#DejaVuSans-65" transform="translate(63.476562 0)"/>
       <use xlink:href="#DejaVuSans-63" transform="translate(125 0)"/>
       <use xlink:href="#DejaVuSans-72" transform="translate(179.980469 0)"/>
       <use xlink:href="#DejaVuSans-65" transform="translate(218.84375 0)"/>
       <use xlink:href="#DejaVuSans-61" transform="translate(280.367188 0)"/>
       <use xlink:href="#DejaVuSans-73" transform="translate(341.646484 0)"/>
       <use xlink:href="#DejaVuSans-65" transform="translate(393.746094 0)"/>
       <use xlink:href="#DejaVuSans-20" transform="translate(455.269531 0)"/>
       <use xlink:href="#DejaVuSans-6f" transform="translate(487.056641 0)"/>
       <use xlink:href="#DejaVuSans-66" transform="translate(548.238281 0)"/>
       <use xlink:href="#DejaVuSans-20" transform="translate(583.443359 0)"/>
       <use xlink:href="#DejaVuSans-74" transform="translate(615.230469 0)"/>
       <use xlink:href="#DejaVuSans-68" transform="translate(654.439453 0)"/>
       <use xlink:href="#DejaVuSans-65" transform="translate(717.818359 0)"/>
       <use xlink:href="#DejaVuSans-20" transform="translate(779.341797 0)"/>
       <use xlink:href="#DejaVuSans-72" transform="translate(811.128906 0)"/>
       <use xlink:href="#DejaVuSans-61" transform="translate(852.242188 0)"/>
       <use xlink:href="#DejaVuSans-74" transform="translate(913.521484 0)"/>
       <use xlink:href="#DejaVuSans-65" transform="translate(952.730469 0)"/>
       <use xlink:href="#DejaVuSans-20" transform="translate(1014.253906 0)"/>
       <use xlink:href="#DejaVuSans-63" transform="translate(1046.041016 0)"/>
       <use xlink:href="#DejaVuSans-6f" transform="translate(1101.021484 0)"/>
       <use xlink:href="#DejaVuSans-6e" transform="translate(1162.203125 0)"/>
       <use xlink:href="#DejaVuSans-73" transform="translate(1225.582031 0)"/>
       <use xlink:href="#DejaVuSans-74" transform="translate(1277.681641 0)"/>
       <use xlink:href="#DejaVuSans-61" transform="translate(1316.890625 0)"/>
       <use xlink:href="#DejaVuSans-6e" transform="translate(1378.169922 0)"/>
       <use xlink:href="#DejaVuSans-74" transform="translate(1441.548828 0)"/>
       <use xlink:href="#DejaVuSans-73" transform="translate(1480.757812 0)"/>
       <use xlink:href="#DejaVuSans-20" transform="translate(1532.857422 0)"/>
       <use xlink:href="#DejaVuSans-5b" transform="translate(1564.644531 0)"/>
       <use xlink:href="#DejaVuSans-25" transform="translate(1603.658203 0)"/>
       <use xlink:href="#DejaVuSans-5d" transform="translate(1698.677734 0)"/>
      </g>
     </g>
    </g>
    <g id="matplotlib.axis_4">
     <g id="ytick_7">
      <g id="line2d_68">
       <g>
        <use xlink:href="#md3f217b3a6" x="354.26925" y="391.146819" style="stroke: #000000; stroke-width: 0.8"/>
       </g>
      </g>
      <g id="text_26">
       <!-- 0.4 -->
       <g transform="translate(331.366125 394.946037) scale(0.1 -0.1)">
        <use xlink:href="#DejaVuSans-30"/>
        <use xlink:href="#DejaVuSans-2e" transform="translate(63.623047 0)"/>
        <use xlink:href="#DejaVuSans-34" transform="translate(95.410156 0)"/>
       </g>
      </g>
     </g>
     <g id="ytick_8">
      <g id="line2d_69">
       <g>
        <use xlink:href="#md3f217b3a6" x="354.26925" y="352.299619" style="stroke: #000000; stroke-width: 0.8"/>
       </g>
      </g>
      <g id="text_27">
       <!-- 0.6 -->
       <g transform="translate(331.366125 356.098838) scale(0.1 -0.1)">
        <use xlink:href="#DejaVuSans-30"/>
        <use xlink:href="#DejaVuSans-2e" transform="translate(63.623047 0)"/>
        <use xlink:href="#DejaVuSans-36" transform="translate(95.410156 0)"/>
       </g>
      </g>
     </g>
     <g id="ytick_9">
      <g id="line2d_70">
       <g>
        <use xlink:href="#md3f217b3a6" x="354.26925" y="313.452419" style="stroke: #000000; stroke-width: 0.8"/>
       </g>
      </g>
      <g id="text_28">
       <!-- 0.8 -->
       <g transform="translate(331.366125 317.251638) scale(0.1 -0.1)">
        <use xlink:href="#DejaVuSans-30"/>
        <use xlink:href="#DejaVuSans-2e" transform="translate(63.623047 0)"/>
        <use xlink:href="#DejaVuSans-38" transform="translate(95.410156 0)"/>
       </g>
      </g>
     </g>
     <g id="ytick_10">
      <g id="line2d_71">
       <g>
        <use xlink:href="#md3f217b3a6" x="354.26925" y="274.605219" style="stroke: #000000; stroke-width: 0.8"/>
       </g>
      </g>
      <g id="text_29">
       <!-- 1.0 -->
       <g transform="translate(331.366125 278.404438) scale(0.1 -0.1)">
        <use xlink:href="#DejaVuSans-31"/>
        <use xlink:href="#DejaVuSans-2e" transform="translate(63.623047 0)"/>
        <use xlink:href="#DejaVuSans-30" transform="translate(95.410156 0)"/>
       </g>
      </g>
     </g>
     <g id="text_30">
      <!-- $\mathrm{rF_J}$, $\mathrm{rF_I}$ -->
      <g transform="translate(324.266125 348.376019) rotate(-90) scale(0.1 -0.1)">
       <defs>
        <path id="DejaVuSans-46" d="M 628 4666 
L 3309 4666 
L 3309 4134 
L 1259 4134 
L 1259 2759 
L 3109 2759 
L 3109 2228 
L 1259 2228 
L 1259 0 
L 628 0 
L 628 4666 
z
" transform="scale(0.015625)"/>
        <path id="DejaVuSans-2c" d="M 750 794 
L 1409 794 
L 1409 256 
L 897 -744 
L 494 -744 
L 750 256 
L 750 794 
z
" transform="scale(0.015625)"/>
       </defs>
       <use xlink:href="#DejaVuSans-72" transform="translate(0 0.09375)"/>
       <use xlink:href="#DejaVuSans-46" transform="translate(41.113281 0.09375)"/>
       <use xlink:href="#DejaVuSans-4a" transform="translate(99.589844 -16.3125) scale(0.7)"/>
       <use xlink:href="#DejaVuSans-2c" transform="translate(122.96875 0.09375)"/>
       <use xlink:href="#DejaVuSans-20" transform="translate(154.755859 0.09375)"/>
       <use xlink:href="#DejaVuSans-72" transform="translate(186.542969 0.09375)"/>
       <use xlink:href="#DejaVuSans-46" transform="translate(227.65625 0.09375)"/>
       <use xlink:href="#DejaVuSans-49" transform="translate(286.132812 -16.3125) scale(0.7)"/>
      </g>
     </g>
    </g>
    <g id="line2d_72">
     <path d="M 369.362417 399.935215 
L 444.82825 370.231705 
L 485.5798 333.280781 
L 505.200917 309.819713 
L 520.294083 296.785495 
" clip-path="url(#p627b518804)" style="fill: none; stroke: #000000; stroke-width: 1.5; stroke-linecap: square"/>
     <defs>
      <path id="m20b15b61ee" d="M -1.75 1.75 
L 1.75 1.75 
L 1.75 -1.75 
L -1.75 -1.75 
z
" style="stroke: #000000; stroke-linejoin: miter"/>
     </defs>
     <g clip-path="url(#p627b518804)">
      <use xlink:href="#m20b15b61ee" x="369.362417" y="399.935215" style="stroke: #000000; stroke-linejoin: miter"/>
      <use xlink:href="#m20b15b61ee" x="444.82825" y="370.231705" style="stroke: #000000; stroke-linejoin: miter"/>
      <use xlink:href="#m20b15b61ee" x="485.5798" y="333.280781" style="stroke: #000000; stroke-linejoin: miter"/>
      <use xlink:href="#m20b15b61ee" x="505.200917" y="309.819713" style="stroke: #000000; stroke-linejoin: miter"/>
      <use xlink:href="#m20b15b61ee" x="520.294083" y="296.785495" style="stroke: #000000; stroke-linejoin: miter"/>
     </g>
    </g>
    <g id="line2d_73">
     <path d="M 369.362417 341.292219 
L 444.82825 335.653571 
L 485.5798 315.888863 
L 505.200917 295.384027 
L 520.294083 274.605219 
" clip-path="url(#p627b518804)" style="fill: none; stroke: #000000; stroke-width: 1.5; stroke-linecap: square"/>
     <defs>
      <path id="m0b144b1093" d="M 0 1.75 
C 0.464105 1.75 0.909265 1.565609 1.237437 1.237437 
C 1.565609 0.909265 1.75 0.464105 1.75 0 
C 1.75 -0.464105 1.565609 -0.909265 1.237437 -1.237437 
C 0.909265 -1.565609 0.464105 -1.75 0 -1.75 
C -0.464105 -1.75 -0.909265 -1.565609 -1.237437 -1.237437 
C -1.565609 -0.909265 -1.75 -0.464105 -1.75 0 
C -1.75 0.464105 -1.565609 0.909265 -1.237437 1.237437 
C -0.909265 1.565609 -0.464105 1.75 0 1.75 
z
" style="stroke: #000000"/>
     </defs>
     <g clip-path="url(#p627b518804)">
      <use xlink:href="#m0b144b1093" x="369.362417" y="341.292219" style="stroke: #000000"/>
      <use xlink:href="#m0b144b1093" x="444.82825" y="335.653571" style="stroke: #000000"/>
      <use xlink:href="#m0b144b1093" x="485.5798" y="315.888863" style="stroke: #000000"/>
      <use xlink:href="#m0b144b1093" x="505.200917" y="295.384027" style="stroke: #000000"/>
      <use xlink:href="#m0b144b1093" x="520.294083" y="274.605219" style="stroke: #000000"/>
     </g>
    </g>
    <g id="patch_8">
     <path d="M 354.26925 410.570419 
L 354.26925 255.181619 
" style="fill: none; stroke: #000000; stroke-width: 0.8; stroke-linejoin: miter; stroke-linecap: square"/>
    </g>
    <g id="patch_9">
     <path d="M 535.38725 410.570419 
L 535.38725 255.181619 
" style="fill: none; stroke: #000000; stroke-width: 0.8; stroke-linejoin: miter; stroke-linecap: square"/>
    </g>
    <g id="patch_10">
     <path d="M 354.26925 410.570419 
L 535.38725 410.570419 
" style="fill: none; stroke: #000000; stroke-width: 0.8; stroke-linejoin: miter; stroke-linecap: square"/>
    </g>
    <g id="patch_11">
     <path d="M 354.26925 255.181619 
L 535.38725 255.181619 
" style="fill: none; stroke: #000000; stroke-width: 0.8; stroke-linejoin: miter; stroke-linecap: square"/>
    </g>
    <g id="legend_1">
     <g id="line2d_74">
      <path d="M 363.26925 268.280056 
L 373.26925 268.280056 
L 383.26925 268.280056 
" style="fill: none; stroke: #000000; stroke-width: 1.5; stroke-linecap: square"/>
      <g>
       <use xlink:href="#m20b15b61ee" x="373.26925" y="268.280056" style="stroke: #000000; stroke-linejoin: miter"/>
      </g>
     </g>
     <g id="text_31">
      <!-- rFJ -->
      <g transform="translate(391.26925 271.780056) scale(0.1 -0.1)">
       <use xlink:href="#DejaVuSans-72"/>
       <use xlink:href="#DejaVuSans-46" transform="translate(41.113281 0)"/>
       <use xlink:href="#DejaVuSans-4a" transform="translate(98.632812 0)"/>
      </g>
     </g>
     <g id="line2d_75">
      <path d="M 363.26925 282.958181 
L 373.26925 282.958181 
L 383.26925 282.958181 
" style="fill: none; stroke: #000000; stroke-width: 1.5; stroke-linecap: square"/>
      <g>
       <use xlink:href="#m0b144b1093" x="373.26925" y="282.958181" style="stroke: #000000"/>
      </g>
     </g>
     <g id="text_32">
      <!-- rFI -->
      <g transform="translate(391.26925 286.458181) scale(0.1 -0.1)">
       <use xlink:href="#DejaVuSans-72"/>
       <use xlink:href="#DejaVuSans-46" transform="translate(41.113281 0)"/>
       <use xlink:href="#DejaVuSans-49" transform="translate(98.632812 0)"/>
      </g>
     </g>
    </g>
   </g>
   <g id="legend_2">
    <g id="text_33">
     <!-- decrease of the rate constants [%] -->
     <g transform="translate(52.78125 27.597656) scale(0.1 -0.1)">
      <use xlink:href="#DejaVuSans-64"/>
      <use xlink:href="#DejaVuSans-65" transform="translate(63.476562 0)"/>
      <use xlink:href="#DejaVuSans-63" transform="translate(125 0)"/>
      <use xlink:href="#DejaVuSans-72" transform="translate(179.980469 0)"/>
      <use xlink:href="#DejaVuSans-65" transform="translate(218.84375 0)"/>
      <use xlink:href="#DejaVuSans-61" transform="translate(280.367188 0)"/>
      <use xlink:href="#DejaVuSans-73" transform="translate(341.646484 0)"/>
      <use xlink:href="#DejaVuSans-65" transform="translate(393.746094 0)"/>
      <use xlink:href="#DejaVuSans-20" transform="translate(455.269531 0)"/>
      <use xlink:href="#DejaVuSans-6f" transform="translate(487.056641 0)"/>
      <use xlink:href="#DejaVuSans-66" transform="translate(548.238281 0)"/>
      <use xlink:href="#DejaVuSans-20" transform="translate(583.443359 0)"/>
      <use xlink:href="#DejaVuSans-74" transform="translate(615.230469 0)"/>
      <use xlink:href="#DejaVuSans-68" transform="translate(654.439453 0)"/>
      <use xlink:href="#DejaVuSans-65" transform="translate(717.818359 0)"/>
      <use xlink:href="#DejaVuSans-20" transform="translate(779.341797 0)"/>
      <use xlink:href="#DejaVuSans-72" transform="translate(811.128906 0)"/>
      <use xlink:href="#DejaVuSans-61" transform="translate(852.242188 0)"/>
      <use xlink:href="#DejaVuSans-74" transform="translate(913.521484 0)"/>
      <use xlink:href="#DejaVuSans-65" transform="translate(952.730469 0)"/>
      <use xlink:href="#DejaVuSans-20" transform="translate(1014.253906 0)"/>
      <use xlink:href="#DejaVuSans-63" transform="translate(1046.041016 0)"/>
      <use xlink:href="#DejaVuSans-6f" transform="translate(1101.021484 0)"/>
      <use xlink:href="#DejaVuSans-6e" transform="translate(1162.203125 0)"/>
      <use xlink:href="#DejaVuSans-73" transform="translate(1225.582031 0)"/>
      <use xlink:href="#DejaVuSans-74" transform="translate(1277.681641 0)"/>
      <use xlink:href="#DejaVuSans-61" transform="translate(1316.890625 0)"/>
      <use xlink:href="#DejaVuSans-6e" transform="translate(1378.169922 0)"/>
      <use xlink:href="#DejaVuSans-74" transform="translate(1441.548828 0)"/>
      <use xlink:href="#DejaVuSans-73" transform="translate(1480.757812 0)"/>
      <use xlink:href="#DejaVuSans-20" transform="translate(1532.857422 0)"/>
      <use xlink:href="#DejaVuSans-5b" transform="translate(1564.644531 0)"/>
      <use xlink:href="#DejaVuSans-25" transform="translate(1603.658203 0)"/>
      <use xlink:href="#DejaVuSans-5d" transform="translate(1698.677734 0)"/>
     </g>
    </g>
    <g id="line2d_76">
     <path d="M 111.370313 38.775781 
L 121.370313 38.775781 
L 131.370313 38.775781 
" style="fill: none; stroke: #000000; stroke-width: 1.5; stroke-linecap: square"/>
    </g>
    <g id="text_34">
     <!-- 0% -->
     <g transform="translate(139.370313 42.275781) scale(0.1 -0.1)">
      <use xlink:href="#DejaVuSans-30"/>
      <use xlink:href="#DejaVuSans-25" transform="translate(63.623047 0)"/>
     </g>
    </g>
    <g id="line2d_77">
     <path d="M 111.370313 53.453906 
L 121.370313 53.453906 
L 131.370313 53.453906 
" style="fill: none; stroke-dasharray: 9.6,2.4,1.5,2.4; stroke-dashoffset: 0; stroke: #000000; stroke-width: 1.5"/>
    </g>
    <g id="text_35">
     <!-- 90% -->
     <g transform="translate(139.370313 56.953906) scale(0.1 -0.1)">
      <defs>
       <path id="DejaVuSans-39" d="M 703 97 
L 703 672 
Q 941 559 1184 500 
Q 1428 441 1663 441 
Q 2288 441 2617 861 
Q 2947 1281 2994 2138 
Q 2813 1869 2534 1725 
Q 2256 1581 1919 1581 
Q 1219 1581 811 2004 
Q 403 2428 403 3163 
Q 403 3881 828 4315 
Q 1253 4750 1959 4750 
Q 2769 4750 3195 4129 
Q 3622 3509 3622 2328 
Q 3622 1225 3098 567 
Q 2575 -91 1691 -91 
Q 1453 -91 1209 -44 
Q 966 3 703 97 
z
M 1959 2075 
Q 2384 2075 2632 2365 
Q 2881 2656 2881 3163 
Q 2881 3666 2632 3958 
Q 2384 4250 1959 4250 
Q 1534 4250 1286 3958 
Q 1038 3666 1038 3163 
Q 1038 2656 1286 2365 
Q 1534 2075 1959 2075 
z
" transform="scale(0.015625)"/>
      </defs>
      <use xlink:href="#DejaVuSans-39"/>
      <use xlink:href="#DejaVuSans-30" transform="translate(63.623047 0)"/>
      <use xlink:href="#DejaVuSans-25" transform="translate(127.246094 0)"/>
     </g>
    </g>
    <g id="line2d_78">
     <path d="M 111.370313 68.132031 
L 121.370313 68.132031 
L 131.370313 68.132031 
" style="fill: none; stroke-dasharray: 1.5,2.475; stroke-dashoffset: 0; stroke: #000000; stroke-width: 1.5"/>
    </g>
    <g id="text_36">
     <!-- 77% -->
     <g transform="translate(139.370313 71.632031) scale(0.1 -0.1)">
      <defs>
       <path id="DejaVuSans-37" d="M 525 4666 
L 3525 4666 
L 3525 4397 
L 1831 0 
L 1172 0 
L 2766 4134 
L 525 4134 
L 525 4666 
z
" transform="scale(0.015625)"/>
      </defs>
      <use xlink:href="#DejaVuSans-37"/>
      <use xlink:href="#DejaVuSans-37" transform="translate(63.623047 0)"/>
      <use xlink:href="#DejaVuSans-25" transform="translate(127.246094 0)"/>
     </g>
    </g>
    <g id="line2d_79">
     <path d="M 111.370313 82.810156 
L 121.370313 82.810156 
L 131.370313 82.810156 
" style="fill: none; stroke-dasharray: 5.55,2.4; stroke-dashoffset: 0; stroke: #000000; stroke-width: 1.5"/>
    </g>
    <g id="text_37">
     <!-- 50% -->
     <g transform="translate(139.370313 86.310156) scale(0.1 -0.1)">
      <use xlink:href="#DejaVuSans-35"/>
      <use xlink:href="#DejaVuSans-30" transform="translate(63.623047 0)"/>
      <use xlink:href="#DejaVuSans-25" transform="translate(127.246094 0)"/>
     </g>
    </g>
    <g id="line2d_80">
     <path d="M 111.370313 97.488281 
L 121.370313 97.488281 
L 131.370313 97.488281 
" style="fill: none; stroke-dasharray: 4.5,1.5,1.5,1.5,1.5,1.5; stroke-dashoffset: 0; stroke: #000000; stroke-width: 1.5"/>
    </g>
    <g id="text_38">
     <!-- 100% -->
     <g transform="translate(139.370313 100.988281) scale(0.1 -0.1)">
      <use xlink:href="#DejaVuSans-31"/>
      <use xlink:href="#DejaVuSans-30" transform="translate(63.623047 0)"/>
      <use xlink:href="#DejaVuSans-30" transform="translate(127.246094 0)"/>
      <use xlink:href="#DejaVuSans-25" transform="translate(190.869141 0)"/>
     </g>
    </g>
   </g>
  </g>
 </g>
 <defs>
  <clipPath id="p73ea4de47e">
   <rect x="43.78125" y="10.999219" width="517.48" height="443.968"/>
  </clipPath>
  <clipPath id="p627b518804">
   <rect x="354.26925" y="255.181619" width="181.118" height="155.3888"/>
  </clipPath>
 </defs>
</svg>
