<?xml version="1.0" encoding="utf-8" standalone="no"?>
<!DOCTYPE svg PUBLIC "-//W3C//DTD SVG 1.1//EN"
  "http://www.w3.org/Graphics/SVG/1.1/DTD/svg11.dtd">
<svg xmlns:xlink="http://www.w3.org/1999/xlink" width="568.46125pt" height="492.68425pt" viewBox="0 0 568.46125 492.68425" xmlns="http://www.w3.org/2000/svg" version="1.1">
 <metadata>
  <rdf:RDF xmlns:dc="http://purl.org/dc/elements/1.1/" xmlns:cc="http://creativecommons.org/ns#" xmlns:rdf="http://www.w3.org/1999/02/22-rdf-syntax-ns#">
   <cc:Work>
    <dc:type rdf:resource="http://purl.org/dc/dcmitype/StillImage"/>
    <dc:date>2026-06-26T14:45:08.128509</dc:date>
    <dc:format>image/svg+xml</dc:format>
    <dc:creator>
     <cc:Agent>
      <dc:title>Matplotlib v3.10.9, https://matplotlib.org/</dc:title>
     </cc:Agent>
    </dc:creator>
   </cc:Work>
  </rdf:RDF>
 </metadata>
 <defs>
  <style type="text/css">*{stroke-linejoin: round; stroke-linecap: butt}</style>
 </defs>
 <g id="figure_1">
  <g id="patch_1">
   <path d="M 0 492.68425 
L 568.46125 492.68425 
L 568.46125 0 
L 0 0 
z
" style="fill: #ffffff"/>
  </g>
  <g id="axes_1">
   <g id="patch_2">
    <path d="M 43.78125 455.128 
L 561.26125 455.128 
L 561.26125 7.2 
L 43.78125 7.2 
z
" style="fill: #ffffff"/>
   </g>
   <g id="matplotlib.axis_1">
    <g id="xtick_1">
     <g id="line2d_1">
      <defs>
       <path id="mf1ca00561a" d="M 0 0 
L 0 3.5 
" style="stroke: #000000; stroke-width: 0.8"/>
      </defs>
      <g>
       <use xlink:href="#mf1ca00561a" x="43.78125" y="455.128" style="stroke: #000000; stroke-width: 0.8"/>
      </g>
     </g>
     <g id="text_1">
      <!-- $\mathdefault{10^{-5}}$ -->
      <g transform="translate(32.03125 469.726437) scale(0.1 -0.1)">
       <defs>
        <path id="DejaVuSans-31" d="M 794 531 
L 1825 531 
L 1825 4091 
L 703 3866 
L 703 4441 
L 1819 4666 
L 2450 4666 
L 2450 531 
L 3481 531 
L 3481 0 
L 794 0 
L 794 531 
z
" transform="scale(0.015625)"/>
        <path id="DejaVuSans-30" d="M 2034 4250 
Q 1547 4250 1301 3770 
Q 1056 3291 1056 2328 
Q 1056 1369 1301 889 
Q 1547 409 2034 409 
Q 2525 409 2770 889 
Q 3016 1369 3016 2328 
Q 3016 3291 2770 3770 
Q 2525 4250 2034 4250 
z
M 2034 4750 
Q 2819 4750 3233 4129 
Q 3647 3509 3647 2328 
Q 3647 1150 3233 529 
Q 2819 -91 2034 -91 
Q 1250 -91 836 529 
Q 422 1150 422 2328 
Q 422 3509 836 4129 
Q 1250 4750 2034 4750 
z
" transform="scale(0.015625)"/>
        <path id="DejaVuSans-2212" d="M 678 2272 
L 4684 2272 
L 4684 1741 
L 678 1741 
L 678 2272 
z
" transform="scale(0.015625)"/>
        <path id="DejaVuSans-35" d="M 691 4666 
L 3169 4666 
L 3169 4134 
L 1269 4134 
L 1269 2991 
Q 1406 3038 1543 3061 
Q 1681 3084 1819 3084 
Q 2600 3084 3056 2656 
Q 3513 2228 3513 1497 
Q 3513 744 3044 326 
Q 2575 -91 1722 -91 
Q 1428 -91 1123 -41 
Q 819 9 494 109 
L 494 744 
Q 775 591 1075 516 
Q 1375 441 1709 441 
Q 2250 441 2565 725 
Q 2881 1009 2881 1497 
Q 2881 1984 2565 2268 
Q 2250 2553 1709 2553 
Q 1456 2553 1204 2497 
Q 953 2441 691 2322 
L 691 4666 
z
" transform="scale(0.015625)"/>
       </defs>
       <use xlink:href="#DejaVuSans-31" transform="translate(0 0.684375)"/>
       <use xlink:href="#DejaVuSans-30" transform="translate(63.623047 0.684375)"/>
       <use xlink:href="#DejaVuSans-2212" transform="translate(128.203125 38.965625) scale(0.7)"/>
       <use xlink:href="#DejaVuSans-35" transform="translate(186.855469 38.965625) scale(0.7)"/>
      </g>
     </g>
    </g>
    <g id="xtick_2">
     <g id="line2d_2">
      <g>
       <use xlink:href="#mf1ca00561a" x="134.583623" y="455.128" style="stroke: #000000; stroke-width: 0.8"/>
      </g>
     </g>
     <g id="text_2">
      <!-- $\mathdefault{10^{-4}}$ -->
      <g transform="translate(122.833623 469.726437) scale(0.1 -0.1)">
       <defs>
        <path id="DejaVuSans-34" d="M 2419 4116 
L 825 1625 
L 2419 1625 
L 2419 4116 
z
M 2253 4666 
L 3047 4666 
L 3047 1625 
L 3713 1625 
L 3713 1100 
L 3047 1100 
L 3047 0 
L 2419 0 
L 2419 1100 
L 313 1100 
L 313 1709 
L 2253 4666 
z
" transform="scale(0.015625)"/>
       </defs>
       <use xlink:href="#DejaVuSans-31" transform="translate(0 0.684375)"/>
       <use xlink:href="#DejaVuSans-30" transform="translate(63.623047 0.684375)"/>
       <use xlink:href="#DejaVuSans-2212" transform="translate(128.203125 38.965625) scale(0.7)"/>
       <use xlink:href="#DejaVuSans-34" transform="translate(186.855469 38.965625) scale(0.7)"/>
      </g>
     </g>
    </g>
    <g id="xtick_3">
     <g id="line2d_3">
      <g>
       <use xlink:href="#mf1ca00561a" x="225.385996" y="455.128" style="stroke: #000000; stroke-width: 0.8"/>
      </g>
     </g>
     <g id="text_3">
      <!-- $\mathdefault{10^{-3}}$ -->
      <g transform="translate(213.635996 469.726437) scale(0.1 -0.1)">
       <defs>
        <path id="DejaVuSans-33" d="M 2597 2516 
Q 3050 2419 3304 2112 
Q 3559 1806 3559 1356 
Q 3559 666 3084 287 
Q 2609 -91 1734 -91 
Q 1441 -91 1130 -33 
Q 819 25 488 141 
L 488 750 
Q 750 597 1062 519 
Q 1375 441 1716 441 
Q 2309 441 2620 675 
Q 2931 909 2931 1356 
Q 2931 1769 2642 2001 
Q 2353 2234 1838 2234 
L 1294 2234 
L 1294 2753 
L 1863 2753 
Q 2328 2753 2575 2939 
Q 2822 3125 2822 3475 
Q 2822 3834 2567 4026 
Q 2313 4219 1838 4219 
Q 1578 4219 1281 4162 
Q 984 4106 628 3988 
L 628 4550 
Q 988 4650 1302 4700 
Q 1616 4750 1894 4750 
Q 2613 4750 3031 4423 
Q 3450 4097 3450 3541 
Q 3450 3153 3228 2886 
Q 3006 2619 2597 2516 
z
" transform="scale(0.015625)"/>
       </defs>
       <use xlink:href="#DejaVuSans-31" transform="translate(0 0.765625)"/>
       <use xlink:href="#DejaVuSans-30" transform="translate(63.623047 0.765625)"/>
       <use xlink:href="#DejaVuSans-2212" transform="translate(128.203125 39.046875) scale(0.7)"/>
       <use xlink:href="#DejaVuSans-33" transform="translate(186.855469 39.046875) scale(0.7)"/>
      </g>
     </g>
    </g>
    <g id="xtick_4">
     <g id="line2d_4">
      <g>
       <use xlink:href="#mf1ca00561a" x="316.188369" y="455.128" style="stroke: #000000; stroke-width: 0.8"/>
      </g>
     </g>
     <g id="text_4">
      <!-- $\mathdefault{10^{-2}}$ -->
      <g transform="translate(304.438369 469.726437) scale(0.1 -0.1)">
       <defs>
        <path id="DejaVuSans-32" d="M 1228 531 
L 3431 531 
L 3431 0 
L 469 0 
L 469 531 
Q 828 903 1448 1529 
Q 2069 2156 2228 2338 
Q 2531 2678 2651 2914 
Q 2772 3150 2772 3378 
Q 2772 3750 2511 3984 
Q 2250 4219 1831 4219 
Q 1534 4219 1204 4116 
Q 875 4013 500 3803 
L 500 4441 
Q 881 4594 1212 4672 
Q 1544 4750 1819 4750 
Q 2544 4750 2975 4387 
Q 3406 4025 3406 3419 
Q 3406 3131 3298 2873 
Q 3191 2616 2906 2266 
Q 2828 2175 2409 1742 
Q 1991 1309 1228 531 
z
" transform="scale(0.015625)"/>
       </defs>
       <use xlink:href="#DejaVuSans-31" transform="translate(0 0.765625)"/>
       <use xlink:href="#DejaVuSans-30" transform="translate(63.623047 0.765625)"/>
       <use xlink:href="#DejaVuSans-2212" transform="translate(128.203125 39.046875) scale(0.7)"/>
       <use xlink:href="#DejaVuSans-32" transform="translate(186.855469 39.046875) scale(0.7)"/>
      </g>
     </g>
    </g>
    <g id="xtick_5">
     <g id="line2d_5">
      <g>
       <use xlink:href="#mf1ca00561a" x="406.990742" y="455.128" style="stroke: #000000; stroke-width: 0.8"/>
      </g>
     </g>
     <g id="text_5">
      <!-- $\mathdefault{10^{-1}}$ -->
      <g transform="translate(395.240742 469.726437) scale(0.1 -0.1)">
       <use xlink:href="#DejaVuSans-31" transform="translate(0 0.684375)"/>
       <use xlink:href="#DejaVuSans-30" transform="translate(63.623047 0.684375)"/>
       <use xlink:href="#DejaVuSans-2212" transform="translate(128.203125 38.965625) scale(0.7)"/>
       <use xlink:href="#DejaVuSans-31" transform="translate(186.855469 38.965625) scale(0.7)"/>
      </g>
     </g>
    </g>
    <g id="xtick_6">
     <g id="line2d_6">
      <g>
       <use xlink:href="#mf1ca00561a" x="497.793115" y="455.128" style="stroke: #000000; stroke-width: 0.8"/>
      </g>
     </g>
     <g id="text_6">
      <!-- $\mathdefault{10^{0}}$ -->
      <g transform="translate(488.993115 469.726437) scale(0.1 -0.1)">
       <use xlink:href="#DejaVuSans-31" transform="translate(0 0.765625)"/>
       <use xlink:href="#DejaVuSans-30" transform="translate(63.623047 0.765625)"/>
       <use xlink:href="#DejaVuSans-30" transform="translate(128.203125 39.046875) scale(0.7)"/>
      </g>
     </g>
    </g>
    <g id="xtick_7">
     <g id="line2d_7">
      <defs>
       <path id="mb83f4dc9f4" d="M 0 0 
L 0 2 
" style="stroke: #000000; stroke-width: 0.6"/>
      </defs>
      <g>
       <use xlink:href="#mb83f4dc9f4" x="71.115488" y="455.128" style="stroke: #000000; stroke-width: 0.6"/>
      </g>
     </g>
    </g>
    <g id="xtick_8">
     <g id="line2d_8">
      <g>
       <use xlink:href="#mb83f4dc9f4" x="87.104992" y="455.128" style="stroke: #000000; stroke-width: 0.6"/>
      </g>
     </g>
    </g>
    <g id="xtick_9">
     <g id="line2d_9">
      <g>
       <use xlink:href="#mb83f4dc9f4" x="98.449726" y="455.128" style="stroke: #000000; stroke-width: 0.6"/>
      </g>
     </g>
    </g>
    <g id="xtick_10">
     <g id="line2d_10">
      <g>
       <use xlink:href="#mb83f4dc9f4" x="107.249385" y="455.128" style="stroke: #000000; stroke-width: 0.6"/>
      </g>
     </g>
    </g>
    <g id="xtick_11">
     <g id="line2d_11">
      <g>
       <use xlink:href="#mb83f4dc9f4" x="114.43923" y="455.128" style="stroke: #000000; stroke-width: 0.6"/>
      </g>
     </g>
    </g>
    <g id="xtick_12">
     <g id="line2d_12">
      <g>
       <use xlink:href="#mb83f4dc9f4" x="120.518157" y="455.128" style="stroke: #000000; stroke-width: 0.6"/>
      </g>
     </g>
    </g>
    <g id="xtick_13">
     <g id="line2d_13">
      <g>
       <use xlink:href="#mb83f4dc9f4" x="125.783964" y="455.128" style="stroke: #000000; stroke-width: 0.6"/>
      </g>
     </g>
    </g>
    <g id="xtick_14">
     <g id="line2d_14">
      <g>
       <use xlink:href="#mb83f4dc9f4" x="130.428734" y="455.128" style="stroke: #000000; stroke-width: 0.6"/>
      </g>
     </g>
    </g>
    <g id="xtick_15">
     <g id="line2d_15">
      <g>
       <use xlink:href="#mb83f4dc9f4" x="161.917861" y="455.128" style="stroke: #000000; stroke-width: 0.6"/>
      </g>
     </g>
    </g>
    <g id="xtick_16">
     <g id="line2d_16">
      <g>
       <use xlink:href="#mb83f4dc9f4" x="177.907365" y="455.128" style="stroke: #000000; stroke-width: 0.6"/>
      </g>
     </g>
    </g>
    <g id="xtick_17">
     <g id="line2d_17">
      <g>
       <use xlink:href="#mb83f4dc9f4" x="189.252099" y="455.128" style="stroke: #000000; stroke-width: 0.6"/>
      </g>
     </g>
    </g>
    <g id="xtick_18">
     <g id="line2d_18">
      <g>
       <use xlink:href="#mb83f4dc9f4" x="198.051758" y="455.128" style="stroke: #000000; stroke-width: 0.6"/>
      </g>
     </g>
    </g>
    <g id="xtick_19">
     <g id="line2d_19">
      <g>
       <use xlink:href="#mb83f4dc9f4" x="205.241603" y="455.128" style="stroke: #000000; stroke-width: 0.6"/>
      </g>
     </g>
    </g>
    <g id="xtick_20">
     <g id="line2d_20">
      <g>
       <use xlink:href="#mb83f4dc9f4" x="211.32053" y="455.128" style="stroke: #000000; stroke-width: 0.6"/>
      </g>
     </g>
    </g>
    <g id="xtick_21">
     <g id="line2d_21">
      <g>
       <use xlink:href="#mb83f4dc9f4" x="216.586337" y="455.128" style="stroke: #000000; stroke-width: 0.6"/>
      </g>
     </g>
    </g>
    <g id="xtick_22">
     <g id="line2d_22">
      <g>
       <use xlink:href="#mb83f4dc9f4" x="221.231107" y="455.128" style="stroke: #000000; stroke-width: 0.6"/>
      </g>
     </g>
    </g>
    <g id="xtick_23">
     <g id="line2d_23">
      <g>
       <use xlink:href="#mb83f4dc9f4" x="252.720234" y="455.128" style="stroke: #000000; stroke-width: 0.6"/>
      </g>
     </g>
    </g>
    <g id="xtick_24">
     <g id="line2d_24">
      <g>
       <use xlink:href="#mb83f4dc9f4" x="268.709738" y="455.128" style="stroke: #000000; stroke-width: 0.6"/>
      </g>
     </g>
    </g>
    <g id="xtick_25">
     <g id="line2d_25">
      <g>
       <use xlink:href="#mb83f4dc9f4" x="280.054472" y="455.128" style="stroke: #000000; stroke-width: 0.6"/>
      </g>
     </g>
    </g>
    <g id="xtick_26">
     <g id="line2d_26">
      <g>
       <use xlink:href="#mb83f4dc9f4" x="288.854131" y="455.128" style="stroke: #000000; stroke-width: 0.6"/>
      </g>
     </g>
    </g>
    <g id="xtick_27">
     <g id="line2d_27">
      <g>
       <use xlink:href="#mb83f4dc9f4" x="296.043976" y="455.128" style="stroke: #000000; stroke-width: 0.6"/>
      </g>
     </g>
    </g>
    <g id="xtick_28">
     <g id="line2d_28">
      <g>
       <use xlink:href="#mb83f4dc9f4" x="302.122903" y="455.128" style="stroke: #000000; stroke-width: 0.6"/>
      </g>
     </g>
    </g>
    <g id="xtick_29">
     <g id="line2d_29">
      <g>
       <use xlink:href="#mb83f4dc9f4" x="307.38871" y="455.128" style="stroke: #000000; stroke-width: 0.6"/>
      </g>
     </g>
    </g>
    <g id="xtick_30">
     <g id="line2d_30">
      <g>
       <use xlink:href="#mb83f4dc9f4" x="312.03348" y="455.128" style="stroke: #000000; stroke-width: 0.6"/>
      </g>
     </g>
    </g>
    <g id="xtick_31">
     <g id="line2d_31">
      <g>
       <use xlink:href="#mb83f4dc9f4" x="343.522607" y="455.128" style="stroke: #000000; stroke-width: 0.6"/>
      </g>
     </g>
    </g>
    <g id="xtick_32">
     <g id="line2d_32">
      <g>
       <use xlink:href="#mb83f4dc9f4" x="359.512111" y="455.128" style="stroke: #000000; stroke-width: 0.6"/>
      </g>
     </g>
    </g>
    <g id="xtick_33">
     <g id="line2d_33">
      <g>
       <use xlink:href="#mb83f4dc9f4" x="370.856845" y="455.128" style="stroke: #000000; stroke-width: 0.6"/>
      </g>
     </g>
    </g>
    <g id="xtick_34">
     <g id="line2d_34">
      <g>
       <use xlink:href="#mb83f4dc9f4" x="379.656504" y="455.128" style="stroke: #000000; stroke-width: 0.6"/>
      </g>
     </g>
    </g>
    <g id="xtick_35">
     <g id="line2d_35">
      <g>
       <use xlink:href="#mb83f4dc9f4" x="386.846349" y="455.128" style="stroke: #000000; stroke-width: 0.6"/>
      </g>
     </g>
    </g>
    <g id="xtick_36">
     <g id="line2d_36">
      <g>
       <use xlink:href="#mb83f4dc9f4" x="392.925276" y="455.128" style="stroke: #000000; stroke-width: 0.6"/>
      </g>
     </g>
    </g>
    <g id="xtick_37">
     <g id="line2d_37">
      <g>
       <use xlink:href="#mb83f4dc9f4" x="398.191083" y="455.128" style="stroke: #000000; stroke-width: 0.6"/>
      </g>
     </g>
    </g>
    <g id="xtick_38">
     <g id="line2d_38">
      <g>
       <use xlink:href="#mb83f4dc9f4" x="402.835853" y="455.128" style="stroke: #000000; stroke-width: 0.6"/>
      </g>
     </g>
    </g>
    <g id="xtick_39">
     <g id="line2d_39">
      <g>
       <use xlink:href="#mb83f4dc9f4" x="434.32498" y="455.128" style="stroke: #000000; stroke-width: 0.6"/>
      </g>
     </g>
    </g>
    <g id="xtick_40">
     <g id="line2d_40">
      <g>
       <use xlink:href="#mb83f4dc9f4" x="450.314484" y="455.128" style="stroke: #000000; stroke-width: 0.6"/>
      </g>
     </g>
    </g>
    <g id="xtick_41">
     <g id="line2d_41">
      <g>
       <use xlink:href="#mb83f4dc9f4" x="461.659218" y="455.128" style="stroke: #000000; stroke-width: 0.6"/>
      </g>
     </g>
    </g>
    <g id="xtick_42">
     <g id="line2d_42">
      <g>
       <use xlink:href="#mb83f4dc9f4" x="470.458877" y="455.128" style="stroke: #000000; stroke-width: 0.6"/>
      </g>
     </g>
    </g>
    <g id="xtick_43">
     <g id="line2d_43">
      <g>
       <use xlink:href="#mb83f4dc9f4" x="477.648722" y="455.128" style="stroke: #000000; stroke-width: 0.6"/>
      </g>
     </g>
    </g>
    <g id="xtick_44">
     <g id="line2d_44">
      <g>
       <use xlink:href="#mb83f4dc9f4" x="483.727649" y="455.128" style="stroke: #000000; stroke-width: 0.6"/>
      </g>
     </g>
    </g>
    <g id="xtick_45">
     <g id="line2d_45">
      <g>
       <use xlink:href="#mb83f4dc9f4" x="488.993456" y="455.128" style="stroke: #000000; stroke-width: 0.6"/>
      </g>
     </g>
    </g>
    <g id="xtick_46">
     <g id="line2d_46">
      <g>
       <use xlink:href="#mb83f4dc9f4" x="493.638226" y="455.128" style="stroke: #000000; stroke-width: 0.6"/>
      </g>
     </g>
    </g>
    <g id="xtick_47">
     <g id="line2d_47">
      <g>
       <use xlink:href="#mb83f4dc9f4" x="525.127353" y="455.128" style="stroke: #000000; stroke-width: 0.6"/>
      </g>
     </g>
    </g>
    <g id="xtick_48">
     <g id="line2d_48">
      <g>
       <use xlink:href="#mb83f4dc9f4" x="541.116857" y="455.128" style="stroke: #000000; stroke-width: 0.6"/>
      </g>
     </g>
    </g>
    <g id="xtick_49">
     <g id="line2d_49">
      <g>
       <use xlink:href="#mb83f4dc9f4" x="552.461591" y="455.128" style="stroke: #000000; stroke-width: 0.6"/>
      </g>
     </g>
    </g>
    <g id="xtick_50">
     <g id="line2d_50">
      <g>
       <use xlink:href="#mb83f4dc9f4" x="561.26125" y="455.128" style="stroke: #000000; stroke-width: 0.6"/>
      </g>
     </g>
    </g>
    <g id="text_7">
     <!-- time [s] -->
     <g transform="translate(283.129844 483.404562) scale(0.1 -0.1)">
      <defs>
       <path id="DejaVuSans-74" d="M 1172 4494 
L 1172 3500 
L 2356 3500 
L 2356 3053 
L 1172 3053 
L 1172 1153 
Q 1172 725 1289 603 
Q 1406 481 1766 481 
L 2356 481 
L 2356 0 
L 1766 0 
Q 1100 0 847 248 
Q 594 497 594 1153 
L 594 3053 
L 172 3053 
L 172 3500 
L 594 3500 
L 594 4494 
L 1172 4494 
z
" transform="scale(0.015625)"/>
       <path id="DejaVuSans-69" d="M 603 3500 
L 1178 3500 
L 1178 0 
L 603 0 
L 603 3500 
z
M 603 4863 
L 1178 4863 
L 1178 4134 
L 603 4134 
L 603 4863 
z
" transform="scale(0.015625)"/>
       <path id="DejaVuSans-6d" d="M 3328 2828 
Q 3544 3216 3844 3400 
Q 4144 3584 4550 3584 
Q 5097 3584 5394 3201 
Q 5691 2819 5691 2113 
L 5691 0 
L 5113 0 
L 5113 2094 
Q 5113 2597 4934 2840 
Q 4756 3084 4391 3084 
Q 3944 3084 3684 2787 
Q 3425 2491 3425 1978 
L 3425 0 
L 2847 0 
L 2847 2094 
Q 2847 2600 2669 2842 
Q 2491 3084 2119 3084 
Q 1678 3084 1418 2786 
Q 1159 2488 1159 1978 
L 1159 0 
L 581 0 
L 581 3500 
L 1159 3500 
L 1159 2956 
Q 1356 3278 1631 3431 
Q 1906 3584 2284 3584 
Q 2666 3584 2933 3390 
Q 3200 3197 3328 2828 
z
" transform="scale(0.015625)"/>
       <path id="DejaVuSans-65" d="M 3597 1894 
L 3597 1613 
L 953 1613 
Q 991 1019 1311 708 
Q 1631 397 2203 397 
Q 2534 397 2845 478 
Q 3156 559 3463 722 
L 3463 178 
Q 3153 47 2828 -22 
Q 2503 -91 2169 -91 
Q 1331 -91 842 396 
Q 353 884 353 1716 
Q 353 2575 817 3079 
Q 1281 3584 2069 3584 
Q 2775 3584 3186 3129 
Q 3597 2675 3597 1894 
z
M 3022 2063 
Q 3016 2534 2758 2815 
Q 2500 3097 2075 3097 
Q 1594 3097 1305 2825 
Q 1016 2553 972 2059 
L 3022 2063 
z
" transform="scale(0.015625)"/>
       <path id="DejaVuSans-20" transform="scale(0.015625)"/>
       <path id="DejaVuSans-5b" d="M 550 4863 
L 1875 4863 
L 1875 4416 
L 1125 4416 
L 1125 -397 
L 1875 -397 
L 1875 -844 
L 550 -844 
L 550 4863 
z
" transform="scale(0.015625)"/>
       <path id="DejaVuSans-73" d="M 2834 3397 
L 2834 2853 
Q 2591 2978 2328 3040 
Q 2066 3103 1784 3103 
Q 1356 3103 1142 2972 
Q 928 2841 928 2578 
Q 928 2378 1081 2264 
Q 1234 2150 1697 2047 
L 1894 2003 
Q 2506 1872 2764 1633 
Q 3022 1394 3022 966 
Q 3022 478 2636 193 
Q 2250 -91 1575 -91 
Q 1294 -91 989 -36 
Q 684 19 347 128 
L 347 722 
Q 666 556 975 473 
Q 1284 391 1588 391 
Q 1994 391 2212 530 
Q 2431 669 2431 922 
Q 2431 1156 2273 1281 
Q 2116 1406 1581 1522 
L 1381 1569 
Q 847 1681 609 1914 
Q 372 2147 372 2553 
Q 372 3047 722 3315 
Q 1072 3584 1716 3584 
Q 2034 3584 2315 3537 
Q 2597 3491 2834 3397 
z
" transform="scale(0.015625)"/>
       <path id="DejaVuSans-5d" d="M 1947 4863 
L 1947 -844 
L 622 -844 
L 622 -397 
L 1369 -397 
L 1369 4416 
L 622 4416 
L 622 4863 
L 1947 4863 
z
" transform="scale(0.015625)"/>
      </defs>
      <use xlink:href="#DejaVuSans-74"/>
      <use xlink:href="#DejaVuSans-69" transform="translate(39.208984 0)"/>
      <use xlink:href="#DejaVuSans-6d" transform="translate(66.992188 0)"/>
      <use xlink:href="#DejaVuSans-65" transform="translate(164.404297 0)"/>
      <use xlink:href="#DejaVuSans-20" transform="translate(225.927734 0)"/>
      <use xlink:href="#DejaVuSans-5b" transform="translate(257.714844 0)"/>
      <use xlink:href="#DejaVuSans-73" transform="translate(296.728516 0)"/>
      <use xlink:href="#DejaVuSans-5d" transform="translate(348.828125 0)"/>
     </g>
    </g>
   </g>
   <g id="matplotlib.axis_2">
    <g id="ytick_1">
     <g id="line2d_51">
      <defs>
       <path id="mcce0a105a1" d="M 0 0 
L -3.5 0 
" style="stroke: #000000; stroke-width: 0.8"/>
      </defs>
      <g>
       <use xlink:href="#mcce0a105a1" x="43.78125" y="450.462083" style="stroke: #000000; stroke-width: 0.8"/>
      </g>
     </g>
     <g id="text_8">
      <!-- 0.0 -->
      <g transform="translate(20.878125 454.261302) scale(0.1 -0.1)">
       <defs>
        <path id="DejaVuSans-2e" d="M 684 794 
L 1344 794 
L 1344 0 
L 684 0 
L 684 794 
z
" transform="scale(0.015625)"/>
       </defs>
       <use xlink:href="#DejaVuSans-30"/>
       <use xlink:href="#DejaVuSans-2e" transform="translate(63.623047 0)"/>
       <use xlink:href="#DejaVuSans-30" transform="translate(95.410156 0)"/>
      </g>
     </g>
    </g>
    <g id="ytick_2">
     <g id="line2d_52">
      <g>
       <use xlink:href="#mcce0a105a1" x="43.78125" y="357.14375" style="stroke: #000000; stroke-width: 0.8"/>
      </g>
     </g>
     <g id="text_9">
      <!-- 0.2 -->
      <g transform="translate(20.878125 360.942969) scale(0.1 -0.1)">
       <use xlink:href="#DejaVuSans-30"/>
       <use xlink:href="#DejaVuSans-2e" transform="translate(63.623047 0)"/>
       <use xlink:href="#DejaVuSans-32" transform="translate(95.410156 0)"/>
      </g>
     </g>
    </g>
    <g id="ytick_3">
     <g id="line2d_53">
      <g>
       <use xlink:href="#mcce0a105a1" x="43.78125" y="263.825417" style="stroke: #000000; stroke-width: 0.8"/>
      </g>
     </g>
     <g id="text_10">
      <!-- 0.4 -->
      <g transform="translate(20.878125 267.624635) scale(0.1 -0.1)">
       <use xlink:href="#DejaVuSans-30"/>
       <use xlink:href="#DejaVuSans-2e" transform="translate(63.623047 0)"/>
       <use xlink:href="#DejaVuSans-34" transform="translate(95.410156 0)"/>
      </g>
     </g>
    </g>
    <g id="ytick_4">
     <g id="line2d_54">
      <g>
       <use xlink:href="#mcce0a105a1" x="43.78125" y="170.507083" style="stroke: #000000; stroke-width: 0.8"/>
      </g>
     </g>
     <g id="text_11">
      <!-- 0.6 -->
      <g transform="translate(20.878125 174.306302) scale(0.1 -0.1)">
       <defs>
        <path id="DejaVuSans-36" d="M 2113 2584 
Q 1688 2584 1439 2293 
Q 1191 2003 1191 1497 
Q 1191 994 1439 701 
Q 1688 409 2113 409 
Q 2538 409 2786 701 
Q 3034 994 3034 1497 
Q 3034 2003 2786 2293 
Q 2538 2584 2113 2584 
z
M 3366 4563 
L 3366 3988 
Q 3128 4100 2886 4159 
Q 2644 4219 2406 4219 
Q 1781 4219 1451 3797 
Q 1122 3375 1075 2522 
Q 1259 2794 1537 2939 
Q 1816 3084 2150 3084 
Q 2853 3084 3261 2657 
Q 3669 2231 3669 1497 
Q 3669 778 3244 343 
Q 2819 -91 2113 -91 
Q 1303 -91 875 529 
Q 447 1150 447 2328 
Q 447 3434 972 4092 
Q 1497 4750 2381 4750 
Q 2619 4750 2861 4703 
Q 3103 4656 3366 4563 
z
" transform="scale(0.015625)"/>
       </defs>
       <use xlink:href="#DejaVuSans-30"/>
       <use xlink:href="#DejaVuSans-2e" transform="translate(63.623047 0)"/>
       <use xlink:href="#DejaVuSans-36" transform="translate(95.410156 0)"/>
      </g>
     </g>
    </g>
    <g id="ytick_5">
     <g id="line2d_55">
      <g>
       <use xlink:href="#mcce0a105a1" x="43.78125" y="77.18875" style="stroke: #000000; stroke-width: 0.8"/>
      </g>
     </g>
     <g id="text_12">
      <!-- 0.8 -->
      <g transform="translate(20.878125 80.987969) scale(0.1 -0.1)">
       <defs>
        <path id="DejaVuSans-38" d="M 2034 2216 
Q 1584 2216 1326 1975 
Q 1069 1734 1069 1313 
Q 1069 891 1326 650 
Q 1584 409 2034 409 
Q 2484 409 2743 651 
Q 3003 894 3003 1313 
Q 3003 1734 2745 1975 
Q 2488 2216 2034 2216 
z
M 1403 2484 
Q 997 2584 770 2862 
Q 544 3141 544 3541 
Q 544 4100 942 4425 
Q 1341 4750 2034 4750 
Q 2731 4750 3128 4425 
Q 3525 4100 3525 3541 
Q 3525 3141 3298 2862 
Q 3072 2584 2669 2484 
Q 3125 2378 3379 2068 
Q 3634 1759 3634 1313 
Q 3634 634 3220 271 
Q 2806 -91 2034 -91 
Q 1263 -91 848 271 
Q 434 634 434 1313 
Q 434 1759 690 2068 
Q 947 2378 1403 2484 
z
M 1172 3481 
Q 1172 3119 1398 2916 
Q 1625 2713 2034 2713 
Q 2441 2713 2670 2916 
Q 2900 3119 2900 3481 
Q 2900 3844 2670 4047 
Q 2441 4250 2034 4250 
Q 1625 4250 1398 4047 
Q 1172 3844 1172 3481 
z
" transform="scale(0.015625)"/>
       </defs>
       <use xlink:href="#DejaVuSans-30"/>
       <use xlink:href="#DejaVuSans-2e" transform="translate(63.623047 0)"/>
       <use xlink:href="#DejaVuSans-38" transform="translate(95.410156 0)"/>
      </g>
     </g>
    </g>
    <g id="text_13">
     <!-- fluorescence intensity [rel. units] -->
     <g transform="translate(14.798437 313.62025) rotate(-90) scale(0.1 -0.1)">
      <defs>
       <path id="DejaVuSans-66" d="M 2375 4863 
L 2375 4384 
L 1825 4384 
Q 1516 4384 1395 4259 
Q 1275 4134 1275 3809 
L 1275 3500 
L 2222 3500 
L 2222 3053 
L 1275 3053 
L 1275 0 
L 697 0 
L 697 3053 
L 147 3053 
L 147 3500 
L 697 3500 
L 697 3744 
Q 697 4328 969 4595 
Q 1241 4863 1831 4863 
L 2375 4863 
z
" transform="scale(0.015625)"/>
       <path id="DejaVuSans-6c" d="M 603 4863 
L 1178 4863 
L 1178 0 
L 603 0 
L 603 4863 
z
" transform="scale(0.015625)"/>
       <path id="DejaVuSans-75" d="M 544 1381 
L 544 3500 
L 1119 3500 
L 1119 1403 
Q 1119 906 1312 657 
Q 1506 409 1894 409 
Q 2359 409 2629 706 
Q 2900 1003 2900 1516 
L 2900 3500 
L 3475 3500 
L 3475 0 
L 2900 0 
L 2900 538 
Q 2691 219 2414 64 
Q 2138 -91 1772 -91 
Q 1169 -91 856 284 
Q 544 659 544 1381 
z
M 1991 3584 
L 1991 3584 
z
" transform="scale(0.015625)"/>
       <path id="DejaVuSans-6f" d="M 1959 3097 
Q 1497 3097 1228 2736 
Q 959 2375 959 1747 
Q 959 1119 1226 758 
Q 1494 397 1959 397 
Q 2419 397 2687 759 
Q 2956 1122 2956 1747 
Q 2956 2369 2687 2733 
Q 2419 3097 1959 3097 
z
M 1959 3584 
Q 2709 3584 3137 3096 
Q 3566 2609 3566 1747 
Q 3566 888 3137 398 
Q 2709 -91 1959 -91 
Q 1206 -91 779 398 
Q 353 888 353 1747 
Q 353 2609 779 3096 
Q 1206 3584 1959 3584 
z
" transform="scale(0.015625)"/>
       <path id="DejaVuSans-72" d="M 2631 2963 
Q 2534 3019 2420 3045 
Q 2306 3072 2169 3072 
Q 1681 3072 1420 2755 
Q 1159 2438 1159 1844 
L 1159 0 
L 581 0 
L 581 3500 
L 1159 3500 
L 1159 2956 
Q 1341 3275 1631 3429 
Q 1922 3584 2338 3584 
Q 2397 3584 2469 3576 
Q 2541 3569 2628 3553 
L 2631 2963 
z
" transform="scale(0.015625)"/>
       <path id="DejaVuSans-63" d="M 3122 3366 
L 3122 2828 
Q 2878 2963 2633 3030 
Q 2388 3097 2138 3097 
Q 1578 3097 1268 2742 
Q 959 2388 959 1747 
Q 959 1106 1268 751 
Q 1578 397 2138 397 
Q 2388 397 2633 464 
Q 2878 531 3122 666 
L 3122 134 
Q 2881 22 2623 -34 
Q 2366 -91 2075 -91 
Q 1284 -91 818 406 
Q 353 903 353 1747 
Q 353 2603 823 3093 
Q 1294 3584 2113 3584 
Q 2378 3584 2631 3529 
Q 2884 3475 3122 3366 
z
" transform="scale(0.015625)"/>
       <path id="DejaVuSans-6e" d="M 3513 2113 
L 3513 0 
L 2938 0 
L 2938 2094 
Q 2938 2591 2744 2837 
Q 2550 3084 2163 3084 
Q 1697 3084 1428 2787 
Q 1159 2491 1159 1978 
L 1159 0 
L 581 0 
L 581 3500 
L 1159 3500 
L 1159 2956 
Q 1366 3272 1645 3428 
Q 1925 3584 2291 3584 
Q 2894 3584 3203 3211 
Q 3513 2838 3513 2113 
z
" transform="scale(0.015625)"/>
       <path id="DejaVuSans-79" d="M 2059 -325 
Q 1816 -950 1584 -1140 
Q 1353 -1331 966 -1331 
L 506 -1331 
L 506 -850 
L 844 -850 
Q 1081 -850 1212 -737 
Q 1344 -625 1503 -206 
L 1606 56 
L 191 3500 
L 800 3500 
L 1894 763 
L 2988 3500 
L 3597 3500 
L 2059 -325 
z
" transform="scale(0.015625)"/>
      </defs>
      <use xlink:href="#DejaVuSans-66"/>
      <use xlink:href="#DejaVuSans-6c" transform="translate(35.205078 0)"/>
      <use xlink:href="#DejaVuSans-75" transform="translate(62.988281 0)"/>
      <use xlink:href="#DejaVuSans-6f" transform="translate(126.367188 0)"/>
      <use xlink:href="#DejaVuSans-72" transform="translate(187.548828 0)"/>
      <use xlink:href="#DejaVuSans-65" transform="translate(226.412109 0)"/>
      <use xlink:href="#DejaVuSans-73" transform="translate(287.935547 0)"/>
      <use xlink:href="#DejaVuSans-63" transform="translate(340.035156 0)"/>
      <use xlink:href="#DejaVuSans-65" transform="translate(395.015625 0)"/>
      <use xlink:href="#DejaVuSans-6e" transform="translate(456.539062 0)"/>
      <use xlink:href="#DejaVuSans-63" transform="translate(519.917969 0)"/>
      <use xlink:href="#DejaVuSans-65" transform="translate(574.898438 0)"/>
      <use xlink:href="#DejaVuSans-20" transform="translate(636.421875 0)"/>
      <use xlink:href="#DejaVuSans-69" transform="translate(668.208984 0)"/>
      <use xlink:href="#DejaVuSans-6e" transform="translate(695.992188 0)"/>
      <use xlink:href="#DejaVuSans-74" transform="translate(759.371094 0)"/>
      <use xlink:href="#DejaVuSans-65" transform="translate(798.580078 0)"/>
      <use xlink:href="#DejaVuSans-6e" transform="translate(860.103516 0)"/>
      <use xlink:href="#DejaVuSans-73" transform="translate(923.482422 0)"/>
      <use xlink:href="#DejaVuSans-69" transform="translate(975.582031 0)"/>
      <use xlink:href="#DejaVuSans-74" transform="translate(1003.365234 0)"/>
      <use xlink:href="#DejaVuSans-79" transform="translate(1042.574219 0)"/>
      <use xlink:href="#DejaVuSans-20" transform="translate(1101.753906 0)"/>
      <use xlink:href="#DejaVuSans-5b" transform="translate(1133.541016 0)"/>
      <use xlink:href="#DejaVuSans-72" transform="translate(1172.554688 0)"/>
      <use xlink:href="#DejaVuSans-65" transform="translate(1211.417969 0)"/>
      <use xlink:href="#DejaVuSans-6c" transform="translate(1272.941406 0)"/>
      <use xlink:href="#DejaVuSans-2e" transform="translate(1300.724609 0)"/>
      <use xlink:href="#DejaVuSans-20" transform="translate(1332.511719 0)"/>
      <use xlink:href="#DejaVuSans-75" transform="translate(1364.298828 0)"/>
      <use xlink:href="#DejaVuSans-6e" transform="translate(1427.677734 0)"/>
      <use xlink:href="#DejaVuSans-69" transform="translate(1491.056641 0)"/>
      <use xlink:href="#DejaVuSans-74" transform="translate(1518.839844 0)"/>
      <use xlink:href="#DejaVuSans-73" transform="translate(1558.048828 0)"/>
      <use xlink:href="#DejaVuSans-5d" transform="translate(1610.148438 0)"/>
     </g>
    </g>
   </g>
   <g id="line2d_56">
    <path d="M 107.249385 362.30838 
L 114.438967 355.940537 
L 120.517707 349.602965 
L 125.783372 343.299301 
L 130.428033 337.0331 
L 134.582834 330.807831 
L 138.341317 324.626867 
L 141.772548 318.49348 
L 144.928979 312.410836 
L 147.851381 306.381984 
L 150.572076 300.409857 
L 153.117117 294.497261 
L 157.761833 282.861253 
L 161.916678 271.493807 
L 165.675196 260.412572 
L 169.106457 249.632967 
L 173.751191 234.057276 
L 177.906051 219.224258 
L 182.841824 200.641994 
L 189.250719 175.375547 
L 201.808878 125.441866 
L 205.891987 110.258607 
L 209.591716 97.421278 
L 212.42998 88.310966 
L 215.077609 80.472246 
L 217.558608 73.752672 
L 219.892714 68.010806 
L 222.096353 63.117751 
L 224.183342 58.957706 
L 226.165412 55.427844 
L 228.419448 51.897327 
L 230.551583 49.010041 
L 232.574329 46.652686 
L 234.498365 44.730591 
L 236.630501 42.934123 
L 238.653247 41.521837 
L 240.84464 40.274968 
L 243.172622 39.229031 
L 245.60765 38.392667 
L 248.344118 37.706786 
L 251.313741 37.196924 
L 255.016526 36.804777 
L 259.743879 36.55073 
L 266.823565 36.42031 
L 285.046667 36.389194 
L 497.793115 36.389107 
L 497.793115 36.389107 
" clip-path="url(#pc992b703bc)" style="fill: none; stroke-dasharray: 4.5,1.5,1.5,1.5,1.5,1.5; stroke-dashoffset: 0; stroke: #000000; stroke-width: 1.5"/>
   </g>
   <g id="line2d_57">
    <path d="M 107.249385 366.996743 
L 114.438967 361.669271 
L 120.517707 356.403666 
L 125.783372 351.202271 
L 130.428033 346.067279 
L 134.582834 341.000724 
L 138.341317 336.004497 
L 141.772548 331.080339 
L 144.928979 326.229838 
L 147.851381 321.454432 
L 150.572076 316.755415 
L 155.507818 307.590998 
L 159.893949 298.744081 
L 163.840698 290.219986 
L 167.428134 282.021987 
L 172.262914 270.338903 
L 177.906051 255.901096 
L 183.98494 239.643268 
L 197.253648 203.799622 
L 201.808878 192.23126 
L 205.240157 184.043931 
L 208.396629 177.01482 
L 211.319066 171.000614 
L 214.03979 165.869277 
L 216.584858 161.501229 
L 218.975582 157.789639 
L 221.229617 154.640118 
L 223.774687 151.487029 
L 226.165412 148.902427 
L 228.419448 146.783709 
L 230.895995 144.787638 
L 233.226161 143.199529 
L 235.730806 141.771945 
L 238.370559 140.539052 
L 241.110196 139.505632 
L 244.164748 138.587615 
L 247.901024 137.707657 
L 252.915379 136.774245 
L 266.961209 134.278469 
L 272.466739 133.007058 
L 277.612861 131.589053 
L 282.628784 129.977093 
L 287.732637 128.100817 
L 292.968002 125.93764 
L 298.587486 123.372374 
L 305.051829 120.168198 
L 314.371058 115.268743 
L 325.300681 109.575575 
L 331.272156 106.720792 
L 336.362725 104.528347 
L 341.059997 102.744504 
L 345.576303 101.265847 
L 350.064796 100.029671 
L 354.69286 98.987231 
L 359.641768 98.104248 
L 365.215884 97.341599 
L 372.183302 96.625213 
L 385.602939 95.527562 
L 397.683478 94.428903 
L 407.060084 93.352923 
L 415.554676 92.156951 
L 423.456865 90.821975 
L 430.938689 89.334013 
L 438.160748 87.671667 
L 445.301666 85.799366 
L 452.619419 83.648549 
L 460.655189 81.048452 
L 472.208951 77.044625 
L 483.065957 73.359418 
L 489.469587 71.421825 
L 494.951334 69.991966 
L 497.793115 69.348972 
L 497.793115 69.348972 
" clip-path="url(#pc992b703bc)" style="fill: none; stroke-dasharray: 9.6,2.4,1.5,2.4; stroke-dashoffset: 0; stroke: #000000; stroke-width: 1.5"/>
   </g>
   <g id="line2d_58">
    <path d="M 107.249385 371.580083 
L 114.438967 367.24393 
L 120.517707 362.990952 
L 125.783372 358.821883 
L 130.428033 354.737282 
L 134.582834 350.737547 
L 138.341317 346.822919 
L 141.772548 342.993491 
L 144.928979 339.249212 
L 150.572076 332.015246 
L 155.507818 325.11809 
L 159.893949 318.553046 
L 163.840698 312.31389 
L 169.106457 303.549456 
L 175.185338 292.925569 
L 186.176324 273.053418 
L 193.009255 260.936083 
L 198.050338 252.481304 
L 201.808878 246.587499 
L 205.240157 241.587928 
L 208.396629 237.355042 
L 211.319066 233.77627 
L 214.03979 230.753275 
L 217.074738 227.740195 
L 219.892714 225.280435 
L 222.52268 223.270384 
L 225.384497 221.380619 
L 228.052609 219.877662 
L 230.895995 218.523399 
L 233.867393 217.345477 
L 237.219092 216.256722 
L 241.110196 215.2335 
L 246.309774 214.114804 
L 259.245747 211.433106 
L 264.112683 210.145432 
L 268.576518 208.735379 
L 272.823618 207.158963 
L 276.978505 205.375468 
L 281.026666 203.396395 
L 285.133432 201.139453 
L 289.322972 198.579186 
L 293.672216 195.655048 
L 298.27819 192.284105 
L 303.341644 188.295566 
L 309.404962 183.222288 
L 330.01494 165.71818 
L 334.597948 162.279424 
L 338.703357 159.471767 
L 342.563052 157.098075 
L 346.299561 155.059856 
L 349.997929 153.295306 
L 353.745834 151.753231 
L 357.667257 150.381681 
L 361.91982 149.133857 
L 366.787917 147.943887 
L 373.115882 146.641636 
L 392.407684 142.815042 
L 398.810619 141.233374 
L 404.674767 139.557724 
L 410.188093 137.752695 
L 415.437078 135.801579 
L 420.482639 133.689676 
L 425.373111 131.402019 
L 430.15975 128.917366 
L 434.898877 126.206138 
L 439.657914 123.225868 
L 444.532987 119.907939 
L 449.687531 116.126107 
L 455.489226 111.584296 
L 463.755934 104.795137 
L 472.580638 97.622514 
L 477.411145 93.985628 
L 481.440339 91.223747 
L 485.07017 89.000352 
L 488.47836 87.170134 
L 491.774081 85.650705 
L 495.038963 84.389392 
L 497.793115 83.507584 
L 497.793115 83.507584 
" clip-path="url(#pc992b703bc)" style="fill: none; stroke-dasharray: 1.5,2.475; stroke-dashoffset: 0; stroke: #000000; stroke-width: 1.5"/>
   </g>
   <g id="line2d_59">
    <path d="M 107.249385 376.061896 
L 114.438967 372.670651 
L 120.517707 369.374715 
L 125.783372 366.173105 
L 130.428033 363.064698 
L 134.582834 360.048243 
L 138.341317 357.122372 
L 144.928979 351.536415 
L 150.572076 346.294049 
L 155.507818 341.381413 
L 161.916678 334.598577 
L 169.106457 326.569058 
L 188.252317 304.83927 
L 193.009255 299.865617 
L 197.253648 295.732737 
L 201.085283 292.300038 
L 204.577371 289.448549 
L 207.785223 287.078383 
L 211.319066 284.75308 
L 214.562114 282.883503 
L 218.036612 281.153506 
L 221.665366 279.629883 
L 225.384497 278.338278 
L 229.143044 277.26949 
L 233.54808 276.253256 
L 239.489355 275.140077 
L 252.521027 272.782474 
L 257.53834 271.600369 
L 261.98875 270.320784 
L 266.128045 268.895894 
L 270.001252 267.331297 
L 273.875279 265.522483 
L 277.612861 263.531391 
L 281.314164 261.311179 
L 285.046667 258.815863 
L 288.852569 256.005304 
L 292.825637 252.790031 
L 296.95199 249.161282 
L 301.439448 244.910129 
L 306.439261 239.857008 
L 312.683744 233.209679 
L 328.658877 216.048038 
L 333.341951 211.440941 
L 337.435534 207.719063 
L 341.206635 204.586851 
L 344.782284 201.902193 
L 348.270823 199.557963 
L 351.764701 197.477333 
L 355.34104 195.607235 
L 359.114202 193.887468 
L 363.26909 192.242663 
L 368.215437 190.533171 
L 375.857709 188.160961 
L 385.207564 185.204074 
L 390.889089 183.166988 
L 395.911682 181.131915 
L 400.584876 178.999934 
L 405.028632 176.72922 
L 409.301876 174.296379 
L 413.439282 171.685177 
L 417.474785 168.875064 
L 421.437259 165.84401 
L 425.355788 162.565296 
L 429.264369 159.003109 
L 433.20347 155.10977 
L 437.230353 150.81351 
L 441.431006 146.001539 
L 445.963284 140.463591 
L 451.23276 133.658369 
L 468.952506 110.447612 
L 472.536519 106.327906 
L 475.70871 103.012283 
L 478.631796 100.272316 
L 481.39793 97.979275 
L 484.070465 96.048919 
L 486.700473 94.421006 
L 489.334945 93.050407 
L 492.022727 91.902447 
L 494.819737 90.950459 
L 497.793115 90.174745 
L 497.793115 90.174745 
" clip-path="url(#pc992b703bc)" style="fill: none; stroke-dasharray: 5.55,2.4; stroke-dashoffset: 0; stroke: #000000; stroke-width: 1.5"/>
   </g>
   <g id="line2d_60">
    <path d="M 107.249385 380.445516 
L 114.438967 377.955246 
L 120.517707 375.564242 
L 125.783372 373.269872 
L 130.428033 371.069438 
L 138.341317 366.939325 
L 144.928979 363.151518 
L 153.117117 358.062384 
L 161.916678 352.267239 
L 176.569153 342.575095 
L 182.841824 338.732369 
L 188.252317 335.707529 
L 193.009255 333.326141 
L 197.253648 331.448841 
L 201.808878 329.708048 
L 205.891987 328.389296 
L 210.175946 327.240264 
L 214.562114 326.289918 
L 219.436814 325.460936 
L 225.384497 324.690491 
L 236.332877 323.568932 
L 243.671805 322.700408 
L 248.999561 321.857602 
L 253.692447 320.896916 
L 258.058369 319.774897 
L 262.144312 318.4923 
L 265.987457 317.054929 
L 269.746009 315.411142 
L 273.411333 313.563437 
L 276.978505 311.518727 
L 280.542796 309.221522 
L 284.168346 306.61616 
L 287.813696 303.719551 
L 291.594326 300.423581 
L 295.513076 296.702626 
L 299.621306 292.488874 
L 304.098992 287.569575 
L 309.217176 281.604007 
L 316.028743 273.293209 
L 327.992191 258.667154 
L 332.905634 253.050514 
L 337.065684 248.62388 
L 340.849565 244.915122 
L 344.417764 241.723464 
L 347.884375 238.917442 
L 351.330373 236.412242 
L 354.855906 234.12488 
L 358.566021 231.985519 
L 362.654882 229.889497 
L 367.588545 227.621422 
L 377.30706 223.47199 
L 383.670761 220.60596 
L 388.542823 218.169551 
L 392.906796 215.740634 
L 396.998511 213.209607 
L 400.908266 210.529764 
L 404.683129 207.672761 
L 408.361022 204.60965 
L 411.962068 201.320186 
L 415.51022 197.776464 
L 419.02773 193.947033 
L 422.537164 189.794971 
L 426.064712 185.273803 
L 429.645839 180.318511 
L 433.331062 174.834279 
L 437.19737 168.67461 
L 441.391469 161.563619 
L 446.290705 152.799272 
L 462.809889 122.839079 
L 466.146994 117.503662 
L 469.085022 113.214279 
L 471.775036 109.671283 
L 474.298938 106.707261 
L 476.711379 104.21094 
L 479.055167 102.100823 
L 481.366244 100.315816 
L 483.67985 98.80751 
L 486.03347 97.537482 
L 488.470368 96.475327 
L 491.046213 95.59673 
L 493.833768 94.883723 
L 496.945318 94.321845 
L 497.793115 94.203666 
L 497.793115 94.203666 
" clip-path="url(#pc992b703bc)" style="fill: none; stroke: #000000; stroke-width: 1.5; stroke-linecap: square"/>
   </g>
   <g id="patch_3">
    <path d="M 43.78125 455.128 
L 43.78125 7.2 
" style="fill: none; stroke: #000000; stroke-width: 0.8; stroke-linejoin: miter; stroke-linecap: square"/>
   </g>
   <g id="patch_4">
    <path d="M 561.26125 455.128 
L 561.26125 7.2 
" style="fill: none; stroke: #000000; stroke-width: 0.8; stroke-linejoin: miter; stroke-linecap: square"/>
   </g>
   <g id="patch_5">
    <path d="M 43.78125 455.128 
L 561.26125 455.128 
" style="fill: none; stroke: #000000; stroke-width: 0.8; stroke-linejoin: miter; stroke-linecap: square"/>
   </g>
   <g id="patch_6">
    <path d="M 43.78125 7.2 
L 561.26125 7.2 
" style="fill: none; stroke: #000000; stroke-width: 0.8; stroke-linejoin: miter; stroke-linecap: square"/>
   </g>
   <g id="text_14">
    <!-- O -->
    <g transform="translate(103.313448 364.650375) scale(0.1 -0.1)">
     <defs>
      <path id="DejaVuSans-4f" d="M 2522 4238 
Q 1834 4238 1429 3725 
Q 1025 3213 1025 2328 
Q 1025 1447 1429 934 
Q 1834 422 2522 422 
Q 3209 422 3611 934 
Q 4013 1447 4013 2328 
Q 4013 3213 3611 3725 
Q 3209 4238 2522 4238 
z
M 2522 4750 
Q 3503 4750 4090 4092 
Q 4678 3434 4678 2328 
Q 4678 1225 4090 567 
Q 3503 -91 2522 -91 
Q 1538 -91 948 565 
Q 359 1222 359 2328 
Q 359 3434 948 4092 
Q 1538 4750 2522 4750 
z
" transform="scale(0.015625)"/>
     </defs>
     <use xlink:href="#DejaVuSans-4f"/>
    </g>
   </g>
   <g id="text_15">
    <!-- J -->
    <g transform="translate(240.936796 263.230756) scale(0.1 -0.1)">
     <defs>
      <path id="DejaVuSans-4a" d="M 628 4666 
L 1259 4666 
L 1259 325 
Q 1259 -519 939 -900 
Q 619 -1281 -91 -1281 
L -331 -1281 
L -331 -750 
L -134 -750 
Q 284 -750 456 -515 
Q 628 -281 628 325 
L 628 4666 
z
" transform="scale(0.015625)"/>
     </defs>
     <use xlink:href="#DejaVuSans-4a"/>
    </g>
   </g>
   <g id="text_16">
    <!-- I -->
    <g transform="translate(373.831774 176.916792) scale(0.1 -0.1)">
     <defs>
      <path id="DejaVuSans-49" d="M 628 4666 
L 1259 4666 
L 1259 0 
L 628 0 
L 628 4666 
z
" transform="scale(0.015625)"/>
     </defs>
     <use xlink:href="#DejaVuSans-49"/>
    </g>
   </g>
   <g id="text_17">
    <!-- P -->
    <g transform="translate(494.778271 78.763224) scale(0.1 -0.1)">
     <defs>
      <path id="DejaVuSans-50" d="M 1259 4147 
L 1259 2394 
L 2053 2394 
Q 2494 2394 2734 2622 
Q 2975 2850 2975 3272 
Q 2975 3691 2734 3919 
Q 2494 4147 2053 4147 
L 1259 4147 
z
M 628 4666 
L 2053 4666 
Q 2838 4666 3239 4311 
Q 3641 3956 3641 3272 
Q 3641 2581 3239 2228 
Q 2838 1875 2053 1875 
L 1259 1875 
L 1259 0 
L 628 0 
L 628 4666 
z
" transform="scale(0.015625)"/>
     </defs>
     <use xlink:href="#DejaVuSans-50"/>
    </g>
   </g>
   <g id="axes_2">
    <g id="patch_7">
     <path d="M 354.26925 410.3352 
L 535.38725 410.3352 
L 535.38725 253.5604 
L 354.26925 253.5604 
z
" style="fill: #ffffff"/>
    </g>
    <g id="matplotlib.axis_3">
     <g id="xtick_51">
      <g id="line2d_61">
       <g>
        <use xlink:href="#mf1ca00561a" x="369.362417" y="410.3352" style="stroke: #000000; stroke-width: 0.8"/>
       </g>
      </g>
      <g id="text_18">
       <!-- 0 -->
       <g transform="translate(366.181167 424.933637) scale(0.1 -0.1)">
        <use xlink:href="#DejaVuSans-30"/>
       </g>
      </g>
     </g>
     <g id="xtick_52">
      <g id="line2d_62">
       <g>
        <use xlink:href="#mf1ca00561a" x="399.54875" y="410.3352" style="stroke: #000000; stroke-width: 0.8"/>
       </g>
      </g>
      <g id="text_19">
       <!-- 20 -->
       <g transform="translate(393.18625 424.933637) scale(0.1 -0.1)">
        <use xlink:href="#DejaVuSans-32"/>
        <use xlink:href="#DejaVuSans-30" transform="translate(63.623047 0)"/>
       </g>
      </g>
     </g>
     <g id="xtick_53">
      <g id="line2d_63">
       <g>
        <use xlink:href="#mf1ca00561a" x="429.735083" y="410.3352" style="stroke: #000000; stroke-width: 0.8"/>
       </g>
      </g>
      <g id="text_20">
       <!-- 40 -->
       <g transform="translate(423.372583 424.933637) scale(0.1 -0.1)">
        <use xlink:href="#DejaVuSans-34"/>
        <use xlink:href="#DejaVuSans-30" transform="translate(63.623047 0)"/>
       </g>
      </g>
     </g>
     <g id="xtick_54">
      <g id="line2d_64">
       <g>
        <use xlink:href="#mf1ca00561a" x="459.921417" y="410.3352" style="stroke: #000000; stroke-width: 0.8"/>
       </g>
      </g>
      <g id="text_21">
       <!-- 60 -->
       <g transform="translate(453.558917 424.933637) scale(0.1 -0.1)">
        <use xlink:href="#DejaVuSans-36"/>
        <use xlink:href="#DejaVuSans-30" transform="translate(63.623047 0)"/>
       </g>
      </g>
     </g>
     <g id="xtick_55">
      <g id="line2d_65">
       <g>
        <use xlink:href="#mf1ca00561a" x="490.10775" y="410.3352" style="stroke: #000000; stroke-width: 0.8"/>
       </g>
      </g>
      <g id="text_22">
       <!-- 80 -->
       <g transform="translate(483.74525 424.933637) scale(0.1 -0.1)">
        <use xlink:href="#DejaVuSans-38"/>
        <use xlink:href="#DejaVuSans-30" transform="translate(63.623047 0)"/>
       </g>
      </g>
     </g>
     <g id="xtick_56">
      <g id="line2d_66">
       <g>
        <use xlink:href="#mf1ca00561a" x="520.294083" y="410.3352" style="stroke: #000000; stroke-width: 0.8"/>
       </g>
      </g>
      <g id="text_23">
       <!-- 100 -->
       <g transform="translate(510.750333 424.933637) scale(0.1 -0.1)">
        <use xlink:href="#DejaVuSans-31"/>
        <use xlink:href="#DejaVuSans-30" transform="translate(63.623047 0)"/>
        <use xlink:href="#DejaVuSans-30" transform="translate(127.246094 0)"/>
       </g>
      </g>
     </g>
     <g id="text_24">
      <!-- decrease of the rate constants [%] -->
      <g transform="translate(357.944656 438.611762) scale(0.1 -0.1)">
       <defs>
        <path id="DejaVuSans-64" d="M 2906 2969 
L 2906 4863 
L 3481 4863 
L 3481 0 
L 2906 0 
L 2906 525 
Q 2725 213 2448 61 
Q 2172 -91 1784 -91 
Q 1150 -91 751 415 
Q 353 922 353 1747 
Q 353 2572 751 3078 
Q 1150 3584 1784 3584 
Q 2172 3584 2448 3432 
Q 2725 3281 2906 2969 
z
M 947 1747 
Q 947 1113 1208 752 
Q 1469 391 1925 391 
Q 2381 391 2643 752 
Q 2906 1113 2906 1747 
Q 2906 2381 2643 2742 
Q 2381 3103 1925 3103 
Q 1469 3103 1208 2742 
Q 947 2381 947 1747 
z
" transform="scale(0.015625)"/>
        <path id="DejaVuSans-61" d="M 2194 1759 
Q 1497 1759 1228 1600 
Q 959 1441 959 1056 
Q 959 750 1161 570 
Q 1363 391 1709 391 
Q 2188 391 2477 730 
Q 2766 1069 2766 1631 
L 2766 1759 
L 2194 1759 
z
M 3341 1997 
L 3341 0 
L 2766 0 
L 2766 531 
Q 2569 213 2275 61 
Q 1981 -91 1556 -91 
Q 1019 -91 701 211 
Q 384 513 384 1019 
Q 384 1609 779 1909 
Q 1175 2209 1959 2209 
L 2766 2209 
L 2766 2266 
Q 2766 2663 2505 2880 
Q 2244 3097 1772 3097 
Q 1472 3097 1187 3025 
Q 903 2953 641 2809 
L 641 3341 
Q 956 3463 1253 3523 
Q 1550 3584 1831 3584 
Q 2591 3584 2966 3190 
Q 3341 2797 3341 1997 
z
" transform="scale(0.015625)"/>
        <path id="DejaVuSans-68" d="M 3513 2113 
L 3513 0 
L 2938 0 
L 2938 2094 
Q 2938 2591 2744 2837 
Q 2550 3084 2163 3084 
Q 1697 3084 1428 2787 
Q 1159 2491 1159 1978 
L 1159 0 
L 581 0 
L 581 4863 
L 1159 4863 
L 1159 2956 
Q 1366 3272 1645 3428 
Q 1925 3584 2291 3584 
Q 2894 3584 3203 3211 
Q 3513 2838 3513 2113 
z
" transform="scale(0.015625)"/>
        <path id="DejaVuSans-25" d="M 4653 2053 
Q 4381 2053 4226 1822 
Q 4072 1591 4072 1178 
Q 4072 772 4226 539 
Q 4381 306 4653 306 
Q 4919 306 5073 539 
Q 5228 772 5228 1178 
Q 5228 1588 5073 1820 
Q 4919 2053 4653 2053 
z
M 4653 2450 
Q 5147 2450 5437 2106 
Q 5728 1763 5728 1178 
Q 5728 594 5436 251 
Q 5144 -91 4653 -91 
Q 4153 -91 3862 251 
Q 3572 594 3572 1178 
Q 3572 1766 3864 2108 
Q 4156 2450 4653 2450 
z
M 1428 4353 
Q 1159 4353 1004 4120 
Q 850 3888 850 3481 
Q 850 3069 1003 2837 
Q 1156 2606 1428 2606 
Q 1700 2606 1854 2837 
Q 2009 3069 2009 3481 
Q 2009 3884 1853 4118 
Q 1697 4353 1428 4353 
z
M 4250 4750 
L 4750 4750 
L 1831 -91 
L 1331 -91 
L 4250 4750 
z
M 1428 4750 
Q 1922 4750 2215 4408 
Q 2509 4066 2509 3481 
Q 2509 2891 2217 2550 
Q 1925 2209 1428 2209 
Q 931 2209 642 2551 
Q 353 2894 353 3481 
Q 353 4063 643 4406 
Q 934 4750 1428 4750 
z
" transform="scale(0.015625)"/>
       </defs>
       <use xlink:href="#DejaVuSans-64"/>
       <use xlink:href="#DejaVuSans-65" transform="translate(63.476562 0)"/>
       <use xlink:href="#DejaVuSans-63" transform="translate(125 0)"/>
       <use xlink:href="#DejaVuSans-72" transform="translate(179.980469 0)"/>
       <use xlink:href="#DejaVuSans-65" transform="translate(218.84375 0)"/>
       <use xlink:href="#DejaVuSans-61" transform="translate(280.367188 0)"/>
       <use xlink:href="#DejaVuSans-73" transform="translate(341.646484 0)"/>
       <use xlink:href="#DejaVuSans-65" transform="translate(393.746094 0)"/>
       <use xlink:href="#DejaVuSans-20" transform="translate(455.269531 0)"/>
       <use xlink:href="#DejaVuSans-6f" transform="translate(487.056641 0)"/>
       <use xlink:href="#DejaVuSans-66" transform="translate(548.238281 0)"/>
       <use xlink:href="#DejaVuSans-20" transform="translate(583.443359 0)"/>
       <use xlink:href="#DejaVuSans-74" transform="translate(615.230469 0)"/>
       <use xlink:href="#DejaVuSans-68" transform="translate(654.439453 0)"/>
       <use xlink:href="#DejaVuSans-65" transform="translate(717.818359 0)"/>
       <use xlink:href="#DejaVuSans-20" transform="translate(779.341797 0)"/>
       <use xlink:href="#DejaVuSans-72" transform="translate(811.128906 0)"/>
       <use xlink:href="#DejaVuSans-61" transform="translate(852.242188 0)"/>
       <use xlink:href="#DejaVuSans-74" transform="translate(913.521484 0)"/>
       <use xlink:href="#DejaVuSans-65" transform="translate(952.730469 0)"/>
       <use xlink:href="#DejaVuSans-20" transform="translate(1014.253906 0)"/>
       <use xlink:href="#DejaVuSans-63" transform="translate(1046.041016 0)"/>
       <use xlink:href="#DejaVuSans-6f" transform="translate(1101.021484 0)"/>
       <use xlink:href="#DejaVuSans-6e" transform="translate(1162.203125 0)"/>
       <use xlink:href="#DejaVuSans-73" transform="translate(1225.582031 0)"/>
       <use xlink:href="#DejaVuSans-74" transform="translate(1277.681641 0)"/>
       <use xlink:href="#DejaVuSans-61" transform="translate(1316.890625 0)"/>
       <use xlink:href="#DejaVuSans-6e" transform="translate(1378.169922 0)"/>
       <use xlink:href="#DejaVuSans-74" transform="translate(1441.548828 0)"/>
       <use xlink:href="#DejaVuSans-73" transform="translate(1480.757812 0)"/>
       <use xlink:href="#DejaVuSans-20" transform="translate(1532.857422 0)"/>
       <use xlink:href="#DejaVuSans-5b" transform="translate(1564.644531 0)"/>
       <use xlink:href="#DejaVuSans-25" transform="translate(1603.658203 0)"/>
       <use xlink:href="#DejaVuSans-5d" transform="translate(1698.677734 0)"/>
      </g>
     </g>
    </g>
    <g id="matplotlib.axis_4">
     <g id="ytick_6">
      <g id="line2d_67">
       <g>
        <use xlink:href="#mcce0a105a1" x="354.26925" y="394.65772" style="stroke: #000000; stroke-width: 0.8"/>
       </g>
      </g>
      <g id="text_25">
       <!-- 0.2 -->
       <g transform="translate(331.366125 398.456939) scale(0.1 -0.1)">
        <use xlink:href="#DejaVuSans-30"/>
        <use xlink:href="#DejaVuSans-2e" transform="translate(63.623047 0)"/>
        <use xlink:href="#DejaVuSans-32" transform="translate(95.410156 0)"/>
       </g>
      </g>
     </g>
     <g id="ytick_7">
      <g id="line2d_68">
       <g>
        <use xlink:href="#mcce0a105a1" x="354.26925" y="363.30276" style="stroke: #000000; stroke-width: 0.8"/>
       </g>
      </g>
      <g id="text_26">
       <!-- 0.4 -->
       <g transform="translate(331.366125 367.101979) scale(0.1 -0.1)">
        <use xlink:href="#DejaVuSans-30"/>
        <use xlink:href="#DejaVuSans-2e" transform="translate(63.623047 0)"/>
        <use xlink:href="#DejaVuSans-34" transform="translate(95.410156 0)"/>
       </g>
      </g>
     </g>
     <g id="ytick_8">
      <g id="line2d_69">
       <g>
        <use xlink:href="#mcce0a105a1" x="354.26925" y="331.9478" style="stroke: #000000; stroke-width: 0.8"/>
       </g>
      </g>
      <g id="text_27">
       <!-- 0.6 -->
       <g transform="translate(331.366125 335.747019) scale(0.1 -0.1)">
        <use xlink:href="#DejaVuSans-30"/>
        <use xlink:href="#DejaVuSans-2e" transform="translate(63.623047 0)"/>
        <use xlink:href="#DejaVuSans-36" transform="translate(95.410156 0)"/>
       </g>
      </g>
     </g>
     <g id="ytick_9">
      <g id="line2d_70">
       <g>
        <use xlink:href="#mcce0a105a1" x="354.26925" y="300.59284" style="stroke: #000000; stroke-width: 0.8"/>
       </g>
      </g>
      <g id="text_28">
       <!-- 0.8 -->
       <g transform="translate(331.366125 304.392059) scale(0.1 -0.1)">
        <use xlink:href="#DejaVuSans-30"/>
        <use xlink:href="#DejaVuSans-2e" transform="translate(63.623047 0)"/>
        <use xlink:href="#DejaVuSans-38" transform="translate(95.410156 0)"/>
       </g>
      </g>
     </g>
     <g id="ytick_10">
      <g id="line2d_71">
       <g>
        <use xlink:href="#mcce0a105a1" x="354.26925" y="269.23788" style="stroke: #000000; stroke-width: 0.8"/>
       </g>
      </g>
      <g id="text_29">
       <!-- 1.0 -->
       <g transform="translate(331.366125 273.037099) scale(0.1 -0.1)">
        <use xlink:href="#DejaVuSans-31"/>
        <use xlink:href="#DejaVuSans-2e" transform="translate(63.623047 0)"/>
        <use xlink:href="#DejaVuSans-30" transform="translate(95.410156 0)"/>
       </g>
      </g>
     </g>
     <g id="text_30">
      <!-- $\mathrm{rF_J}$, $\mathrm{rF_I}$ -->
      <g transform="translate(324.266125 347.4478) rotate(-90) scale(0.1 -0.1)">
       <defs>
        <path id="DejaVuSans-46" d="M 628 4666 
L 3309 4666 
L 3309 4134 
L 1259 4134 
L 1259 2759 
L 3109 2759 
L 3109 2228 
L 1259 2228 
L 1259 0 
L 628 0 
L 628 4666 
z
" transform="scale(0.015625)"/>
        <path id="DejaVuSans-2c" d="M 750 794 
L 1409 794 
L 1409 256 
L 897 -744 
L 494 -744 
L 750 256 
L 750 794 
z
" transform="scale(0.015625)"/>
       </defs>
       <use xlink:href="#DejaVuSans-72" transform="translate(0 0.09375)"/>
       <use xlink:href="#DejaVuSans-46" transform="translate(41.113281 0.09375)"/>
       <use xlink:href="#DejaVuSans-4a" transform="translate(99.589844 -16.3125) scale(0.7)"/>
       <use xlink:href="#DejaVuSans-2c" transform="translate(122.96875 0.09375)"/>
       <use xlink:href="#DejaVuSans-20" transform="translate(154.755859 0.09375)"/>
       <use xlink:href="#DejaVuSans-72" transform="translate(186.542969 0.09375)"/>
       <use xlink:href="#DejaVuSans-46" transform="translate(227.65625 0.09375)"/>
       <use xlink:href="#DejaVuSans-49" transform="translate(286.132812 -16.3125) scale(0.7)"/>
      </g>
     </g>
    </g>
    <g id="line2d_72">
     <path d="M 369.362417 394.47802 
L 407.095333 370.396188 
L 444.82825 340.762462 
L 482.561167 305.970265 
L 520.294083 270.754538 
" clip-path="url(#pbb10016dae)" style="fill: none; stroke: #000000; stroke-width: 1.5; stroke-linecap: square"/>
     <defs>
      <path id="mb085c06a2e" d="M -1.75 1.75 
L 1.75 1.75 
L 1.75 -1.75 
L -1.75 -1.75 
z
" style="stroke: #000000; stroke-linejoin: miter"/>
     </defs>
     <g clip-path="url(#pbb10016dae)">
      <use xlink:href="#mb085c06a2e" x="369.362417" y="394.47802" style="stroke: #000000; stroke-linejoin: miter"/>
      <use xlink:href="#mb085c06a2e" x="407.095333" y="370.396188" style="stroke: #000000; stroke-linejoin: miter"/>
      <use xlink:href="#mb085c06a2e" x="444.82825" y="340.762462" style="stroke: #000000; stroke-linejoin: miter"/>
      <use xlink:href="#mb085c06a2e" x="482.561167" y="305.970265" style="stroke: #000000; stroke-linejoin: miter"/>
      <use xlink:href="#mb085c06a2e" x="520.294083" y="270.754538" style="stroke: #000000; stroke-linejoin: miter"/>
     </g>
    </g>
    <g id="line2d_73">
     <path d="M 369.362417 340.506918 
L 407.095333 323.063335 
L 444.82825 303.370165 
L 482.561167 283.462337 
L 520.294083 269.23788 
" clip-path="url(#pbb10016dae)" style="fill: none; stroke: #000000; stroke-width: 1.5; stroke-linecap: square"/>
     <defs>
      <path id="m3880ec3fd7" d="M 0 1.75 
C 0.464105 1.75 0.909265 1.565609 1.237437 1.237437 
C 1.565609 0.909265 1.75 0.464105 1.75 0 
C 1.75 -0.464105 1.565609 -0.909265 1.237437 -1.237437 
C 0.909265 -1.565609 0.464105 -1.75 0 -1.75 
C -0.464105 -1.75 -0.909265 -1.565609 -1.237437 -1.237437 
C -1.565609 -0.909265 -1.75 -0.464105 -1.75 0 
C -1.75 0.464105 -1.565609 0.909265 -1.237437 1.237437 
C -0.909265 1.565609 -0.464105 1.75 0 1.75 
z
" style="stroke: #000000"/>
     </defs>
     <g clip-path="url(#pbb10016dae)">
      <use xlink:href="#m3880ec3fd7" x="369.362417" y="340.506918" style="stroke: #000000"/>
      <use xlink:href="#m3880ec3fd7" x="407.095333" y="323.063335" style="stroke: #000000"/>
      <use xlink:href="#m3880ec3fd7" x="444.82825" y="303.370165" style="stroke: #000000"/>
      <use xlink:href="#m3880ec3fd7" x="482.561167" y="283.462337" style="stroke: #000000"/>
      <use xlink:href="#m3880ec3fd7" x="520.294083" y="269.23788" style="stroke: #000000"/>
     </g>
    </g>
    <g id="patch_8">
     <path d="M 354.26925 410.3352 
L 354.26925 253.5604 
" style="fill: none; stroke: #000000; stroke-width: 0.8; stroke-linejoin: miter; stroke-linecap: square"/>
    </g>
    <g id="patch_9">
     <path d="M 535.38725 410.3352 
L 535.38725 253.5604 
" style="fill: none; stroke: #000000; stroke-width: 0.8; stroke-linejoin: miter; stroke-linecap: square"/>
    </g>
    <g id="patch_10">
     <path d="M 354.26925 410.3352 
L 535.38725 410.3352 
" style="fill: none; stroke: #000000; stroke-width: 0.8; stroke-linejoin: miter; stroke-linecap: square"/>
    </g>
    <g id="patch_11">
     <path d="M 354.26925 253.5604 
L 535.38725 253.5604 
" style="fill: none; stroke: #000000; stroke-width: 0.8; stroke-linejoin: miter; stroke-linecap: square"/>
    </g>
    <g id="legend_1">
     <g id="line2d_74">
      <path d="M 363.26925 266.658838 
L 373.26925 266.658838 
L 383.26925 266.658838 
" style="fill: none; stroke: #000000; stroke-width: 1.5; stroke-linecap: square"/>
      <g>
       <use xlink:href="#mb085c06a2e" x="373.26925" y="266.658838" style="stroke: #000000; stroke-linejoin: miter"/>
      </g>
     </g>
     <g id="text_31">
      <!-- rFJ -->
      <g transform="translate(391.26925 270.158838) scale(0.1 -0.1)">
       <use xlink:href="#DejaVuSans-72"/>
       <use xlink:href="#DejaVuSans-46" transform="translate(41.113281 0)"/>
       <use xlink:href="#DejaVuSans-4a" transform="translate(98.632812 0)"/>
      </g>
     </g>
     <g id="line2d_75">
      <path d="M 363.26925 281.336963 
L 373.26925 281.336963 
L 383.26925 281.336963 
" style="fill: none; stroke: #000000; stroke-width: 1.5; stroke-linecap: square"/>
      <g>
       <use xlink:href="#m3880ec3fd7" x="373.26925" y="281.336963" style="stroke: #000000"/>
      </g>
     </g>
     <g id="text_32">
      <!-- rFI -->
      <g transform="translate(391.26925 284.836963) scale(0.1 -0.1)">
       <use xlink:href="#DejaVuSans-72"/>
       <use xlink:href="#DejaVuSans-46" transform="translate(41.113281 0)"/>
       <use xlink:href="#DejaVuSans-49" transform="translate(98.632812 0)"/>
      </g>
     </g>
    </g>
   </g>
   <g id="legend_2">
    <g id="text_33">
     <!-- decrease of the rate constants [%] -->
     <g transform="translate(52.78125 23.798438) scale(0.1 -0.1)">
      <use xlink:href="#DejaVuSans-64"/>
      <use xlink:href="#DejaVuSans-65" transform="translate(63.476562 0)"/>
      <use xlink:href="#DejaVuSans-63" transform="translate(125 0)"/>
      <use xlink:href="#DejaVuSans-72" transform="translate(179.980469 0)"/>
      <use xlink:href="#DejaVuSans-65" transform="translate(218.84375 0)"/>
      <use xlink:href="#DejaVuSans-61" transform="translate(280.367188 0)"/>
      <use xlink:href="#DejaVuSans-73" transform="translate(341.646484 0)"/>
      <use xlink:href="#DejaVuSans-65" transform="translate(393.746094 0)"/>
      <use xlink:href="#DejaVuSans-20" transform="translate(455.269531 0)"/>
      <use xlink:href="#DejaVuSans-6f" transform="translate(487.056641 0)"/>
      <use xlink:href="#DejaVuSans-66" transform="translate(548.238281 0)"/>
      <use xlink:href="#DejaVuSans-20" transform="translate(583.443359 0)"/>
      <use xlink:href="#DejaVuSans-74" transform="translate(615.230469 0)"/>
      <use xlink:href="#DejaVuSans-68" transform="translate(654.439453 0)"/>
      <use xlink:href="#DejaVuSans-65" transform="translate(717.818359 0)"/>
      <use xlink:href="#DejaVuSans-20" transform="translate(779.341797 0)"/>
      <use xlink:href="#DejaVuSans-72" transform="translate(811.128906 0)"/>
      <use xlink:href="#DejaVuSans-61" transform="translate(852.242188 0)"/>
      <use xlink:href="#DejaVuSans-74" transform="translate(913.521484 0)"/>
      <use xlink:href="#DejaVuSans-65" transform="translate(952.730469 0)"/>
      <use xlink:href="#DejaVuSans-20" transform="translate(1014.253906 0)"/>
      <use xlink:href="#DejaVuSans-63" transform="translate(1046.041016 0)"/>
      <use xlink:href="#DejaVuSans-6f" transform="translate(1101.021484 0)"/>
      <use xlink:href="#DejaVuSans-6e" transform="translate(1162.203125 0)"/>
      <use xlink:href="#DejaVuSans-73" transform="translate(1225.582031 0)"/>
      <use xlink:href="#DejaVuSans-74" transform="translate(1277.681641 0)"/>
      <use xlink:href="#DejaVuSans-61" transform="translate(1316.890625 0)"/>
      <use xlink:href="#DejaVuSans-6e" transform="translate(1378.169922 0)"/>
      <use xlink:href="#DejaVuSans-74" transform="translate(1441.548828 0)"/>
      <use xlink:href="#DejaVuSans-73" transform="translate(1480.757812 0)"/>
      <use xlink:href="#DejaVuSans-20" transform="translate(1532.857422 0)"/>
      <use xlink:href="#DejaVuSans-5b" transform="translate(1564.644531 0)"/>
      <use xlink:href="#DejaVuSans-25" transform="translate(1603.658203 0)"/>
      <use xlink:href="#DejaVuSans-5d" transform="translate(1698.677734 0)"/>
     </g>
    </g>
    <g id="line2d_76">
     <path d="M 111.370313 34.976563 
L 121.370313 34.976563 
L 131.370313 34.976563 
" style="fill: none; stroke-dasharray: 4.5,1.5,1.5,1.5,1.5,1.5; stroke-dashoffset: 0; stroke: #000000; stroke-width: 1.5"/>
    </g>
    <g id="text_34">
     <!-- 100% -->
     <g transform="translate(139.370313 38.476563) scale(0.1 -0.1)">
      <use xlink:href="#DejaVuSans-31"/>
      <use xlink:href="#DejaVuSans-30" transform="translate(63.623047 0)"/>
      <use xlink:href="#DejaVuSans-30" transform="translate(127.246094 0)"/>
      <use xlink:href="#DejaVuSans-25" transform="translate(190.869141 0)"/>
     </g>
    </g>
    <g id="line2d_77">
     <path d="M 111.370313 49.654688 
L 121.370313 49.654688 
L 131.370313 49.654688 
" style="fill: none; stroke-dasharray: 9.6,2.4,1.5,2.4; stroke-dashoffset: 0; stroke: #000000; stroke-width: 1.5"/>
    </g>
    <g id="text_35">
     <!-- 75% -->
     <g transform="translate(139.370313 53.154688) scale(0.1 -0.1)">
      <defs>
       <path id="DejaVuSans-37" d="M 525 4666 
L 3525 4666 
L 3525 4397 
L 1831 0 
L 1172 0 
L 2766 4134 
L 525 4134 
L 525 4666 
z
" transform="scale(0.015625)"/>
      </defs>
      <use xlink:href="#DejaVuSans-37"/>
      <use xlink:href="#DejaVuSans-35" transform="translate(63.623047 0)"/>
      <use xlink:href="#DejaVuSans-25" transform="translate(127.246094 0)"/>
     </g>
    </g>
    <g id="line2d_78">
     <path d="M 111.370313 64.332813 
L 121.370313 64.332813 
L 131.370313 64.332813 
" style="fill: none; stroke-dasharray: 1.5,2.475; stroke-dashoffset: 0; stroke: #000000; stroke-width: 1.5"/>
    </g>
    <g id="text_36">
     <!-- 50% -->
     <g transform="translate(139.370313 67.832813) scale(0.1 -0.1)">
      <use xlink:href="#DejaVuSans-35"/>
      <use xlink:href="#DejaVuSans-30" transform="translate(63.623047 0)"/>
      <use xlink:href="#DejaVuSans-25" transform="translate(127.246094 0)"/>
     </g>
    </g>
    <g id="line2d_79">
     <path d="M 111.370313 79.010938 
L 121.370313 79.010938 
L 131.370313 79.010938 
" style="fill: none; stroke-dasharray: 5.55,2.4; stroke-dashoffset: 0; stroke: #000000; stroke-width: 1.5"/>
    </g>
    <g id="text_37">
     <!-- 25% -->
     <g transform="translate(139.370313 82.510938) scale(0.1 -0.1)">
      <use xlink:href="#DejaVuSans-32"/>
      <use xlink:href="#DejaVuSans-35" transform="translate(63.623047 0)"/>
      <use xlink:href="#DejaVuSans-25" transform="translate(127.246094 0)"/>
     </g>
    </g>
    <g id="line2d_80">
     <path d="M 111.370313 93.689063 
L 121.370313 93.689063 
L 131.370313 93.689063 
" style="fill: none; stroke: #000000; stroke-width: 1.5; stroke-linecap: square"/>
    </g>
    <g id="text_38">
     <!-- 0% -->
     <g transform="translate(139.370313 97.189063) scale(0.1 -0.1)">
      <use xlink:href="#DejaVuSans-30"/>
      <use xlink:href="#DejaVuSans-25" transform="translate(63.623047 0)"/>
     </g>
    </g>
   </g>
  </g>
 </g>
 <defs>
  <clipPath id="pc992b703bc">
   <rect x="43.78125" y="7.2" width="517.48" height="447.928"/>
  </clipPath>
  <clipPath id="pbb10016dae">
   <rect x="354.26925" y="253.5604" width="181.118" height="156.7748"/>
  </clipPath>
 </defs>
</svg>
