<?xml version="1.0" encoding="utf-8" standalone="no"?>
<!DOCTYPE svg PUBLIC "-//W3C//DTD SVG 1.1//EN"
  "http://www.w3.org/Graphics/SVG/1.1/DTD/svg11.dtd">
<svg xmlns:xlink="http://www.w3.org/1999/xlink" width="449.9855pt" height="337.59625pt" viewBox="0 0 449.9855 337.59625" xmlns="http://www.w3.org/2000/svg" version="1.1">
 <metadata>
  <rdf:RDF xmlns:dc="http://purl.org/dc/elements/1.1/" xmlns:cc="http://creativecommons.org/ns#" xmlns:rdf="http://www.w3.org/1999/02/22-rdf-syntax-ns#">
   <cc:Work>
    <dc:type rdf:resource="http://purl.org/dc/dcmitype/StillImage"/>
    <dc:date>2026-06-30T18:35:54.967661</dc:date>
    <dc:format>image/svg+xml</dc:format>
    <dc:creator>
     <cc:Agent>
      <dc:title>Matplotlib v3.10.9, https://matplotlib.org/</dc:title>
     </cc:Agent>
    </dc:creator>
   </cc:Work>
  </rdf:RDF>
 </metadata>
 <defs>
  <style type="text/css">*{stroke-linejoin: round; stroke-linecap: butt}</style>
 </defs>
 <g id="figure_1">
  <g id="patch_1">
   <path d="M 0 337.59625 
L 449.9855 337.59625 
L 449.9855 0 
L 0 0 
z
" style="fill: #ffffff"/>
  </g>
  <g id="axes_1">
   <g id="patch_2">
    <path d="M 47.6875 300.04 
L 145.4735 300.04 
L 145.4735 7.2 
L 47.6875 7.2 
z
" style="fill: #ffffff"/>
   </g>
   <g id="matplotlib.axis_1">
    <g id="xtick_1">
     <g id="line2d_1">
      <defs>
       <path id="mc87a3699ae" d="M 0 0 
L 0 3.5 
" style="stroke: #000000; stroke-width: 0.8"/>
      </defs>
      <g>
       <use xlink:href="#mc87a3699ae" x="50.841887" y="300.04" style="stroke: #000000; stroke-width: 0.8"/>
      </g>
     </g>
     <g id="text_1">
      <!-- 0 -->
      <g transform="translate(47.660637 314.638437) scale(0.1 -0.1)">
       <defs>
        <path id="DejaVuSans-30" d="M 2034 4250 
Q 1547 4250 1301 3770 
Q 1056 3291 1056 2328 
Q 1056 1369 1301 889 
Q 1547 409 2034 409 
Q 2525 409 2770 889 
Q 3016 1369 3016 2328 
Q 3016 3291 2770 3770 
Q 2525 4250 2034 4250 
z
M 2034 4750 
Q 2819 4750 3233 4129 
Q 3647 3509 3647 2328 
Q 3647 1150 3233 529 
Q 2819 -91 2034 -91 
Q 1250 -91 836 529 
Q 422 1150 422 2328 
Q 422 3509 836 4129 
Q 1250 4750 2034 4750 
z
" transform="scale(0.015625)"/>
       </defs>
       <use xlink:href="#DejaVuSans-30"/>
      </g>
     </g>
    </g>
    <g id="xtick_2">
     <g id="line2d_2">
      <g>
       <use xlink:href="#mc87a3699ae" x="113.929629" y="300.04" style="stroke: #000000; stroke-width: 0.8"/>
      </g>
     </g>
     <g id="text_2">
      <!-- 20 -->
      <g transform="translate(107.567129 314.638437) scale(0.1 -0.1)">
       <defs>
        <path id="DejaVuSans-32" d="M 1228 531 
L 3431 531 
L 3431 0 
L 469 0 
L 469 531 
Q 828 903 1448 1529 
Q 2069 2156 2228 2338 
Q 2531 2678 2651 2914 
Q 2772 3150 2772 3378 
Q 2772 3750 2511 3984 
Q 2250 4219 1831 4219 
Q 1534 4219 1204 4116 
Q 875 4013 500 3803 
L 500 4441 
Q 881 4594 1212 4672 
Q 1544 4750 1819 4750 
Q 2544 4750 2975 4387 
Q 3406 4025 3406 3419 
Q 3406 3131 3298 2873 
Q 3191 2616 2906 2266 
Q 2828 2175 2409 1742 
Q 1991 1309 1228 531 
z
" transform="scale(0.015625)"/>
       </defs>
       <use xlink:href="#DejaVuSans-32"/>
       <use xlink:href="#DejaVuSans-30" transform="translate(63.623047 0)"/>
      </g>
     </g>
    </g>
    <g id="text_3">
     <!-- time (s) -->
     <g transform="translate(77.189094 328.316562) scale(0.1 -0.1)">
      <defs>
       <path id="DejaVuSans-74" d="M 1172 4494 
L 1172 3500 
L 2356 3500 
L 2356 3053 
L 1172 3053 
L 1172 1153 
Q 1172 725 1289 603 
Q 1406 481 1766 481 
L 2356 481 
L 2356 0 
L 1766 0 
Q 1100 0 847 248 
Q 594 497 594 1153 
L 594 3053 
L 172 3053 
L 172 3500 
L 594 3500 
L 594 4494 
L 1172 4494 
z
" transform="scale(0.015625)"/>
       <path id="DejaVuSans-69" d="M 603 3500 
L 1178 3500 
L 1178 0 
L 603 0 
L 603 3500 
z
M 603 4863 
L 1178 4863 
L 1178 4134 
L 603 4134 
L 603 4863 
z
" transform="scale(0.015625)"/>
       <path id="DejaVuSans-6d" d="M 3328 2828 
Q 3544 3216 3844 3400 
Q 4144 3584 4550 3584 
Q 5097 3584 5394 3201 
Q 5691 2819 5691 2113 
L 5691 0 
L 5113 0 
L 5113 2094 
Q 5113 2597 4934 2840 
Q 4756 3084 4391 3084 
Q 3944 3084 3684 2787 
Q 3425 2491 3425 1978 
L 3425 0 
L 2847 0 
L 2847 2094 
Q 2847 2600 2669 2842 
Q 2491 3084 2119 3084 
Q 1678 3084 1418 2786 
Q 1159 2488 1159 1978 
L 1159 0 
L 581 0 
L 581 3500 
L 1159 3500 
L 1159 2956 
Q 1356 3278 1631 3431 
Q 1906 3584 2284 3584 
Q 2666 3584 2933 3390 
Q 3200 3197 3328 2828 
z
" transform="scale(0.015625)"/>
       <path id="DejaVuSans-65" d="M 3597 1894 
L 3597 1613 
L 953 1613 
Q 991 1019 1311 708 
Q 1631 397 2203 397 
Q 2534 397 2845 478 
Q 3156 559 3463 722 
L 3463 178 
Q 3153 47 2828 -22 
Q 2503 -91 2169 -91 
Q 1331 -91 842 396 
Q 353 884 353 1716 
Q 353 2575 817 3079 
Q 1281 3584 2069 3584 
Q 2775 3584 3186 3129 
Q 3597 2675 3597 1894 
z
M 3022 2063 
Q 3016 2534 2758 2815 
Q 2500 3097 2075 3097 
Q 1594 3097 1305 2825 
Q 1016 2553 972 2059 
L 3022 2063 
z
" transform="scale(0.015625)"/>
       <path id="DejaVuSans-20" transform="scale(0.015625)"/>
       <path id="DejaVuSans-28" d="M 1984 4856 
Q 1566 4138 1362 3434 
Q 1159 2731 1159 2009 
Q 1159 1288 1364 580 
Q 1569 -128 1984 -844 
L 1484 -844 
Q 1016 -109 783 600 
Q 550 1309 550 2009 
Q 550 2706 781 3412 
Q 1013 4119 1484 4856 
L 1984 4856 
z
" transform="scale(0.015625)"/>
       <path id="DejaVuSans-73" d="M 2834 3397 
L 2834 2853 
Q 2591 2978 2328 3040 
Q 2066 3103 1784 3103 
Q 1356 3103 1142 2972 
Q 928 2841 928 2578 
Q 928 2378 1081 2264 
Q 1234 2150 1697 2047 
L 1894 2003 
Q 2506 1872 2764 1633 
Q 3022 1394 3022 966 
Q 3022 478 2636 193 
Q 2250 -91 1575 -91 
Q 1294 -91 989 -36 
Q 684 19 347 128 
L 347 722 
Q 666 556 975 473 
Q 1284 391 1588 391 
Q 1994 391 2212 530 
Q 2431 669 2431 922 
Q 2431 1156 2273 1281 
Q 2116 1406 1581 1522 
L 1381 1569 
Q 847 1681 609 1914 
Q 372 2147 372 2553 
Q 372 3047 722 3315 
Q 1072 3584 1716 3584 
Q 2034 3584 2315 3537 
Q 2597 3491 2834 3397 
z
" transform="scale(0.015625)"/>
       <path id="DejaVuSans-29" d="M 513 4856 
L 1013 4856 
Q 1481 4119 1714 3412 
Q 1947 2706 1947 2009 
Q 1947 1309 1714 600 
Q 1481 -109 1013 -844 
L 513 -844 
Q 928 -128 1133 580 
Q 1338 1288 1338 2009 
Q 1338 2731 1133 3434 
Q 928 4138 513 4856 
z
" transform="scale(0.015625)"/>
      </defs>
      <use xlink:href="#DejaVuSans-74"/>
      <use xlink:href="#DejaVuSans-69" transform="translate(39.208984 0)"/>
      <use xlink:href="#DejaVuSans-6d" transform="translate(66.992188 0)"/>
      <use xlink:href="#DejaVuSans-65" transform="translate(164.404297 0)"/>
      <use xlink:href="#DejaVuSans-20" transform="translate(225.927734 0)"/>
      <use xlink:href="#DejaVuSans-28" transform="translate(257.714844 0)"/>
      <use xlink:href="#DejaVuSans-73" transform="translate(296.728516 0)"/>
      <use xlink:href="#DejaVuSans-29" transform="translate(348.828125 0)"/>
     </g>
    </g>
   </g>
   <g id="matplotlib.axis_2">
    <g id="ytick_1">
     <g id="line2d_3">
      <defs>
       <path id="m3b4ee7bbb5" d="M 0 0 
L -3.5 0 
" style="stroke: #000000; stroke-width: 0.8"/>
      </defs>
      <g>
       <use xlink:href="#m3b4ee7bbb5" x="47.6875" y="283.771111" style="stroke: #000000; stroke-width: 0.8"/>
      </g>
     </g>
     <g id="text_4">
      <!-- 0 -->
      <g transform="translate(34.325 287.57033) scale(0.1 -0.1)">
       <use xlink:href="#DejaVuSans-30"/>
      </g>
     </g>
    </g>
    <g id="ytick_2">
     <g id="line2d_4">
      <g>
       <use xlink:href="#m3b4ee7bbb5" x="47.6875" y="251.233333" style="stroke: #000000; stroke-width: 0.8"/>
      </g>
     </g>
     <g id="text_5">
      <!-- 50 -->
      <g transform="translate(27.9625 255.032552) scale(0.1 -0.1)">
       <defs>
        <path id="DejaVuSans-35" d="M 691 4666 
L 3169 4666 
L 3169 4134 
L 1269 4134 
L 1269 2991 
Q 1406 3038 1543 3061 
Q 1681 3084 1819 3084 
Q 2600 3084 3056 2656 
Q 3513 2228 3513 1497 
Q 3513 744 3044 326 
Q 2575 -91 1722 -91 
Q 1428 -91 1123 -41 
Q 819 9 494 109 
L 494 744 
Q 775 591 1075 516 
Q 1375 441 1709 441 
Q 2250 441 2565 725 
Q 2881 1009 2881 1497 
Q 2881 1984 2565 2268 
Q 2250 2553 1709 2553 
Q 1456 2553 1204 2497 
Q 953 2441 691 2322 
L 691 4666 
z
" transform="scale(0.015625)"/>
       </defs>
       <use xlink:href="#DejaVuSans-35"/>
       <use xlink:href="#DejaVuSans-30" transform="translate(63.623047 0)"/>
      </g>
     </g>
    </g>
    <g id="ytick_3">
     <g id="line2d_5">
      <g>
       <use xlink:href="#m3b4ee7bbb5" x="47.6875" y="218.695556" style="stroke: #000000; stroke-width: 0.8"/>
      </g>
     </g>
     <g id="text_6">
      <!-- 100 -->
      <g transform="translate(21.6 222.494774) scale(0.1 -0.1)">
       <defs>
        <path id="DejaVuSans-31" d="M 794 531 
L 1825 531 
L 1825 4091 
L 703 3866 
L 703 4441 
L 1819 4666 
L 2450 4666 
L 2450 531 
L 3481 531 
L 3481 0 
L 794 0 
L 794 531 
z
" transform="scale(0.015625)"/>
       </defs>
       <use xlink:href="#DejaVuSans-31"/>
       <use xlink:href="#DejaVuSans-30" transform="translate(63.623047 0)"/>
       <use xlink:href="#DejaVuSans-30" transform="translate(127.246094 0)"/>
      </g>
     </g>
    </g>
    <g id="ytick_4">
     <g id="line2d_6">
      <g>
       <use xlink:href="#m3b4ee7bbb5" x="47.6875" y="186.157778" style="stroke: #000000; stroke-width: 0.8"/>
      </g>
     </g>
     <g id="text_7">
      <!-- 150 -->
      <g transform="translate(21.6 189.956997) scale(0.1 -0.1)">
       <use xlink:href="#DejaVuSans-31"/>
       <use xlink:href="#DejaVuSans-35" transform="translate(63.623047 0)"/>
       <use xlink:href="#DejaVuSans-30" transform="translate(127.246094 0)"/>
      </g>
     </g>
    </g>
    <g id="ytick_5">
     <g id="line2d_7">
      <g>
       <use xlink:href="#m3b4ee7bbb5" x="47.6875" y="153.62" style="stroke: #000000; stroke-width: 0.8"/>
      </g>
     </g>
     <g id="text_8">
      <!-- 200 -->
      <g transform="translate(21.6 157.419219) scale(0.1 -0.1)">
       <use xlink:href="#DejaVuSans-32"/>
       <use xlink:href="#DejaVuSans-30" transform="translate(63.623047 0)"/>
       <use xlink:href="#DejaVuSans-30" transform="translate(127.246094 0)"/>
      </g>
     </g>
    </g>
    <g id="ytick_6">
     <g id="line2d_8">
      <g>
       <use xlink:href="#m3b4ee7bbb5" x="47.6875" y="121.082222" style="stroke: #000000; stroke-width: 0.8"/>
      </g>
     </g>
     <g id="text_9">
      <!-- 250 -->
      <g transform="translate(21.6 124.881441) scale(0.1 -0.1)">
       <use xlink:href="#DejaVuSans-32"/>
       <use xlink:href="#DejaVuSans-35" transform="translate(63.623047 0)"/>
       <use xlink:href="#DejaVuSans-30" transform="translate(127.246094 0)"/>
      </g>
     </g>
    </g>
    <g id="ytick_7">
     <g id="line2d_9">
      <g>
       <use xlink:href="#m3b4ee7bbb5" x="47.6875" y="88.544444" style="stroke: #000000; stroke-width: 0.8"/>
      </g>
     </g>
     <g id="text_10">
      <!-- 300 -->
      <g transform="translate(21.6 92.343663) scale(0.1 -0.1)">
       <defs>
        <path id="DejaVuSans-33" d="M 2597 2516 
Q 3050 2419 3304 2112 
Q 3559 1806 3559 1356 
Q 3559 666 3084 287 
Q 2609 -91 1734 -91 
Q 1441 -91 1130 -33 
Q 819 25 488 141 
L 488 750 
Q 750 597 1062 519 
Q 1375 441 1716 441 
Q 2309 441 2620 675 
Q 2931 909 2931 1356 
Q 2931 1769 2642 2001 
Q 2353 2234 1838 2234 
L 1294 2234 
L 1294 2753 
L 1863 2753 
Q 2328 2753 2575 2939 
Q 2822 3125 2822 3475 
Q 2822 3834 2567 4026 
Q 2313 4219 1838 4219 
Q 1578 4219 1281 4162 
Q 984 4106 628 3988 
L 628 4550 
Q 988 4650 1302 4700 
Q 1616 4750 1894 4750 
Q 2613 4750 3031 4423 
Q 3450 4097 3450 3541 
Q 3450 3153 3228 2886 
Q 3006 2619 2597 2516 
z
" transform="scale(0.015625)"/>
       </defs>
       <use xlink:href="#DejaVuSans-33"/>
       <use xlink:href="#DejaVuSans-30" transform="translate(63.623047 0)"/>
       <use xlink:href="#DejaVuSans-30" transform="translate(127.246094 0)"/>
      </g>
     </g>
    </g>
    <g id="ytick_8">
     <g id="line2d_10">
      <g>
       <use xlink:href="#m3b4ee7bbb5" x="47.6875" y="56.006667" style="stroke: #000000; stroke-width: 0.8"/>
      </g>
     </g>
     <g id="text_11">
      <!-- 350 -->
      <g transform="translate(21.6 59.805885) scale(0.1 -0.1)">
       <use xlink:href="#DejaVuSans-33"/>
       <use xlink:href="#DejaVuSans-35" transform="translate(63.623047 0)"/>
       <use xlink:href="#DejaVuSans-30" transform="translate(127.246094 0)"/>
      </g>
     </g>
    </g>
    <g id="ytick_9">
     <g id="line2d_11">
      <g>
       <use xlink:href="#m3b4ee7bbb5" x="47.6875" y="23.468889" style="stroke: #000000; stroke-width: 0.8"/>
      </g>
     </g>
     <g id="text_12">
      <!-- 400 -->
      <g transform="translate(21.6 27.268108) scale(0.1 -0.1)">
       <defs>
        <path id="DejaVuSans-34" d="M 2419 4116 
L 825 1625 
L 2419 1625 
L 2419 4116 
z
M 2253 4666 
L 3047 4666 
L 3047 1625 
L 3713 1625 
L 3713 1100 
L 3047 1100 
L 3047 0 
L 2419 0 
L 2419 1100 
L 313 1100 
L 313 1709 
L 2253 4666 
z
" transform="scale(0.015625)"/>
       </defs>
       <use xlink:href="#DejaVuSans-34"/>
       <use xlink:href="#DejaVuSans-30" transform="translate(63.623047 0)"/>
       <use xlink:href="#DejaVuSans-30" transform="translate(127.246094 0)"/>
      </g>
     </g>
    </g>
    <g id="text_13">
     <!-- K$^+$ flux (mol mol $^{-1}$ PSII s$^{-1}$) -->
     <g transform="translate(15.520313 225.17) rotate(-90) scale(0.1 -0.1)">
      <defs>
       <path id="DejaVuSans-4b" d="M 628 4666 
L 1259 4666 
L 1259 2694 
L 3353 4666 
L 4166 4666 
L 1850 2491 
L 4331 0 
L 3500 0 
L 1259 2247 
L 1259 0 
L 628 0 
L 628 4666 
z
" transform="scale(0.015625)"/>
       <path id="DejaVuSans-2b" d="M 2944 4013 
L 2944 2272 
L 4684 2272 
L 4684 1741 
L 2944 1741 
L 2944 0 
L 2419 0 
L 2419 1741 
L 678 1741 
L 678 2272 
L 2419 2272 
L 2419 4013 
L 2944 4013 
z
" transform="scale(0.015625)"/>
       <path id="DejaVuSans-66" d="M 2375 4863 
L 2375 4384 
L 1825 4384 
Q 1516 4384 1395 4259 
Q 1275 4134 1275 3809 
L 1275 3500 
L 2222 3500 
L 2222 3053 
L 1275 3053 
L 1275 0 
L 697 0 
L 697 3053 
L 147 3053 
L 147 3500 
L 697 3500 
L 697 3744 
Q 697 4328 969 4595 
Q 1241 4863 1831 4863 
L 2375 4863 
z
" transform="scale(0.015625)"/>
       <path id="DejaVuSans-6c" d="M 603 4863 
L 1178 4863 
L 1178 0 
L 603 0 
L 603 4863 
z
" transform="scale(0.015625)"/>
       <path id="DejaVuSans-75" d="M 544 1381 
L 544 3500 
L 1119 3500 
L 1119 1403 
Q 1119 906 1312 657 
Q 1506 409 1894 409 
Q 2359 409 2629 706 
Q 2900 1003 2900 1516 
L 2900 3500 
L 3475 3500 
L 3475 0 
L 2900 0 
L 2900 538 
Q 2691 219 2414 64 
Q 2138 -91 1772 -91 
Q 1169 -91 856 284 
Q 544 659 544 1381 
z
M 1991 3584 
L 1991 3584 
z
" transform="scale(0.015625)"/>
       <path id="DejaVuSans-78" d="M 3513 3500 
L 2247 1797 
L 3578 0 
L 2900 0 
L 1881 1375 
L 863 0 
L 184 0 
L 1544 1831 
L 300 3500 
L 978 3500 
L 1906 2253 
L 2834 3500 
L 3513 3500 
z
" transform="scale(0.015625)"/>
       <path id="DejaVuSans-6f" d="M 1959 3097 
Q 1497 3097 1228 2736 
Q 959 2375 959 1747 
Q 959 1119 1226 758 
Q 1494 397 1959 397 
Q 2419 397 2687 759 
Q 2956 1122 2956 1747 
Q 2956 2369 2687 2733 
Q 2419 3097 1959 3097 
z
M 1959 3584 
Q 2709 3584 3137 3096 
Q 3566 2609 3566 1747 
Q 3566 888 3137 398 
Q 2709 -91 1959 -91 
Q 1206 -91 779 398 
Q 353 888 353 1747 
Q 353 2609 779 3096 
Q 1206 3584 1959 3584 
z
" transform="scale(0.015625)"/>
       <path id="DejaVuSans-2212" d="M 678 2272 
L 4684 2272 
L 4684 1741 
L 678 1741 
L 678 2272 
z
" transform="scale(0.015625)"/>
       <path id="DejaVuSans-50" d="M 1259 4147 
L 1259 2394 
L 2053 2394 
Q 2494 2394 2734 2622 
Q 2975 2850 2975 3272 
Q 2975 3691 2734 3919 
Q 2494 4147 2053 4147 
L 1259 4147 
z
M 628 4666 
L 2053 4666 
Q 2838 4666 3239 4311 
Q 3641 3956 3641 3272 
Q 3641 2581 3239 2228 
Q 2838 1875 2053 1875 
L 1259 1875 
L 1259 0 
L 628 0 
L 628 4666 
z
" transform="scale(0.015625)"/>
       <path id="DejaVuSans-53" d="M 3425 4513 
L 3425 3897 
Q 3066 4069 2747 4153 
Q 2428 4238 2131 4238 
Q 1616 4238 1336 4038 
Q 1056 3838 1056 3469 
Q 1056 3159 1242 3001 
Q 1428 2844 1947 2747 
L 2328 2669 
Q 3034 2534 3370 2195 
Q 3706 1856 3706 1288 
Q 3706 609 3251 259 
Q 2797 -91 1919 -91 
Q 1588 -91 1214 -16 
Q 841 59 441 206 
L 441 856 
Q 825 641 1194 531 
Q 1563 422 1919 422 
Q 2459 422 2753 634 
Q 3047 847 3047 1241 
Q 3047 1584 2836 1778 
Q 2625 1972 2144 2069 
L 1759 2144 
Q 1053 2284 737 2584 
Q 422 2884 422 3419 
Q 422 4038 858 4394 
Q 1294 4750 2059 4750 
Q 2388 4750 2728 4690 
Q 3069 4631 3425 4513 
z
" transform="scale(0.015625)"/>
       <path id="DejaVuSans-49" d="M 628 4666 
L 1259 4666 
L 1259 0 
L 628 0 
L 628 4666 
z
" transform="scale(0.015625)"/>
      </defs>
      <use xlink:href="#DejaVuSans-4b" transform="translate(0 0.684375)"/>
      <use xlink:href="#DejaVuSans-2b" transform="translate(80.170898 38.965625) scale(0.7)"/>
      <use xlink:href="#DejaVuSans-20" transform="translate(155.195312 0.684375)"/>
      <use xlink:href="#DejaVuSans-66" transform="translate(186.982422 0.684375)"/>
      <use xlink:href="#DejaVuSans-6c" transform="translate(222.1875 0.684375)"/>
      <use xlink:href="#DejaVuSans-75" transform="translate(249.970703 0.684375)"/>
      <use xlink:href="#DejaVuSans-78" transform="translate(313.349609 0.684375)"/>
      <use xlink:href="#DejaVuSans-20" transform="translate(372.529297 0.684375)"/>
      <use xlink:href="#DejaVuSans-28" transform="translate(404.316406 0.684375)"/>
      <use xlink:href="#DejaVuSans-6d" transform="translate(443.330078 0.684375)"/>
      <use xlink:href="#DejaVuSans-6f" transform="translate(540.742188 0.684375)"/>
      <use xlink:href="#DejaVuSans-6c" transform="translate(601.923828 0.684375)"/>
      <use xlink:href="#DejaVuSans-20" transform="translate(629.707031 0.684375)"/>
      <use xlink:href="#DejaVuSans-6d" transform="translate(661.494141 0.684375)"/>
      <use xlink:href="#DejaVuSans-6f" transform="translate(758.90625 0.684375)"/>
      <use xlink:href="#DejaVuSans-6c" transform="translate(820.087891 0.684375)"/>
      <use xlink:href="#DejaVuSans-20" transform="translate(847.871094 0.684375)"/>
      <use xlink:href="#DejaVuSans-2212" transform="translate(880.615234 38.965625) scale(0.7)"/>
      <use xlink:href="#DejaVuSans-31" transform="translate(939.267578 38.965625) scale(0.7)"/>
      <use xlink:href="#DejaVuSans-20" transform="translate(986.538086 0.684375)"/>
      <use xlink:href="#DejaVuSans-50" transform="translate(1018.325195 0.684375)"/>
      <use xlink:href="#DejaVuSans-53" transform="translate(1078.62793 0.684375)"/>
      <use xlink:href="#DejaVuSans-49" transform="translate(1142.104492 0.684375)"/>
      <use xlink:href="#DejaVuSans-49" transform="translate(1171.59668 0.684375)"/>
      <use xlink:href="#DejaVuSans-20" transform="translate(1201.088867 0.684375)"/>
      <use xlink:href="#DejaVuSans-73" transform="translate(1232.875977 0.684375)"/>
      <use xlink:href="#DejaVuSans-2212" transform="translate(1285.932617 38.965625) scale(0.7)"/>
      <use xlink:href="#DejaVuSans-31" transform="translate(1344.584961 38.965625) scale(0.7)"/>
      <use xlink:href="#DejaVuSans-29" transform="translate(1391.855469 0.684375)"/>
     </g>
    </g>
   </g>
   <g id="line2d_12">
    <path d="M 50.841887 283.771111 
L 145.568132 283.771111 
L 145.568132 283.771111 
" clip-path="url(#p9f63797860)" style="fill: none; stroke: #ff0000; stroke-width: 1.5; stroke-linecap: square"/>
   </g>
   <g id="line2d_13">
    <path d="M 50.841887 283.771105 
L 51.03115 270.549648 
L 51.220414 270.049201 
L 51.59894 270.584746 
L 52.261361 270.655303 
L 81.881056 272.265166 
L 115.759174 273.882212 
L 145.568132 275.145032 
L 145.568132 275.145032 
" clip-path="url(#p9f63797860)" style="fill: none; stroke: #ffa500; stroke-width: 1.5; stroke-linecap: square"/>
   </g>
   <g id="line2d_14">
    <path d="M 50.841887 283.771098 
L 51.03115 182.731654 
L 51.125782 179.330095 
L 51.220414 179.509421 
L 51.59894 187.275029 
L 52.355993 189.523871 
L 55.478836 198.102977 
L 58.601679 206.045735 
L 61.819154 213.619941 
L 65.036629 220.62412 
L 68.254104 227.099205 
L 71.471579 233.079639 
L 74.689054 238.594492 
L 77.906528 243.668314 
L 81.124003 248.32167 
L 84.246846 252.452113 
L 87.36969 256.215031 
L 90.397901 259.523103 
L 93.426113 262.50535 
L 96.454325 265.173192 
L 99.482536 267.541465 
L 102.510748 269.629145 
L 105.633591 271.512219 
L 108.851066 273.194597 
L 112.257804 274.724865 
L 115.853805 276.098322 
L 119.733701 277.344369 
L 123.992124 278.477757 
L 128.723705 279.502644 
L 134.023075 280.416423 
L 139.984866 281.213393 
L 145.568132 281.788102 
L 145.568132 281.788102 
" clip-path="url(#p9f63797860)" style="fill: none; stroke: #008000; stroke-width: 1.5; stroke-linecap: square"/>
   </g>
   <g id="line2d_15">
    <path d="M 50.841887 283.771099 
L 51.028184 -1 
M 51.26517 -1 
L 51.504308 21.460067 
L 52.829151 45.439131 
L 55.668099 93.619838 
L 58.128521 131.69158 
L 60.210417 160.664647 
L 62.103049 184.050128 
L 63.806418 202.52668 
L 65.415155 217.708624 
L 66.929261 230.030714 
L 68.443367 240.541577 
L 69.862841 248.868457 
L 71.282315 255.85175 
L 72.607158 261.284776 
L 73.932001 265.795236 
L 75.256843 269.503928 
L 76.487054 272.330813 
L 77.717265 274.651827 
L 79.042108 276.67494 
L 80.36695 278.288018 
L 81.691793 279.565681 
L 83.111267 280.63421 
L 84.625373 281.502529 
L 86.328742 282.221549 
L 88.316006 282.805408 
L 90.681796 283.251314 
L 93.615376 283.564405 
L 97.684535 283.756795 
L 104.592643 283.825728 
L 145.568132 283.771959 
L 145.568132 283.771959 
" clip-path="url(#p9f63797860)" style="fill: none; stroke: #0000ff; stroke-width: 1.5; stroke-linecap: square"/>
   </g>
   <g id="patch_3">
    <path d="M 47.6875 300.04 
L 47.6875 7.2 
" style="fill: none; stroke: #000000; stroke-width: 0.8; stroke-linejoin: miter; stroke-linecap: square"/>
   </g>
   <g id="patch_4">
    <path d="M 145.4735 300.04 
L 145.4735 7.2 
" style="fill: none; stroke: #000000; stroke-width: 0.8; stroke-linejoin: miter; stroke-linecap: square"/>
   </g>
   <g id="patch_5">
    <path d="M 47.6875 300.04 
L 145.4735 300.04 
" style="fill: none; stroke: #000000; stroke-width: 0.8; stroke-linejoin: miter; stroke-linecap: square"/>
   </g>
   <g id="patch_6">
    <path d="M 47.6875 7.2 
L 145.4735 7.2 
" style="fill: none; stroke: #000000; stroke-width: 0.8; stroke-linejoin: miter; stroke-linecap: square"/>
   </g>
   <g id="text_14">
    <g id="patch_7">
     <path d="M 130.8056 264.953062 
C 133.149747 264.953062 135.398199 264.021723 137.055761 262.364161 
C 138.713323 260.706599 139.644663 258.458147 139.644663 256.114 
C 139.644663 253.769853 138.713323 251.521401 137.055761 249.863839 
C 135.398199 248.206277 133.149747 247.274937 130.8056 247.274937 
C 128.461453 247.274937 126.213001 248.206277 124.555439 249.863839 
C 122.897877 251.521401 121.966538 253.769853 121.966538 256.114 
C 121.966538 258.458147 122.897877 260.706599 124.555439 262.364161 
C 126.213001 264.021723 128.461453 264.953062 130.8056 264.953062 
z
" style="fill: #ffffff; stroke: #000000; stroke-linejoin: miter"/>
    </g>
    <!-- $a$ -->
    <g transform="translate(127.7056 258.873375) scale(0.1 -0.1)">
     <defs>
      <path id="DejaVuSans-Oblique-61" d="M 3438 1997 
L 3047 0 
L 2472 0 
L 2578 531 
Q 2325 219 2001 64 
Q 1678 -91 1281 -91 
Q 834 -91 548 182 
Q 263 456 263 884 
Q 263 1497 752 1853 
Q 1241 2209 2100 2209 
L 2900 2209 
L 2931 2363 
Q 2938 2388 2941 2417 
Q 2944 2447 2944 2509 
Q 2944 2788 2717 2942 
Q 2491 3097 2081 3097 
Q 1800 3097 1504 3025 
Q 1209 2953 897 2809 
L 997 3341 
Q 1322 3463 1633 3523 
Q 1944 3584 2234 3584 
Q 2853 3584 3176 3315 
Q 3500 3047 3500 2534 
Q 3500 2431 3484 2292 
Q 3469 2153 3438 1997 
z
M 2816 1759 
L 2241 1759 
Q 1534 1759 1195 1570 
Q 856 1381 856 984 
Q 856 709 1029 553 
Q 1203 397 1509 397 
Q 1978 397 2328 733 
Q 2678 1069 2791 1631 
L 2816 1759 
z
" transform="scale(0.015625)"/>
     </defs>
     <use xlink:href="#DejaVuSans-Oblique-61"/>
    </g>
   </g>
  </g>
  <g id="axes_2">
   <g id="patch_8">
    <path d="M 196.3435 300.04 
L 294.1295 300.04 
L 294.1295 7.2 
L 196.3435 7.2 
z
" style="fill: #ffffff"/>
   </g>
   <g id="matplotlib.axis_3">
    <g id="xtick_3">
     <g id="line2d_16">
      <g>
       <use xlink:href="#mc87a3699ae" x="199.497887" y="300.04" style="stroke: #000000; stroke-width: 0.8"/>
      </g>
     </g>
     <g id="text_15">
      <!-- 0 -->
      <g transform="translate(196.316637 314.638437) scale(0.1 -0.1)">
       <use xlink:href="#DejaVuSans-30"/>
      </g>
     </g>
    </g>
    <g id="xtick_4">
     <g id="line2d_17">
      <g>
       <use xlink:href="#mc87a3699ae" x="262.585629" y="300.04" style="stroke: #000000; stroke-width: 0.8"/>
      </g>
     </g>
     <g id="text_16">
      <!-- 20 -->
      <g transform="translate(256.223129 314.638437) scale(0.1 -0.1)">
       <use xlink:href="#DejaVuSans-32"/>
       <use xlink:href="#DejaVuSans-30" transform="translate(63.623047 0)"/>
      </g>
     </g>
    </g>
    <g id="text_17">
     <!-- time (s) -->
     <g transform="translate(225.845094 328.316562) scale(0.1 -0.1)">
      <use xlink:href="#DejaVuSans-74"/>
      <use xlink:href="#DejaVuSans-69" transform="translate(39.208984 0)"/>
      <use xlink:href="#DejaVuSans-6d" transform="translate(66.992188 0)"/>
      <use xlink:href="#DejaVuSans-65" transform="translate(164.404297 0)"/>
      <use xlink:href="#DejaVuSans-20" transform="translate(225.927734 0)"/>
      <use xlink:href="#DejaVuSans-28" transform="translate(257.714844 0)"/>
      <use xlink:href="#DejaVuSans-73" transform="translate(296.728516 0)"/>
      <use xlink:href="#DejaVuSans-29" transform="translate(348.828125 0)"/>
     </g>
    </g>
   </g>
   <g id="matplotlib.axis_4">
    <g id="ytick_10">
     <g id="line2d_18">
      <g>
       <use xlink:href="#m3b4ee7bbb5" x="196.3435" y="283.771111" style="stroke: #000000; stroke-width: 0.8"/>
      </g>
     </g>
     <g id="text_18">
      <!-- 0 -->
      <g transform="translate(182.981 287.57033) scale(0.1 -0.1)">
       <use xlink:href="#DejaVuSans-30"/>
      </g>
     </g>
    </g>
    <g id="ytick_11">
     <g id="line2d_19">
      <g>
       <use xlink:href="#m3b4ee7bbb5" x="196.3435" y="251.233333" style="stroke: #000000; stroke-width: 0.8"/>
      </g>
     </g>
     <g id="text_19">
      <!-- 50 -->
      <g transform="translate(176.6185 255.032552) scale(0.1 -0.1)">
       <use xlink:href="#DejaVuSans-35"/>
       <use xlink:href="#DejaVuSans-30" transform="translate(63.623047 0)"/>
      </g>
     </g>
    </g>
    <g id="ytick_12">
     <g id="line2d_20">
      <g>
       <use xlink:href="#m3b4ee7bbb5" x="196.3435" y="218.695556" style="stroke: #000000; stroke-width: 0.8"/>
      </g>
     </g>
     <g id="text_20">
      <!-- 100 -->
      <g transform="translate(170.256 222.494774) scale(0.1 -0.1)">
       <use xlink:href="#DejaVuSans-31"/>
       <use xlink:href="#DejaVuSans-30" transform="translate(63.623047 0)"/>
       <use xlink:href="#DejaVuSans-30" transform="translate(127.246094 0)"/>
      </g>
     </g>
    </g>
    <g id="ytick_13">
     <g id="line2d_21">
      <g>
       <use xlink:href="#m3b4ee7bbb5" x="196.3435" y="186.157778" style="stroke: #000000; stroke-width: 0.8"/>
      </g>
     </g>
     <g id="text_21">
      <!-- 150 -->
      <g transform="translate(170.256 189.956997) scale(0.1 -0.1)">
       <use xlink:href="#DejaVuSans-31"/>
       <use xlink:href="#DejaVuSans-35" transform="translate(63.623047 0)"/>
       <use xlink:href="#DejaVuSans-30" transform="translate(127.246094 0)"/>
      </g>
     </g>
    </g>
    <g id="ytick_14">
     <g id="line2d_22">
      <g>
       <use xlink:href="#m3b4ee7bbb5" x="196.3435" y="153.62" style="stroke: #000000; stroke-width: 0.8"/>
      </g>
     </g>
     <g id="text_22">
      <!-- 200 -->
      <g transform="translate(170.256 157.419219) scale(0.1 -0.1)">
       <use xlink:href="#DejaVuSans-32"/>
       <use xlink:href="#DejaVuSans-30" transform="translate(63.623047 0)"/>
       <use xlink:href="#DejaVuSans-30" transform="translate(127.246094 0)"/>
      </g>
     </g>
    </g>
    <g id="ytick_15">
     <g id="line2d_23">
      <g>
       <use xlink:href="#m3b4ee7bbb5" x="196.3435" y="121.082222" style="stroke: #000000; stroke-width: 0.8"/>
      </g>
     </g>
     <g id="text_23">
      <!-- 250 -->
      <g transform="translate(170.256 124.881441) scale(0.1 -0.1)">
       <use xlink:href="#DejaVuSans-32"/>
       <use xlink:href="#DejaVuSans-35" transform="translate(63.623047 0)"/>
       <use xlink:href="#DejaVuSans-30" transform="translate(127.246094 0)"/>
      </g>
     </g>
    </g>
    <g id="ytick_16">
     <g id="line2d_24">
      <g>
       <use xlink:href="#m3b4ee7bbb5" x="196.3435" y="88.544444" style="stroke: #000000; stroke-width: 0.8"/>
      </g>
     </g>
     <g id="text_24">
      <!-- 300 -->
      <g transform="translate(170.256 92.343663) scale(0.1 -0.1)">
       <use xlink:href="#DejaVuSans-33"/>
       <use xlink:href="#DejaVuSans-30" transform="translate(63.623047 0)"/>
       <use xlink:href="#DejaVuSans-30" transform="translate(127.246094 0)"/>
      </g>
     </g>
    </g>
    <g id="ytick_17">
     <g id="line2d_25">
      <g>
       <use xlink:href="#m3b4ee7bbb5" x="196.3435" y="56.006667" style="stroke: #000000; stroke-width: 0.8"/>
      </g>
     </g>
     <g id="text_25">
      <!-- 350 -->
      <g transform="translate(170.256 59.805885) scale(0.1 -0.1)">
       <use xlink:href="#DejaVuSans-33"/>
       <use xlink:href="#DejaVuSans-35" transform="translate(63.623047 0)"/>
       <use xlink:href="#DejaVuSans-30" transform="translate(127.246094 0)"/>
      </g>
     </g>
    </g>
    <g id="ytick_18">
     <g id="line2d_26">
      <g>
       <use xlink:href="#m3b4ee7bbb5" x="196.3435" y="23.468889" style="stroke: #000000; stroke-width: 0.8"/>
      </g>
     </g>
     <g id="text_26">
      <!-- 400 -->
      <g transform="translate(170.256 27.268108) scale(0.1 -0.1)">
       <use xlink:href="#DejaVuSans-34"/>
       <use xlink:href="#DejaVuSans-30" transform="translate(63.623047 0)"/>
       <use xlink:href="#DejaVuSans-30" transform="translate(127.246094 0)"/>
      </g>
     </g>
    </g>
    <g id="text_27">
     <!-- proton deficient (fraction) -->
     <g transform="translate(164.176312 218.014531) rotate(-90) scale(0.1 -0.1)">
      <defs>
       <path id="DejaVuSans-70" d="M 1159 525 
L 1159 -1331 
L 581 -1331 
L 581 3500 
L 1159 3500 
L 1159 2969 
Q 1341 3281 1617 3432 
Q 1894 3584 2278 3584 
Q 2916 3584 3314 3078 
Q 3713 2572 3713 1747 
Q 3713 922 3314 415 
Q 2916 -91 2278 -91 
Q 1894 -91 1617 61 
Q 1341 213 1159 525 
z
M 3116 1747 
Q 3116 2381 2855 2742 
Q 2594 3103 2138 3103 
Q 1681 3103 1420 2742 
Q 1159 2381 1159 1747 
Q 1159 1113 1420 752 
Q 1681 391 2138 391 
Q 2594 391 2855 752 
Q 3116 1113 3116 1747 
z
" transform="scale(0.015625)"/>
       <path id="DejaVuSans-72" d="M 2631 2963 
Q 2534 3019 2420 3045 
Q 2306 3072 2169 3072 
Q 1681 3072 1420 2755 
Q 1159 2438 1159 1844 
L 1159 0 
L 581 0 
L 581 3500 
L 1159 3500 
L 1159 2956 
Q 1341 3275 1631 3429 
Q 1922 3584 2338 3584 
Q 2397 3584 2469 3576 
Q 2541 3569 2628 3553 
L 2631 2963 
z
" transform="scale(0.015625)"/>
       <path id="DejaVuSans-6e" d="M 3513 2113 
L 3513 0 
L 2938 0 
L 2938 2094 
Q 2938 2591 2744 2837 
Q 2550 3084 2163 3084 
Q 1697 3084 1428 2787 
Q 1159 2491 1159 1978 
L 1159 0 
L 581 0 
L 581 3500 
L 1159 3500 
L 1159 2956 
Q 1366 3272 1645 3428 
Q 1925 3584 2291 3584 
Q 2894 3584 3203 3211 
Q 3513 2838 3513 2113 
z
" transform="scale(0.015625)"/>
       <path id="DejaVuSans-64" d="M 2906 2969 
L 2906 4863 
L 3481 4863 
L 3481 0 
L 2906 0 
L 2906 525 
Q 2725 213 2448 61 
Q 2172 -91 1784 -91 
Q 1150 -91 751 415 
Q 353 922 353 1747 
Q 353 2572 751 3078 
Q 1150 3584 1784 3584 
Q 2172 3584 2448 3432 
Q 2725 3281 2906 2969 
z
M 947 1747 
Q 947 1113 1208 752 
Q 1469 391 1925 391 
Q 2381 391 2643 752 
Q 2906 1113 2906 1747 
Q 2906 2381 2643 2742 
Q 2381 3103 1925 3103 
Q 1469 3103 1208 2742 
Q 947 2381 947 1747 
z
" transform="scale(0.015625)"/>
       <path id="DejaVuSans-63" d="M 3122 3366 
L 3122 2828 
Q 2878 2963 2633 3030 
Q 2388 3097 2138 3097 
Q 1578 3097 1268 2742 
Q 959 2388 959 1747 
Q 959 1106 1268 751 
Q 1578 397 2138 397 
Q 2388 397 2633 464 
Q 2878 531 3122 666 
L 3122 134 
Q 2881 22 2623 -34 
Q 2366 -91 2075 -91 
Q 1284 -91 818 406 
Q 353 903 353 1747 
Q 353 2603 823 3093 
Q 1294 3584 2113 3584 
Q 2378 3584 2631 3529 
Q 2884 3475 3122 3366 
z
" transform="scale(0.015625)"/>
       <path id="DejaVuSans-61" d="M 2194 1759 
Q 1497 1759 1228 1600 
Q 959 1441 959 1056 
Q 959 750 1161 570 
Q 1363 391 1709 391 
Q 2188 391 2477 730 
Q 2766 1069 2766 1631 
L 2766 1759 
L 2194 1759 
z
M 3341 1997 
L 3341 0 
L 2766 0 
L 2766 531 
Q 2569 213 2275 61 
Q 1981 -91 1556 -91 
Q 1019 -91 701 211 
Q 384 513 384 1019 
Q 384 1609 779 1909 
Q 1175 2209 1959 2209 
L 2766 2209 
L 2766 2266 
Q 2766 2663 2505 2880 
Q 2244 3097 1772 3097 
Q 1472 3097 1187 3025 
Q 903 2953 641 2809 
L 641 3341 
Q 956 3463 1253 3523 
Q 1550 3584 1831 3584 
Q 2591 3584 2966 3190 
Q 3341 2797 3341 1997 
z
" transform="scale(0.015625)"/>
      </defs>
      <use xlink:href="#DejaVuSans-70"/>
      <use xlink:href="#DejaVuSans-72" transform="translate(63.476562 0)"/>
      <use xlink:href="#DejaVuSans-6f" transform="translate(102.339844 0)"/>
      <use xlink:href="#DejaVuSans-74" transform="translate(163.521484 0)"/>
      <use xlink:href="#DejaVuSans-6f" transform="translate(202.730469 0)"/>
      <use xlink:href="#DejaVuSans-6e" transform="translate(263.912109 0)"/>
      <use xlink:href="#DejaVuSans-20" transform="translate(327.291016 0)"/>
      <use xlink:href="#DejaVuSans-64" transform="translate(359.078125 0)"/>
      <use xlink:href="#DejaVuSans-65" transform="translate(422.554688 0)"/>
      <use xlink:href="#DejaVuSans-66" transform="translate(484.078125 0)"/>
      <use xlink:href="#DejaVuSans-69" transform="translate(519.283203 0)"/>
      <use xlink:href="#DejaVuSans-63" transform="translate(547.066406 0)"/>
      <use xlink:href="#DejaVuSans-69" transform="translate(602.046875 0)"/>
      <use xlink:href="#DejaVuSans-65" transform="translate(629.830078 0)"/>
      <use xlink:href="#DejaVuSans-6e" transform="translate(691.353516 0)"/>
      <use xlink:href="#DejaVuSans-74" transform="translate(754.732422 0)"/>
      <use xlink:href="#DejaVuSans-20" transform="translate(793.941406 0)"/>
      <use xlink:href="#DejaVuSans-28" transform="translate(825.728516 0)"/>
      <use xlink:href="#DejaVuSans-66" transform="translate(864.742188 0)"/>
      <use xlink:href="#DejaVuSans-72" transform="translate(899.947266 0)"/>
      <use xlink:href="#DejaVuSans-61" transform="translate(941.060547 0)"/>
      <use xlink:href="#DejaVuSans-63" transform="translate(1002.339844 0)"/>
      <use xlink:href="#DejaVuSans-74" transform="translate(1057.320312 0)"/>
      <use xlink:href="#DejaVuSans-69" transform="translate(1096.529297 0)"/>
      <use xlink:href="#DejaVuSans-6f" transform="translate(1124.3125 0)"/>
      <use xlink:href="#DejaVuSans-6e" transform="translate(1185.494141 0)"/>
      <use xlink:href="#DejaVuSans-29" transform="translate(1248.873047 0)"/>
     </g>
    </g>
   </g>
   <g id="line2d_27">
    <path d="M 199.497887 283.771111 
L 199.592519 291.599951 
L 199.664103 338.59625 
M 199.75726 338.59625 
L 200.065677 294.536212 
L 200.25494 285.80517 
L 200.444203 284.049814 
L 200.633466 283.769831 
L 201.106625 283.719973 
L 239.716323 283.719543 
L 294.224132 283.719558 
L 294.224132 283.719558 
" clip-path="url(#pf3dc8fdd07)" style="fill: none; stroke: #ff0000; stroke-width: 1.5; stroke-linecap: square"/>
   </g>
   <g id="line2d_28">
    <path d="M 199.497887 283.771111 
L 199.680434 338.59625 
M 199.69929 338.59625 
L 200.065677 280.706237 
L 200.25494 271.567832 
L 200.444203 269.909121 
L 200.633466 269.689035 
L 201.201256 269.689031 
L 232.713583 271.511545 
L 265.550753 273.175174 
L 294.224132 274.469221 
L 294.224132 274.469221 
" clip-path="url(#pf3dc8fdd07)" style="fill: none; stroke: #ffa500; stroke-width: 1.5; stroke-linecap: square"/>
   </g>
   <g id="line2d_29">
    <path d="M 199.497887 283.771111 
L 199.592519 237.192416 
L 199.68715 256.052412 
L 199.971045 200.078986 
L 200.160308 182.365071 
L 200.349572 180.603132 
L 200.728098 181.677431 
L 203.850941 190.945468 
L 206.973785 199.524597 
L 210.096628 207.472235 
L 213.314103 215.05131 
L 216.531577 222.056247 
L 219.749052 228.525285 
L 222.966527 234.491222 
L 226.184002 239.982134 
L 229.306845 244.879779 
L 232.429688 249.370268 
L 235.552532 253.468159 
L 238.580743 257.078242 
L 241.608955 260.340381 
L 244.542535 263.179236 
L 247.476115 265.714817 
L 250.409695 267.963771 
L 253.437906 270.006334 
L 256.56075 271.842897 
L 259.778225 273.479833 
L 263.184963 274.966394 
L 266.875595 276.331494 
L 270.850123 277.561638 
L 275.203177 278.673167 
L 280.02939 279.671759 
L 285.423392 280.556353 
L 291.574446 281.333279 
L 294.224132 281.606764 
L 294.224132 281.606764 
" clip-path="url(#pf3dc8fdd07)" style="fill: none; stroke: #008000; stroke-width: 1.5; stroke-linecap: square"/>
   </g>
   <g id="line2d_30">
    <path d="M 199.497887 283.771111 
L 199.68715 72.358759 
L 199.876414 15.154098 
L 200.065677 1.886612 
L 200.160308 1.777853 
L 201.201256 21.712087 
L 204.040205 73.843478 
L 206.500626 115.181877 
L 208.677154 148.130427 
L 210.569786 173.588338 
L 212.367786 194.808591 
L 213.976524 211.300049 
L 215.49063 224.711681 
L 217.004735 236.174883 
L 218.42421 245.27422 
L 219.843684 252.919942 
L 221.168526 258.879197 
L 222.493369 263.834986 
L 223.818212 267.916536 
L 225.048423 271.032404 
L 226.278634 273.594285 
L 227.508845 275.68675 
L 228.833687 277.501635 
L 230.15853 278.941849 
L 231.578004 280.148615 
L 233.09211 281.131347 
L 234.700847 281.908478 
L 236.498848 282.531962 
L 238.675375 283.038265 
L 241.32506 283.409498 
L 244.82643 283.655789 
L 250.1258 283.77758 
L 262.522541 283.770098 
L 294.224132 283.735492 
L 294.224132 283.735492 
" clip-path="url(#pf3dc8fdd07)" style="fill: none; stroke: #0000ff; stroke-width: 1.5; stroke-linecap: square"/>
   </g>
   <g id="patch_9">
    <path d="M 196.3435 300.04 
L 196.3435 7.2 
" style="fill: none; stroke: #000000; stroke-width: 0.8; stroke-linejoin: miter; stroke-linecap: square"/>
   </g>
   <g id="patch_10">
    <path d="M 294.1295 300.04 
L 294.1295 7.2 
" style="fill: none; stroke: #000000; stroke-width: 0.8; stroke-linejoin: miter; stroke-linecap: square"/>
   </g>
   <g id="patch_11">
    <path d="M 196.3435 300.04 
L 294.1295 300.04 
" style="fill: none; stroke: #000000; stroke-width: 0.8; stroke-linejoin: miter; stroke-linecap: square"/>
   </g>
   <g id="patch_12">
    <path d="M 196.3435 7.2 
L 294.1295 7.2 
" style="fill: none; stroke: #000000; stroke-width: 0.8; stroke-linejoin: miter; stroke-linecap: square"/>
   </g>
   <g id="text_28">
    <g id="patch_13">
     <path d="M 279.4616 264.953062 
C 281.805747 264.953062 284.054199 264.021723 285.711761 262.364161 
C 287.369323 260.706599 288.300662 258.458147 288.300662 256.114 
C 288.300662 253.769853 287.369323 251.521401 285.711761 249.863839 
C 284.054199 248.206277 281.805747 247.274937 279.4616 247.274937 
C 277.117453 247.274937 274.869001 248.206277 273.211439 249.863839 
C 271.553877 251.521401 270.622537 253.769853 270.622537 256.114 
C 270.622537 258.458147 271.553877 260.706599 273.211439 262.364161 
C 274.869001 264.021723 277.117453 264.953062 279.4616 264.953062 
z
" style="fill: #ffffff; stroke: #000000; stroke-linejoin: miter"/>
    </g>
    <!-- $b$ -->
    <g transform="translate(276.2616 258.873375) scale(0.1 -0.1)">
     <defs>
      <path id="DejaVuSans-Oblique-62" d="M 3169 2138 
Q 3169 2591 2961 2847 
Q 2753 3103 2388 3103 
Q 2122 3103 1889 2973 
Q 1656 2844 1484 2597 
Q 1303 2338 1198 1995 
Q 1094 1653 1094 1313 
Q 1094 881 1298 636 
Q 1503 391 1863 391 
Q 2134 391 2365 517 
Q 2597 644 2772 891 
Q 2950 1147 3059 1487 
Q 3169 1828 3169 2138 
z
M 1381 2969 
Q 1594 3256 1914 3420 
Q 2234 3584 2584 3584 
Q 3122 3584 3439 3221 
Q 3756 2859 3756 2241 
Q 3756 1734 3570 1259 
Q 3384 784 3041 416 
Q 2816 172 2522 40 
Q 2228 -91 1906 -91 
Q 1566 -91 1316 65 
Q 1066 222 909 531 
L 806 0 
L 231 0 
L 1178 4863 
L 1753 4863 
L 1381 2969 
z
" transform="scale(0.015625)"/>
     </defs>
     <use xlink:href="#DejaVuSans-Oblique-62" transform="translate(0 0.015625)"/>
    </g>
   </g>
   <g id="legend_1">
    <g id="line2d_31">
     <path d="M 210.426375 20.298438 
L 220.426375 20.298438 
L 230.426375 20.298438 
" style="fill: none; stroke: #ff0000; stroke-width: 1.5; stroke-linecap: square"/>
    </g>
    <g id="text_29">
     <!-- P = 0X -->
     <g transform="translate(238.426375 23.798438) scale(0.1 -0.1)">
      <defs>
       <path id="DejaVuSans-3d" d="M 678 2906 
L 4684 2906 
L 4684 2381 
L 678 2381 
L 678 2906 
z
M 678 1631 
L 4684 1631 
L 4684 1100 
L 678 1100 
L 678 1631 
z
" transform="scale(0.015625)"/>
       <path id="DejaVuSans-58" d="M 403 4666 
L 1081 4666 
L 2241 2931 
L 3406 4666 
L 4084 4666 
L 2584 2425 
L 4184 0 
L 3506 0 
L 2194 1984 
L 872 0 
L 191 0 
L 1856 2491 
L 403 4666 
z
" transform="scale(0.015625)"/>
      </defs>
      <use xlink:href="#DejaVuSans-50"/>
      <use xlink:href="#DejaVuSans-20" transform="translate(60.302734 0)"/>
      <use xlink:href="#DejaVuSans-3d" transform="translate(92.089844 0)"/>
      <use xlink:href="#DejaVuSans-20" transform="translate(175.878906 0)"/>
      <use xlink:href="#DejaVuSans-30" transform="translate(207.666016 0)"/>
      <use xlink:href="#DejaVuSans-58" transform="translate(271.289062 0)"/>
     </g>
    </g>
    <g id="line2d_32">
     <path d="M 210.426375 34.976563 
L 220.426375 34.976563 
L 230.426375 34.976563 
" style="fill: none; stroke: #ffa500; stroke-width: 1.5; stroke-linecap: square"/>
    </g>
    <g id="text_30">
     <!-- P = 1X -->
     <g transform="translate(238.426375 38.476563) scale(0.1 -0.1)">
      <use xlink:href="#DejaVuSans-50"/>
      <use xlink:href="#DejaVuSans-20" transform="translate(60.302734 0)"/>
      <use xlink:href="#DejaVuSans-3d" transform="translate(92.089844 0)"/>
      <use xlink:href="#DejaVuSans-20" transform="translate(175.878906 0)"/>
      <use xlink:href="#DejaVuSans-31" transform="translate(207.666016 0)"/>
      <use xlink:href="#DejaVuSans-58" transform="translate(271.289062 0)"/>
     </g>
    </g>
    <g id="line2d_33">
     <path d="M 210.426375 49.654688 
L 220.426375 49.654688 
L 230.426375 49.654688 
" style="fill: none; stroke: #008000; stroke-width: 1.5; stroke-linecap: square"/>
    </g>
    <g id="text_31">
     <!-- P = 10X -->
     <g transform="translate(238.426375 53.154688) scale(0.1 -0.1)">
      <use xlink:href="#DejaVuSans-50"/>
      <use xlink:href="#DejaVuSans-20" transform="translate(60.302734 0)"/>
      <use xlink:href="#DejaVuSans-3d" transform="translate(92.089844 0)"/>
      <use xlink:href="#DejaVuSans-20" transform="translate(175.878906 0)"/>
      <use xlink:href="#DejaVuSans-31" transform="translate(207.666016 0)"/>
      <use xlink:href="#DejaVuSans-30" transform="translate(271.289062 0)"/>
      <use xlink:href="#DejaVuSans-58" transform="translate(334.912109 0)"/>
     </g>
    </g>
    <g id="line2d_34">
     <path d="M 210.426375 64.332813 
L 220.426375 64.332813 
L 230.426375 64.332813 
" style="fill: none; stroke: #0000ff; stroke-width: 1.5; stroke-linecap: square"/>
    </g>
    <g id="text_32">
     <!-- P = 100X -->
     <g transform="translate(238.426375 67.832813) scale(0.1 -0.1)">
      <use xlink:href="#DejaVuSans-50"/>
      <use xlink:href="#DejaVuSans-20" transform="translate(60.302734 0)"/>
      <use xlink:href="#DejaVuSans-3d" transform="translate(92.089844 0)"/>
      <use xlink:href="#DejaVuSans-20" transform="translate(175.878906 0)"/>
      <use xlink:href="#DejaVuSans-31" transform="translate(207.666016 0)"/>
      <use xlink:href="#DejaVuSans-30" transform="translate(271.289062 0)"/>
      <use xlink:href="#DejaVuSans-30" transform="translate(334.912109 0)"/>
      <use xlink:href="#DejaVuSans-58" transform="translate(398.535156 0)"/>
     </g>
    </g>
   </g>
  </g>
  <g id="axes_3">
   <g id="patch_14">
    <path d="M 344.9995 300.04 
L 442.7855 300.04 
L 442.7855 7.2 
L 344.9995 7.2 
z
" style="fill: #ffffff"/>
   </g>
   <g id="matplotlib.axis_5">
    <g id="xtick_5">
     <g id="line2d_35">
      <g>
       <use xlink:href="#mc87a3699ae" x="348.153887" y="300.04" style="stroke: #000000; stroke-width: 0.8"/>
      </g>
     </g>
     <g id="text_33">
      <!-- 0 -->
      <g transform="translate(344.972637 314.638437) scale(0.1 -0.1)">
       <use xlink:href="#DejaVuSans-30"/>
      </g>
     </g>
    </g>
    <g id="xtick_6">
     <g id="line2d_36">
      <g>
       <use xlink:href="#mc87a3699ae" x="411.241629" y="300.04" style="stroke: #000000; stroke-width: 0.8"/>
      </g>
     </g>
     <g id="text_34">
      <!-- 20 -->
      <g transform="translate(404.879129 314.638437) scale(0.1 -0.1)">
       <use xlink:href="#DejaVuSans-32"/>
       <use xlink:href="#DejaVuSans-30" transform="translate(63.623047 0)"/>
      </g>
     </g>
    </g>
    <g id="text_35">
     <!-- time (s) -->
     <g transform="translate(374.501094 328.316562) scale(0.1 -0.1)">
      <use xlink:href="#DejaVuSans-74"/>
      <use xlink:href="#DejaVuSans-69" transform="translate(39.208984 0)"/>
      <use xlink:href="#DejaVuSans-6d" transform="translate(66.992188 0)"/>
      <use xlink:href="#DejaVuSans-65" transform="translate(164.404297 0)"/>
      <use xlink:href="#DejaVuSans-20" transform="translate(225.927734 0)"/>
      <use xlink:href="#DejaVuSans-28" transform="translate(257.714844 0)"/>
      <use xlink:href="#DejaVuSans-73" transform="translate(296.728516 0)"/>
      <use xlink:href="#DejaVuSans-29" transform="translate(348.828125 0)"/>
     </g>
    </g>
   </g>
   <g id="matplotlib.axis_6">
    <g id="ytick_19">
     <g id="line2d_37">
      <g>
       <use xlink:href="#m3b4ee7bbb5" x="344.9995" y="281.7375" style="stroke: #000000; stroke-width: 0.8"/>
      </g>
     </g>
     <g id="text_36">
      <!-- 0 -->
      <g transform="translate(331.637 285.536719) scale(0.1 -0.1)">
       <use xlink:href="#DejaVuSans-30"/>
      </g>
     </g>
    </g>
    <g id="ytick_20">
     <g id="line2d_38">
      <g>
       <use xlink:href="#m3b4ee7bbb5" x="344.9995" y="245.1325" style="stroke: #000000; stroke-width: 0.8"/>
      </g>
     </g>
     <g id="text_37">
      <!-- 20 -->
      <g transform="translate(325.2745 248.931719) scale(0.1 -0.1)">
       <use xlink:href="#DejaVuSans-32"/>
       <use xlink:href="#DejaVuSans-30" transform="translate(63.623047 0)"/>
      </g>
     </g>
    </g>
    <g id="ytick_21">
     <g id="line2d_39">
      <g>
       <use xlink:href="#m3b4ee7bbb5" x="344.9995" y="208.5275" style="stroke: #000000; stroke-width: 0.8"/>
      </g>
     </g>
     <g id="text_38">
      <!-- 40 -->
      <g transform="translate(325.2745 212.326719) scale(0.1 -0.1)">
       <use xlink:href="#DejaVuSans-34"/>
       <use xlink:href="#DejaVuSans-30" transform="translate(63.623047 0)"/>
      </g>
     </g>
    </g>
    <g id="ytick_22">
     <g id="line2d_40">
      <g>
       <use xlink:href="#m3b4ee7bbb5" x="344.9995" y="171.9225" style="stroke: #000000; stroke-width: 0.8"/>
      </g>
     </g>
     <g id="text_39">
      <!-- 60 -->
      <g transform="translate(325.2745 175.721719) scale(0.1 -0.1)">
       <defs>
        <path id="DejaVuSans-36" d="M 2113 2584 
Q 1688 2584 1439 2293 
Q 1191 2003 1191 1497 
Q 1191 994 1439 701 
Q 1688 409 2113 409 
Q 2538 409 2786 701 
Q 3034 994 3034 1497 
Q 3034 2003 2786 2293 
Q 2538 2584 2113 2584 
z
M 3366 4563 
L 3366 3988 
Q 3128 4100 2886 4159 
Q 2644 4219 2406 4219 
Q 1781 4219 1451 3797 
Q 1122 3375 1075 2522 
Q 1259 2794 1537 2939 
Q 1816 3084 2150 3084 
Q 2853 3084 3261 2657 
Q 3669 2231 3669 1497 
Q 3669 778 3244 343 
Q 2819 -91 2113 -91 
Q 1303 -91 875 529 
Q 447 1150 447 2328 
Q 447 3434 972 4092 
Q 1497 4750 2381 4750 
Q 2619 4750 2861 4703 
Q 3103 4656 3366 4563 
z
" transform="scale(0.015625)"/>
       </defs>
       <use xlink:href="#DejaVuSans-36"/>
       <use xlink:href="#DejaVuSans-30" transform="translate(63.623047 0)"/>
      </g>
     </g>
    </g>
    <g id="ytick_23">
     <g id="line2d_41">
      <g>
       <use xlink:href="#m3b4ee7bbb5" x="344.9995" y="135.3175" style="stroke: #000000; stroke-width: 0.8"/>
      </g>
     </g>
     <g id="text_40">
      <!-- 80 -->
      <g transform="translate(325.2745 139.116719) scale(0.1 -0.1)">
       <defs>
        <path id="DejaVuSans-38" d="M 2034 2216 
Q 1584 2216 1326 1975 
Q 1069 1734 1069 1313 
Q 1069 891 1326 650 
Q 1584 409 2034 409 
Q 2484 409 2743 651 
Q 3003 894 3003 1313 
Q 3003 1734 2745 1975 
Q 2488 2216 2034 2216 
z
M 1403 2484 
Q 997 2584 770 2862 
Q 544 3141 544 3541 
Q 544 4100 942 4425 
Q 1341 4750 2034 4750 
Q 2731 4750 3128 4425 
Q 3525 4100 3525 3541 
Q 3525 3141 3298 2862 
Q 3072 2584 2669 2484 
Q 3125 2378 3379 2068 
Q 3634 1759 3634 1313 
Q 3634 634 3220 271 
Q 2806 -91 2034 -91 
Q 1263 -91 848 271 
Q 434 634 434 1313 
Q 434 1759 690 2068 
Q 947 2378 1403 2484 
z
M 1172 3481 
Q 1172 3119 1398 2916 
Q 1625 2713 2034 2713 
Q 2441 2713 2670 2916 
Q 2900 3119 2900 3481 
Q 2900 3844 2670 4047 
Q 2441 4250 2034 4250 
Q 1625 4250 1398 4047 
Q 1172 3844 1172 3481 
z
" transform="scale(0.015625)"/>
       </defs>
       <use xlink:href="#DejaVuSans-38"/>
       <use xlink:href="#DejaVuSans-30" transform="translate(63.623047 0)"/>
      </g>
     </g>
    </g>
    <g id="ytick_24">
     <g id="line2d_42">
      <g>
       <use xlink:href="#m3b4ee7bbb5" x="344.9995" y="98.7125" style="stroke: #000000; stroke-width: 0.8"/>
      </g>
     </g>
     <g id="text_41">
      <!-- 100 -->
      <g transform="translate(318.912 102.511719) scale(0.1 -0.1)">
       <use xlink:href="#DejaVuSans-31"/>
       <use xlink:href="#DejaVuSans-30" transform="translate(63.623047 0)"/>
       <use xlink:href="#DejaVuSans-30" transform="translate(127.246094 0)"/>
      </g>
     </g>
    </g>
    <g id="ytick_25">
     <g id="line2d_43">
      <g>
       <use xlink:href="#m3b4ee7bbb5" x="344.9995" y="62.1075" style="stroke: #000000; stroke-width: 0.8"/>
      </g>
     </g>
     <g id="text_42">
      <!-- 120 -->
      <g transform="translate(318.912 65.906719) scale(0.1 -0.1)">
       <use xlink:href="#DejaVuSans-31"/>
       <use xlink:href="#DejaVuSans-32" transform="translate(63.623047 0)"/>
       <use xlink:href="#DejaVuSans-30" transform="translate(127.246094 0)"/>
      </g>
     </g>
    </g>
    <g id="ytick_26">
     <g id="line2d_44">
      <g>
       <use xlink:href="#m3b4ee7bbb5" x="344.9995" y="25.5025" style="stroke: #000000; stroke-width: 0.8"/>
      </g>
     </g>
     <g id="text_43">
      <!-- 140 -->
      <g transform="translate(318.912 29.301719) scale(0.1 -0.1)">
       <use xlink:href="#DejaVuSans-31"/>
       <use xlink:href="#DejaVuSans-34" transform="translate(63.623047 0)"/>
       <use xlink:href="#DejaVuSans-30" transform="translate(127.246094 0)"/>
      </g>
     </g>
    </g>
    <g id="text_44">
     <!-- ATP deficient (cumulative) -->
     <g transform="translate(312.832313 219.340312) rotate(-90) scale(0.1 -0.1)">
      <defs>
       <path id="DejaVuSans-41" d="M 2188 4044 
L 1331 1722 
L 3047 1722 
L 2188 4044 
z
M 1831 4666 
L 2547 4666 
L 4325 0 
L 3669 0 
L 3244 1197 
L 1141 1197 
L 716 0 
L 50 0 
L 1831 4666 
z
" transform="scale(0.015625)"/>
       <path id="DejaVuSans-54" d="M -19 4666 
L 3928 4666 
L 3928 4134 
L 2272 4134 
L 2272 0 
L 1638 0 
L 1638 4134 
L -19 4134 
L -19 4666 
z
" transform="scale(0.015625)"/>
       <path id="DejaVuSans-76" d="M 191 3500 
L 800 3500 
L 1894 563 
L 2988 3500 
L 3597 3500 
L 2284 0 
L 1503 0 
L 191 3500 
z
" transform="scale(0.015625)"/>
      </defs>
      <use xlink:href="#DejaVuSans-41"/>
      <use xlink:href="#DejaVuSans-54" transform="translate(60.658203 0)"/>
      <use xlink:href="#DejaVuSans-50" transform="translate(121.742188 0)"/>
      <use xlink:href="#DejaVuSans-20" transform="translate(182.044922 0)"/>
      <use xlink:href="#DejaVuSans-64" transform="translate(213.832031 0)"/>
      <use xlink:href="#DejaVuSans-65" transform="translate(277.308594 0)"/>
      <use xlink:href="#DejaVuSans-66" transform="translate(338.832031 0)"/>
      <use xlink:href="#DejaVuSans-69" transform="translate(374.037109 0)"/>
      <use xlink:href="#DejaVuSans-63" transform="translate(401.820312 0)"/>
      <use xlink:href="#DejaVuSans-69" transform="translate(456.800781 0)"/>
      <use xlink:href="#DejaVuSans-65" transform="translate(484.583984 0)"/>
      <use xlink:href="#DejaVuSans-6e" transform="translate(546.107422 0)"/>
      <use xlink:href="#DejaVuSans-74" transform="translate(609.486328 0)"/>
      <use xlink:href="#DejaVuSans-20" transform="translate(648.695312 0)"/>
      <use xlink:href="#DejaVuSans-28" transform="translate(680.482422 0)"/>
      <use xlink:href="#DejaVuSans-63" transform="translate(719.496094 0)"/>
      <use xlink:href="#DejaVuSans-75" transform="translate(774.476562 0)"/>
      <use xlink:href="#DejaVuSans-6d" transform="translate(837.855469 0)"/>
      <use xlink:href="#DejaVuSans-75" transform="translate(935.267578 0)"/>
      <use xlink:href="#DejaVuSans-6c" transform="translate(998.646484 0)"/>
      <use xlink:href="#DejaVuSans-61" transform="translate(1026.429688 0)"/>
      <use xlink:href="#DejaVuSans-74" transform="translate(1087.708984 0)"/>
      <use xlink:href="#DejaVuSans-69" transform="translate(1126.917969 0)"/>
      <use xlink:href="#DejaVuSans-76" transform="translate(1154.701172 0)"/>
      <use xlink:href="#DejaVuSans-65" transform="translate(1213.880859 0)"/>
      <use xlink:href="#DejaVuSans-29" transform="translate(1275.404297 0)"/>
     </g>
    </g>
   </g>
   <g id="line2d_45">
    <path d="M 348.153887 281.7375 
L 348.248519 281.770528 
L 348.816308 283.381091 
L 349.289466 283.42861 
L 385.060216 283.264594 
L 442.880132 282.998786 
L 442.880132 282.998786 
" clip-path="url(#pbcdaadb97f)" style="fill: none; stroke: #ff0000; stroke-width: 1.5; stroke-linecap: square"/>
   </g>
   <g id="line2d_46">
    <path d="M 348.153887 281.7375 
L 348.248519 281.817919 
L 348.627045 282.89307 
L 348.816308 282.85842 
L 349.384098 282.189686 
L 357.617048 272.016273 
L 365.755367 262.315044 
L 373.988317 252.847911 
L 382.221268 243.717722 
L 390.54885 234.813783 
L 398.971063 226.136183 
L 407.393277 217.777183 
L 415.910122 209.637841 
L 424.426967 201.803923 
L 433.038444 194.183917 
L 441.744552 186.778485 
L 442.880132 185.8342 
L 442.880132 185.8342 
" clip-path="url(#pbcdaadb97f)" style="fill: none; stroke: #ffa500; stroke-width: 1.5; stroke-linecap: square"/>
   </g>
   <g id="line2d_47">
    <path d="M 348.153887 281.7375 
L 348.34315 281.227554 
L 348.532414 280.342091 
L 349.005572 276.373251 
L 351.749888 252.127821 
L 354.494205 229.835545 
L 357.238522 209.369102 
L 359.888207 191.229566 
L 362.537892 174.581867 
L 365.187577 159.332426 
L 367.837263 145.392968 
L 370.392316 133.113718 
L 372.94737 121.903461 
L 375.502423 111.694012 
L 377.962845 102.747479 
L 380.423267 94.611952 
L 382.883689 87.232821 
L 385.344111 80.55694 
L 387.804533 74.532429 
L 390.264955 69.10858 
L 392.725377 64.235916 
L 395.185799 59.866426 
L 397.646221 55.953915 
L 400.106643 52.454437 
L 402.661696 49.213295 
L 405.21675 46.330221 
L 407.866435 43.676753 
L 410.610752 41.248135 
L 413.4497 39.037059 
L 416.38328 37.034279 
L 419.506123 35.176657 
L 422.723598 33.519175 
L 426.224968 31.969685 
L 429.915601 30.581156 
L 433.890128 29.322903 
L 438.243183 28.180085 
L 442.880132 27.185268 
L 442.880132 27.185268 
" clip-path="url(#pbcdaadb97f)" style="fill: none; stroke: #008000; stroke-width: 1.5; stroke-linecap: square"/>
   </g>
   <g id="line2d_48">
    <path d="M 348.153887 281.7375 
L 348.248519 281.018913 
L 348.627045 272.948818 
L 350.708941 223.672222 
L 352.41231 188.691719 
L 354.115679 158.298718 
L 355.724416 133.560861 
L 357.238522 113.558454 
L 358.752628 96.486425 
L 360.172102 82.906345 
L 361.591576 71.438767 
L 362.916419 62.436778 
L 364.241261 54.886405 
L 365.566104 48.607724 
L 366.890946 43.430392 
L 368.121157 39.470461 
L 369.351368 36.207479 
L 370.581579 33.536456 
L 371.81179 31.363803 
L 373.042001 29.607257 
L 374.366844 28.099306 
L 375.691686 26.915362 
L 377.111161 25.934433 
L 378.719898 25.103791 
L 380.517899 24.442017 
L 382.599794 23.928233 
L 385.060216 23.556342 
L 388.277691 23.303122 
L 393.103903 23.168033 
L 403.891907 23.153125 
L 438.337814 23.100087 
L 442.880132 23.085795 
L 442.880132 23.085795 
" clip-path="url(#pbcdaadb97f)" style="fill: none; stroke: #0000ff; stroke-width: 1.5; stroke-linecap: square"/>
   </g>
   <g id="patch_15">
    <path d="M 344.9995 300.04 
L 344.9995 7.2 
" style="fill: none; stroke: #000000; stroke-width: 0.8; stroke-linejoin: miter; stroke-linecap: square"/>
   </g>
   <g id="patch_16">
    <path d="M 442.7855 300.04 
L 442.7855 7.2 
" style="fill: none; stroke: #000000; stroke-width: 0.8; stroke-linejoin: miter; stroke-linecap: square"/>
   </g>
   <g id="patch_17">
    <path d="M 344.9995 300.04 
L 442.7855 300.04 
" style="fill: none; stroke: #000000; stroke-width: 0.8; stroke-linejoin: miter; stroke-linecap: square"/>
   </g>
   <g id="patch_18">
    <path d="M 344.9995 7.2 
L 442.7855 7.2 
" style="fill: none; stroke: #000000; stroke-width: 0.8; stroke-linejoin: miter; stroke-linecap: square"/>
   </g>
   <g id="text_45">
    <g id="patch_19">
     <path d="M 428.1176 264.953062 
C 430.461747 264.953062 432.710199 264.021723 434.367761 262.364161 
C 436.025323 260.706599 436.956663 258.458147 436.956663 256.114 
C 436.956663 253.769853 436.025323 251.521401 434.367761 249.863839 
C 432.710199 248.206277 430.461747 247.274937 428.1176 247.274937 
C 425.773453 247.274937 423.525001 248.206277 421.867439 249.863839 
C 420.209877 251.521401 419.278538 253.769853 419.278538 256.114 
C 419.278538 258.458147 420.209877 260.706599 421.867439 262.364161 
C 423.525001 264.021723 425.773453 264.953062 428.1176 264.953062 
z
" style="fill: #ffffff; stroke: #000000; stroke-linejoin: miter"/>
    </g>
    <!-- $c$ -->
    <g transform="translate(425.3676 258.873375) scale(0.1 -0.1)">
     <defs>
      <path id="DejaVuSans-Oblique-63" d="M 3431 3366 
L 3316 2797 
Q 3109 2947 2876 3022 
Q 2644 3097 2394 3097 
Q 2119 3097 1870 3000 
Q 1622 2903 1453 2725 
Q 1184 2453 1037 2087 
Q 891 1722 891 1331 
Q 891 859 1127 628 
Q 1363 397 1844 397 
Q 2081 397 2348 469 
Q 2616 541 2906 684 
L 2797 116 
Q 2547 13 2283 -39 
Q 2019 -91 1741 -91 
Q 1044 -91 669 257 
Q 294 606 294 1253 
Q 294 1797 489 2255 
Q 684 2713 1069 3078 
Q 1331 3328 1684 3456 
Q 2038 3584 2456 3584 
Q 2700 3584 2940 3529 
Q 3181 3475 3431 3366 
z
" transform="scale(0.015625)"/>
     </defs>
     <use xlink:href="#DejaVuSans-Oblique-63"/>
    </g>
   </g>
  </g>
 </g>
 <defs>
  <clipPath id="p9f63797860">
   <rect x="47.6875" y="7.2" width="97.786" height="292.84"/>
  </clipPath>
  <clipPath id="pf3dc8fdd07">
   <rect x="196.3435" y="7.2" width="97.786" height="292.84"/>
  </clipPath>
  <clipPath id="pbcdaadb97f">
   <rect x="344.9995" y="7.2" width="97.786" height="292.84"/>
  </clipPath>
 </defs>
</svg>
