<?xml version="1.0" encoding="utf-8" standalone="no"?>
<!DOCTYPE svg PUBLIC "-//W3C//DTD SVG 1.1//EN"
  "http://www.w3.org/Graphics/SVG/1.1/DTD/svg11.dtd">
<svg xmlns:xlink="http://www.w3.org/1999/xlink" width="855.806719pt" height="280.758086pt" viewBox="0 0 855.806719 280.758086" xmlns="http://www.w3.org/2000/svg" version="1.1">
 <metadata>
  <rdf:RDF xmlns:dc="http://purl.org/dc/elements/1.1/" xmlns:cc="http://creativecommons.org/ns#" xmlns:rdf="http://www.w3.org/1999/02/22-rdf-syntax-ns#">
   <cc:Work>
    <dc:type rdf:resource="http://purl.org/dc/dcmitype/StillImage"/>
    <dc:date>2026-06-27T18:48:30.359799</dc:date>
    <dc:format>image/svg+xml</dc:format>
    <dc:creator>
     <cc:Agent>
      <dc:title>Matplotlib v3.11.0, https://matplotlib.org/</dc:title>
     </cc:Agent>
    </dc:creator>
   </cc:Work>
  </rdf:RDF>
 </metadata>
 <defs>
  <style type="text/css">*{stroke-linejoin: round; stroke-linecap: butt}</style>
 </defs>
 <g id="figure_1">
  <g id="patch_1">
   <path d="M -0 280.758086 
L 855.806719 280.758086 
L 855.806719 0 
L -0 0 
z
" style="fill: #ffffff"/>
  </g>
  <g id="axes_1">
   <g id="patch_2">
    <path d="M 44.103906 240.755743 
L 369.055312 240.755743 
L 369.055312 9.084187 
L 44.103906 9.084187 
z
" style="fill: #ffffff"/>
   </g>
   <g id="patch_3">
    <path d="M 47.289704 252.122352 
L 63.218695 252.122352 
L 63.218695 -8.680608 
L 47.289704 -8.680608 
z
" clip-path="url(#p2f90f28644)" style="fill: #f3f2f0; stroke: #000000; stroke-linejoin: miter"/>
   </g>
   <g id="matplotlib.axis_1">
    <g id="xtick_1">
     <g id="line2d_1">
      <defs>
       <path id="mdf89470e57" d="M 0 0 
L 0 3.5 
" style="stroke: #000000; stroke-width: 0.8"/>
      </defs>
      <g>
       <use xlink:href="#mdf89470e57" x="47.289704" y="240.755743" style="stroke: #000000; stroke-width: 0.8"/>
      </g>
     </g>
     <g id="text_1">
      <!-- 0 -->
      <g transform="translate(44.108454 255.353399) scale(0.1 -0.1)">
       <defs>
        <path id="DejaVuSans-13" d="M 2034 4250 
Q 1547 4250 1301 3770 
Q 1056 3291 1056 2328 
Q 1056 1369 1301 889 
Q 1547 409 2034 409 
Q 2525 409 2770 889 
Q 3016 1369 3016 2328 
Q 3016 3291 2770 3770 
Q 2525 4250 2034 4250 
z
M 2034 4750 
Q 2819 4750 3233 4129 
Q 3647 3509 3647 2328 
Q 3647 1150 3233 529 
Q 2819 -91 2034 -91 
Q 1250 -91 836 529 
Q 422 1150 422 2328 
Q 422 3509 836 4129 
Q 1250 4750 2034 4750 
z
" transform="scale(0.015625)"/>
       </defs>
       <use xlink:href="#DejaVuSans-13"/>
      </g>
     </g>
    </g>
    <g id="xtick_2">
     <g id="line2d_2">
      <g>
       <use xlink:href="#mdf89470e57" x="111.005666" y="240.755743" style="stroke: #000000; stroke-width: 0.8"/>
      </g>
     </g>
     <g id="text_2">
      <!-- 200 -->
      <g transform="translate(101.461916 255.353399) scale(0.1 -0.1)">
       <defs>
        <path id="DejaVuSans-15" d="M 1228 531 
L 3431 531 
L 3431 0 
L 469 0 
L 469 531 
Q 828 903 1448 1529 
Q 2069 2156 2228 2338 
Q 2531 2678 2651 2914 
Q 2772 3150 2772 3378 
Q 2772 3750 2511 3984 
Q 2250 4219 1831 4219 
Q 1534 4219 1204 4116 
Q 875 4013 500 3803 
L 500 4441 
Q 881 4594 1212 4672 
Q 1544 4750 1819 4750 
Q 2544 4750 2975 4387 
Q 3406 4025 3406 3419 
Q 3406 3131 3298 2873 
Q 3191 2616 2906 2266 
Q 2828 2175 2409 1742 
Q 1991 1309 1228 531 
z
" transform="scale(0.015625)"/>
       </defs>
       <use xlink:href="#DejaVuSans-15"/>
       <use xlink:href="#DejaVuSans-13" transform="translate(63.625 0)"/>
       <use xlink:href="#DejaVuSans-13" transform="translate(127.25 0)"/>
      </g>
     </g>
    </g>
    <g id="xtick_3">
     <g id="line2d_3">
      <g>
       <use xlink:href="#mdf89470e57" x="174.721628" y="240.755743" style="stroke: #000000; stroke-width: 0.8"/>
      </g>
     </g>
     <g id="text_3">
      <!-- 400 -->
      <g transform="translate(165.177878 255.353399) scale(0.1 -0.1)">
       <defs>
        <path id="DejaVuSans-17" d="M 2419 4116 
L 825 1625 
L 2419 1625 
L 2419 4116 
z
M 2253 4666 
L 3047 4666 
L 3047 1625 
L 3713 1625 
L 3713 1100 
L 3047 1100 
L 3047 0 
L 2419 0 
L 2419 1100 
L 313 1100 
L 313 1709 
L 2253 4666 
z
" transform="scale(0.015625)"/>
       </defs>
       <use xlink:href="#DejaVuSans-17"/>
       <use xlink:href="#DejaVuSans-13" transform="translate(63.625 0)"/>
       <use xlink:href="#DejaVuSans-13" transform="translate(127.25 0)"/>
      </g>
     </g>
    </g>
    <g id="xtick_4">
     <g id="line2d_4">
      <g>
       <use xlink:href="#mdf89470e57" x="238.43759" y="240.755743" style="stroke: #000000; stroke-width: 0.8"/>
      </g>
     </g>
     <g id="text_4">
      <!-- 600 -->
      <g transform="translate(228.89384 255.353399) scale(0.1 -0.1)">
       <defs>
        <path id="DejaVuSans-19" d="M 2113 2584 
Q 1688 2584 1439 2293 
Q 1191 2003 1191 1497 
Q 1191 994 1439 701 
Q 1688 409 2113 409 
Q 2538 409 2786 701 
Q 3034 994 3034 1497 
Q 3034 2003 2786 2293 
Q 2538 2584 2113 2584 
z
M 3366 4563 
L 3366 3988 
Q 3128 4100 2886 4159 
Q 2644 4219 2406 4219 
Q 1781 4219 1451 3797 
Q 1122 3375 1075 2522 
Q 1259 2794 1537 2939 
Q 1816 3084 2150 3084 
Q 2853 3084 3261 2657 
Q 3669 2231 3669 1497 
Q 3669 778 3244 343 
Q 2819 -91 2113 -91 
Q 1303 -91 875 529 
Q 447 1150 447 2328 
Q 447 3434 972 4092 
Q 1497 4750 2381 4750 
Q 2619 4750 2861 4703 
Q 3103 4656 3366 4563 
z
" transform="scale(0.015625)"/>
       </defs>
       <use xlink:href="#DejaVuSans-19"/>
       <use xlink:href="#DejaVuSans-13" transform="translate(63.625 0)"/>
       <use xlink:href="#DejaVuSans-13" transform="translate(127.25 0)"/>
      </g>
     </g>
    </g>
    <g id="xtick_5">
     <g id="line2d_5">
      <g>
       <use xlink:href="#mdf89470e57" x="302.153552" y="240.755743" style="stroke: #000000; stroke-width: 0.8"/>
      </g>
     </g>
     <g id="text_5">
      <!-- 800 -->
      <g transform="translate(292.609802 255.353399) scale(0.1 -0.1)">
       <defs>
        <path id="DejaVuSans-1b" d="M 2034 2216 
Q 1584 2216 1326 1975 
Q 1069 1734 1069 1313 
Q 1069 891 1326 650 
Q 1584 409 2034 409 
Q 2484 409 2743 651 
Q 3003 894 3003 1313 
Q 3003 1734 2745 1975 
Q 2488 2216 2034 2216 
z
M 1403 2484 
Q 997 2584 770 2862 
Q 544 3141 544 3541 
Q 544 4100 942 4425 
Q 1341 4750 2034 4750 
Q 2731 4750 3128 4425 
Q 3525 4100 3525 3541 
Q 3525 3141 3298 2862 
Q 3072 2584 2669 2484 
Q 3125 2378 3379 2068 
Q 3634 1759 3634 1313 
Q 3634 634 3220 271 
Q 2806 -91 2034 -91 
Q 1263 -91 848 271 
Q 434 634 434 1313 
Q 434 1759 690 2068 
Q 947 2378 1403 2484 
z
M 1172 3481 
Q 1172 3119 1398 2916 
Q 1625 2713 2034 2713 
Q 2441 2713 2670 2916 
Q 2900 3119 2900 3481 
Q 2900 3844 2670 4047 
Q 2441 4250 2034 4250 
Q 1625 4250 1398 4047 
Q 1172 3844 1172 3481 
z
" transform="scale(0.015625)"/>
       </defs>
       <use xlink:href="#DejaVuSans-1b"/>
       <use xlink:href="#DejaVuSans-13" transform="translate(63.625 0)"/>
       <use xlink:href="#DejaVuSans-13" transform="translate(127.25 0)"/>
      </g>
     </g>
    </g>
    <g id="xtick_6">
     <g id="line2d_6">
      <g>
       <use xlink:href="#mdf89470e57" x="365.869514" y="240.755743" style="stroke: #000000; stroke-width: 0.8"/>
      </g>
     </g>
     <g id="text_6">
      <!-- 1000 -->
      <g transform="translate(353.144514 255.353399) scale(0.1 -0.1)">
       <defs>
        <path id="DejaVuSans-14" d="M 794 531 
L 1825 531 
L 1825 4091 
L 703 3866 
L 703 4441 
L 1819 4666 
L 2450 4666 
L 2450 531 
L 3481 531 
L 3481 0 
L 794 0 
L 794 531 
z
" transform="scale(0.015625)"/>
       </defs>
       <use xlink:href="#DejaVuSans-14"/>
       <use xlink:href="#DejaVuSans-13" transform="translate(63.625 0)"/>
       <use xlink:href="#DejaVuSans-13" transform="translate(127.25 0)"/>
       <use xlink:href="#DejaVuSans-13" transform="translate(190.875 0)"/>
      </g>
     </g>
    </g>
    <g id="text_7">
     <!-- Light Intensity (µmol photons $\cdot$ m$^{-2}$ $\cdot$ s$^{-1}$) -->
     <g transform="translate(103.229609 271.155743) scale(0.1 -0.1)">
      <defs>
       <path id="DejaVuSans-2f" d="M 628 4666 
L 1259 4666 
L 1259 531 
L 3531 531 
L 3531 0 
L 628 0 
L 628 4666 
z
" transform="scale(0.015625)"/>
       <path id="DejaVuSans-4c" d="M 603 3500 
L 1178 3500 
L 1178 0 
L 603 0 
L 603 3500 
z
M 603 4863 
L 1178 4863 
L 1178 4134 
L 603 4134 
L 603 4863 
z
" transform="scale(0.015625)"/>
       <path id="DejaVuSans-4a" d="M 2906 1791 
Q 2906 2416 2648 2759 
Q 2391 3103 1925 3103 
Q 1463 3103 1205 2759 
Q 947 2416 947 1791 
Q 947 1169 1205 825 
Q 1463 481 1925 481 
Q 2391 481 2648 825 
Q 2906 1169 2906 1791 
z
M 3481 434 
Q 3481 -459 3084 -895 
Q 2688 -1331 1869 -1331 
Q 1566 -1331 1297 -1286 
Q 1028 -1241 775 -1147 
L 775 -588 
Q 1028 -725 1275 -790 
Q 1522 -856 1778 -856 
Q 2344 -856 2625 -561 
Q 2906 -266 2906 331 
L 2906 616 
Q 2728 306 2450 153 
Q 2172 0 1784 0 
Q 1141 0 747 490 
Q 353 981 353 1791 
Q 353 2603 747 3093 
Q 1141 3584 1784 3584 
Q 2172 3584 2450 3431 
Q 2728 3278 2906 2969 
L 2906 3500 
L 3481 3500 
L 3481 434 
z
" transform="scale(0.015625)"/>
       <path id="DejaVuSans-4b" d="M 3513 2113 
L 3513 0 
L 2938 0 
L 2938 2094 
Q 2938 2591 2744 2837 
Q 2550 3084 2163 3084 
Q 1697 3084 1428 2787 
Q 1159 2491 1159 1978 
L 1159 0 
L 581 0 
L 581 4863 
L 1159 4863 
L 1159 2956 
Q 1366 3272 1645 3428 
Q 1925 3584 2291 3584 
Q 2894 3584 3203 3211 
Q 3513 2838 3513 2113 
z
" transform="scale(0.015625)"/>
       <path id="DejaVuSans-57" d="M 1172 4494 
L 1172 3500 
L 2356 3500 
L 2356 3053 
L 1172 3053 
L 1172 1153 
Q 1172 725 1289 603 
Q 1406 481 1766 481 
L 2356 481 
L 2356 0 
L 1766 0 
Q 1100 0 847 248 
Q 594 497 594 1153 
L 594 3053 
L 172 3053 
L 172 3500 
L 594 3500 
L 594 4494 
L 1172 4494 
z
" transform="scale(0.015625)"/>
       <path id="DejaVuSans-3" transform="scale(0.015625)"/>
       <path id="DejaVuSans-2c" d="M 628 4666 
L 1259 4666 
L 1259 0 
L 628 0 
L 628 4666 
z
" transform="scale(0.015625)"/>
       <path id="DejaVuSans-51" d="M 3513 2113 
L 3513 0 
L 2938 0 
L 2938 2094 
Q 2938 2591 2744 2837 
Q 2550 3084 2163 3084 
Q 1697 3084 1428 2787 
Q 1159 2491 1159 1978 
L 1159 0 
L 581 0 
L 581 3500 
L 1159 3500 
L 1159 2956 
Q 1366 3272 1645 3428 
Q 1925 3584 2291 3584 
Q 2894 3584 3203 3211 
Q 3513 2838 3513 2113 
z
" transform="scale(0.015625)"/>
       <path id="DejaVuSans-48" d="M 3597 1894 
L 3597 1613 
L 953 1613 
Q 991 1019 1311 708 
Q 1631 397 2203 397 
Q 2534 397 2845 478 
Q 3156 559 3463 722 
L 3463 178 
Q 3153 47 2828 -22 
Q 2503 -91 2169 -91 
Q 1331 -91 842 396 
Q 353 884 353 1716 
Q 353 2575 817 3079 
Q 1281 3584 2069 3584 
Q 2775 3584 3186 3129 
Q 3597 2675 3597 1894 
z
M 3022 2063 
Q 3016 2534 2758 2815 
Q 2500 3097 2075 3097 
Q 1594 3097 1305 2825 
Q 1016 2553 972 2059 
L 3022 2063 
z
" transform="scale(0.015625)"/>
       <path id="DejaVuSans-56" d="M 2834 3397 
L 2834 2853 
Q 2591 2978 2328 3040 
Q 2066 3103 1784 3103 
Q 1356 3103 1142 2972 
Q 928 2841 928 2578 
Q 928 2378 1081 2264 
Q 1234 2150 1697 2047 
L 1894 2003 
Q 2506 1872 2764 1633 
Q 3022 1394 3022 966 
Q 3022 478 2636 193 
Q 2250 -91 1575 -91 
Q 1294 -91 989 -36 
Q 684 19 347 128 
L 347 722 
Q 666 556 975 473 
Q 1284 391 1588 391 
Q 1994 391 2212 530 
Q 2431 669 2431 922 
Q 2431 1156 2273 1281 
Q 2116 1406 1581 1522 
L 1381 1569 
Q 847 1681 609 1914 
Q 372 2147 372 2553 
Q 372 3047 722 3315 
Q 1072 3584 1716 3584 
Q 2034 3584 2315 3537 
Q 2597 3491 2834 3397 
z
" transform="scale(0.015625)"/>
       <path id="DejaVuSans-5c" d="M 2059 -325 
Q 1816 -950 1584 -1140 
Q 1353 -1331 966 -1331 
L 506 -1331 
L 506 -850 
L 844 -850 
Q 1081 -850 1212 -737 
Q 1344 -625 1503 -206 
L 1606 56 
L 191 3500 
L 800 3500 
L 1894 763 
L 2988 3500 
L 3597 3500 
L 2059 -325 
z
" transform="scale(0.015625)"/>
       <path id="DejaVuSans-b" d="M 1984 4856 
Q 1566 4138 1362 3434 
Q 1159 2731 1159 2009 
Q 1159 1288 1364 580 
Q 1569 -128 1984 -844 
L 1484 -844 
Q 1016 -109 783 600 
Q 550 1309 550 2009 
Q 550 2706 781 3412 
Q 1013 4119 1484 4856 
L 1984 4856 
z
" transform="scale(0.015625)"/>
       <path id="DejaVuSans-77" d="M 544 -1331 
L 544 3500 
L 1119 3500 
L 1119 1325 
Q 1119 872 1334 640 
Q 1550 409 1972 409 
Q 2434 409 2667 671 
Q 2900 934 2900 1459 
L 2900 3500 
L 3475 3500 
L 3475 806 
Q 3475 619 3529 530 
Q 3584 441 3700 441 
Q 3728 441 3778 458 
Q 3828 475 3916 513 
L 3916 50 
Q 3788 -22 3673 -56 
Q 3559 -91 3450 -91 
Q 3234 -91 3106 31 
Q 2978 153 2931 403 
Q 2775 156 2548 32 
Q 2322 -91 2016 -91 
Q 1697 -91 1473 31 
Q 1250 153 1119 397 
L 1119 -1331 
L 544 -1331 
z
" transform="scale(0.015625)"/>
       <path id="DejaVuSans-50" d="M 3328 2828 
Q 3544 3216 3844 3400 
Q 4144 3584 4550 3584 
Q 5097 3584 5394 3201 
Q 5691 2819 5691 2113 
L 5691 0 
L 5113 0 
L 5113 2094 
Q 5113 2597 4934 2840 
Q 4756 3084 4391 3084 
Q 3944 3084 3684 2787 
Q 3425 2491 3425 1978 
L 3425 0 
L 2847 0 
L 2847 2094 
Q 2847 2600 2669 2842 
Q 2491 3084 2119 3084 
Q 1678 3084 1418 2786 
Q 1159 2488 1159 1978 
L 1159 0 
L 581 0 
L 581 3500 
L 1159 3500 
L 1159 2956 
Q 1356 3278 1631 3431 
Q 1906 3584 2284 3584 
Q 2666 3584 2933 3390 
Q 3200 3197 3328 2828 
z
" transform="scale(0.015625)"/>
       <path id="DejaVuSans-52" d="M 1959 3097 
Q 1497 3097 1228 2736 
Q 959 2375 959 1747 
Q 959 1119 1226 758 
Q 1494 397 1959 397 
Q 2419 397 2687 759 
Q 2956 1122 2956 1747 
Q 2956 2369 2687 2733 
Q 2419 3097 1959 3097 
z
M 1959 3584 
Q 2709 3584 3137 3096 
Q 3566 2609 3566 1747 
Q 3566 888 3137 398 
Q 2709 -91 1959 -91 
Q 1206 -91 779 398 
Q 353 888 353 1747 
Q 353 2609 779 3096 
Q 1206 3584 1959 3584 
z
" transform="scale(0.015625)"/>
       <path id="DejaVuSans-4f" d="M 603 4863 
L 1178 4863 
L 1178 0 
L 603 0 
L 603 4863 
z
" transform="scale(0.015625)"/>
       <path id="DejaVuSans-53" d="M 1159 525 
L 1159 -1331 
L 581 -1331 
L 581 3500 
L 1159 3500 
L 1159 2969 
Q 1341 3281 1617 3432 
Q 1894 3584 2278 3584 
Q 2916 3584 3314 3078 
Q 3713 2572 3713 1747 
Q 3713 922 3314 415 
Q 2916 -91 2278 -91 
Q 1894 -91 1617 61 
Q 1341 213 1159 525 
z
M 3116 1747 
Q 3116 2381 2855 2742 
Q 2594 3103 2138 3103 
Q 1681 3103 1420 2742 
Q 1159 2381 1159 1747 
Q 1159 1113 1420 752 
Q 1681 391 2138 391 
Q 2594 391 2855 752 
Q 3116 1113 3116 1747 
z
" transform="scale(0.015625)"/>
       <path id="DejaVuSans-d4f" d="M 684 2619 
L 1344 2619 
L 1344 1825 
L 684 1825 
L 684 2619 
z
" transform="scale(0.015625)"/>
       <path id="DejaVuSans-c9c" d="M 678 2272 
L 4684 2272 
L 4684 1741 
L 678 1741 
L 678 2272 
z
" transform="scale(0.015625)"/>
       <path id="DejaVuSans-c" d="M 513 4856 
L 1013 4856 
Q 1481 4119 1714 3412 
Q 1947 2706 1947 2009 
Q 1947 1309 1714 600 
Q 1481 -109 1013 -844 
L 513 -844 
Q 928 -128 1133 580 
Q 1338 1288 1338 2009 
Q 1338 2731 1133 3434 
Q 928 4138 513 4856 
z
" transform="scale(0.015625)"/>
      </defs>
      <use xlink:href="#DejaVuSans-2f" transform="translate(0 0.746875)"/>
      <use xlink:href="#DejaVuSans-4c" transform="translate(55.712891 0.746875)"/>
      <use xlink:href="#DejaVuSans-4a" transform="translate(83.496094 0.746875)"/>
      <use xlink:href="#DejaVuSans-4b" transform="translate(146.972656 0.746875)"/>
      <use xlink:href="#DejaVuSans-57" transform="translate(210.351562 0.746875)"/>
      <use xlink:href="#DejaVuSans-3" transform="translate(249.560547 0.746875)"/>
      <use xlink:href="#DejaVuSans-2c" transform="translate(281.347656 0.746875)"/>
      <use xlink:href="#DejaVuSans-51" transform="translate(310.839844 0.746875)"/>
      <use xlink:href="#DejaVuSans-57" transform="translate(374.21875 0.746875)"/>
      <use xlink:href="#DejaVuSans-48" transform="translate(413.427734 0.746875)"/>
      <use xlink:href="#DejaVuSans-51" transform="translate(474.951172 0.746875)"/>
      <use xlink:href="#DejaVuSans-56" transform="translate(538.330078 0.746875)"/>
      <use xlink:href="#DejaVuSans-4c" transform="translate(590.429688 0.746875)"/>
      <use xlink:href="#DejaVuSans-57" transform="translate(618.212891 0.746875)"/>
      <use xlink:href="#DejaVuSans-5c" transform="translate(657.421875 0.746875)"/>
      <use xlink:href="#DejaVuSans-3" transform="translate(716.601562 0.746875)"/>
      <use xlink:href="#DejaVuSans-b" transform="translate(748.388672 0.746875)"/>
      <use xlink:href="#DejaVuSans-77" transform="translate(787.402344 0.746875)"/>
      <use xlink:href="#DejaVuSans-50" transform="translate(851.025391 0.746875)"/>
      <use xlink:href="#DejaVuSans-52" transform="translate(948.4375 0.746875)"/>
      <use xlink:href="#DejaVuSans-4f" transform="translate(1009.619141 0.746875)"/>
      <use xlink:href="#DejaVuSans-3" transform="translate(1037.402344 0.746875)"/>
      <use xlink:href="#DejaVuSans-53" transform="translate(1069.189453 0.746875)"/>
      <use xlink:href="#DejaVuSans-4b" transform="translate(1132.666016 0.746875)"/>
      <use xlink:href="#DejaVuSans-52" transform="translate(1196.044922 0.746875)"/>
      <use xlink:href="#DejaVuSans-57" transform="translate(1257.226562 0.746875)"/>
      <use xlink:href="#DejaVuSans-52" transform="translate(1296.435547 0.746875)"/>
      <use xlink:href="#DejaVuSans-51" transform="translate(1357.617188 0.746875)"/>
      <use xlink:href="#DejaVuSans-56" transform="translate(1420.996094 0.746875)"/>
      <use xlink:href="#DejaVuSans-3" transform="translate(1473.095703 0.746875)"/>
      <use xlink:href="#DejaVuSans-d4f" transform="translate(1504.882812 0.746875)"/>
      <use xlink:href="#DejaVuSans-3" transform="translate(1536.669922 0.746875)"/>
      <use xlink:href="#DejaVuSans-50" transform="translate(1568.457031 0.746875)"/>
      <use xlink:href="#DejaVuSans-c9c" transform="translate(1666.826172 42.046875) scale(0.7)"/>
      <use xlink:href="#DejaVuSans-15" transform="translate(1725.478516 42.046875) scale(0.7)"/>
      <use xlink:href="#DejaVuSans-3" transform="translate(1772.749023 0.746875)"/>
      <use xlink:href="#DejaVuSans-d4f" transform="translate(1804.536133 0.746875)"/>
      <use xlink:href="#DejaVuSans-3" transform="translate(1836.323242 0.746875)"/>
      <use xlink:href="#DejaVuSans-56" transform="translate(1868.110352 0.746875)"/>
      <use xlink:href="#DejaVuSans-c9c" transform="translate(1921.166992 42.046875) scale(0.7)"/>
      <use xlink:href="#DejaVuSans-14" transform="translate(1979.819336 42.046875) scale(0.7)"/>
      <use xlink:href="#DejaVuSans-c" transform="translate(2027.089844 0.746875)"/>
     </g>
    </g>
   </g>
   <g id="matplotlib.axis_2">
    <g id="ytick_1">
     <g id="line2d_7">
      <defs>
       <path id="m229496ad3d" d="M 0 0 
L -3.5 0 
" style="stroke: #000000; stroke-width: 0.8"/>
      </defs>
      <g>
       <use xlink:href="#m229496ad3d" x="44.103906" y="189.273175" style="stroke: #000000; stroke-width: 0.8"/>
      </g>
     </g>
     <g id="text_8">
      <!-- 0.2 -->
      <g transform="translate(21.200781 193.072003) scale(0.1 -0.1)">
       <defs>
        <path id="DejaVuSans-11" d="M 684 794 
L 1344 794 
L 1344 0 
L 684 0 
L 684 794 
z
" transform="scale(0.015625)"/>
       </defs>
       <use xlink:href="#DejaVuSans-13"/>
       <use xlink:href="#DejaVuSans-11" transform="translate(63.625 0)"/>
       <use xlink:href="#DejaVuSans-15" transform="translate(95.40625 0)"/>
      </g>
     </g>
    </g>
    <g id="ytick_2">
     <g id="line2d_8">
      <g>
       <use xlink:href="#m229496ad3d" x="44.103906" y="137.790607" style="stroke: #000000; stroke-width: 0.8"/>
      </g>
     </g>
     <g id="text_9">
      <!-- 0.4 -->
      <g transform="translate(21.200781 141.589435) scale(0.1 -0.1)">
       <use xlink:href="#DejaVuSans-13"/>
       <use xlink:href="#DejaVuSans-11" transform="translate(63.625 0)"/>
       <use xlink:href="#DejaVuSans-17" transform="translate(95.40625 0)"/>
      </g>
     </g>
    </g>
    <g id="ytick_3">
     <g id="line2d_9">
      <g>
       <use xlink:href="#m229496ad3d" x="44.103906" y="86.308039" style="stroke: #000000; stroke-width: 0.8"/>
      </g>
     </g>
     <g id="text_10">
      <!-- 0.6 -->
      <g transform="translate(21.200781 90.106867) scale(0.1 -0.1)">
       <use xlink:href="#DejaVuSans-13"/>
       <use xlink:href="#DejaVuSans-11" transform="translate(63.625 0)"/>
       <use xlink:href="#DejaVuSans-19" transform="translate(95.40625 0)"/>
      </g>
     </g>
    </g>
    <g id="ytick_4">
     <g id="line2d_10">
      <g>
       <use xlink:href="#m229496ad3d" x="44.103906" y="34.825471" style="stroke: #000000; stroke-width: 0.8"/>
      </g>
     </g>
     <g id="text_11">
      <!-- 0.8 -->
      <g transform="translate(21.200781 38.624299) scale(0.1 -0.1)">
       <use xlink:href="#DejaVuSans-13"/>
       <use xlink:href="#DejaVuSans-11" transform="translate(63.625 0)"/>
       <use xlink:href="#DejaVuSans-1b" transform="translate(95.40625 0)"/>
      </g>
     </g>
    </g>
    <g id="text_12">
     <!-- Concentrations Ratios -->
     <g transform="translate(14.798438 179.926215) rotate(-90) scale(0.1 -0.1)">
      <defs>
       <path id="DejaVuSans-26" d="M 4122 4306 
L 4122 3641 
Q 3803 3938 3442 4084 
Q 3081 4231 2675 4231 
Q 1875 4231 1450 3742 
Q 1025 3253 1025 2328 
Q 1025 1406 1450 917 
Q 1875 428 2675 428 
Q 3081 428 3442 575 
Q 3803 722 4122 1019 
L 4122 359 
Q 3791 134 3420 21 
Q 3050 -91 2638 -91 
Q 1578 -91 968 557 
Q 359 1206 359 2328 
Q 359 3453 968 4101 
Q 1578 4750 2638 4750 
Q 3056 4750 3426 4639 
Q 3797 4528 4122 4306 
z
" transform="scale(0.015625)"/>
       <path id="DejaVuSans-46" d="M 3122 3366 
L 3122 2828 
Q 2878 2963 2633 3030 
Q 2388 3097 2138 3097 
Q 1578 3097 1268 2742 
Q 959 2388 959 1747 
Q 959 1106 1268 751 
Q 1578 397 2138 397 
Q 2388 397 2633 464 
Q 2878 531 3122 666 
L 3122 134 
Q 2881 22 2623 -34 
Q 2366 -91 2075 -91 
Q 1284 -91 818 406 
Q 353 903 353 1747 
Q 353 2603 823 3093 
Q 1294 3584 2113 3584 
Q 2378 3584 2631 3529 
Q 2884 3475 3122 3366 
z
" transform="scale(0.015625)"/>
       <path id="DejaVuSans-55" d="M 2631 2963 
Q 2534 3019 2420 3045 
Q 2306 3072 2169 3072 
Q 1681 3072 1420 2755 
Q 1159 2438 1159 1844 
L 1159 0 
L 581 0 
L 581 3500 
L 1159 3500 
L 1159 2956 
Q 1341 3275 1631 3429 
Q 1922 3584 2338 3584 
Q 2397 3584 2469 3576 
Q 2541 3569 2628 3553 
L 2631 2963 
z
" transform="scale(0.015625)"/>
       <path id="DejaVuSans-44" d="M 2194 1759 
Q 1497 1759 1228 1600 
Q 959 1441 959 1056 
Q 959 750 1161 570 
Q 1363 391 1709 391 
Q 2188 391 2477 730 
Q 2766 1069 2766 1631 
L 2766 1759 
L 2194 1759 
z
M 3341 1997 
L 3341 0 
L 2766 0 
L 2766 531 
Q 2569 213 2275 61 
Q 1981 -91 1556 -91 
Q 1019 -91 701 211 
Q 384 513 384 1019 
Q 384 1609 779 1909 
Q 1175 2209 1959 2209 
L 2766 2209 
L 2766 2266 
Q 2766 2663 2505 2880 
Q 2244 3097 1772 3097 
Q 1472 3097 1187 3025 
Q 903 2953 641 2809 
L 641 3341 
Q 956 3463 1253 3523 
Q 1550 3584 1831 3584 
Q 2591 3584 2966 3190 
Q 3341 2797 3341 1997 
z
" transform="scale(0.015625)"/>
       <path id="DejaVuSans-35" d="M 2841 2188 
Q 3044 2119 3236 1894 
Q 3428 1669 3622 1275 
L 4263 0 
L 3584 0 
L 2988 1197 
Q 2756 1666 2539 1819 
Q 2322 1972 1947 1972 
L 1259 1972 
L 1259 0 
L 628 0 
L 628 4666 
L 2053 4666 
Q 2853 4666 3247 4331 
Q 3641 3997 3641 3322 
Q 3641 2881 3436 2590 
Q 3231 2300 2841 2188 
z
M 1259 4147 
L 1259 2491 
L 2053 2491 
Q 2509 2491 2742 2702 
Q 2975 2913 2975 3322 
Q 2975 3731 2742 3939 
Q 2509 4147 2053 4147 
L 1259 4147 
z
" transform="scale(0.015625)"/>
      </defs>
      <use xlink:href="#DejaVuSans-26"/>
      <use xlink:href="#DejaVuSans-52" transform="translate(69.828125 0)"/>
      <use xlink:href="#DejaVuSans-51" transform="translate(131.015625 0)"/>
      <use xlink:href="#DejaVuSans-46" transform="translate(194.390625 0)"/>
      <use xlink:href="#DejaVuSans-48" transform="translate(249.375 0)"/>
      <use xlink:href="#DejaVuSans-51" transform="translate(310.90625 0)"/>
      <use xlink:href="#DejaVuSans-57" transform="translate(374.28125 0)"/>
      <use xlink:href="#DejaVuSans-55" transform="translate(413.484375 0)"/>
      <use xlink:href="#DejaVuSans-44" transform="translate(454.59375 0)"/>
      <use xlink:href="#DejaVuSans-57" transform="translate(515.875 0)"/>
      <use xlink:href="#DejaVuSans-4c" transform="translate(555.078125 0)"/>
      <use xlink:href="#DejaVuSans-52" transform="translate(582.859375 0)"/>
      <use xlink:href="#DejaVuSans-51" transform="translate(644.046875 0)"/>
      <use xlink:href="#DejaVuSans-56" transform="translate(707.421875 0)"/>
      <use xlink:href="#DejaVuSans-3" transform="translate(759.515625 0)"/>
      <use xlink:href="#DejaVuSans-35" transform="translate(791.296875 0)"/>
      <use xlink:href="#DejaVuSans-44" transform="translate(858.578125 0)"/>
      <use xlink:href="#DejaVuSans-57" transform="translate(919.859375 0)"/>
      <use xlink:href="#DejaVuSans-4c" transform="translate(959.0625 0)"/>
      <use xlink:href="#DejaVuSans-52" transform="translate(986.84375 0)"/>
      <use xlink:href="#DejaVuSans-56" transform="translate(1048.03125 0)"/>
     </g>
    </g>
   </g>
   <g id="line2d_11">
    <path d="M 50.475502 239.553606 
L 53.661301 234.754889 
L 56.847099 228.922608 
L 60.032897 222.87681 
L 63.218695 216.839212 
L 66.404493 210.893918 
L 69.590291 205.078228 
L 72.776089 199.409516 
L 75.961887 193.895407 
L 79.147685 188.538298 
L 82.333483 183.337609 
L 85.519282 178.290992 
L 88.70508 173.395035 
L 91.890878 168.645682 
L 95.076676 164.038502 
L 98.262474 159.568861 
L 101.448272 155.232041 
L 104.63407 151.023312 
L 107.819868 146.937996 
L 111.005666 142.971492 
L 114.191464 139.119313 
L 117.377263 135.377095 
L 120.563061 131.740612 
L 123.748859 128.205782 
L 126.934657 124.768672 
L 130.120455 121.425497 
L 133.306253 118.17262 
L 136.492051 115.006552 
L 139.677849 111.92395 
L 142.863647 108.921608 
L 146.049445 105.996461 
L 149.235244 103.145574 
L 152.421042 100.366142 
L 155.60684 97.655484 
L 158.792638 95.011036 
L 161.978436 92.430351 
L 165.164234 89.911091 
L 168.350032 87.451024 
L 171.53583 85.048018 
L 174.721628 82.700039 
L 177.907426 80.405145 
L 181.093225 78.161483 
L 184.279023 75.967286 
L 187.464821 73.820872 
L 190.650619 71.720622 
L 193.836417 69.665014 
L 197.022215 67.652585 
L 200.208013 65.681942 
L 203.393811 63.751761 
L 206.579609 61.860781 
L 209.765407 60.007804 
L 212.951206 58.191691 
L 216.137004 56.411363 
L 219.322802 54.665795 
L 222.5086 52.95402 
L 225.694398 51.275124 
L 228.880196 49.628246 
L 232.065994 48.012578 
L 235.251792 46.427365 
L 238.43759 44.871902 
L 241.623388 43.345541 
L 244.809187 41.847684 
L 247.994985 40.377788 
L 251.180783 38.935366 
L 254.366581 37.519987 
L 257.552379 36.131284 
L 260.738177 34.76895 
L 263.923975 33.432745 
L 267.109773 32.122502 
L 270.295571 30.83813 
L 273.481369 29.579619 
L 276.667168 28.347052 
L 279.852966 27.140608 
L 283.038764 25.960573 
L 286.224562 24.807352 
L 289.41036 23.681478 
L 292.596158 22.583627 
L 295.781956 21.514626 
L 298.967754 20.475471 
L 302.153552 19.467335 
L 305.33935 18.491575 
L 308.525149 17.549738 
L 311.710947 16.643558 
L 314.896745 15.774933 
L 318.082543 14.945901 
L 321.268341 14.158578 
L 324.454139 13.415085 
L 327.639937 12.717438 
L 330.825735 12.067411 
L 334.011533 11.466391 
L 337.197331 10.915214 
L 340.38313 10.414034 
L 343.568928 9.962219 
L 346.754726 9.558325 
L 349.940524 9.200135 
L 353.126322 8.884771 
L 356.31212 8.608862 
L 359.497918 8.368738 
L 362.683716 8.160617 
L 365.869514 7.980773 
" clip-path="url(#p2f90f28644)" style="fill: none; stroke: #8eb133; stroke-width: 2; stroke-linecap: square"/>
   </g>
   <g id="line2d_12">
    <path d="M 50.475502 240.267672 
L 53.661301 237.686438 
L 56.847099 234.027214 
L 60.032897 229.861114 
L 63.218695 225.406008 
L 66.404493 220.773417 
L 69.590291 216.031038 
L 72.776089 211.224415 
L 75.961887 206.386279 
L 79.147685 201.541202 
L 82.333483 196.708174 
L 85.519282 191.902163 
L 88.70508 187.135106 
L 91.890878 182.416593 
L 95.076676 177.754339 
L 98.262474 173.154546 
L 101.448272 168.622163 
L 104.63407 164.161103 
L 107.819868 159.774409 
L 111.005666 155.464385 
L 114.191464 151.232718 
L 117.377263 147.080564 
L 120.563061 143.008631 
L 123.748859 139.017247 
L 126.934657 135.106415 
L 130.120455 131.275867 
L 133.306253 127.525103 
L 136.492051 123.853428 
L 139.677849 120.259988 
L 142.863647 116.743795 
L 146.049445 113.303751 
L 149.235244 109.938671 
L 152.421042 106.647299 
L 155.60684 103.428325 
L 158.792638 100.2804 
L 161.978436 97.202146 
L 165.164234 94.192166 
L 168.350032 91.249056 
L 171.53583 88.371409 
L 174.721628 85.557825 
L 177.907426 82.806913 
L 181.093225 80.1173 
L 184.279023 77.487632 
L 187.464821 74.916573 
L 190.650619 72.40284 
L 193.836417 69.945138 
L 197.022215 67.542234 
L 200.208013 65.192917 
L 203.393811 62.896017 
L 206.579609 60.650396 
L 209.765407 58.454957 
L 212.951206 56.30864 
L 216.137004 54.210426 
L 219.322802 52.159338 
L 222.5086 50.15444 
L 225.694398 48.194836 
L 228.880196 46.279681 
L 232.065994 44.408168 
L 235.251792 42.579539 
L 238.43759 40.793085 
L 241.623388 39.04814 
L 244.809187 37.344094 
L 247.994985 35.680386 
L 251.180783 34.056507 
L 254.366581 32.472012 
L 257.552379 30.926505 
L 260.738177 29.419659 
L 263.923975 27.951208 
L 267.109773 26.520959 
L 270.295571 25.12879 
L 273.481369 23.774659 
L 276.667168 22.458606 
L 279.852966 21.180761 
L 283.038764 19.941352 
L 286.224562 18.740705 
L 289.41036 17.579256 
L 292.596158 16.457557 
L 295.781956 15.376277 
L 298.967754 14.336208 
L 302.153552 13.338265 
L 305.33935 12.383481 
L 308.525149 11.472996 
L 311.710947 10.608039 
L 314.896745 9.789891 
L 318.082543 9.019841 
L 321.268341 8.299121 
L 324.454139 7.628814 
L 327.639937 7.009756 
L 330.825735 6.442415 
L 334.011533 5.926768 
L 337.197331 5.462195 
L 340.38313 5.047401 
L 343.568928 4.680389 
L 346.754726 4.358494 
L 349.940524 4.078482 
L 353.126322 3.836701 
L 356.31212 3.629257 
L 359.497918 3.452199 
L 362.683716 3.301677 
L 365.869514 3.174072 
" clip-path="url(#p2f90f28644)" style="fill: none; stroke: #e19d20; stroke-width: 2; stroke-linecap: square"/>
   </g>
   <g id="line2d_13">
    <path d="M 50.475502 157.617725 
L 53.661301 171.701896 
L 56.847099 175.686127 
L 60.032897 176.391526 
L 63.218695 175.640871 
L 66.404493 174.143902 
L 69.590291 172.235509 
L 72.776089 170.093572 
L 75.961887 167.820455 
L 79.147685 165.478513 
L 82.333483 163.107337 
L 85.519282 160.73283 
L 88.70508 158.372293 
L 91.890878 156.03743 
L 95.076676 153.736194 
L 98.262474 151.473964 
L 101.448272 149.254319 
L 104.63407 147.079555 
L 107.819868 144.951044 
L 111.005666 142.869486 
L 114.191464 140.835089 
L 117.377263 138.847696 
L 120.563061 136.906884 
L 123.748859 135.012032 
L 126.934657 133.162376 
L 130.120455 131.357048 
L 133.306253 129.595106 
L 136.492051 127.87556 
L 139.677849 126.197389 
L 142.863647 124.559553 
L 146.049445 122.961006 
L 149.235244 121.400705 
L 152.421042 119.877613 
L 155.60684 118.390709 
L 158.792638 116.938988 
L 161.978436 115.521464 
L 165.164234 114.137175 
L 168.350032 112.785183 
L 171.53583 111.464572 
L 174.721628 110.174455 
L 177.907426 108.91397 
L 181.093225 107.682281 
L 184.279023 106.478579 
L 187.464821 105.302079 
L 190.650619 104.15203 
L 193.836417 103.027695 
L 197.022215 101.928369 
L 200.208013 100.853373 
L 203.393811 99.80205 
L 206.579609 98.773768 
L 209.765407 97.767918 
L 212.951206 96.783913 
L 216.137004 95.821192 
L 219.322802 94.879213 
L 222.5086 93.957456 
L 225.694398 93.055423 
L 228.880196 92.172638 
L 232.065994 91.308643 
L 235.251792 90.463003 
L 238.43759 89.635299 
L 241.623388 88.825137 
L 244.809187 88.032138 
L 247.994985 87.255945 
L 251.180783 86.496219 
L 254.366581 85.752644 
L 257.552379 85.024918 
L 260.738177 84.312764 
L 263.923975 83.615922 
L 267.109773 82.934154 
L 270.295571 82.267242 
L 273.481369 81.61499 
L 276.667168 80.977224 
L 279.852966 80.353792 
L 283.038764 79.744567 
L 286.224562 79.149444 
L 289.41036 78.568343 
L 292.596158 78.001211 
L 295.781956 77.448017 
L 298.967754 76.908756 
L 302.153552 76.383448 
L 305.33935 75.872132 
L 308.525149 75.374865 
L 311.710947 74.891715 
L 314.896745 74.422755 
L 318.082543 73.968046 
L 321.268341 73.52763 
L 324.454139 73.101502 
L 327.639937 72.689594 
L 330.825735 72.291751 
L 334.011533 71.907706 
L 337.197331 71.537064 
L 340.38313 71.179287 
L 343.568928 70.833702 
L 346.754726 70.499511 
L 349.940524 70.175818 
L 353.126322 69.861669 
L 356.31212 69.556087 
L 359.497918 69.258117 
L 362.683716 68.966852 
L 365.869514 68.681461 
" clip-path="url(#p2f90f28644)" style="fill: none; stroke: #f16431; stroke-width: 2; stroke-linecap: square"/>
   </g>
   <g id="line2d_14">
    <path d="M 50.475502 34.317471 
L 53.661301 54.240277 
L 56.847099 67.167471 
L 60.032897 76.53883 
L 63.218695 83.741873 
L 66.404493 89.492671 
L 69.590291 94.210455 
L 72.776089 98.161144 
L 75.961887 101.523334 
L 79.147685 104.422326 
L 82.333483 106.949138 
L 85.519282 109.171791 
L 88.70508 111.14234 
L 91.890878 112.901428 
L 95.076676 114.481337 
L 98.262474 115.908092 
L 101.448272 117.202945 
L 104.63407 118.383448 
L 107.819868 119.464241 
L 111.005666 120.457646 
L 114.191464 121.374112 
L 117.377263 122.222566 
L 120.563061 123.010681 
L 123.748859 123.745092 
L 126.934657 124.431563 
L 130.120455 125.075128 
L 133.306253 125.680203 
L 136.492051 126.250675 
L 139.677849 126.789979 
L 142.863647 127.301164 
L 146.049445 127.786941 
L 149.235244 128.24973 
L 152.421042 128.691698 
L 155.60684 129.114789 
L 158.792638 129.520755 
L 161.978436 129.911175 
L 165.164234 130.287479 
L 168.350032 130.650964 
L 171.53583 131.002807 
L 174.721628 131.344086 
L 177.907426 131.67578 
L 181.093225 131.998792 
L 184.279023 132.313948 
L 187.464821 132.622006 
L 190.650619 132.92368 
L 193.836417 133.219614 
L 197.022215 133.510415 
L 200.208013 133.796651 
L 203.393811 134.078851 
L 206.579609 134.357511 
L 209.765407 134.633102 
L 212.951206 134.906068 
L 216.137004 135.176832 
L 219.322802 135.445799 
L 222.5086 135.713358 
L 225.694398 135.979885 
L 228.880196 136.245746 
L 232.065994 136.511299 
L 235.251792 136.776894 
L 238.43759 137.042882 
L 241.623388 137.309609 
L 244.809187 137.577423 
L 247.994985 137.846678 
L 251.180783 138.11773 
L 254.366581 138.390948 
L 257.552379 138.666707 
L 260.738177 138.945399 
L 263.923975 139.227431 
L 267.109773 139.513232 
L 270.295571 139.80325 
L 273.481369 140.097963 
L 276.667168 140.397876 
L 279.852966 140.70353 
L 283.038764 141.015501 
L 286.224562 141.334407 
L 289.41036 141.660911 
L 292.596158 141.995726 
L 295.781956 142.339613 
L 298.967754 142.693386 
L 302.153552 143.057911 
L 305.33935 143.4341 
L 308.525149 143.822907 
L 311.710947 144.225312 
L 314.896745 144.6423 
L 318.082543 145.074836 
L 321.268341 145.52382 
L 324.454139 145.990039 
L 327.639937 146.474107 
L 330.825735 146.976397 
L 334.011533 147.496972 
L 337.197331 148.035531 
L 340.38313 148.591368 
L 343.568928 149.163364 
L 346.754726 149.750018 
L 349.940524 150.349511 
L 353.126322 150.959797 
L 356.31212 151.578713 
L 359.497918 152.204083 
L 362.683716 152.833812 
L 365.869514 153.465956 
" clip-path="url(#p2f90f28644)" style="fill: none; stroke: #5f7fb6; stroke-width: 2; stroke-linecap: square"/>
   </g>
   <g id="patch_4">
    <path d="M 44.103906 240.755743 
L 44.103906 9.084187 
" style="fill: none; stroke: #000000; stroke-width: 0.8; stroke-linejoin: miter; stroke-linecap: square"/>
   </g>
   <g id="patch_5">
    <path d="M 369.055312 240.755743 
L 369.055312 9.084187 
" style="fill: none; stroke: #000000; stroke-width: 0.8; stroke-linejoin: miter; stroke-linecap: square"/>
   </g>
   <g id="patch_6">
    <path d="M 44.103906 240.755743 
L 369.055312 240.755743 
" style="fill: none; stroke: #000000; stroke-width: 0.8; stroke-linejoin: miter; stroke-linecap: square"/>
   </g>
   <g id="patch_7">
    <path d="M 44.103906 9.084187 
L 369.055312 9.084187 
" style="fill: none; stroke: #000000; stroke-width: 0.8; stroke-linejoin: miter; stroke-linecap: square"/>
   </g>
   <g id="legend_1">
    <g id="patch_8">
     <path d="M 259.142812 169.194024 
L 269.142812 169.194024 
L 269.142812 160.244024 
L 259.142812 160.244024 
z
" style="fill: #8eb133; stroke: #8eb133; stroke-linejoin: miter"/>
    </g>
    <g id="text_13">
     <!-- ATP -->
     <g transform="translate(277.142812 168.144024) scale(0.1 -0.1)">
      <defs>
       <path id="DejaVuSans-24" d="M 2188 4044 
L 1331 1722 
L 3047 1722 
L 2188 4044 
z
M 1831 4666 
L 2547 4666 
L 4325 0 
L 3669 0 
L 3244 1197 
L 1141 1197 
L 716 0 
L 50 0 
L 1831 4666 
z
" transform="scale(0.015625)"/>
       <path id="DejaVuSans-37" d="M -19 4666 
L 3928 4666 
L 3928 4134 
L 2272 4134 
L 2272 0 
L 1638 0 
L 1638 4134 
L -19 4134 
L -19 4666 
z
" transform="scale(0.015625)"/>
       <path id="DejaVuSans-33" d="M 1259 4147 
L 1259 2394 
L 2053 2394 
Q 2494 2394 2734 2622 
Q 2975 2850 2975 3272 
Q 2975 3691 2734 3919 
Q 2494 4147 2053 4147 
L 1259 4147 
z
M 628 4666 
L 2053 4666 
Q 2838 4666 3239 4311 
Q 3641 3956 3641 3272 
Q 3641 2581 3239 2228 
Q 2838 1875 2053 1875 
L 1259 1875 
L 1259 0 
L 628 0 
L 628 4666 
z
" transform="scale(0.015625)"/>
      </defs>
      <use xlink:href="#DejaVuSans-24"/>
      <use xlink:href="#DejaVuSans-37" transform="translate(60.640625 0)"/>
      <use xlink:href="#DejaVuSans-33" transform="translate(121.71875 0)"/>
     </g>
    </g>
    <g id="patch_9">
     <path d="M 259.142812 184.496368 
L 269.142812 184.496368 
L 269.142812 175.546368 
L 259.142812 175.546368 
z
" style="fill: #e19d20; stroke: #e19d20; stroke-linejoin: miter"/>
    </g>
    <g id="text_14">
     <!-- Active Quencher -->
     <g transform="translate(277.142812 183.446368) scale(0.1 -0.1)">
      <defs>
       <path id="DejaVuSans-59" d="M 191 3500 
L 800 3500 
L 1894 563 
L 2988 3500 
L 3597 3500 
L 2284 0 
L 1503 0 
L 191 3500 
z
" transform="scale(0.015625)"/>
       <path id="DejaVuSans-34" d="M 2522 4238 
Q 1834 4238 1429 3725 
Q 1025 3213 1025 2328 
Q 1025 1447 1429 934 
Q 1834 422 2522 422 
Q 3209 422 3611 934 
Q 4013 1447 4013 2328 
Q 4013 3213 3611 3725 
Q 3209 4238 2522 4238 
z
M 3406 84 
L 4238 -825 
L 3475 -825 
L 2784 -78 
Q 2681 -84 2626 -87 
Q 2572 -91 2522 -91 
Q 1538 -91 948 567 
Q 359 1225 359 2328 
Q 359 3434 948 4092 
Q 1538 4750 2522 4750 
Q 3503 4750 4090 4092 
Q 4678 3434 4678 2328 
Q 4678 1516 4351 937 
Q 4025 359 3406 84 
z
" transform="scale(0.015625)"/>
       <path id="DejaVuSans-58" d="M 544 1381 
L 544 3500 
L 1119 3500 
L 1119 1403 
Q 1119 906 1312 657 
Q 1506 409 1894 409 
Q 2359 409 2629 706 
Q 2900 1003 2900 1516 
L 2900 3500 
L 3475 3500 
L 3475 0 
L 2900 0 
L 2900 538 
Q 2691 219 2414 64 
Q 2138 -91 1772 -91 
Q 1169 -91 856 284 
Q 544 659 544 1381 
z
M 1991 3584 
L 1991 3584 
z
" transform="scale(0.015625)"/>
      </defs>
      <use xlink:href="#DejaVuSans-24"/>
      <use xlink:href="#DejaVuSans-46" transform="translate(66.65625 0)"/>
      <use xlink:href="#DejaVuSans-57" transform="translate(121.640625 0)"/>
      <use xlink:href="#DejaVuSans-4c" transform="translate(160.84375 0)"/>
      <use xlink:href="#DejaVuSans-59" transform="translate(188.625 0)"/>
      <use xlink:href="#DejaVuSans-48" transform="translate(247.8125 0)"/>
      <use xlink:href="#DejaVuSans-3" transform="translate(309.34375 0)"/>
      <use xlink:href="#DejaVuSans-34" transform="translate(341.125 0)"/>
      <use xlink:href="#DejaVuSans-58" transform="translate(419.84375 0)"/>
      <use xlink:href="#DejaVuSans-48" transform="translate(483.21875 0)"/>
      <use xlink:href="#DejaVuSans-51" transform="translate(544.75 0)"/>
      <use xlink:href="#DejaVuSans-46" transform="translate(608.125 0)"/>
      <use xlink:href="#DejaVuSans-4b" transform="translate(663.109375 0)"/>
      <use xlink:href="#DejaVuSans-48" transform="translate(726.484375 0)"/>
      <use xlink:href="#DejaVuSans-55" transform="translate(788.015625 0)"/>
     </g>
    </g>
    <g id="patch_10">
     <path d="M 259.142812 199.798711 
L 269.142812 199.798711 
L 269.142812 190.848711 
L 259.142812 190.848711 
z
" style="stroke: #000000; stroke-linejoin: miter"/>
    </g>
    <g id="text_15">
     <!-- Lumen pH -->
     <g transform="translate(277.142812 198.748711) scale(0.1 -0.1)">
      <defs>
       <path id="DejaVuSans-2b" d="M 628 4666 
L 1259 4666 
L 1259 2753 
L 3553 2753 
L 3553 4666 
L 4184 4666 
L 4184 0 
L 3553 0 
L 3553 2222 
L 1259 2222 
L 1259 0 
L 628 0 
L 628 4666 
z
" transform="scale(0.015625)"/>
      </defs>
      <use xlink:href="#DejaVuSans-2f"/>
      <use xlink:href="#DejaVuSans-58" transform="translate(53.96875 0)"/>
      <use xlink:href="#DejaVuSans-50" transform="translate(117.34375 0)"/>
      <use xlink:href="#DejaVuSans-48" transform="translate(214.75 0)"/>
      <use xlink:href="#DejaVuSans-51" transform="translate(276.28125 0)"/>
      <use xlink:href="#DejaVuSans-3" transform="translate(339.65625 0)"/>
      <use xlink:href="#DejaVuSans-53" transform="translate(371.4375 0)"/>
      <use xlink:href="#DejaVuSans-2b" transform="translate(434.921875 0)"/>
     </g>
    </g>
    <g id="patch_11">
     <path d="M 259.142812 215.101055 
L 269.142812 215.101055 
L 269.142812 206.151055 
L 259.142812 206.151055 
z
" style="fill: #f16431; stroke: #f16431; stroke-linejoin: miter"/>
    </g>
    <g id="text_16">
     <!-- PI$_{ox}$ -->
     <g transform="translate(277.142812 214.051055) scale(0.1 -0.1)">
      <defs>
       <path id="DejaVuSans-Oblique-52" d="M 1625 -91 
Q 1009 -91 651 289 
Q 294 669 294 1325 
Q 294 1706 417 2101 
Q 541 2497 738 2766 
Q 1047 3184 1428 3384 
Q 1809 3584 2291 3584 
Q 2888 3584 3255 3212 
Q 3622 2841 3622 2241 
Q 3622 1825 3500 1412 
Q 3378 1000 3181 728 
Q 2875 309 2494 109 
Q 2113 -91 1625 -91 
z
M 891 1344 
Q 891 869 1089 633 
Q 1288 397 1691 397 
Q 2269 397 2648 901 
Q 3028 1406 3028 2181 
Q 3028 2634 2825 2865 
Q 2622 3097 2228 3097 
Q 1903 3097 1650 2945 
Q 1397 2794 1197 2484 
Q 1050 2253 970 1956 
Q 891 1659 891 1344 
z
" transform="scale(0.015625)"/>
       <path id="DejaVuSans-Oblique-5b" d="M 3841 3500 
L 2234 1784 
L 3219 0 
L 2559 0 
L 1819 1388 
L 531 0 
L -166 0 
L 1556 1844 
L 641 3500 
L 1300 3500 
L 1972 2234 
L 3144 3500 
L 3841 3500 
z
" transform="scale(0.015625)"/>
      </defs>
      <use xlink:href="#DejaVuSans-33" transform="translate(0 0.09375)"/>
      <use xlink:href="#DejaVuSans-2c" transform="translate(60.302734 0.09375)"/>
      <use xlink:href="#DejaVuSans-Oblique-52" transform="translate(90.751953 -14.906201) scale(0.7)"/>
      <use xlink:href="#DejaVuSans-Oblique-5b" transform="translate(133.579102 -14.906201) scale(0.7)"/>
     </g>
    </g>
    <g id="patch_12">
     <path d="M 259.142812 230.403399 
L 269.142812 230.403399 
L 269.142812 221.453399 
L 259.142812 221.453399 
z
" style="fill: #5f7fb6; stroke: #5f7fb6; stroke-linejoin: miter"/>
    </g>
    <g id="text_17">
     <!-- Oxidized PQ -->
     <g transform="translate(277.142812 229.353399) scale(0.1 -0.1)">
      <defs>
       <path id="DejaVuSans-32" d="M 2522 4238 
Q 1834 4238 1429 3725 
Q 1025 3213 1025 2328 
Q 1025 1447 1429 934 
Q 1834 422 2522 422 
Q 3209 422 3611 934 
Q 4013 1447 4013 2328 
Q 4013 3213 3611 3725 
Q 3209 4238 2522 4238 
z
M 2522 4750 
Q 3503 4750 4090 4092 
Q 4678 3434 4678 2328 
Q 4678 1225 4090 567 
Q 3503 -91 2522 -91 
Q 1538 -91 948 565 
Q 359 1222 359 2328 
Q 359 3434 948 4092 
Q 1538 4750 2522 4750 
z
" transform="scale(0.015625)"/>
       <path id="DejaVuSans-5b" d="M 3513 3500 
L 2247 1797 
L 3578 0 
L 2900 0 
L 1881 1375 
L 863 0 
L 184 0 
L 1544 1831 
L 300 3500 
L 978 3500 
L 1906 2253 
L 2834 3500 
L 3513 3500 
z
" transform="scale(0.015625)"/>
       <path id="DejaVuSans-47" d="M 2906 2969 
L 2906 4863 
L 3481 4863 
L 3481 0 
L 2906 0 
L 2906 525 
Q 2725 213 2448 61 
Q 2172 -91 1784 -91 
Q 1150 -91 751 415 
Q 353 922 353 1747 
Q 353 2572 751 3078 
Q 1150 3584 1784 3584 
Q 2172 3584 2448 3432 
Q 2725 3281 2906 2969 
z
M 947 1747 
Q 947 1113 1208 752 
Q 1469 391 1925 391 
Q 2381 391 2643 752 
Q 2906 1113 2906 1747 
Q 2906 2381 2643 2742 
Q 2381 3103 1925 3103 
Q 1469 3103 1208 2742 
Q 947 2381 947 1747 
z
" transform="scale(0.015625)"/>
       <path id="DejaVuSans-5d" d="M 353 3500 
L 3084 3500 
L 3084 2975 
L 922 459 
L 3084 459 
L 3084 0 
L 275 0 
L 275 525 
L 2438 3041 
L 353 3041 
L 353 3500 
z
" transform="scale(0.015625)"/>
      </defs>
      <use xlink:href="#DejaVuSans-32"/>
      <use xlink:href="#DejaVuSans-5b" transform="translate(78.71875 0)"/>
      <use xlink:href="#DejaVuSans-4c" transform="translate(137.90625 0)"/>
      <use xlink:href="#DejaVuSans-47" transform="translate(165.6875 0)"/>
      <use xlink:href="#DejaVuSans-4c" transform="translate(229.171875 0)"/>
      <use xlink:href="#DejaVuSans-5d" transform="translate(256.953125 0)"/>
      <use xlink:href="#DejaVuSans-48" transform="translate(309.4375 0)"/>
      <use xlink:href="#DejaVuSans-47" transform="translate(370.96875 0)"/>
      <use xlink:href="#DejaVuSans-3" transform="translate(434.453125 0)"/>
      <use xlink:href="#DejaVuSans-33" transform="translate(466.234375 0)"/>
      <use xlink:href="#DejaVuSans-34" transform="translate(526.53125 0)"/>
     </g>
    </g>
   </g>
  </g>
  <g id="axes_2">
   <g id="patch_13">
    <path d="M 467.861562 240.755743 
L 792.812969 240.755743 
L 792.812969 9.084187 
L 467.861562 9.084187 
z
" style="fill: #ffffff"/>
   </g>
   <g id="patch_14">
    <path d="M 471.047361 252.034518 
L 486.976351 252.034518 
L 486.976351 -0.742449 
L 471.047361 -0.742449 
z
" clip-path="url(#pa17f52f8fa)" style="fill: #f3f2f0; stroke: #000000; stroke-linejoin: miter"/>
   </g>
   <g id="matplotlib.axis_3">
    <g id="xtick_7">
     <g id="line2d_15">
      <g>
       <use xlink:href="#mdf89470e57" x="471.047361" y="240.755743" style="stroke: #000000; stroke-width: 0.8"/>
      </g>
     </g>
     <g id="text_18">
      <!-- 0 -->
      <g transform="translate(467.866111 255.353399) scale(0.1 -0.1)">
       <use xlink:href="#DejaVuSans-13"/>
      </g>
     </g>
    </g>
    <g id="xtick_8">
     <g id="line2d_16">
      <g>
       <use xlink:href="#mdf89470e57" x="534.763323" y="240.755743" style="stroke: #000000; stroke-width: 0.8"/>
      </g>
     </g>
     <g id="text_19">
      <!-- 200 -->
      <g transform="translate(525.219573 255.353399) scale(0.1 -0.1)">
       <use xlink:href="#DejaVuSans-15"/>
       <use xlink:href="#DejaVuSans-13" transform="translate(63.625 0)"/>
       <use xlink:href="#DejaVuSans-13" transform="translate(127.25 0)"/>
      </g>
     </g>
    </g>
    <g id="xtick_9">
     <g id="line2d_17">
      <g>
       <use xlink:href="#mdf89470e57" x="598.479285" y="240.755743" style="stroke: #000000; stroke-width: 0.8"/>
      </g>
     </g>
     <g id="text_20">
      <!-- 400 -->
      <g transform="translate(588.935535 255.353399) scale(0.1 -0.1)">
       <use xlink:href="#DejaVuSans-17"/>
       <use xlink:href="#DejaVuSans-13" transform="translate(63.625 0)"/>
       <use xlink:href="#DejaVuSans-13" transform="translate(127.25 0)"/>
      </g>
     </g>
    </g>
    <g id="xtick_10">
     <g id="line2d_18">
      <g>
       <use xlink:href="#mdf89470e57" x="662.195247" y="240.755743" style="stroke: #000000; stroke-width: 0.8"/>
      </g>
     </g>
     <g id="text_21">
      <!-- 600 -->
      <g transform="translate(652.651497 255.353399) scale(0.1 -0.1)">
       <use xlink:href="#DejaVuSans-19"/>
       <use xlink:href="#DejaVuSans-13" transform="translate(63.625 0)"/>
       <use xlink:href="#DejaVuSans-13" transform="translate(127.25 0)"/>
      </g>
     </g>
    </g>
    <g id="xtick_11">
     <g id="line2d_19">
      <g>
       <use xlink:href="#mdf89470e57" x="725.911209" y="240.755743" style="stroke: #000000; stroke-width: 0.8"/>
      </g>
     </g>
     <g id="text_22">
      <!-- 800 -->
      <g transform="translate(716.367459 255.353399) scale(0.1 -0.1)">
       <use xlink:href="#DejaVuSans-1b"/>
       <use xlink:href="#DejaVuSans-13" transform="translate(63.625 0)"/>
       <use xlink:href="#DejaVuSans-13" transform="translate(127.25 0)"/>
      </g>
     </g>
    </g>
    <g id="xtick_12">
     <g id="line2d_20">
      <g>
       <use xlink:href="#mdf89470e57" x="789.627171" y="240.755743" style="stroke: #000000; stroke-width: 0.8"/>
      </g>
     </g>
     <g id="text_23">
      <!-- 1000 -->
      <g transform="translate(776.902171 255.353399) scale(0.1 -0.1)">
       <use xlink:href="#DejaVuSans-14"/>
       <use xlink:href="#DejaVuSans-13" transform="translate(63.625 0)"/>
       <use xlink:href="#DejaVuSans-13" transform="translate(127.25 0)"/>
       <use xlink:href="#DejaVuSans-13" transform="translate(190.875 0)"/>
      </g>
     </g>
    </g>
    <g id="text_24">
     <!-- Light Intensity (µmol photons $\cdot$ m$^{-2}$ $\cdot$ s$^{-1}$) -->
     <g transform="translate(526.987266 271.155743) scale(0.1 -0.1)">
      <use xlink:href="#DejaVuSans-2f" transform="translate(0 0.746875)"/>
      <use xlink:href="#DejaVuSans-4c" transform="translate(55.712891 0.746875)"/>
      <use xlink:href="#DejaVuSans-4a" transform="translate(83.496094 0.746875)"/>
      <use xlink:href="#DejaVuSans-4b" transform="translate(146.972656 0.746875)"/>
      <use xlink:href="#DejaVuSans-57" transform="translate(210.351562 0.746875)"/>
      <use xlink:href="#DejaVuSans-3" transform="translate(249.560547 0.746875)"/>
      <use xlink:href="#DejaVuSans-2c" transform="translate(281.347656 0.746875)"/>
      <use xlink:href="#DejaVuSans-51" transform="translate(310.839844 0.746875)"/>
      <use xlink:href="#DejaVuSans-57" transform="translate(374.21875 0.746875)"/>
      <use xlink:href="#DejaVuSans-48" transform="translate(413.427734 0.746875)"/>
      <use xlink:href="#DejaVuSans-51" transform="translate(474.951172 0.746875)"/>
      <use xlink:href="#DejaVuSans-56" transform="translate(538.330078 0.746875)"/>
      <use xlink:href="#DejaVuSans-4c" transform="translate(590.429688 0.746875)"/>
      <use xlink:href="#DejaVuSans-57" transform="translate(618.212891 0.746875)"/>
      <use xlink:href="#DejaVuSans-5c" transform="translate(657.421875 0.746875)"/>
      <use xlink:href="#DejaVuSans-3" transform="translate(716.601562 0.746875)"/>
      <use xlink:href="#DejaVuSans-b" transform="translate(748.388672 0.746875)"/>
      <use xlink:href="#DejaVuSans-77" transform="translate(787.402344 0.746875)"/>
      <use xlink:href="#DejaVuSans-50" transform="translate(851.025391 0.746875)"/>
      <use xlink:href="#DejaVuSans-52" transform="translate(948.4375 0.746875)"/>
      <use xlink:href="#DejaVuSans-4f" transform="translate(1009.619141 0.746875)"/>
      <use xlink:href="#DejaVuSans-3" transform="translate(1037.402344 0.746875)"/>
      <use xlink:href="#DejaVuSans-53" transform="translate(1069.189453 0.746875)"/>
      <use xlink:href="#DejaVuSans-4b" transform="translate(1132.666016 0.746875)"/>
      <use xlink:href="#DejaVuSans-52" transform="translate(1196.044922 0.746875)"/>
      <use xlink:href="#DejaVuSans-57" transform="translate(1257.226562 0.746875)"/>
      <use xlink:href="#DejaVuSans-52" transform="translate(1296.435547 0.746875)"/>
      <use xlink:href="#DejaVuSans-51" transform="translate(1357.617188 0.746875)"/>
      <use xlink:href="#DejaVuSans-56" transform="translate(1420.996094 0.746875)"/>
      <use xlink:href="#DejaVuSans-3" transform="translate(1473.095703 0.746875)"/>
      <use xlink:href="#DejaVuSans-d4f" transform="translate(1504.882812 0.746875)"/>
      <use xlink:href="#DejaVuSans-3" transform="translate(1536.669922 0.746875)"/>
      <use xlink:href="#DejaVuSans-50" transform="translate(1568.457031 0.746875)"/>
      <use xlink:href="#DejaVuSans-c9c" transform="translate(1666.826172 42.046875) scale(0.7)"/>
      <use xlink:href="#DejaVuSans-15" transform="translate(1725.478516 42.046875) scale(0.7)"/>
      <use xlink:href="#DejaVuSans-3" transform="translate(1772.749023 0.746875)"/>
      <use xlink:href="#DejaVuSans-d4f" transform="translate(1804.536133 0.746875)"/>
      <use xlink:href="#DejaVuSans-3" transform="translate(1836.323242 0.746875)"/>
      <use xlink:href="#DejaVuSans-56" transform="translate(1868.110352 0.746875)"/>
      <use xlink:href="#DejaVuSans-c9c" transform="translate(1921.166992 42.046875) scale(0.7)"/>
      <use xlink:href="#DejaVuSans-14" transform="translate(1979.819336 42.046875) scale(0.7)"/>
      <use xlink:href="#DejaVuSans-c" transform="translate(2027.089844 0.746875)"/>
     </g>
    </g>
   </g>
   <g id="matplotlib.axis_4">
    <g id="ytick_5">
     <g id="line2d_21">
      <g>
       <use xlink:href="#m229496ad3d" x="467.861562" y="240.755743" style="stroke: #000000; stroke-width: 0.8"/>
      </g>
     </g>
     <g id="text_25">
      <!-- 0.0 -->
      <g transform="translate(444.958438 244.554571) scale(0.1 -0.1)">
       <use xlink:href="#DejaVuSans-13"/>
       <use xlink:href="#DejaVuSans-11" transform="translate(63.625 0)"/>
       <use xlink:href="#DejaVuSans-13" transform="translate(95.40625 0)"/>
      </g>
     </g>
    </g>
    <g id="ytick_6">
     <g id="line2d_22">
      <g>
       <use xlink:href="#m229496ad3d" x="467.861562" y="203.688294" style="stroke: #000000; stroke-width: 0.8"/>
      </g>
     </g>
     <g id="text_26">
      <!-- 0.2 -->
      <g transform="translate(444.958438 207.487122) scale(0.1 -0.1)">
       <use xlink:href="#DejaVuSans-13"/>
       <use xlink:href="#DejaVuSans-11" transform="translate(63.625 0)"/>
       <use xlink:href="#DejaVuSans-15" transform="translate(95.40625 0)"/>
      </g>
     </g>
    </g>
    <g id="ytick_7">
     <g id="line2d_23">
      <g>
       <use xlink:href="#m229496ad3d" x="467.861562" y="166.620845" style="stroke: #000000; stroke-width: 0.8"/>
      </g>
     </g>
     <g id="text_27">
      <!-- 0.4 -->
      <g transform="translate(444.958438 170.419673) scale(0.1 -0.1)">
       <use xlink:href="#DejaVuSans-13"/>
       <use xlink:href="#DejaVuSans-11" transform="translate(63.625 0)"/>
       <use xlink:href="#DejaVuSans-17" transform="translate(95.40625 0)"/>
      </g>
     </g>
    </g>
    <g id="ytick_8">
     <g id="line2d_24">
      <g>
       <use xlink:href="#m229496ad3d" x="467.861562" y="129.553396" style="stroke: #000000; stroke-width: 0.8"/>
      </g>
     </g>
     <g id="text_28">
      <!-- 0.6 -->
      <g transform="translate(444.958438 133.352224) scale(0.1 -0.1)">
       <use xlink:href="#DejaVuSans-13"/>
       <use xlink:href="#DejaVuSans-11" transform="translate(63.625 0)"/>
       <use xlink:href="#DejaVuSans-19" transform="translate(95.40625 0)"/>
      </g>
     </g>
    </g>
    <g id="ytick_9">
     <g id="line2d_25">
      <g>
       <use xlink:href="#m229496ad3d" x="467.861562" y="92.485947" style="stroke: #000000; stroke-width: 0.8"/>
      </g>
     </g>
     <g id="text_29">
      <!-- 0.8 -->
      <g transform="translate(444.958438 96.284775) scale(0.1 -0.1)">
       <use xlink:href="#DejaVuSans-13"/>
       <use xlink:href="#DejaVuSans-11" transform="translate(63.625 0)"/>
       <use xlink:href="#DejaVuSans-1b" transform="translate(95.40625 0)"/>
      </g>
     </g>
    </g>
    <g id="ytick_10">
     <g id="line2d_26">
      <g>
       <use xlink:href="#m229496ad3d" x="467.861562" y="55.418498" style="stroke: #000000; stroke-width: 0.8"/>
      </g>
     </g>
     <g id="text_30">
      <!-- 1.0 -->
      <g transform="translate(444.958438 59.217326) scale(0.1 -0.1)">
       <use xlink:href="#DejaVuSans-14"/>
       <use xlink:href="#DejaVuSans-11" transform="translate(63.625 0)"/>
       <use xlink:href="#DejaVuSans-13" transform="translate(95.40625 0)"/>
      </g>
     </g>
    </g>
    <g id="ytick_11">
     <g id="line2d_27">
      <g>
       <use xlink:href="#m229496ad3d" x="467.861562" y="18.351049" style="stroke: #000000; stroke-width: 0.8"/>
      </g>
     </g>
     <g id="text_31">
      <!-- 1.2 -->
      <g transform="translate(444.958438 22.149878) scale(0.1 -0.1)">
       <use xlink:href="#DejaVuSans-14"/>
       <use xlink:href="#DejaVuSans-11" transform="translate(63.625 0)"/>
       <use xlink:href="#DejaVuSans-15" transform="translate(95.40625 0)"/>
      </g>
     </g>
    </g>
    <g id="text_32">
     <!-- NPQ  -->
     <g transform="translate(425.552383 137.200434) rotate(-90) scale(0.1 -0.1)">
      <defs>
       <path id="DejaVuSans-31" d="M 628 4666 
L 1478 4666 
L 3547 763 
L 3547 4666 
L 4159 4666 
L 4159 0 
L 3309 0 
L 1241 3903 
L 1241 0 
L 628 0 
L 628 4666 
z
" transform="scale(0.015625)"/>
      </defs>
      <use xlink:href="#DejaVuSans-31"/>
      <use xlink:href="#DejaVuSans-33" transform="translate(74.8125 0)"/>
      <use xlink:href="#DejaVuSans-34" transform="translate(135.109375 0)"/>
      <use xlink:href="#DejaVuSans-3" transform="translate(213.828125 0)"/>
     </g>
     <!--  ChlF (rel. units) -->
     <g transform="translate(437.555117 164.805121) rotate(-90) scale(0.1 -0.1)">
      <defs>
       <path id="DejaVuSans-29" d="M 628 4666 
L 3309 4666 
L 3309 4134 
L 1259 4134 
L 1259 2759 
L 3109 2759 
L 3109 2228 
L 1259 2228 
L 1259 0 
L 628 0 
L 628 4666 
z
" transform="scale(0.015625)"/>
      </defs>
      <use xlink:href="#DejaVuSans-3"/>
      <use xlink:href="#DejaVuSans-26" transform="translate(31.78125 0)"/>
      <use xlink:href="#DejaVuSans-4b" transform="translate(101.609375 0)"/>
      <use xlink:href="#DejaVuSans-4f" transform="translate(164.984375 0)"/>
      <use xlink:href="#DejaVuSans-29" transform="translate(192.765625 0)"/>
      <use xlink:href="#DejaVuSans-3" transform="translate(250.28125 0)"/>
      <use xlink:href="#DejaVuSans-b" transform="translate(282.0625 0)"/>
      <use xlink:href="#DejaVuSans-55" transform="translate(321.078125 0)"/>
      <use xlink:href="#DejaVuSans-48" transform="translate(359.984375 0)"/>
      <use xlink:href="#DejaVuSans-4f" transform="translate(421.515625 0)"/>
      <use xlink:href="#DejaVuSans-11" transform="translate(449.296875 0)"/>
      <use xlink:href="#DejaVuSans-3" transform="translate(481.078125 0)"/>
      <use xlink:href="#DejaVuSans-58" transform="translate(512.859375 0)"/>
      <use xlink:href="#DejaVuSans-51" transform="translate(576.234375 0)"/>
      <use xlink:href="#DejaVuSans-4c" transform="translate(639.609375 0)"/>
      <use xlink:href="#DejaVuSans-57" transform="translate(667.390625 0)"/>
      <use xlink:href="#DejaVuSans-56" transform="translate(706.59375 0)"/>
      <use xlink:href="#DejaVuSans-c" transform="translate(758.6875 0)"/>
     </g>
    </g>
   </g>
   <g id="line2d_28">
    <path d="M 474.233159 240.544656 
L 477.418957 239.420249 
L 480.604755 237.802704 
L 483.790553 235.926632 
L 486.976351 233.878604 
L 490.162149 231.701671 
L 493.347947 229.421471 
L 496.533745 227.055139 
L 499.719544 224.615085 
L 502.905342 222.11083 
L 506.09114 219.550002 
L 509.276938 216.938924 
L 512.462736 214.282965 
L 515.648534 211.586778 
L 518.834332 208.854462 
L 522.02013 206.089668 
L 525.205928 203.295683 
L 528.391726 200.475489 
L 531.577525 197.631807 
L 534.763323 194.767138 
L 537.949121 191.883783 
L 541.134919 188.983877 
L 544.320717 186.069397 
L 547.506515 183.142185 
L 550.692313 180.203961 
L 553.878111 177.256332 
L 557.063909 174.300806 
L 560.249707 171.338799 
L 563.435506 168.371643 
L 566.621304 165.400594 
L 569.807102 162.42684 
L 572.9929 159.451505 
L 576.178698 156.475656 
L 579.364496 153.500308 
L 582.550294 150.526428 
L 585.736092 147.554941 
L 588.92189 144.586732 
L 592.107688 141.622652 
L 595.293487 138.663521 
L 598.479285 135.710133 
L 601.665083 132.763256 
L 604.850881 129.823638 
L 608.036679 126.892009 
L 611.222477 123.969078 
L 614.408275 121.055573 
L 617.594073 118.152167 
L 620.779871 115.259557 
L 623.965669 112.378431 
L 627.151468 109.509478 
L 630.337266 106.653389 
L 633.523064 103.810861 
L 636.708862 100.982601 
L 639.89466 98.16933 
L 643.080458 95.371782 
L 646.266256 92.590714 
L 649.452054 89.826903 
L 652.637852 87.081158 
L 655.82365 84.354314 
L 659.009449 81.647249 
L 662.195247 78.960878 
L 665.381045 76.296164 
L 668.566843 73.654124 
L 671.752641 71.035835 
L 674.938439 68.442438 
L 678.124237 65.875157 
L 681.310035 63.33529 
L 684.495833 60.824233 
L 687.681631 58.343487 
L 690.86743 55.894669 
L 694.053228 53.479524 
L 697.239026 51.09994 
L 700.424824 48.757966 
L 703.610622 46.455824 
L 706.79642 44.195929 
L 709.982218 41.980907 
L 713.168016 39.813614 
L 716.353814 37.69715 
L 719.539612 35.63488 
L 722.725411 33.63044 
L 725.911209 31.687743 
L 729.097007 29.810975 
L 732.282805 28.004571 
L 735.468603 26.273173 
L 738.654401 24.621556 
L 741.840199 23.054524 
L 745.025997 21.576751 
L 748.211795 20.192588 
L 751.397593 18.905811 
L 754.583392 17.719346 
L 757.76919 16.634975 
L 760.954988 15.653066 
L 764.140786 14.772382 
L 767.326584 13.989989 
L 770.512382 13.301322 
L 773.69818 12.700386 
L 776.883978 12.180087 
L 780.069776 11.732634 
L 783.255574 11.349958 
L 786.441373 11.02408 
L 789.627171 10.747413 
" clip-path="url(#pa17f52f8fa)" style="fill: none; stroke: #e29c23; stroke-width: 2; stroke-linecap: square"/>
   </g>
   <g id="line2d_29">
    <path d="M 474.233159 190.000535 
L 477.418957 187.987763 
L 480.604755 186.702946 
L 483.790553 185.841006 
L 486.976351 185.267727 
L 490.162149 184.906508 
L 493.347947 184.707697 
L 496.533745 184.636613 
L 499.719544 184.667793 
L 502.905342 184.781847 
L 506.09114 184.963606 
L 509.276938 185.200944 
L 512.462736 185.484004 
L 515.648534 185.80467 
L 518.834332 186.156184 
L 522.02013 186.532875 
L 525.205928 186.929949 
L 528.391726 187.343335 
L 531.577525 187.769559 
L 534.763323 188.205649 
L 537.949121 188.649058 
L 541.134919 189.097597 
L 544.320717 189.549384 
L 547.506515 190.0028 
L 550.692313 190.456456 
L 553.878111 190.909156 
L 557.063909 191.359876 
L 560.249707 191.807737 
L 563.435506 192.251992 
L 566.621304 192.692001 
L 569.807102 193.127224 
L 572.9929 193.557204 
L 576.178698 193.98156 
L 579.364496 194.399972 
L 582.550294 194.812179 
L 585.736092 195.217966 
L 588.92189 195.617162 
L 592.107688 196.009631 
L 595.293487 196.395271 
L 598.479285 196.774005 
L 601.665083 197.145781 
L 604.850881 197.510566 
L 608.036679 197.868347 
L 611.222477 198.219123 
L 614.408275 198.562901 
L 617.594073 198.899709 
L 620.779871 199.229573 
L 623.965669 199.552531 
L 627.151468 199.868624 
L 630.337266 200.177896 
L 633.523064 200.480396 
L 636.708862 200.776171 
L 639.89466 201.065272 
L 643.080458 201.347746 
L 646.266256 201.62364 
L 649.452054 201.892999 
L 652.637852 202.155863 
L 655.82365 202.41227 
L 659.009449 202.662252 
L 662.195247 202.905835 
L 665.381045 203.143041 
L 668.566843 203.373881 
L 671.752641 203.59836 
L 674.938439 203.816475 
L 678.124237 204.02821 
L 681.310035 204.233541 
L 684.495833 204.432429 
L 687.681631 204.624824 
L 690.86743 204.81066 
L 694.053228 204.989853 
L 697.239026 205.162303 
L 700.424824 205.327889 
L 703.610622 205.486469 
L 706.79642 205.637877 
L 709.982218 205.78192 
L 713.168016 205.918377 
L 716.353814 206.046999 
L 719.539612 206.1675 
L 722.725411 206.279566 
L 725.911209 206.382843 
L 729.097007 206.476946 
L 732.282805 206.561457 
L 735.468603 206.635932 
L 738.654401 206.699906 
L 741.840199 206.752908 
L 745.025997 206.794475 
L 748.211795 206.824181 
L 751.397593 206.84166 
L 754.583392 206.846641 
L 757.76919 206.838983 
L 760.954988 206.818707 
L 764.140786 206.786021 
L 767.326584 206.741329 
L 770.512382 206.685227 
L 773.69818 206.618479 
L 776.883978 206.54198 
L 780.069776 206.456706 
L 783.255574 206.363667 
L 786.441373 206.263859 
L 789.627171 206.158232 
" clip-path="url(#pa17f52f8fa)" style="fill: none; stroke: #5b82b5; stroke-width: 2; stroke-linecap: square"/>
   </g>
   <g id="patch_15">
    <path d="M 467.861562 240.755743 
L 467.861562 9.084187 
" style="fill: none; stroke: #000000; stroke-width: 0.8; stroke-linejoin: miter; stroke-linecap: square"/>
   </g>
   <g id="patch_16">
    <path d="M 792.812969 240.755743 
L 792.812969 9.084187 
" style="fill: none; stroke: #000000; stroke-width: 0.8; stroke-linejoin: miter; stroke-linecap: square"/>
   </g>
   <g id="patch_17">
    <path d="M 467.861562 240.755743 
L 792.812969 240.755743 
" style="fill: none; stroke: #000000; stroke-width: 0.8; stroke-linejoin: miter; stroke-linecap: square"/>
   </g>
   <g id="patch_18">
    <path d="M 467.861562 9.084187 
L 792.812969 9.084187 
" style="fill: none; stroke: #000000; stroke-width: 0.8; stroke-linejoin: miter; stroke-linecap: square"/>
   </g>
   <g id="legend_2">
    <g id="patch_19">
     <path d="M 703.412969 113.416449 
L 713.412969 113.416449 
L 713.412969 104.466449 
L 703.412969 104.466449 
z
" style="stroke: #000000; stroke-linejoin: miter"/>
    </g>
    <g id="text_33">
     <!-- O$_2$ evolution -->
     <g transform="translate(721.412969 112.366449) scale(0.1 -0.1)">
      <use xlink:href="#DejaVuSans-32" transform="translate(0 0.015625)"/>
      <use xlink:href="#DejaVuSans-15" transform="translate(79.667969 -14.984326) scale(0.7)"/>
      <use xlink:href="#DejaVuSans-3" transform="translate(126.938477 0.015625)"/>
      <use xlink:href="#DejaVuSans-48" transform="translate(158.725586 0.015625)"/>
      <use xlink:href="#DejaVuSans-59" transform="translate(220.249023 0.015625)"/>
      <use xlink:href="#DejaVuSans-52" transform="translate(279.428711 0.015625)"/>
      <use xlink:href="#DejaVuSans-4f" transform="translate(340.610352 0.015625)"/>
      <use xlink:href="#DejaVuSans-58" transform="translate(368.393555 0.015625)"/>
      <use xlink:href="#DejaVuSans-57" transform="translate(431.772461 0.015625)"/>
      <use xlink:href="#DejaVuSans-4c" transform="translate(470.981445 0.015625)"/>
      <use xlink:href="#DejaVuSans-52" transform="translate(498.764648 0.015625)"/>
      <use xlink:href="#DejaVuSans-51" transform="translate(559.946289 0.015625)"/>
     </g>
    </g>
    <g id="patch_20">
     <path d="M 703.412969 128.718793 
L 713.412969 128.718793 
L 713.412969 119.768793 
L 703.412969 119.768793 
z
" style="fill: #e29c23; stroke: #e29c23; stroke-linejoin: miter"/>
    </g>
    <g id="text_34">
     <!-- NPQ -->
     <g transform="translate(721.412969 127.668793) scale(0.1 -0.1)">
      <use xlink:href="#DejaVuSans-31"/>
      <use xlink:href="#DejaVuSans-33" transform="translate(74.8125 0)"/>
      <use xlink:href="#DejaVuSans-34" transform="translate(135.109375 0)"/>
     </g>
    </g>
    <g id="patch_21">
     <path d="M 703.412969 144.021137 
L 713.412969 144.021137 
L 713.412969 135.071137 
L 703.412969 135.071137 
z
" style="fill: #5b82b5; stroke: #5b82b5; stroke-linejoin: miter"/>
    </g>
    <g id="text_35">
     <!-- ChlF -->
     <g transform="translate(721.412969 142.971137) scale(0.1 -0.1)">
      <use xlink:href="#DejaVuSans-26"/>
      <use xlink:href="#DejaVuSans-4b" transform="translate(69.828125 0)"/>
      <use xlink:href="#DejaVuSans-4f" transform="translate(133.203125 0)"/>
      <use xlink:href="#DejaVuSans-29" transform="translate(160.984375 0)"/>
     </g>
    </g>
   </g>
  </g>
  <g id="axes_3">
   <g id="matplotlib.axis_5">
    <g id="ytick_12">
     <g id="line2d_30">
      <defs>
       <path id="md39ac04d45" d="M 0 0 
L 3.5 0 
" style="stroke: #000000; stroke-width: 0.8"/>
      </defs>
      <g>
       <use xlink:href="#md39ac04d45" x="369.055312" y="189.273175" style="stroke: #000000; stroke-width: 0.8"/>
      </g>
     </g>
     <g id="text_36">
      <!-- 5.4 -->
      <g transform="translate(376.055312 193.072003) scale(0.1 -0.1)">
       <defs>
        <path id="DejaVuSans-18" d="M 691 4666 
L 3169 4666 
L 3169 4134 
L 1269 4134 
L 1269 2991 
Q 1406 3038 1543 3061 
Q 1681 3084 1819 3084 
Q 2600 3084 3056 2656 
Q 3513 2228 3513 1497 
Q 3513 744 3044 326 
Q 2575 -91 1722 -91 
Q 1428 -91 1123 -41 
Q 819 9 494 109 
L 494 744 
Q 775 591 1075 516 
Q 1375 441 1709 441 
Q 2250 441 2565 725 
Q 2881 1009 2881 1497 
Q 2881 1984 2565 2268 
Q 2250 2553 1709 2553 
Q 1456 2553 1204 2497 
Q 953 2441 691 2322 
L 691 4666 
z
" transform="scale(0.015625)"/>
       </defs>
       <use xlink:href="#DejaVuSans-18"/>
       <use xlink:href="#DejaVuSans-11" transform="translate(63.625 0)"/>
       <use xlink:href="#DejaVuSans-17" transform="translate(95.40625 0)"/>
      </g>
     </g>
    </g>
    <g id="ytick_13">
     <g id="line2d_31">
      <g>
       <use xlink:href="#md39ac04d45" x="369.055312" y="137.790607" style="stroke: #000000; stroke-width: 0.8"/>
      </g>
     </g>
     <g id="text_37">
      <!-- 5.8 -->
      <g transform="translate(376.055312 141.589435) scale(0.1 -0.1)">
       <use xlink:href="#DejaVuSans-18"/>
       <use xlink:href="#DejaVuSans-11" transform="translate(63.625 0)"/>
       <use xlink:href="#DejaVuSans-1b" transform="translate(95.40625 0)"/>
      </g>
     </g>
    </g>
    <g id="ytick_14">
     <g id="line2d_32">
      <g>
       <use xlink:href="#md39ac04d45" x="369.055312" y="86.308039" style="stroke: #000000; stroke-width: 0.8"/>
      </g>
     </g>
     <g id="text_38">
      <!-- 6.2 -->
      <g transform="translate(376.055312 90.106867) scale(0.1 -0.1)">
       <use xlink:href="#DejaVuSans-19"/>
       <use xlink:href="#DejaVuSans-11" transform="translate(63.625 0)"/>
       <use xlink:href="#DejaVuSans-15" transform="translate(95.40625 0)"/>
      </g>
     </g>
    </g>
    <g id="ytick_15">
     <g id="line2d_33">
      <g>
       <use xlink:href="#md39ac04d45" x="369.055312" y="34.825471" style="stroke: #000000; stroke-width: 0.8"/>
      </g>
     </g>
     <g id="text_39">
      <!-- 6.6 -->
      <g transform="translate(376.055312 38.624299) scale(0.1 -0.1)">
       <use xlink:href="#DejaVuSans-19"/>
       <use xlink:href="#DejaVuSans-11" transform="translate(63.625 0)"/>
       <use xlink:href="#DejaVuSans-19" transform="translate(95.40625 0)"/>
      </g>
     </g>
    </g>
    <g id="text_40">
     <!-- Lumen pH -->
     <g transform="translate(403.556094 150.426215) rotate(-90) scale(0.1 -0.1)">
      <use xlink:href="#DejaVuSans-2f"/>
      <use xlink:href="#DejaVuSans-58" transform="translate(53.96875 0)"/>
      <use xlink:href="#DejaVuSans-50" transform="translate(117.34375 0)"/>
      <use xlink:href="#DejaVuSans-48" transform="translate(214.75 0)"/>
      <use xlink:href="#DejaVuSans-51" transform="translate(276.28125 0)"/>
      <use xlink:href="#DejaVuSans-3" transform="translate(339.65625 0)"/>
      <use xlink:href="#DejaVuSans-53" transform="translate(371.4375 0)"/>
      <use xlink:href="#DejaVuSans-2b" transform="translate(434.921875 0)"/>
     </g>
    </g>
   </g>
   <g id="line2d_34">
    <path d="M 50.475502 19.328073 
L 53.661301 38.835496 
L 56.847099 47.278825 
L 60.032897 52.552755 
L 63.218695 56.377022 
L 66.404493 59.380067 
L 69.590291 61.857568 
L 72.776089 63.971157 
L 75.961887 65.818473 
L 79.147685 67.462874 
L 82.333483 68.947744 
L 85.519282 70.304065 
L 88.70508 71.554726 
L 91.890878 72.717107 
L 95.076676 73.80472 
L 98.262474 74.828279 
L 101.448272 75.796422 
L 104.63407 76.716223 
L 107.819868 77.593548 
L 111.005666 78.433318 
L 114.191464 79.239707 
L 117.377263 80.01629 
L 120.563061 80.766151 
L 123.748859 81.491977 
L 126.934657 82.196123 
L 130.120455 82.880669 
L 133.306253 83.547463 
L 136.492051 84.198157 
L 139.677849 84.834238 
L 142.863647 85.45705 
L 146.049445 86.067815 
L 149.235244 86.667651 
L 152.421042 87.257586 
L 155.60684 87.838566 
L 158.792638 88.411473 
L 161.978436 88.977127 
L 165.164234 89.536298 
L 168.350032 90.089712 
L 171.53583 90.638055 
L 174.721628 91.18198 
L 177.907426 91.722113 
L 181.093225 92.259055 
L 184.279023 92.793386 
L 187.464821 93.325671 
L 190.650619 93.856463 
L 193.836417 94.3863 
L 197.022215 94.915718 
L 200.208013 95.445245 
L 203.393811 95.975411 
L 206.579609 96.506745 
L 209.765407 97.039781 
L 212.951206 97.575059 
L 216.137004 98.113128 
L 219.322802 98.654552 
L 222.5086 99.199906 
L 225.694398 99.749788 
L 228.880196 100.304815 
L 232.065994 100.865629 
L 235.251792 101.432901 
L 238.43759 102.007336 
L 241.623388 102.589674 
L 244.809187 103.180699 
L 247.994985 103.781239 
L 251.180783 104.392176 
L 254.366581 105.01445 
L 257.552379 105.649065 
L 260.738177 106.297097 
L 263.923975 106.959701 
L 267.109773 107.63812 
L 270.295571 108.333691 
L 273.481369 109.047858 
L 276.667168 109.782181 
L 279.852966 110.53834 
L 283.038764 111.318152 
L 286.224562 112.123573 
L 289.41036 112.95671 
L 292.596158 113.81982 
L 295.781956 114.715312 
L 298.967754 115.645737 
L 302.153552 116.613776 
L 305.33935 117.622202 
L 308.525149 118.673836 
L 311.710947 119.771477 
L 314.896745 120.917796 
L 318.082543 122.115203 
L 321.268341 123.365679 
L 324.454139 124.67057 
L 327.639937 126.030355 
L 330.825735 127.444411 
L 334.011533 128.910801 
L 337.197331 130.426126 
L 340.38313 131.985481 
L 343.568928 133.582543 
L 346.754726 135.209816 
L 349.940524 136.858985 
L 353.126322 138.521365 
L 356.31212 140.188352 
L 359.497918 141.851832 
L 362.683716 143.50449 
L 365.869514 145.140013 
" clip-path="url(#p2f90f28644)" style="fill: none; stroke: #000000; stroke-width: 2; stroke-linecap: square"/>
   </g>
   <g id="patch_22">
    <path d="M 44.103906 240.755743 
L 44.103906 9.084187 
" style="fill: none; stroke: #000000; stroke-width: 0.8; stroke-linejoin: miter; stroke-linecap: square"/>
   </g>
   <g id="patch_23">
    <path d="M 369.055312 240.755743 
L 369.055312 9.084187 
" style="fill: none; stroke: #000000; stroke-width: 0.8; stroke-linejoin: miter; stroke-linecap: square"/>
   </g>
   <g id="patch_24">
    <path d="M 44.103906 240.755743 
L 369.055312 240.755743 
" style="fill: none; stroke: #000000; stroke-width: 0.8; stroke-linejoin: miter; stroke-linecap: square"/>
   </g>
   <g id="patch_25">
    <path d="M 44.103906 9.084187 
L 369.055312 9.084187 
" style="fill: none; stroke: #000000; stroke-width: 0.8; stroke-linejoin: miter; stroke-linecap: square"/>
   </g>
  </g>
  <g id="axes_4">
   <g id="matplotlib.axis_6">
    <g id="ytick_16">
     <g id="line2d_35">
      <g>
       <use xlink:href="#md39ac04d45" x="792.812969" y="240.755743" style="stroke: #000000; stroke-width: 0.8"/>
      </g>
     </g>
     <g id="text_41">
      <!-- 0 -->
      <g transform="translate(799.812969 244.554571) scale(0.1 -0.1)">
       <use xlink:href="#DejaVuSans-13"/>
      </g>
     </g>
    </g>
    <g id="ytick_17">
     <g id="line2d_36">
      <g>
       <use xlink:href="#md39ac04d45" x="792.812969" y="202.462923" style="stroke: #000000; stroke-width: 0.8"/>
      </g>
     </g>
     <g id="text_42">
      <!-- 20 -->
      <g transform="translate(799.812969 206.261752) scale(0.1 -0.1)">
       <use xlink:href="#DejaVuSans-15"/>
       <use xlink:href="#DejaVuSans-13" transform="translate(63.625 0)"/>
      </g>
     </g>
    </g>
    <g id="ytick_18">
     <g id="line2d_37">
      <g>
       <use xlink:href="#md39ac04d45" x="792.812969" y="164.170104" style="stroke: #000000; stroke-width: 0.8"/>
      </g>
     </g>
     <g id="text_43">
      <!-- 40 -->
      <g transform="translate(799.812969 167.968933) scale(0.1 -0.1)">
       <use xlink:href="#DejaVuSans-17"/>
       <use xlink:href="#DejaVuSans-13" transform="translate(63.625 0)"/>
      </g>
     </g>
    </g>
    <g id="ytick_19">
     <g id="line2d_38">
      <g>
       <use xlink:href="#md39ac04d45" x="792.812969" y="125.877285" style="stroke: #000000; stroke-width: 0.8"/>
      </g>
     </g>
     <g id="text_44">
      <!-- 60 -->
      <g transform="translate(799.812969 129.676113) scale(0.1 -0.1)">
       <use xlink:href="#DejaVuSans-19"/>
       <use xlink:href="#DejaVuSans-13" transform="translate(63.625 0)"/>
      </g>
     </g>
    </g>
    <g id="ytick_20">
     <g id="line2d_39">
      <g>
       <use xlink:href="#md39ac04d45" x="792.812969" y="87.584466" style="stroke: #000000; stroke-width: 0.8"/>
      </g>
     </g>
     <g id="text_45">
      <!-- 80 -->
      <g transform="translate(799.812969 91.383294) scale(0.1 -0.1)">
       <use xlink:href="#DejaVuSans-1b"/>
       <use xlink:href="#DejaVuSans-13" transform="translate(63.625 0)"/>
      </g>
     </g>
    </g>
    <g id="ytick_21">
     <g id="line2d_40">
      <g>
       <use xlink:href="#md39ac04d45" x="792.812969" y="49.291647" style="stroke: #000000; stroke-width: 0.8"/>
      </g>
     </g>
     <g id="text_46">
      <!-- 100 -->
      <g transform="translate(799.812969 53.090475) scale(0.1 -0.1)">
       <use xlink:href="#DejaVuSans-14"/>
       <use xlink:href="#DejaVuSans-13" transform="translate(63.625 0)"/>
       <use xlink:href="#DejaVuSans-13" transform="translate(127.25 0)"/>
      </g>
     </g>
    </g>
    <g id="ytick_22">
     <g id="line2d_41">
      <g>
       <use xlink:href="#md39ac04d45" x="792.812969" y="10.998828" style="stroke: #000000; stroke-width: 0.8"/>
      </g>
     </g>
     <g id="text_47">
      <!-- 120 -->
      <g transform="translate(799.812969 14.797656) scale(0.1 -0.1)">
       <use xlink:href="#DejaVuSans-14"/>
       <use xlink:href="#DejaVuSans-15" transform="translate(63.625 0)"/>
       <use xlink:href="#DejaVuSans-13" transform="translate(127.25 0)"/>
      </g>
     </g>
    </g>
    <g id="text_48">
     <!-- O$_2$ rate -->
     <g transform="translate(831.499102 143.019965) rotate(-90) scale(0.1 -0.1)">
      <use xlink:href="#DejaVuSans-32" transform="translate(0 0.78125)"/>
      <use xlink:href="#DejaVuSans-15" transform="translate(79.667969 -14.218701) scale(0.7)"/>
      <use xlink:href="#DejaVuSans-3" transform="translate(126.938477 0.78125)"/>
      <use xlink:href="#DejaVuSans-55" transform="translate(158.725586 0.78125)"/>
      <use xlink:href="#DejaVuSans-44" transform="translate(199.838867 0.78125)"/>
      <use xlink:href="#DejaVuSans-57" transform="translate(261.118164 0.78125)"/>
      <use xlink:href="#DejaVuSans-48" transform="translate(300.327148 0.78125)"/>
     </g>
     <!-- (mol O$_2$ $\cdot$ mol PSIIRC$^{-1}$ $\cdot$ s$^{-1}$) -->
     <g transform="translate(845.203398 195.669965) rotate(-90) scale(0.1 -0.1)">
      <defs>
       <path id="DejaVuSans-36" d="M 3425 4513 
L 3425 3897 
Q 3066 4069 2747 4153 
Q 2428 4238 2131 4238 
Q 1616 4238 1336 4038 
Q 1056 3838 1056 3469 
Q 1056 3159 1242 3001 
Q 1428 2844 1947 2747 
L 2328 2669 
Q 3034 2534 3370 2195 
Q 3706 1856 3706 1288 
Q 3706 609 3251 259 
Q 2797 -91 1919 -91 
Q 1588 -91 1214 -16 
Q 841 59 441 206 
L 441 856 
Q 825 641 1194 531 
Q 1563 422 1919 422 
Q 2459 422 2753 634 
Q 3047 847 3047 1241 
Q 3047 1584 2836 1778 
Q 2625 1972 2144 2069 
L 1759 2144 
Q 1053 2284 737 2584 
Q 422 2884 422 3419 
Q 422 4038 858 4394 
Q 1294 4750 2059 4750 
Q 2388 4750 2728 4690 
Q 3069 4631 3425 4513 
z
" transform="scale(0.015625)"/>
      </defs>
      <use xlink:href="#DejaVuSans-b" transform="translate(0 0.665625)"/>
      <use xlink:href="#DejaVuSans-50" transform="translate(39.013672 0.665625)"/>
      <use xlink:href="#DejaVuSans-52" transform="translate(136.425781 0.665625)"/>
      <use xlink:href="#DejaVuSans-4f" transform="translate(197.607422 0.665625)"/>
      <use xlink:href="#DejaVuSans-3" transform="translate(225.390625 0.665625)"/>
      <use xlink:href="#DejaVuSans-32" transform="translate(257.177734 0.665625)"/>
      <use xlink:href="#DejaVuSans-15" transform="translate(336.845703 -14.334326) scale(0.7)"/>
      <use xlink:href="#DejaVuSans-3" transform="translate(384.116211 0.665625)"/>
      <use xlink:href="#DejaVuSans-d4f" transform="translate(415.90332 0.665625)"/>
      <use xlink:href="#DejaVuSans-3" transform="translate(447.69043 0.665625)"/>
      <use xlink:href="#DejaVuSans-50" transform="translate(479.477539 0.665625)"/>
      <use xlink:href="#DejaVuSans-52" transform="translate(576.889648 0.665625)"/>
      <use xlink:href="#DejaVuSans-4f" transform="translate(638.071289 0.665625)"/>
      <use xlink:href="#DejaVuSans-3" transform="translate(665.854492 0.665625)"/>
      <use xlink:href="#DejaVuSans-33" transform="translate(697.641602 0.665625)"/>
      <use xlink:href="#DejaVuSans-36" transform="translate(757.944336 0.665625)"/>
      <use xlink:href="#DejaVuSans-2c" transform="translate(821.420898 0.665625)"/>
      <use xlink:href="#DejaVuSans-2c" transform="translate(850.913086 0.665625)"/>
      <use xlink:href="#DejaVuSans-35" transform="translate(880.405273 0.665625)"/>
      <use xlink:href="#DejaVuSans-26" transform="translate(944.887695 0.665625)"/>
      <use xlink:href="#DejaVuSans-c9c" transform="translate(1015.668945 41.965625) scale(0.7)"/>
      <use xlink:href="#DejaVuSans-14" transform="translate(1074.321289 41.965625) scale(0.7)"/>
      <use xlink:href="#DejaVuSans-3" transform="translate(1121.591797 0.665625)"/>
      <use xlink:href="#DejaVuSans-d4f" transform="translate(1153.378906 0.665625)"/>
      <use xlink:href="#DejaVuSans-3" transform="translate(1185.166016 0.665625)"/>
      <use xlink:href="#DejaVuSans-56" transform="translate(1216.953125 0.665625)"/>
      <use xlink:href="#DejaVuSans-c9c" transform="translate(1270.009766 41.965625) scale(0.7)"/>
      <use xlink:href="#DejaVuSans-14" transform="translate(1328.662109 41.965625) scale(0.7)"/>
      <use xlink:href="#DejaVuSans-c" transform="translate(1375.932617 0.665625)"/>
     </g>
    </g>
   </g>
   <g id="line2d_42">
    <path d="M 474.233159 236.090123 
L 477.418957 231.600466 
L 480.604755 227.275472 
L 483.790553 223.103499 
L 486.976351 219.075127 
L 490.162149 215.182623 
L 493.347947 211.419348 
L 496.533745 207.779398 
L 499.719544 204.257373 
L 502.905342 200.848251 
L 506.09114 197.547296 
L 509.276938 194.350012 
L 512.462736 191.252107 
L 515.648534 188.249472 
L 518.834332 185.338165 
L 522.02013 182.514403 
L 525.205928 179.774552 
L 528.391726 177.115124 
L 531.577525 174.532768 
L 534.763323 172.024271 
L 537.949121 169.586548 
L 541.134919 167.216644 
L 544.320717 164.911724 
L 547.506515 162.669074 
L 550.692313 160.486094 
L 553.878111 158.360295 
L 557.063909 156.289295 
L 560.249707 154.270815 
L 563.435506 152.302674 
L 566.621304 150.382787 
L 569.807102 148.509157 
L 572.9929 146.679876 
L 576.178698 144.893118 
L 579.364496 143.147134 
L 582.550294 141.440253 
L 585.736092 139.770874 
L 588.92189 138.137463 
L 592.107688 136.538551 
L 595.293487 134.972732 
L 598.479285 133.438654 
L 601.665083 131.935024 
L 604.850881 130.460597 
L 608.036679 129.014179 
L 611.222477 127.594624 
L 614.408275 126.20082 
L 617.594073 124.831709 
L 620.779871 123.486262 
L 623.965669 122.163489 
L 627.151468 120.86243 
L 630.337266 119.58216 
L 633.523064 118.321781 
L 636.708862 117.080419 
L 639.89466 115.857226 
L 643.080458 114.651377 
L 646.266256 113.462065 
L 649.452054 112.2885 
L 652.637852 111.129907 
L 655.82365 109.985526 
L 659.009449 108.854606 
L 662.195247 107.736404 
L 665.381045 106.630184 
L 668.566843 105.535211 
L 671.752641 104.450752 
L 674.938439 103.376072 
L 678.124237 102.310429 
L 681.310035 101.253074 
L 684.495833 100.203245 
L 687.681631 99.160163 
L 690.86743 98.123031 
L 694.053228 97.091027 
L 697.239026 96.063298 
L 700.424824 95.03896 
L 703.610622 94.017085 
L 706.79642 92.996704 
L 709.982218 91.976794 
L 713.168016 90.956273 
L 716.353814 89.933998 
L 719.539612 88.908755 
L 722.725411 87.879256 
L 725.911209 86.844136 
L 729.097007 85.801953 
L 732.282805 84.751193 
L 735.468603 83.690278 
L 738.654401 82.617587 
L 741.840199 81.531482 
L 745.025997 80.430348 
L 748.211795 79.312654 
L 751.397593 78.177014 
L 754.583392 77.022275 
L 757.76919 75.847596 
L 760.954988 74.65253 
L 764.140786 73.437088 
L 767.326584 72.201767 
L 770.512382 70.947546 
L 773.69818 69.675829 
L 776.883978 68.388362 
L 780.069776 67.087122 
L 783.255574 65.774197 
L 786.441373 64.451683 
L 789.627171 63.121592 
" clip-path="url(#pa17f52f8fa)" style="fill: none; stroke: #000000; stroke-width: 2; stroke-linecap: square"/>
   </g>
   <g id="patch_26">
    <path d="M 467.861562 240.755743 
L 467.861562 9.084187 
" style="fill: none; stroke: #000000; stroke-width: 0.8; stroke-linejoin: miter; stroke-linecap: square"/>
   </g>
   <g id="patch_27">
    <path d="M 792.812969 240.755743 
L 792.812969 9.084187 
" style="fill: none; stroke: #000000; stroke-width: 0.8; stroke-linejoin: miter; stroke-linecap: square"/>
   </g>
   <g id="patch_28">
    <path d="M 467.861562 240.755743 
L 792.812969 240.755743 
" style="fill: none; stroke: #000000; stroke-width: 0.8; stroke-linejoin: miter; stroke-linecap: square"/>
   </g>
   <g id="patch_29">
    <path d="M 467.861562 9.084187 
L 792.812969 9.084187 
" style="fill: none; stroke: #000000; stroke-width: 0.8; stroke-linejoin: miter; stroke-linecap: square"/>
   </g>
  </g>
 </g>
 <defs>
  <clipPath id="p2f90f28644">
   <rect x="44.103906" y="9.084187" width="324.951406" height="231.671555"/>
  </clipPath>
  <clipPath id="pa17f52f8fa">
   <rect x="467.861562" y="9.084187" width="324.951406" height="231.671555"/>
  </clipPath>
 </defs>
</svg>
